<svg width="1057" height="787" viewBox="0 0 1057 787" fill="none" xmlns="http://www.w3.org/2000/svg">
<g opacity="0.4">
<path d="M1056.06 691.617H0V692.145H1056.06V691.617Z" fill="#EBEBEB"/>
<path d="M950.247 725.602H880.293V726.13H950.247V725.602Z" fill="#EBEBEB"/>
<path d="M699.58 731.346H681.225V731.874H699.58V731.346Z" fill="#EBEBEB"/>
<path d="M878.181 706H837.649V706.528H878.181V706Z" fill="#EBEBEB"/>
<path d="M202.025 709.55H110.802V710.078H202.025V709.55Z" fill="#EBEBEB"/>
<path d="M234.214 709.55H220.844V710.078H234.214V709.55Z" fill="#EBEBEB"/>
<path d="M475.546 718.462H277.682V718.99H475.546V718.462Z" fill="#EBEBEB"/>
<path d="M500.596 597.416H92.7647C86.1114 597.416 80.7044 592.009 80.7044 585.356V12.0603C80.7044 5.40705 86.1114 0 92.7647 0H500.617C507.27 0 512.677 5.40705 512.677 12.0603V585.356C512.656 592.009 507.249 597.416 500.596 597.416ZM92.7647 0.528032C86.4071 0.528032 81.2324 5.70275 81.2324 12.0603V585.356C81.2324 591.713 86.4071 596.888 92.7647 596.888H500.617C506.974 596.888 512.149 591.713 512.149 585.356V12.0603C512.149 5.70275 506.974 0.528032 500.617 0.528032H92.7647Z" fill="#EBEBEB"/>
<path d="M957.449 597.416H549.597C542.944 597.416 537.537 592.009 537.537 585.356V12.0603C537.537 5.40705 542.944 0 549.597 0H957.449C964.103 0 969.51 5.40705 969.51 12.0603V585.356C969.51 592.009 964.103 597.416 957.449 597.416ZM549.597 0.528032C543.24 0.528032 538.065 5.70275 538.065 12.0603V585.356C538.065 591.713 543.24 596.888 549.597 596.888H957.449C963.807 596.888 968.982 591.713 968.982 585.356V12.0603C968.982 5.70275 963.807 0.528032 957.449 0.528032H549.597Z" fill="#EBEBEB"/>
<path d="M611.868 251.576L902.877 251.576V60.9987L611.868 60.9987V251.576Z" fill="#E6E6E6"/>
<path d="M602.979 251.576L898.719 251.576V60.9987L602.979 60.9987V251.576Z" fill="#F0F0F0"/>
<path d="M611.868 288.97L902.877 288.97V251.564L611.868 251.564V288.97Z" fill="#E6E6E6"/>
<path d="M588.2 288.97L883.94 288.97V251.564L588.2 251.564V288.97Z" fill="#F0F0F0"/>
<path d="M886.296 239.151V73.4336L615.416 73.4336V239.151L886.296 239.151Z" fill="#FAFAFA"/>
<path d="M825.209 239.134L790.612 73.4375H736.626L771.223 239.134H825.209Z" fill="white"/>
<path d="M880.547 226.779C881.033 226.779 881.434 226.378 881.434 225.892V81.5277C881.434 81.0419 881.033 80.6406 880.547 80.6406C880.061 80.6406 879.66 81.0419 879.66 81.5277V225.892C879.66 226.378 880.04 226.779 880.547 226.779Z" fill="#F0F0F0"/>
<path d="M759.628 239.134L725.031 73.4375H703.973L738.591 239.134H759.628Z" fill="white"/>
<path d="M616.998 239.153V73.4355H615.414V239.153H616.998Z" fill="#E6E6E6"/>
<path opacity="0.6" d="M600.035 92.1728H891.065L892.206 78.2539H601.197L600.035 92.1728Z" fill="#EBEBEB"/>
<path opacity="0.6" d="M600.035 114.983H891.065L892.206 101.085H601.197L600.035 114.983Z" fill="#EBEBEB"/>
<path opacity="0.6" d="M600.035 137.816H891.065L892.206 123.897H601.197L600.035 137.816Z" fill="#EBEBEB"/>
<path opacity="0.6" d="M600.035 160.627H891.065L892.206 146.708H601.197L600.035 160.627Z" fill="#EBEBEB"/>
<path opacity="0.6" d="M600.035 183.437H891.065L892.206 169.519H601.197L600.035 183.437Z" fill="#EBEBEB"/>
<path opacity="0.6" d="M600.035 206.248H891.065L892.206 192.351H601.197L600.035 206.248Z" fill="#EBEBEB"/>
<path d="M861.094 553.018H800.075V565.057H861.094V553.018Z" fill="#E6E6E6"/>
<path d="M684.981 691.62H696.239V414.783H684.981V691.62Z" fill="#E6E6E6"/>
<path d="M645.962 565.053H800.063V553.014H645.962V565.053Z" fill="#F5F5F5"/>
<path d="M861.094 618.853H800.075V630.892H861.094V618.853Z" fill="#E6E6E6"/>
<path d="M645.962 630.874H800.063V618.835H645.962V630.874Z" fill="#F5F5F5"/>
<path d="M861.094 421.368H800.075V433.407H861.094V421.368Z" fill="#E6E6E6"/>
<path d="M645.962 433.39H800.063V421.351H645.962V433.39Z" fill="#F5F5F5"/>
<path d="M861.094 487.183H800.075V499.222H861.094V487.183Z" fill="#E6E6E6"/>
<path d="M645.962 499.232H800.063V487.193H645.962V499.232Z" fill="#F5F5F5"/>
<path d="M839.096 691.621H850.354V414.784H839.096V691.621Z" fill="#E6E6E6"/>
<path d="M788.806 691.621H800.063V414.784H788.806V691.621Z" fill="#F5F5F5"/>
<path d="M645.962 691.621H657.22V414.784H645.962V691.621Z" fill="#F5F5F5"/>
<path d="M138.081 691.609H253.361L253.361 467.956H138.081L138.081 691.609Z" fill="#E6E6E6"/>
<path d="M168.865 691.618H138.07V660.738H201.138L168.865 691.618Z" fill="#FAFAFA"/>
<path d="M452.386 691.609H567.666V467.956H452.386V691.609Z" fill="#E6E6E6"/>
<path d="M138.083 680.982H479.256V467.953H138.083V680.982Z" fill="#FAFAFA"/>
<path d="M448.469 691.618H479.242V660.738H416.195L448.469 691.618Z" fill="#FAFAFA"/>
<path d="M161.95 600.653H455.368V547.343H161.95V600.653Z" fill="#F0F0F0"/>
<path d="M161.95 665.35H455.368V612.039H161.95V665.35Z" fill="#F0F0F0"/>
<path d="M217.718 553.04H399.594C404.937 553.04 409.267 548.71 409.267 543.367V542.712H208.066V543.367C208.066 548.71 212.396 553.04 217.718 553.04Z" fill="#FAFAFA"/>
<path d="M161.95 535.935H455.368V482.624L161.95 482.624V535.935Z" fill="#F0F0F0"/>
<path d="M217.718 488.325H399.594C404.937 488.325 409.267 483.996 409.267 478.652V477.997H208.066V478.652C208.066 483.996 212.396 488.325 217.718 488.325Z" fill="#FAFAFA"/>
<path d="M217.718 617.755H399.594C404.937 617.755 409.267 613.425 409.267 608.082V607.427H208.066V608.082C208.066 613.425 212.396 617.755 217.718 617.755Z" fill="#FAFAFA"/>
<path d="M156.439 251.576L447.449 251.576V60.9987L156.439 60.9987V251.576Z" fill="#E6E6E6"/>
<path d="M147.572 251.576L443.313 251.576V60.9987L147.572 60.9987V251.576Z" fill="#F0F0F0"/>
<path d="M156.439 288.97L447.449 288.97V251.564L156.439 251.564V288.97Z" fill="#E6E6E6"/>
<path d="M132.772 288.97L428.512 288.97V251.564L132.772 251.564V288.97Z" fill="#F0F0F0"/>
<path d="M430.873 239.157L430.873 73.4395L159.993 73.4395L159.993 239.157L430.873 239.157Z" fill="#FAFAFA"/>
<path d="M369.791 239.134L335.195 73.4375H281.209L315.805 239.134H369.791Z" fill="white"/>
<path d="M425.108 226.779C425.594 226.779 425.995 226.378 425.995 225.892V81.5277C425.995 81.0419 425.594 80.6406 425.108 80.6406C424.623 80.6406 424.221 81.0419 424.221 81.5277V225.892C424.221 226.378 424.623 226.779 425.108 226.779Z" fill="#F0F0F0"/>
<path d="M304.21 239.134L269.613 73.4375H248.555L283.152 239.134H304.21Z" fill="white"/>
<path d="M161.575 239.159L161.575 73.4414H159.991L159.991 239.159H161.575Z" fill="#E6E6E6"/>
<path opacity="0.6" d="M144.618 92.1728H435.627L436.767 78.2539H145.758L144.618 92.1728Z" fill="#EBEBEB"/>
<path opacity="0.6" d="M144.618 100.029H435.627L436.767 86.1104H145.758L144.618 100.029Z" fill="#EBEBEB"/>
<path opacity="0.6" d="M144.618 107.865H435.627L436.767 93.9668H145.758L144.618 107.865Z" fill="#EBEBEB"/>
<path opacity="0.6" d="M144.618 115.722H435.627L436.767 101.803H145.758L144.618 115.722Z" fill="#EBEBEB"/>
<path opacity="0.6" d="M144.618 123.559H435.627L436.767 109.661H145.758L144.618 123.559Z" fill="#EBEBEB"/>
<path opacity="0.6" d="M144.618 131.416H435.627L436.767 117.497H145.758L144.618 131.416Z" fill="#EBEBEB"/>
<path d="M202.806 461.121H212.86V348.988H202.806V461.121Z" fill="#F5F5F5"/>
<path d="M204.072 461.049H206.923V348.916H204.072V461.049Z" fill="#FAFAFA"/>
<path d="M208.105 461.049H209.225V348.916H208.105V461.049Z" fill="#FAFAFA"/>
<path d="M170.576 467.964H245.049C245.049 462.789 240.846 458.586 235.671 458.586H179.975C174.779 458.565 170.576 462.768 170.576 467.964Z" fill="#F0F0F0"/>
<path d="M189.732 418.602C191.317 418.602 192.626 417.293 192.626 415.709V342.186C192.626 340.602 191.317 339.292 189.732 339.292C188.148 339.292 186.839 340.602 186.839 342.186V415.709C186.839 417.293 188.148 418.602 189.732 418.602Z" fill="#F0F0F0"/>
<path d="M162.782 375.642H252.864L242.493 312.7H173.152L162.782 375.642Z" fill="#E0E0E0"/>
<path d="M528.032 787C754.204 787 937.553 776.296 937.553 763.091C937.553 749.886 754.204 739.182 528.032 739.182C301.86 739.182 118.511 749.886 118.511 763.091C118.511 776.296 301.86 787 528.032 787Z" fill="#F5F5F5"/>
<path d="M219.884 311.345L217.777 311.497L220.581 350.449L222.688 350.297L219.884 311.345Z" fill="#E37048"/>
<path d="M224.175 370.394L222.068 370.546L223.125 385.208L225.232 385.056L224.175 370.394Z" fill="#E37048"/>
<path d="M713.287 549.597H260.953C250.731 549.597 241.754 541.233 241.015 530.989L218.795 222.343C218.056 212.121 225.829 203.735 236.051 203.735H688.385C698.608 203.735 707.584 212.099 708.323 222.343L730.543 530.989C731.282 541.233 723.51 549.597 713.287 549.597Z" fill="#E37048"/>
<path d="M715.019 549.596H262.685C252.462 549.596 243.486 541.232 242.747 530.988L220.527 222.342C219.788 212.12 227.56 203.734 237.783 203.734H690.117C700.34 203.734 709.316 212.098 710.055 222.342L732.275 530.988C733.014 541.232 725.263 549.596 715.019 549.596Z" fill="#E37048"/>
<path opacity="0.5" d="M715.019 549.596H262.685C252.462 549.596 243.486 541.232 242.747 530.988L220.527 222.342C219.788 212.12 227.56 203.734 237.783 203.734H690.117C700.34 203.734 709.316 212.098 710.055 222.342L732.275 530.988C733.014 541.232 725.263 549.596 715.019 549.596Z" fill="white"/>
<path d="M690.793 213.05H238.459C237.952 213.05 237.445 213.071 236.938 213.113C225.385 214.064 227.729 231.658 239.409 231.658H692.503C704.183 231.658 703.993 214.064 692.292 213.113C691.806 213.071 691.3 213.05 690.793 213.05Z" fill="#E37048"/>
<path d="M250.245 222.343C250.414 224.708 248.639 226.609 246.295 226.609C243.929 226.609 241.902 224.708 241.733 222.343C241.564 219.977 243.338 218.076 245.682 218.076C248.027 218.076 250.076 219.998 250.245 222.343Z" fill="#FAFAFA"/>
<path d="M264.755 222.343C264.924 224.708 263.15 226.609 260.805 226.609C258.44 226.609 256.412 224.708 256.243 222.343C256.074 219.977 257.848 218.076 260.193 218.076C262.537 218.097 264.586 219.998 264.755 222.343Z" fill="#FAFAFA"/>
<path d="M279.244 222.343C279.413 224.708 277.639 226.609 275.295 226.609C272.929 226.609 270.901 224.708 270.732 222.343C270.563 219.977 272.338 218.076 274.682 218.076C277.026 218.076 279.075 219.998 279.244 222.343Z" fill="#FAFAFA"/>
<path d="M703.022 518.802H270.247C266.529 518.802 263.277 515.781 263.023 512.064L244.753 258.249C244.479 254.532 247.288 251.512 251.005 251.512H683.78C687.498 251.512 690.75 254.532 691.004 258.249L709.274 512.064C709.548 515.781 706.76 518.802 703.022 518.802Z" fill="white"/>
<path d="M520.703 422.109L513.648 324.275L492.316 311.434H433.578L441.561 422.109H520.703Z" fill="white"/>
<path d="M520.703 423.123H441.561C441.033 423.123 440.59 422.7 440.548 422.172L432.585 311.497C432.564 311.222 432.669 310.926 432.859 310.715C433.049 310.504 433.324 310.398 433.599 310.398H492.316C492.506 310.398 492.675 310.441 492.844 310.546L514.197 323.388C514.472 323.557 514.662 323.853 514.683 324.191L521.738 422.024C521.759 422.299 521.653 422.595 521.463 422.806C521.252 423.017 520.977 423.123 520.703 423.123ZM442.512 421.074H519.605L512.677 324.867L492.02 312.447H434.676L442.512 421.074Z" fill="#E37048"/>
<path d="M513.648 324.275L492.316 311.434L500.152 328.436L513.648 324.275Z" fill="#EBEBEB"/>
<path d="M500.152 329.472C499.771 329.472 499.391 329.239 499.222 328.88L491.386 311.856C491.196 311.455 491.302 310.969 491.64 310.674C491.978 310.378 492.464 310.336 492.844 310.568L514.197 323.41C514.535 323.621 514.725 324.001 514.683 324.402C514.641 324.804 514.345 325.142 513.965 325.247L500.447 329.429C500.342 329.45 500.257 329.472 500.152 329.472ZM494.639 314.011L500.722 327.19L511.198 323.959L494.639 314.011Z" fill="#E37048"/>
<path d="M466.717 361.302C466.886 363.773 465.027 365.78 462.577 365.78C460.127 365.78 457.951 363.773 457.782 361.302C457.613 358.831 459.472 356.824 461.922 356.824C464.372 356.824 466.527 358.831 466.717 361.302Z" fill="#E37048"/>
<path d="M495.716 361.302C495.885 363.773 494.027 365.78 491.577 365.78C489.105 365.78 486.951 363.773 486.782 361.302C486.613 358.831 488.472 356.824 490.922 356.824C493.393 356.824 495.547 358.831 495.716 361.302Z" fill="#E37048"/>
<path d="M503.911 390.301C503.383 390.301 502.94 389.899 502.898 389.35C502.37 382.169 491.112 376.318 477.763 376.318C468.935 376.318 460.993 378.937 457.043 383.183C455.29 385.063 454.488 387.09 454.635 389.223C454.678 389.794 454.255 390.279 453.685 390.322C453.115 390.364 452.629 389.942 452.587 389.371C452.397 386.689 453.41 384.07 455.544 381.789C459.852 377.163 468.364 374.27 477.763 374.27C492.4 374.27 504.334 380.838 504.946 389.202C504.989 389.773 504.566 390.258 503.996 390.301C503.954 390.279 503.933 390.301 503.911 390.301Z" fill="#E37048"/>
<path d="M450.242 352.24C449.989 352.24 449.735 352.155 449.545 351.965C449.123 351.585 449.102 350.93 449.482 350.529L453.96 345.692C454.34 345.269 454.995 345.248 455.396 345.629C455.818 346.009 455.839 346.663 455.459 347.065L450.982 351.902C450.791 352.113 450.517 352.24 450.242 352.24Z" fill="#E37048"/>
<path d="M501.799 352.24C501.546 352.24 501.292 352.156 501.102 351.966L495.928 347.129C495.505 346.749 495.484 346.094 495.885 345.693C496.266 345.27 496.92 345.249 497.322 345.651L502.496 350.487C502.919 350.867 502.94 351.522 502.539 351.924C502.349 352.114 502.074 352.24 501.799 352.24Z" fill="#E37048"/>
<path d="M427.199 443.968H431.972L438.858 453.113L438.203 443.968H443.019L444.202 460.506H439.386L432.543 451.424L433.197 460.506H428.382L427.199 443.968Z" fill="#E37048"/>
<path d="M446.356 452.248C446.166 449.545 446.757 447.454 448.151 445.933C449.545 444.433 451.594 443.673 454.276 443.673C457.022 443.673 459.198 444.412 460.803 445.891C462.408 447.369 463.295 449.439 463.485 452.1C463.633 454.043 463.422 455.627 462.852 456.853C462.281 458.099 461.415 459.049 460.233 459.746C459.05 460.443 457.55 460.781 455.713 460.781C453.854 460.781 452.291 460.485 451.024 459.894C449.756 459.303 448.7 458.352 447.855 457.064C446.99 455.796 446.504 454.191 446.356 452.248ZM451.488 452.29C451.615 453.959 451.995 455.163 452.671 455.881C453.347 456.62 454.213 456.979 455.29 456.979C456.389 456.979 457.212 456.62 457.761 455.902C458.311 455.184 458.522 453.896 458.395 452.058C458.289 450.495 457.888 449.354 457.212 448.636C456.536 447.918 455.649 447.559 454.572 447.559C453.537 447.559 452.735 447.918 452.164 448.657C451.573 449.397 451.362 450.601 451.488 452.29Z" fill="#E37048"/>
<path d="M473.433 443.968H481.037C482.537 443.968 483.762 444.179 484.712 444.58C485.663 444.982 486.465 445.573 487.12 446.333C487.775 447.094 488.282 447.981 488.62 448.995C488.958 450.008 489.169 451.065 489.253 452.205C489.38 453.979 489.274 455.352 488.936 456.324C488.599 457.295 488.113 458.119 487.437 458.774C486.761 459.429 486.043 459.872 485.219 460.083C484.121 460.379 483.107 460.527 482.199 460.527H474.595L473.433 443.968ZM478.819 447.727L479.474 456.767H480.72C481.798 456.767 482.537 456.641 482.98 456.408C483.424 456.176 483.741 455.753 483.952 455.162C484.163 454.571 484.226 453.62 484.121 452.29C483.994 450.537 483.614 449.333 483.001 448.699C482.389 448.044 481.417 447.727 480.087 447.727H478.819Z" fill="#E37048"/>
<path d="M501.525 457.781H495.716L495.104 460.506H489.887L494.914 443.968H500.49L507.903 460.506H502.56L501.525 457.781ZM500.194 454.212L497.934 448.255L496.561 454.212H500.194Z" fill="#E37048"/>
<path d="M505.58 443.968H521.125L521.421 448.044H516.204L517.091 460.506H511.98L511.093 448.044H505.876L505.58 443.968Z" fill="#E37048"/>
<path d="M533.038 457.781H527.229L526.617 460.506H521.4L526.427 443.968H532.003L539.416 460.506H534.073L533.038 457.781ZM531.707 454.212L529.447 448.255L528.074 454.212H531.707Z" fill="#E37048"/>
<path d="M747.04 249.504C748.919 248.553 751.179 247.328 753.249 246.188C755.361 245.026 757.473 243.801 759.543 242.555C763.683 239.999 767.844 237.486 771.815 234.698C779.799 229.185 787.297 223.081 794.013 216.428C794.9 215.625 795.64 214.717 796.463 213.872L797.667 212.584L798.28 211.929L798.575 211.612C798.66 211.528 798.639 211.549 798.597 211.591L798.533 211.697C798.238 212.267 798.491 212.098 798.597 211.549C798.744 211.021 798.85 210.176 798.892 209.247C799.019 205.402 798.28 200.587 797.35 195.898C795.471 186.414 792.619 176.677 789.81 167.131L798.026 163.54C803.159 172.728 807.446 182.085 810.931 192.265C812.6 197.419 814.121 202.593 814.564 208.93C814.649 210.556 814.691 212.246 814.395 214.231C814.079 216.174 813.593 218.519 811.819 221.159L811.459 221.645L811.185 222.004L810.868 222.405L810.213 223.187L808.904 224.771C808.017 225.806 807.193 226.925 806.243 227.897C798.956 235.986 790.866 243.125 782.206 249.335C777.898 252.482 773.505 255.46 768.942 258.185C766.661 259.557 764.359 260.888 762.015 262.176C759.649 263.486 757.389 264.648 754.685 265.915L747.04 249.504Z" fill="#FFB573"/>
<path d="M728.242 746.067C729.868 746.067 731.663 745.729 732.909 745.433C733.078 745.391 733.205 745.264 733.226 745.095C733.247 744.926 733.184 744.757 733.036 744.673C732.423 744.271 727.059 740.807 724.989 741.737C724.672 741.885 724.25 742.201 724.165 742.92C724.038 743.849 724.271 744.609 724.862 745.137C725.622 745.834 726.89 746.067 728.242 746.067ZM731.727 744.842C728.643 745.454 726.341 745.349 725.432 744.525C725.052 744.187 724.904 743.68 725.01 743.025C725.052 742.666 725.221 742.561 725.369 742.497C726.446 742.011 729.551 743.511 731.727 744.842Z" fill="#E37048"/>
<path d="M732.825 745.434C732.888 745.434 732.973 745.413 733.036 745.371C733.163 745.286 733.247 745.159 733.247 745.011C733.247 744.8 733.226 739.71 731.304 737.999C730.797 737.556 730.206 737.366 729.53 737.429C728.474 737.556 728.199 738.21 728.115 738.591C727.713 740.576 730.924 744.399 732.614 745.349C732.677 745.434 732.761 745.434 732.825 745.434ZM729.804 738.274C730.142 738.274 730.459 738.4 730.734 738.633C731.874 739.647 732.276 742.498 732.381 744.209C730.692 742.857 728.685 740.006 728.938 738.781C728.981 738.591 729.086 738.337 729.636 738.274C729.699 738.274 729.762 738.274 729.804 738.274Z" fill="#E37048"/>
<path d="M731.262 196.681C729.213 207.178 724.862 228.447 732.212 235.438C732.212 235.438 729.34 246.083 709.845 246.083C688.386 246.083 699.601 235.438 699.601 235.438C711.302 232.65 711.007 223.948 708.958 215.795L731.262 196.681Z" fill="#FFB573"/>
<path d="M695.482 239.662C692.124 240.127 694.975 231.404 696.348 230.496C699.517 228.405 740.386 225.448 740.133 230.411C739.964 232.544 738.971 236.705 737.176 238.121C735.38 239.557 724.883 235.269 695.482 239.662Z" fill="#263238"/>
<path d="M702.157 236.726C699.474 237.634 699.728 228.848 700.657 227.792C702.769 225.342 735.845 216.851 736.838 221.645C737.218 223.715 737.408 227.876 736.268 229.481C735.106 231.108 725.39 228.446 702.157 236.726Z" fill="#263238"/>
<path d="M689.843 177.756C689.589 177.778 689.315 177.672 689.146 177.461C686.78 174.567 683.697 174.863 683.675 174.863C683.211 174.905 682.809 174.588 682.746 174.124C682.704 173.659 683.021 173.258 683.485 173.194C683.654 173.173 687.498 172.814 690.434 176.384C690.73 176.743 690.667 177.271 690.308 177.566C690.181 177.672 690.012 177.735 689.843 177.756Z" fill="#263238"/>
<path d="M685.746 188.084C685.746 188.084 683.929 194.441 681.585 197.652C683.633 199.215 686.738 198.095 686.738 198.095L685.746 188.084Z" fill="#FF5652"/>
<path d="M686.78 185.527C686.928 186.942 686.274 188.167 685.344 188.273C684.415 188.358 683.549 187.28 683.401 185.865C683.253 184.45 683.908 183.225 684.837 183.119C685.767 183.014 686.633 184.091 686.78 185.527Z" fill="#263238"/>
<path d="M685.26 183.164L681.754 182.509C681.754 182.509 683.76 185.001 685.26 183.164Z" fill="#263238"/>
<path d="M753.397 745.031H735.697L737.091 704.056H754.791L753.397 745.031Z" fill="#FFB573"/>
<path d="M734.303 742.984H754.178C754.897 742.984 755.488 743.491 755.594 744.188L757.854 759.924C758.086 761.55 756.692 763.092 755.023 763.071C748.096 762.944 744.758 762.543 736.014 762.543C730.628 762.543 722.771 763.092 715.358 763.092C708.092 763.092 707.543 755.742 710.626 755.087C724.482 752.109 726.679 747.99 731.346 744.062C732.191 743.365 733.247 742.984 734.303 742.984Z" fill="#263238"/>
<g opacity="0.2">
<path d="M754.791 704.057H737.091L736.373 725.178H754.073L754.791 704.057Z" fill="black"/>
</g>
<path d="M683 259.982C672.059 255.694 661.604 251.026 651.212 245.725C640.821 240.402 630.619 234.763 620.798 227.201C618.347 225.279 615.94 223.167 613.574 220.717C612.983 220.083 612.391 219.492 611.821 218.774C611.208 218.014 610.744 217.57 609.962 216.387C608.526 214.338 607.428 211.572 607.132 208.762C606.857 205.953 607.364 203.25 608.167 201.116C608.97 198.941 610.026 197.146 611.145 195.604C613.363 192.52 615.834 190.218 618.305 188.169C623.248 184.072 628.486 181.093 633.724 178.305C636.343 176.911 639.004 175.665 641.708 174.504C644.432 173.321 647.072 172.244 649.966 171.251L653.726 179.383C644.517 185.191 634.97 191.57 627.958 198.73C626.247 200.504 624.768 202.363 623.818 203.989C622.804 205.658 622.825 206.904 622.994 206.798C623.079 206.798 623.036 206.756 623.29 207.009L624.135 207.918C624.451 208.298 624.895 208.678 625.296 209.079C626.965 210.621 628.908 212.184 630.999 213.663C635.181 216.641 639.807 219.429 644.58 222.048C649.332 224.688 654.233 227.222 659.238 229.63C669.186 234.404 679.515 238.987 689.632 243.169L683 259.982Z" fill="#FFB573"/>
<path d="M658.922 173.615L661.857 167.279L648.551 162.653C648.551 162.653 644.411 175.115 649.354 180.881C653.536 180.205 657.147 177.48 658.922 173.615Z" fill="#FFB573"/>
<path d="M661.836 153.571L651.212 150.509L648.551 162.654L661.836 167.279V153.571Z" fill="#FFB573"/>
<path d="M799.125 167.892L800.666 153.064L786.959 156.275C786.959 156.275 786.747 170.173 794.013 172.39L799.125 167.892Z" fill="#FFB573"/>
<path d="M794.077 142.695L785.142 146.856L786.98 156.297L800.667 153.066L794.077 142.695Z" fill="#FFB573"/>
<path d="M734.05 175.94C734.705 193.492 735.338 200.905 727.418 210.727C715.484 225.491 693.793 222.449 687.921 205.446C682.641 190.155 682.472 164.028 698.862 155.41C714.998 146.919 733.416 158.409 734.05 175.94Z" fill="#FFB573"/>
<path d="M726.404 210.705C743.639 203.27 754.96 187.577 750.165 163.034C745.582 139.547 729.741 137.245 723.193 142.103C716.646 146.982 700.319 139.716 690.54 147.953C673.579 162.231 689.61 177.629 697.975 186.753C702.959 196.997 709.507 217.992 726.404 210.705Z" fill="#263238"/>
<path d="M719.244 158.81C725.052 167.216 736.204 169.603 744.146 164.112C752.087 158.62 753.819 147.362 747.99 138.935C742.182 130.529 731.029 128.142 723.088 133.634C715.167 139.125 713.435 150.383 719.244 158.81Z" fill="#E37048"/>
<path d="M723.722 143.729C721.229 129.578 734.62 118.679 752.531 123.939C770.421 129.219 760.958 145.081 757.283 157.754C753.608 170.426 763.24 182.487 767.274 172.855C771.308 163.203 764.528 160.225 764.528 160.225C764.528 160.225 783.537 165.146 765.88 186.584C748.222 208.001 732.234 184.345 736.563 170.384C740.07 159.105 726.087 157.099 723.722 143.729Z" fill="#263238"/>
<path d="M705.832 149.074C697.658 144.808 683.823 141.365 675.945 154.608C672.228 160.881 673.664 169.372 673.664 169.372L697.721 170.977L705.832 149.074Z" fill="#263238"/>
<path d="M670.834 165.23C670.813 165.23 670.813 165.23 670.791 165.23C670.496 165.209 670.285 164.956 670.306 164.681C670.327 164.322 670.918 155.831 676.03 150.487C688.428 137.603 702.959 148.291 707.12 151.881C707.331 152.072 707.374 152.409 707.184 152.621C706.993 152.832 706.655 152.874 706.444 152.684C702.473 149.262 688.555 139.019 676.811 151.227C671.953 156.275 671.383 164.66 671.362 164.744C671.341 165.019 671.108 165.23 670.834 165.23Z" fill="#263238"/>
<path d="M700.91 186.036C700.889 189.458 699.347 192.795 697.404 195.076C694.49 198.498 691.131 196.808 690.371 193.027C689.674 189.627 690.371 183.734 694.046 181.685C697.7 179.637 700.953 182.129 700.91 186.036Z" fill="#FFB573"/>
<path d="M697.109 346.748C697.109 346.748 698.228 469.547 708.894 537.98C717.491 593.254 733.416 721.08 733.416 721.08H757.537C757.537 721.08 759.902 597.69 755.53 543.007C744.484 404.662 772.998 378.81 749.975 346.727H697.109V346.748Z" fill="#263238"/>
<path opacity="0.1" d="M697.109 346.748C697.109 346.748 698.228 469.547 708.894 537.98C717.491 593.254 733.416 721.08 733.416 721.08H757.537C757.537 721.08 759.902 597.69 755.53 543.007C744.484 404.662 772.998 378.81 749.975 346.727H697.109V346.748Z" fill="white"/>
<path opacity="0.3" d="M709.803 402.465C718.272 439.533 711.513 497.912 706.888 523.617C701.988 484.584 699.516 433.999 698.291 396.931C702.664 389.834 706.803 389.37 709.803 402.465Z" fill="black"/>
<path d="M730.121 721.565H760.853L762.458 710.794L729.952 709.695L730.121 721.565Z" fill="#E37048"/>
<path d="M738.887 243.084C741.78 237.339 757.304 233.728 765.816 233.728L772.174 261.946C772.174 261.946 755.256 287.059 748.222 284.398C739.9 281.272 732.698 255.398 738.887 243.084Z" fill="#E37048"/>
<path opacity="0.4" d="M738.887 243.084C741.78 237.339 757.304 233.728 765.816 233.728L772.174 261.946C772.174 261.946 755.256 287.059 748.222 284.398C739.9 281.272 732.698 255.398 738.887 243.084Z" fill="black"/>
<path d="M720.976 714.66C721.06 714.533 721.06 714.385 720.997 714.237C720.912 714.089 720.743 713.984 720.574 714.026C719.687 714.153 711.872 715.399 710.816 717.638C710.605 718.06 710.647 718.525 710.901 718.947C711.323 719.665 711.936 720.067 712.717 720.151C715.273 720.426 718.969 716.856 720.955 714.723C720.955 714.702 720.976 714.681 720.976 714.66ZM711.598 717.912C712.316 716.73 716.371 715.631 719.455 715.061C716.667 717.891 714.217 719.475 712.781 719.327C712.274 719.285 711.894 719.011 711.598 718.525C711.492 718.335 711.471 718.166 711.556 717.997C711.577 717.976 711.577 717.933 711.598 717.912Z" fill="#E37048"/>
<path d="M720.976 714.659C720.997 714.638 720.997 714.596 721.018 714.575C721.06 714.427 721.039 714.279 720.934 714.173C720.807 714.026 717.66 710.414 714.787 710.224C713.9 710.16 713.119 710.435 712.485 711.005C711.619 711.787 711.682 712.463 711.915 712.885C712.823 714.702 718.441 715.335 720.722 714.849C720.828 714.828 720.912 714.765 720.976 714.659ZM712.717 711.998C712.781 711.892 712.886 711.766 713.055 711.618C713.541 711.195 714.09 711.005 714.745 711.048C716.646 711.174 718.8 713.139 719.772 714.131C717.258 714.342 713.203 713.582 712.654 712.484C712.633 712.442 712.548 712.273 712.717 711.998Z" fill="#E37048"/>
<path d="M739.415 707.183L723.236 714.364L716.033 699.347L706.613 679.704L705.494 677.423L721.673 670.221L722.919 672.798L732.043 691.828L739.415 707.183Z" fill="#FFB573"/>
<path opacity="0.2" d="M732.043 691.827L716.034 699.346L706.613 679.704L722.919 672.797L732.043 691.827Z" fill="black"/>
<path d="M678.142 346.748C678.142 346.748 626.458 475.229 640.461 535.741C653.134 590.424 709.106 693.982 709.106 693.982L730.755 683.104C730.755 683.104 696.137 558.087 692.378 530.925C685.07 478.08 732.043 403.501 732.043 346.727L678.142 346.748Z" fill="#263238"/>
<path opacity="0.1" d="M678.142 346.748C678.142 346.748 626.458 475.229 640.461 535.741C653.134 590.424 709.106 693.982 709.106 693.982L730.755 683.104C730.755 683.104 696.137 558.087 692.378 530.925C685.07 478.08 732.043 403.501 732.043 346.727L678.142 346.748Z" fill="white"/>
<path d="M720.363 712.105L736.437 700.404C737.028 699.982 737.788 700.045 738.295 700.552L749.384 711.936C750.525 713.119 750.313 715.189 748.941 716.139C743.259 720.131 740.323 721.758 733.269 726.89C728.918 730.058 720.258 737.05 714.259 741.422C708.388 745.688 703.614 740.091 705.726 737.725C715.189 727.165 717.174 720.617 718.631 714.703C718.864 713.668 719.497 712.739 720.363 712.105Z" fill="#263238"/>
<path d="M707.712 698.564L735.655 685.786L732.086 674.401L702.157 688.046L707.712 698.564Z" fill="#E37048"/>
<path d="M691.85 241.649C689.526 235.65 669.334 229.06 659.217 226.779L654.761 260.066C654.761 260.066 671.298 283.849 678.564 281.864C687.139 279.561 696.834 254.512 691.85 241.649Z" fill="#E37048"/>
<path opacity="0.4" d="M691.85 241.649C689.526 235.65 669.334 229.06 659.217 226.779L654.761 260.066C654.761 260.066 671.298 283.849 678.564 281.864C687.139 279.561 696.834 254.512 691.85 241.649Z" fill="black"/>
<path d="M669.693 239.978C669.693 239.978 661.266 242.956 678.142 346.747C706.656 346.747 736.12 346.747 749.997 346.747C748.793 317.494 748.75 299.477 762.733 239.45C762.733 239.45 747.673 236.177 732.212 235.437C720.131 234.846 710.204 234.466 699.58 235.437C685.577 236.726 669.693 239.978 669.693 239.978Z" fill="#E37048"/>
<path opacity="0.4" d="M669.693 239.978C669.693 239.978 661.266 242.956 678.142 346.747C706.656 346.747 736.12 346.747 749.997 346.747C748.793 317.494 748.75 299.477 762.733 239.45C762.733 239.45 747.673 236.177 732.212 235.437C720.131 234.846 710.204 234.466 699.58 235.437C685.577 236.726 669.693 239.978 669.693 239.978Z" fill="black"/>
<path d="M751.074 342.545L754.305 348.986C754.559 349.493 753.967 350 753.143 350H677.783C677.128 350 676.6 349.684 676.558 349.282L675.903 342.861C675.861 342.418 676.41 342.038 677.128 342.038H749.891C750.44 341.995 750.905 342.207 751.074 342.545Z" fill="#E37048"/>
<path opacity="0.3" d="M751.074 342.545L754.305 348.986C754.559 349.493 753.967 350 753.143 350H677.783C677.128 350 676.6 349.684 676.558 349.282L675.903 342.861C675.861 342.418 676.41 342.038 677.128 342.038H749.891C750.44 341.995 750.905 342.207 751.074 342.545Z" fill="white"/>
<path d="M741.295 350.677H743.238C743.618 350.677 743.914 350.487 743.893 350.233L742.984 341.869C742.963 341.616 742.625 341.426 742.224 341.426H740.281C739.901 341.426 739.605 341.616 739.626 341.869L740.534 350.233C740.576 350.466 740.914 350.677 741.295 350.677Z" fill="#263238"/>
<path d="M694.067 350.677H696.01C696.39 350.677 696.686 350.487 696.665 350.233L695.757 341.869C695.736 341.616 695.398 341.426 694.996 341.426H693.053C692.673 341.426 692.377 341.616 692.399 341.869L693.307 350.233C693.328 350.466 693.666 350.677 694.067 350.677Z" fill="#263238"/>
</g>
</svg>
