<svg width="917" height="124" viewBox="0 0 917 124" fill="none" xmlns="http://www.w3.org/2000/svg">
<path d="M176.868 2.04078L149.317 122.447H102.379L88.4339 54.0807L74.4885 122.447H27.5505L0 2.04078H40.6456L51.5297 77.8898L67.856 2.04078H109.012L125.338 77.8898L136.222 2.04078H176.868Z" fill="white" fill-opacity="0.5"/>
<path d="M249.079 123.637C237.741 123.637 227.311 120.973 217.787 115.644C208.377 110.316 200.894 102.946 195.338 93.5358C189.783 84.1255 187.005 73.5248 187.005 61.7336C187.005 49.9425 189.783 39.3417 195.338 29.9315C200.894 20.5212 208.377 13.2084 217.787 7.99306C227.311 2.66435 237.741 0 249.079 0C260.417 0 270.791 2.66435 280.201 7.99306C289.611 13.2084 297.037 20.5212 302.479 29.9315C308.035 39.3417 310.813 49.9425 310.813 61.7336C310.813 73.5248 308.035 84.1255 302.479 93.5358C297.037 102.946 289.554 110.316 280.031 115.644C270.621 120.973 260.303 123.637 249.079 123.637ZM249.079 88.4339C256.562 88.4339 262.344 86.053 266.426 81.2911C270.507 76.4159 272.548 69.8968 272.548 61.7336C272.548 53.4571 270.507 46.938 266.426 42.1762C262.344 37.3009 256.562 34.8633 249.079 34.8633C241.483 34.8633 235.644 37.3009 231.562 42.1762C227.481 46.938 225.44 53.4571 225.44 61.7336C225.44 69.8968 227.481 76.4159 231.562 81.2911C235.644 86.053 241.483 88.4339 249.079 88.4339Z" fill="white" fill-opacity="0.5"/>
<path d="M384.976 122.447L362.357 79.2503H362.187V122.447H324.432V2.04078H380.554C390.304 2.04078 398.637 3.79812 405.553 7.3128C412.469 10.7141 417.628 15.4192 421.029 21.4282C424.544 27.3238 426.301 34.013 426.301 41.4959C426.301 49.5456 424.034 56.6884 419.499 62.9241C415.077 69.1598 408.671 73.6382 400.281 76.3592L426.471 122.447H384.976ZM362.187 54.0807H377.153C380.781 54.0807 383.502 53.2871 385.316 51.6998C387.13 49.9991 388.037 47.3915 388.037 43.8768C388.037 40.7022 387.073 38.208 385.146 36.3939C383.332 34.5799 380.667 33.6729 377.153 33.6729H362.187V54.0807Z" fill="white" fill-opacity="0.5"/>
<path d="M511.151 122.447L476.117 70.2369V122.447H438.363V2.04078H476.117V52.7202L510.64 2.04078H553.327L511.831 59.6929L556.048 122.447H511.151Z" fill="white" fill-opacity="0.5"/>
<path d="M810.737 43.3668C810.737 50.9631 808.98 57.8791 805.465 64.1148C801.951 70.2371 796.735 75.1123 789.819 78.7404C783.017 82.3684 774.74 84.1825 764.99 84.1825H750.024V122.447H712.27V2.04102H764.99C779.729 2.04102 791.01 5.78245 798.833 13.2653C806.769 20.7482 810.737 30.782 810.737 43.3668ZM760.738 54.4211C768.561 54.4211 772.473 50.7363 772.473 43.3668C772.473 35.9974 768.561 32.3126 760.738 32.3126H750.024V54.4211H760.738Z" fill="white" fill-opacity="0.5"/>
<path d="M917.268 2.04102V31.9725H885.296V122.447H847.542V31.9725H815.91V2.04102H917.268Z" fill="white" fill-opacity="0.5"/>
<path d="M644.903 35.6625C644.363 29.5774 643.824 24.3756 643.48 19.1738C643.431 18.3395 644.02 17.0635 644.707 16.6218C647.21 14.9533 648.584 11.4201 647.749 8.42657C647.21 6.51269 646.768 4.59881 646.13 2.29233C647.455 2.19419 648.387 2.04688 649.271 2.04688C665.858 2.04688 682.445 2.04688 699.032 2.04688C703.399 2.04688 703.743 2.43957 703.301 6.90529C702.369 15.6895 701.485 24.4737 700.455 33.2088C699.964 37.6255 699.375 37.969 695.008 37.969C688.285 37.9199 681.61 37.969 674.887 37.9199C672.679 37.8708 671.599 38.5579 671.648 41.0116C671.698 65.2541 671.698 89.4966 671.648 113.739C671.648 116.095 671.943 118.45 671.501 120.708C671.305 121.738 669.784 123.308 668.802 123.358C658.791 123.554 648.829 123.603 638.818 123.505C635.726 123.456 635.432 121.297 635.824 118.696C638.622 118.99 641.174 119.432 643.774 119.432C644.854 119.432 645.934 118.499 647.062 118.009C646.228 117.027 645.541 115.947 644.56 115.162C643.186 114.034 641.419 113.347 640.241 112.12C638.376 110.108 637.935 107.752 639.652 105.151C643.824 98.7716 647.799 92.2448 651.97 85.8652C653.246 83.9022 653.589 82.0864 652.559 79.9271C649.909 74.529 647.602 68.9347 644.707 63.6347C643.676 61.7208 641.272 60.5921 639.652 58.9726C639.063 58.3837 638.622 57.2059 638.769 56.4698C639.554 52.7402 640.928 49.1088 641.468 45.3301C642.106 41.0607 644.265 39.7848 649.811 39.5885C651.626 39.5395 653.982 40.6681 654.62 37.969C655.258 35.3681 653.786 33.6015 651.332 32.9635C650.35 32.7182 649.124 33.1598 648.093 33.6015C647.111 33.945 646.228 34.7301 644.903 35.6625Z" fill="white" fill-opacity="0.5"/>
<path d="M584.297 123.358C578.653 123.358 572.519 123.456 566.434 123.211C565.649 123.162 564.373 121.248 564.226 120.07C563.931 117.028 564.128 113.936 564.128 110.845C564.128 76.2965 564.128 41.7485 564.128 7.20046C564.128 2.14584 564.324 1.94956 569.28 1.99863C579.537 1.99863 589.793 2.09669 600.05 1.90039C600.001 29.5781 600.05 57.2067 600.05 84.8844C600.05 85.0316 600.001 85.326 599.902 85.4732C596.958 90.1843 593.915 94.7973 590.922 99.4593C589.548 101.57 588.027 102.993 585.18 103.287C580.715 103.778 580.224 104.759 581.107 109.225C582.04 113.838 583.168 118.353 584.297 123.358Z" fill="white" fill-opacity="0.5"/>
<path d="M614.771 37.9212C611.581 37.9212 609.128 38.2156 606.772 37.7739C605.741 37.5776 604.171 36.0073 604.171 35.0258C604.024 24.9166 604.073 14.8565 604.269 4.7473C604.269 3.8149 605.791 2.14634 606.674 2.09727C615.36 1.90097 623.997 1.99917 633.468 1.99917C630.524 5.92509 631.8 8.96766 633.812 12.1084C634.204 12.7463 633.517 14.3658 632.928 15.2982C628.61 22.2176 622.034 26.6834 615.605 31.2963C613.25 32.9157 612.317 34.8786 614.771 37.9212Z" fill="white" fill-opacity="0.5"/>
<path d="M600.099 100.146C600.099 103.827 600.099 107.458 600.099 111.139C600.099 114.231 600.001 117.322 600.099 120.365C600.197 123.015 598.921 124.045 596.418 123.898C593.719 123.8 591.02 124.045 588.419 123.702C589.794 114.77 591.707 105.937 600.099 100.146Z" fill="white" fill-opacity="0.5"/>
<path d="M620.955 36.2022H620.808C619.483 36.2022 618.452 35.1225 618.452 33.8466V33.6994C618.452 32.3744 619.532 31.3438 620.808 31.3438H620.955C622.28 31.3438 623.31 32.4234 623.31 33.6994V33.8466C623.36 35.1225 622.28 36.2022 620.955 36.2022Z" fill="white" fill-opacity="0.5"/>
</svg>
