<svg width="587" height="79" viewBox="0 0 587 79" fill="none" xmlns="http://www.w3.org/2000/svg">
<path d="M113.012 1.30399L95.4084 78.2393H65.4167L56.5061 34.5557L47.5955 78.2393H17.6038L0 1.30399H25.9711L32.9257 49.7689L43.3576 1.30399H69.6547L80.0866 49.7689L87.0412 1.30399H113.012Z" fill="white"/>
<path d="M159.153 79C151.908 79 145.243 77.2976 139.158 73.8927C133.145 70.4878 128.364 65.779 124.814 59.7662C121.265 53.7533 119.49 46.9798 119.49 39.4457C119.49 31.9115 121.265 25.138 124.814 19.1252C128.364 13.1123 133.145 8.4397 139.158 5.10729C145.243 1.70243 151.908 0 159.153 0C166.397 0 173.026 1.70243 179.038 5.10729C185.051 8.4397 189.796 13.1123 193.274 19.1252C196.823 25.138 198.598 31.9115 198.598 39.4457C198.598 46.9798 196.823 53.7533 193.274 59.7662C189.796 65.779 185.015 70.4878 178.93 73.8927C172.917 77.2976 166.325 79 159.153 79ZM159.153 56.5062C163.934 56.5062 167.629 54.9849 170.237 51.9422C172.845 48.8271 174.149 44.6616 174.149 39.4457C174.149 34.1573 172.845 29.9917 170.237 26.9491C167.629 23.834 163.934 22.2765 159.153 22.2765C154.299 22.2765 150.568 23.834 147.96 26.9491C145.352 29.9917 144.048 34.1573 144.048 39.4457C144.048 44.6616 145.352 48.8271 147.96 51.9422C150.568 54.9849 154.299 56.5062 159.153 56.5062Z" fill="white"/>
<path d="M245.986 78.2393L231.533 50.6382H231.425V78.2393H207.301V1.30399H243.161C249.391 1.30399 254.715 2.42687 259.134 4.67262C263.553 6.84594 266.85 9.85236 269.023 13.6919C271.269 17.459 272.392 21.7331 272.392 26.5144C272.392 31.658 270.943 36.2219 268.045 40.2063C265.22 44.1907 261.127 47.0523 255.766 48.7909L272.5 78.2393H245.986ZM231.425 34.5557H240.987C243.305 34.5557 245.044 34.0486 246.203 33.0344C247.362 31.9477 247.942 30.2815 247.942 28.0358C247.942 26.0073 247.326 24.4136 246.095 23.2545C244.935 22.0954 243.233 21.5158 240.987 21.5158H231.425V34.5557Z" fill="white"/>
<path d="M326.607 78.2393L304.222 44.879V78.2393H280.098V1.30399H304.222V33.6864L326.281 1.30399H353.556L327.042 38.1417L355.295 78.2393H326.607Z" fill="white"/>
<path d="M518.03 27.7085C518.03 32.5622 516.907 36.9813 514.661 40.9657C512.415 44.8777 509.083 47.9928 504.664 50.311C500.317 52.6292 495.029 53.7883 488.798 53.7883H479.236V78.2381H455.112V1.30273H488.798C498.216 1.30273 505.424 3.69338 510.423 8.47467C515.494 13.256 518.03 19.6672 518.03 27.7085ZM486.082 34.7718C491.08 34.7718 493.58 32.4174 493.58 27.7085C493.58 22.9997 491.08 20.6452 486.082 20.6452H479.236V34.7718H486.082Z" fill="white"/>
<path d="M586.099 1.30273V20.4279H565.67V78.2381H541.546V20.4279H521.334V1.30273H586.099Z" fill="white"/>
<path d="M412.837 22.2307C412.477 18.3368 412.133 15.0216 411.93 11.7063C411.899 11.159 412.274 10.3615 412.727 10.0644C414.338 8.98534 415.214 6.74913 414.651 4.8413C414.291 3.62154 414.01 2.38613 413.634 0.916163C414.494 0.837973 415.073 0.744145 415.652 0.744145C426.254 0.728507 436.857 0.728516 447.459 0.728516C450.258 0.728516 450.477 0.978716 450.18 3.82482C449.602 9.43884 449.023 15.0372 448.366 20.6356C448.038 23.4504 447.662 23.685 444.895 23.6694C440.61 23.6537 436.325 23.6694 432.056 23.6224C430.633 23.6068 429.96 24.029 429.976 25.6085C430.007 41.1057 429.992 56.5872 429.992 72.0844C429.992 73.5856 430.179 75.1025 429.913 76.5568C429.788 77.2293 428.803 78.2301 428.193 78.2457C421.813 78.3865 415.417 78.4021 409.037 78.3395C407.066 78.3239 406.863 76.9321 407.113 75.2745C408.896 75.4622 410.538 75.7437 412.196 75.7437C412.899 75.7437 413.587 75.1494 414.291 74.821C413.759 74.2112 413.306 73.5074 412.696 73.007C411.836 72.2877 410.694 71.8498 409.944 71.0523C408.755 69.7543 408.474 68.2531 409.553 66.6111C412.211 62.5296 414.76 58.3699 417.419 54.2728C418.232 53.0218 418.451 51.8489 417.778 50.4571C416.09 47.0012 414.604 43.4201 412.743 40.0579C412.071 38.8382 410.538 38.1188 409.506 37.0711C409.146 36.6958 408.849 35.9451 408.959 35.4604C409.475 33.0834 410.335 30.7533 410.679 28.3451C411.085 25.6085 412.462 24.7953 415.996 24.6702C417.137 24.6389 418.654 25.3583 419.076 23.6381C419.483 21.9805 418.529 20.8545 416.981 20.4323C416.371 20.2603 415.558 20.5574 414.917 20.8389C414.244 21.136 413.681 21.6521 412.837 22.2307Z" fill="white"/>
<path d="M374.119 78.2947C370.522 78.2947 366.613 78.3729 362.703 78.2009C362.187 78.1852 361.374 76.9342 361.311 76.1992C361.124 74.2445 361.249 72.2741 361.249 70.3037C361.249 48.223 361.249 26.1578 361.249 4.07703C361.249 0.855608 361.374 0.730497 364.548 0.746135C371.101 0.761773 377.653 0.808697 384.205 0.683594C384.174 18.3545 384.205 36.0253 384.205 53.6962C384.205 53.8057 384.158 53.9621 384.096 54.0559C382.219 57.0584 380.265 60.014 378.357 63.0008C377.481 64.3613 376.511 65.2527 374.697 65.456C371.836 65.7844 371.523 66.4099 372.102 69.2716C372.68 72.1803 373.399 75.0889 374.119 78.2947Z" fill="white"/>
<path d="M393.587 23.6858C391.555 23.6858 389.975 23.8735 388.458 23.6076C387.786 23.4825 386.801 22.466 386.785 21.8562C386.691 15.4133 386.722 8.95485 386.848 2.51201C386.863 1.91777 387.833 0.838763 388.364 0.838763C393.9 0.713659 399.436 0.760568 405.504 0.760568C403.611 3.26264 404.44 5.21739 405.707 7.21905C405.957 7.62564 405.519 8.65772 405.144 9.25197C402.392 13.6619 398.169 16.5236 394.072 19.4636C392.634 20.5113 392.024 21.7467 393.587 23.6858Z" fill="white"/>
<path d="M384.205 63.4551C384.205 65.8008 384.205 68.1308 384.205 70.4765C384.205 72.4469 384.142 74.4173 384.189 76.3876C384.236 78.0765 383.423 78.7334 381.828 78.6552C380.123 78.577 378.387 78.749 376.714 78.5301C377.621 72.8066 378.856 67.13 384.205 63.4551Z" fill="white"/>
<path d="M398.31 22.5788H396.684C396.262 22.5788 395.934 22.2347 395.934 21.8281V20.2018C395.934 19.7796 396.278 19.4512 396.684 19.4512H398.31C398.733 19.4512 399.061 19.7952 399.061 20.2018V21.8281C399.061 22.2347 398.733 22.5788 398.31 22.5788Z" fill="white"/>
</svg>
