<svg width="1474" height="1317" viewBox="0 0 1474 1317" fill="none" xmlns="http://www.w3.org/2000/svg">
<path d="M1431.01 951.999C1406.91 897.179 1360.62 851.429 1305.01 828.919C1247.1 805.469 1180.6 813.999 1119.6 806.149C1066.6 799.319 1028.4 775.669 996.76 733.619C966.45 693.329 939.28 648.709 889.76 630.069C850.6 615.349 806.08 619.429 767.16 634.779C695.42 662.999 641.25 723.119 595.63 782.999C553.98 837.689 520.01 897.569 442.97 899.519C365.93 901.469 292.49 857.519 214.88 869.159C112.29 884.559 26.88 969.959 8.95997 1071.62C-7.82003 1166.9 34.28 1259.32 106.61 1313.62H1349.83C1440.97 1217 1488.8 1083.39 1431.01 951.999Z" fill="#F7F0E3"/>
<path d="M307.16 1313.64H310.58C334.87 1286.71 353.318 1255.05 364.76 1220.64C383.9 1163.73 383.1 1104 362.49 1052.46C352.07 1026.46 337.03 1002.14 322.49 978.659C307.74 954.859 292.49 930.239 282.14 903.849C277.796 892.693 274.661 881.103 272.79 869.279C271.94 869.169 271.08 869.079 270.22 868.979C272.096 881.224 275.312 893.226 279.81 904.769C290.24 931.359 305.56 956.079 320.37 979.979C334.85 1003.37 349.83 1027.55 360.17 1053.39C380.56 1104.39 381.35 1163.5 362.39 1219.85C350.816 1254.66 331.992 1286.63 307.16 1313.64Z" fill="white"/>
<path d="M1343.82 1205.21C1369.44 1210.67 1394.13 1215.57 1418 1218.65C1418.41 1217.86 1418.8 1217.06 1419.21 1216.27C1395.14 1213.21 1370.21 1208.27 1344.35 1202.77C1304.95 1194.37 1262.35 1185.29 1220.01 1185.29C1193.82 1185.29 1167.77 1188.77 1142.71 1198.06C1133.18 1201.6 1124.02 1206.05 1115.35 1211.36C1092.72 1201.71 1069.97 1191.18 1047.44 1179.62C1063.79 1167.31 1080.31 1155.24 1097.02 1143.62C1221.02 1057.05 1335.41 1007.97 1445.95 994.039C1445.73 993.229 1445.5 992.419 1445.27 991.609C1334.43 1005.61 1219.76 1054.86 1095.58 1141.61C1078.58 1153.52 1061.66 1165.85 1044.97 1178.43C1019.37 1165.27 994.462 1150.79 970.35 1135.07C926.4 1106.27 874.11 1065.16 828.45 1010.54C1005.45 990.679 1185.55 965.669 1332.67 867.349C1338.25 863.609 1344.44 859.209 1350.85 854.219C1350.14 853.709 1349.43 853.219 1348.71 852.719C1342.57 857.479 1336.64 861.719 1331.28 865.269C1184.2 963.569 1003.71 988.389 826.53 1008.27C794.27 969.269 765.44 923.389 745.4 870.269C714.2 787.599 715.84 706.479 749.93 647.699C751.41 645.139 752.93 642.629 754.58 640.139C753.16 640.799 751.75 641.479 750.34 642.139C749.46 643.559 748.6 644.989 747.76 646.429C713.3 705.869 711.59 787.769 743.07 871.149C762.99 923.929 791.56 969.589 823.57 1008.53C813.31 1009.68 803.063 1010.82 792.83 1011.94C755.93 1016.02 717.83 1020.23 680.73 1024.94C667.21 1026.69 653.46 1028.72 639.73 1031.26C610.39 969.349 578.17 908.959 536.52 857.159C535.93 857.759 535.32 858.329 534.72 858.919C576.01 910.319 608.03 970.269 637.19 1031.74C577.5 1043.12 519.55 1064.52 488.61 1114.32C459.71 1160.83 459.74 1225.12 488.69 1305.4C489.69 1308.18 490.69 1310.92 491.77 1313.64H494.44C493.3 1310.64 492.16 1307.64 491.04 1304.55C462.36 1225.03 462.26 1161.47 490.73 1115.64C521.31 1066.43 578.94 1045.32 638.29 1034.07C648.74 1056 658.74 1078.06 668.64 1100L669.72 1102.39C704.25 1178.61 739.96 1252.16 786.72 1313.63H789.84C742.65 1252.05 706.74 1178.05 672 1101.36L670.92 1098.97C661.06 1077.21 651.14 1055.31 640.92 1033.59C654.34 1031.11 667.83 1029.12 681.09 1027.42C718.09 1022.65 756.25 1018.42 793.09 1014.42C803.863 1013.23 814.653 1012.03 825.46 1010.83C871.56 1066.31 924.46 1107.99 968.97 1137.12C992.818 1152.69 1017.44 1167.05 1042.75 1180.12C1000.22 1212.28 958.85 1246.12 918.47 1279.12C904.47 1290.56 890.34 1302.08 876.08 1313.68H880.08C893.533 1302.76 906.867 1291.88 920.08 1281.05C960.75 1247.78 1002.41 1213.69 1045.24 1181.34C1067.65 1192.87 1090.24 1203.34 1112.78 1213.01C1081.99 1232.59 1056.89 1262.91 1041.72 1299.74C1039.82 1304.35 1038.16 1309 1036.63 1313.68H1039.26C1040.71 1309.32 1042.26 1304.99 1044.03 1300.68C1059.25 1263.76 1084.55 1233.46 1115.58 1214.19C1178.5 1240.92 1240.33 1260.76 1293.47 1276.48L1295.47 1277.07C1317.86 1283.69 1340.76 1290.48 1361.01 1301.38C1361.58 1300.73 1362.15 1300.09 1362.71 1299.44C1342.13 1288.27 1318.89 1281.39 1296.17 1274.68L1294.17 1274.09C1241.58 1258.52 1180.46 1238.93 1118.17 1212.59C1126.25 1207.78 1134.75 1203.71 1143.56 1200.43C1208.44 1176.37 1280.37 1191.69 1343.82 1205.21Z" fill="white"/>
<path d="M112.88 1043.27C123.88 1088.47 118.99 1137.27 99.36 1177.2C86.5 1203.34 67.9301 1227.01 45.0601 1247.33C45.5101 1248.04 45.9801 1248.74 46.4401 1249.44C69.6801 1228.85 88.55 1204.84 101.6 1178.3C121.49 1137.87 126.49 1088.44 115.31 1042.68C106.57 1006.93 89.0101 976.678 64.7501 954.738C64.2101 955.368 63.67 956.008 63.14 956.648C86.99 978.228 104.27 1008.05 112.88 1043.27Z" fill="white"/>
<path d="M678.74 470.719C700.48 492.999 710.24 530.459 698.23 564.999C686.6 598.469 661.11 626.189 630.49 643.999C605.85 658.339 573.71 666.249 549.49 651.229C531.38 640.009 521.99 617.989 521.49 596.699C520.99 575.409 528.13 554.639 536.98 535.269C549.46 507.949 566.25 481.469 591.27 464.859C625.74 441.999 657.74 449.319 678.74 470.719Z" fill="#F7F0E3"/>
<path d="M390.01 80.52H209.67V0H390.01V80.52ZM213.42 76.77H386.26V3.70001H213.42V76.77Z" fill="#E9DDCA"/>
<path d="M272.74 157.56H92.35V77H272.74V157.56ZM96.15 153.81H268.94V80.75H96.1L96.15 153.81Z" fill="#E9DDCA"/>
<path d="M1416.11 243.409C1404.43 204.582 1383.89 168.892 1354.49 136.339C1325.09 103.785 1284.91 76.8587 1233.95 55.5587C1183.05 34.2787 1118.38 23.6387 1039.95 23.6387C977.377 23.6387 913.607 32.0786 848.64 48.9586C783.673 65.8386 727.237 89.952 679.33 121.299L741.61 292.299L708.23 319.299L756.64 333.529C804.42 308.522 847.953 290.362 887.24 279.049C926.527 267.735 968.223 262.109 1012.33 262.169C1056.46 262.169 1089.88 272.809 1112.57 294.089C1135.26 315.429 1146.57 341.089 1146.57 371.089C1146.57 407.409 1134.93 439.652 1111.66 467.819C1088.39 495.985 1062.62 524.482 1034.36 553.309C1014.77 573.309 995.767 593.955 977.36 615.249C958.981 636.527 942.661 659.499 928.62 683.859C914.285 708.754 902.876 735.223 894.62 762.739C886 790.932 881.71 822.545 881.75 857.579C881.75 868.889 881.99 882.339 882.65 897.999C882.76 900.879 882.91 903.699 883.08 906.479H837.32L887.26 940.249H1130.07C1128.74 931.55 1128.12 922.758 1128.22 913.959V891.389C1128.3 869.77 1132.67 848.382 1141.09 828.469C1149.75 807.677 1160.55 787.84 1173.31 769.279C1186.29 750.335 1200.74 732.446 1216.54 715.779C1232.47 698.839 1247.81 682.859 1262.54 667.839C1282.12 647.839 1302.34 626.559 1323.2 603.999C1343.71 581.917 1362.18 558.034 1378.41 532.639C1394.64 506.971 1407.9 479.541 1417.93 450.879C1428.35 421.465 1433.58 389.222 1433.62 354.149C1433.66 319.075 1427.82 282.162 1416.11 243.409Z" fill="#E37048" fill-opacity="0.8"/>
<path d="M960.92 250.248C917.247 250.248 876.04 255.695 837.3 266.588C798.56 277.482 755.537 295.055 708.23 319.308L631.83 113.908C679.117 83.6083 734.883 60.275 799.13 43.9083C863.377 27.5416 926.4 19.375 988.2 19.4083C1065.73 19.4083 1129.65 29.705 1179.94 50.2983C1230.23 70.8916 1269.94 96.9483 1299.07 128.468C1328.12 160.015 1348.42 194.558 1359.96 232.098C1371.5 269.638 1377.26 305.382 1377.24 339.328C1377.24 373.288 1372.07 404.495 1361.74 432.948C1351.79 460.731 1338.69 487.278 1322.68 512.068C1306.61 536.686 1288.35 559.8 1268.12 581.128C1247.52 602.962 1227.52 623.555 1208.12 642.908C1193.56 657.468 1178.41 672.935 1162.67 689.308C1147.08 705.415 1132.8 722.729 1119.94 741.088C1107.35 759.017 1096.68 778.215 1088.1 798.368C1079.79 817.601 1075.46 838.317 1075.38 859.268V881.098C1075.28 889.618 1075.9 898.131 1077.22 906.548H837.22C834.595 893.064 833.07 879.389 832.66 865.658C832.01 850.508 831.77 837.488 831.77 826.538C831.77 792.625 836.013 762.028 844.5 734.748C852.682 708.076 863.962 682.454 878.11 658.408C892.041 634.785 908.198 612.547 926.36 591.998C944.533 571.398 963.313 551.398 982.7 531.998C1010.57 504.132 1036.03 476.555 1059.1 449.268C1082.06 421.988 1093.56 390.782 1093.6 355.648C1093.6 326.528 1082.41 301.738 1059.99 281.078C1037.57 260.418 1004.54 250.248 960.92 250.248Z" fill="#E37048"/>
<path d="M1146.67 1176C1146.67 1219.78 1132.5 1253.58 1104.16 1277.39C1075.82 1301.2 1043.77 1313.13 1008.01 1313.16C972.19 1313.16 940.127 1301.24 911.82 1277.39C883.513 1253.54 869.357 1219.75 869.35 1176C869.35 1132.28 883.507 1098.49 911.82 1074.62C955.45 1037.8 1019.99 1029.62 1071.08 1055.43C1116.4 1078.37 1146.67 1124.93 1146.67 1176Z" fill="#E37048" fill-opacity="0.8"/>
<path d="M1099.17 1176C1099.17 1219.78 1085 1253.58 1056.66 1277.39C1028.32 1301.2 996.27 1313.13 960.51 1313.16C924.69 1313.16 892.627 1301.24 864.32 1277.39C836.013 1253.54 821.857 1219.75 821.85 1176C821.85 1132.28 836.007 1098.49 864.32 1074.62C892.633 1050.75 924.697 1038.83 960.51 1038.85C996.277 1038.85 1028.33 1050.77 1056.66 1074.62C1084.99 1098.47 1099.16 1132.26 1099.17 1176Z" fill="#E37048"/>
<path d="M380.361 555.454C383.023 541.259 373.674 527.594 359.479 524.933C345.284 522.271 331.619 531.621 328.957 545.815C326.296 560.01 335.645 573.675 349.84 576.337C364.035 578.999 377.7 569.649 380.361 555.454Z" fill="#D3DFFF"/>
<path d="M392.784 604.423C394.28 596.438 388.975 588.744 380.936 587.238C372.896 585.732 365.166 590.984 363.671 598.969C362.175 606.954 367.479 614.649 375.519 616.155C383.558 617.661 391.288 612.408 392.784 604.423Z" fill="#D3DFFF"/>
<path d="M362.896 491.698C403.104 451.49 403.104 386.299 362.896 346.091C322.687 305.882 257.497 305.882 217.288 346.091C177.08 386.299 177.08 451.49 217.288 491.698C257.497 531.907 322.687 531.907 362.896 491.698Z" fill="#D3DFFF"/>
<path d="M250.56 431.87C257.723 431.87 263.53 426.063 263.53 418.9C263.53 411.737 257.723 405.93 250.56 405.93C243.397 405.93 237.59 411.737 237.59 418.9C237.59 426.063 243.397 431.87 250.56 431.87Z" fill="white"/>
<path d="M290.09 431.87C297.253 431.87 303.06 426.063 303.06 418.9C303.06 411.737 297.253 405.93 290.09 405.93C282.927 405.93 277.12 411.737 277.12 418.9C277.12 426.063 282.927 431.87 290.09 431.87Z" fill="white"/>
<path d="M329.63 431.87C336.793 431.87 342.6 426.063 342.6 418.9C342.6 411.737 336.793 405.93 329.63 405.93C322.467 405.93 316.66 411.737 316.66 418.9C316.66 426.063 322.467 431.87 329.63 431.87Z" fill="white"/>
<path d="M216.34 1261.62L225.96 1298.71C227.279 1303.47 230.218 1307.63 234.27 1310.46C238.322 1313.28 243.234 1314.61 248.16 1314.21C279.71 1312.07 345.24 1304.34 382.86 1276.62L372.17 1223.17C320.45 1220.24 272.08 1223.12 230.17 1237.17C219.74 1240.75 213.65 1251.26 216.34 1261.62Z" fill="#102048"/>
<path d="M276.61 1291.14C276.339 1291.14 276.075 1291.05 275.859 1290.88C275.643 1290.72 275.485 1290.49 275.41 1290.23L262.49 1244C262.446 1243.84 262.433 1243.67 262.453 1243.51C262.473 1243.35 262.525 1243.19 262.606 1243.05C262.687 1242.91 262.795 1242.78 262.924 1242.68C263.054 1242.58 263.202 1242.5 263.36 1242.46C263.518 1242.41 263.684 1242.4 263.847 1242.42C264.011 1242.44 264.169 1242.49 264.312 1242.57C264.456 1242.65 264.582 1242.76 264.682 1242.89C264.783 1243.02 264.857 1243.17 264.9 1243.33L277.82 1289.58C277.875 1289.76 277.886 1289.96 277.851 1290.15C277.815 1290.34 277.735 1290.52 277.617 1290.68C277.499 1290.83 277.347 1290.95 277.172 1291.04C276.996 1291.12 276.804 1291.16 276.61 1291.16V1291.14Z" fill="white"/>
<path d="M304.53 1284.89C304.258 1284.89 303.993 1284.8 303.776 1284.64C303.559 1284.47 303.402 1284.24 303.33 1283.98L290.41 1237.73C290.321 1237.41 290.363 1237.07 290.526 1236.78C290.689 1236.49 290.96 1236.28 291.28 1236.19C291.6 1236.1 291.941 1236.14 292.23 1236.31C292.519 1236.47 292.731 1236.74 292.82 1237.06L305.74 1283.31C305.826 1283.63 305.783 1283.97 305.621 1284.26C305.458 1284.55 305.188 1284.76 304.87 1284.85C304.759 1284.88 304.645 1284.89 304.53 1284.89Z" fill="white"/>
<path d="M336.95 1061.14L216.75 1096.81L306.02 1219.13L434.18 1229.32L610.95 1154.57L543.77 1053.5L336.95 1061.14Z" fill="#FBC343"/>
<path d="M485.15 1078.13C749.15 999.988 791.55 1233.29 379.67 1275.76C365.12 1259.39 348.12 1230.98 341.37 1207.24L558.88 1106.73L485.15 1078.13Z" fill="#FBC343"/>
<path d="M496.36 1245.34C484.01 1241.34 472.18 1233.57 472.18 1233.57L429.74 1246.88L439.46 1293.03L483.53 1302.03C496.98 1277.43 497.74 1257.26 496.36 1245.34Z" fill="#F9B384"/>
<path d="M342.32 1208.86L340.43 1205.62C385.81 1179.25 502.03 1115.89 601.06 1097.21L601.75 1100.9C503.3 1119.47 387.52 1182.59 342.32 1208.86Z" fill="#E49B31"/>
<path d="M336.95 1061.14C91.24 1014.43 27.61 1250.56 439.48 1293C454.79 1275.95 465.978 1255.6 472.18 1233.54C408.92 1191.21 338.18 1150.97 260.65 1112.64L336.95 1061.14Z" fill="#FBC343"/>
<path d="M471.18 1235.15C459.49 1227.71 447.31 1219.85 434.41 1211.52C369.69 1169.73 296.32 1122.37 233.99 1095.36L235.49 1091.92C298.1 1119.05 371.6 1166.5 436.49 1208.37C449.38 1216.7 461.55 1224.56 473.23 1231.99L471.18 1235.15Z" fill="#E49B31"/>
<path d="M156.68 1178.22L153.4 1176.41C162.62 1159.71 177.4 1148.41 197.3 1142.94L198.3 1146.55C179.13 1151.86 165.52 1162.22 156.68 1178.22Z" fill="#E49B31"/>
<path d="M669.51 1164C660.67 1148 647.05 1137.64 627.88 1132.32L628.88 1128.71C648.79 1134.23 663.56 1145.49 672.78 1162.19L669.51 1164Z" fill="#E49B31"/>
<path d="M416.47 1291L413.74 1288.4C433.4 1267.35 445.47 1245.12 450.65 1220.46L454.32 1221.23C448.98 1246.58 436.61 1269.39 416.47 1291Z" fill="#E49B31"/>
<path d="M618.9 1231.59C587.42 1212.14 526.39 1245.75 511.07 1247.44C506.6 1247.94 501.44 1246.96 496.36 1245.34C497.76 1257.26 496.98 1277.43 483.55 1301.98L491.04 1303.5C491.04 1303.5 542.79 1322.5 597.69 1311.43C648.36 1301.24 643.65 1246.88 618.9 1231.59Z" fill="#102048"/>
<path d="M575.99 1295.21C575.861 1295.21 575.733 1295.19 575.61 1295.15C575.295 1295.05 575.032 1294.83 574.88 1294.53C574.728 1294.24 574.699 1293.9 574.8 1293.58C578.54 1281.74 580.17 1258.44 569.34 1242.79C569.206 1242.66 569.102 1242.51 569.035 1242.34C568.968 1242.16 568.94 1241.98 568.953 1241.79C568.966 1241.61 569.02 1241.43 569.11 1241.27C569.201 1241.11 569.326 1240.97 569.476 1240.86C569.627 1240.76 569.799 1240.68 569.981 1240.65C570.163 1240.62 570.35 1240.63 570.528 1240.68C570.706 1240.72 570.871 1240.81 571.012 1240.93C571.152 1241.05 571.264 1241.2 571.34 1241.37C582.69 1257.75 581.02 1282.02 577.13 1294.37C577.046 1294.61 576.892 1294.82 576.689 1294.97C576.486 1295.12 576.242 1295.2 575.99 1295.21Z" fill="white"/>
<path d="M551.3 1299.89C551.174 1299.89 551.049 1299.87 550.93 1299.83C550.773 1299.78 550.628 1299.7 550.501 1299.6C550.375 1299.49 550.271 1299.36 550.195 1299.22C550.118 1299.07 550.072 1298.92 550.057 1298.75C550.043 1298.59 550.061 1298.42 550.11 1298.27C553.85 1286.42 555.48 1263.13 544.65 1247.48C544.557 1247.34 544.491 1247.19 544.457 1247.03C544.422 1246.87 544.42 1246.7 544.45 1246.54C544.479 1246.38 544.541 1246.23 544.63 1246.09C544.719 1245.95 544.835 1245.83 544.97 1245.74C545.105 1245.65 545.258 1245.58 545.418 1245.55C545.579 1245.51 545.745 1245.51 545.906 1245.54C546.068 1245.57 546.222 1245.63 546.36 1245.72C546.498 1245.81 546.617 1245.92 546.71 1246.06C558.05 1262.44 556.38 1286.71 552.49 1299.06C552.404 1299.3 552.243 1299.52 552.029 1299.67C551.815 1299.81 551.56 1299.89 551.3 1299.89Z" fill="white"/>
<path d="M293.48 756.678C293.48 756.678 355.36 704.058 353.07 694.058C351.44 686.908 333.91 697.388 333.91 697.388C333.91 697.388 358.49 668.228 357.24 664.678C355.01 658.358 338 670.148 338 670.148C338 670.148 349.5 653.608 344 650.918C338.5 648.228 326.53 658.418 326.53 658.418C326.53 658.418 333.53 649.228 330.24 646.818C326.95 644.408 312.77 654.318 312.77 654.318C312.77 654.318 317.86 642.738 307.04 647.128C296.22 651.518 220.41 721.128 220.41 721.128L293.48 756.678Z" fill="#F9B384"/>
<path d="M318.8 694.27C318.488 694.269 318.188 694.151 317.96 693.94C307.34 684.24 302.65 681.88 290.96 678.27C290.792 678.232 290.633 678.159 290.495 678.057C290.356 677.954 290.24 677.824 290.154 677.675C290.068 677.526 290.014 677.36 289.994 677.189C289.975 677.018 289.992 676.844 290.043 676.68C290.094 676.515 290.179 676.363 290.292 676.232C290.405 676.102 290.543 675.997 290.699 675.922C290.854 675.848 291.024 675.807 291.196 675.801C291.368 675.796 291.54 675.826 291.7 675.89C303.84 679.62 308.7 682.06 319.7 692.09C319.889 692.26 320.022 692.483 320.081 692.73C320.14 692.978 320.122 693.237 320.029 693.474C319.937 693.711 319.775 693.914 319.564 694.056C319.353 694.198 319.104 694.273 318.85 694.27H318.8Z" fill="#E28B6D"/>
<path d="M300.16 722.81H299.98C299.653 722.763 299.358 722.588 299.159 722.323C298.96 722.059 298.874 721.727 298.92 721.4C300.13 712.7 302.92 707.26 307.29 704.77C311.07 702.65 315.99 702.87 321.9 705.42C322.205 705.552 322.445 705.8 322.567 706.11C322.689 706.419 322.683 706.764 322.55 707.069C322.417 707.374 322.169 707.614 321.86 707.736C321.55 707.858 321.205 707.852 320.9 707.72C315.74 705.49 311.57 705.229 308.51 706.949C304.87 708.949 302.51 713.95 301.38 721.74C301.339 722.035 301.193 722.305 300.969 722.502C300.745 722.698 300.458 722.808 300.16 722.81Z" fill="#E28B6D"/>
<path d="M297.24 670.208C297.069 670.206 296.901 670.17 296.744 670.101C296.588 670.032 296.447 669.933 296.33 669.808C296.098 669.574 295.968 669.258 295.968 668.928C295.968 668.599 296.098 668.283 296.33 668.048L311.86 653.408C312.101 653.18 312.423 653.058 312.755 653.067C313.087 653.076 313.402 653.217 313.63 653.458C313.858 653.7 313.981 654.022 313.972 654.354C313.962 654.686 313.821 655 313.58 655.228L298.05 669.858C297.832 670.07 297.544 670.195 297.24 670.208Z" fill="#E28B6D"/>
<path d="M311.62 675.209C311.375 675.207 311.137 675.134 310.933 674.999C310.729 674.863 310.57 674.671 310.473 674.446C310.377 674.222 310.348 673.974 310.39 673.733C310.432 673.492 310.543 673.268 310.71 673.089L325.63 657.549C325.741 657.421 325.877 657.317 326.03 657.243C326.182 657.169 326.348 657.126 326.518 657.119C326.687 657.111 326.857 657.138 327.015 657.197C327.174 657.257 327.319 657.348 327.442 657.466C327.564 657.584 327.661 657.725 327.727 657.881C327.793 658.037 327.826 658.205 327.825 658.375C327.824 658.545 327.789 658.712 327.721 658.868C327.653 659.023 327.554 659.163 327.43 659.279L312.52 674.819C312.404 674.942 312.265 675.039 312.11 675.106C311.955 675.173 311.789 675.208 311.62 675.209Z" fill="#E28B6D"/>
<path d="M326.3 684C325.984 683.995 325.682 683.874 325.45 683.66C325.209 683.432 325.068 683.119 325.057 682.787C325.045 682.456 325.165 682.134 325.39 681.89L337.09 669.34C337.319 669.113 337.627 668.984 337.95 668.979C338.272 668.974 338.584 669.093 338.82 669.313C339.056 669.532 339.198 669.834 339.217 670.156C339.236 670.478 339.129 670.795 338.92 671.04L327.22 683.6C327.102 683.726 326.959 683.826 326.801 683.895C326.643 683.963 326.473 683.999 326.3 684Z" fill="#E28B6D"/>
<path d="M527.24 1108.64L300.99 1117.39L275.99 911.138C275.99 911.138 351.73 839.288 380.87 812.838L430.07 810.318C582.74 879.688 557.74 966.338 527.24 1108.64Z" fill="#3A6BEA"/>
<path d="M430.07 810.318C430.07 810.318 604.74 825.248 659.74 944.888C713.61 1061.95 492.24 1103.64 492.24 1103.64L430.07 810.318Z" fill="#3A6BEA"/>
<path d="M230.47 835.999L302.63 748.189L235.15 707.299C207 726.869 152.57 771.199 106.44 821.399C96.2601 832.479 88.3001 845.399 84.3001 859.669C80.9524 871.343 80.2284 883.612 82.1801 895.599C87.1801 926.249 111.3 949.909 143.49 953.679C170.98 956.889 275.99 948.679 360.99 923.679L385.99 827.189C373.14 819.859 277.67 818.589 230.47 835.999Z" fill="#3A6BEA"/>
<g opacity="0.8">
<path d="M575.79 857.788L576.92 857.528L574.55 856.148C561.75 859.098 548.55 862.148 535.55 863.678C527.72 864.618 501.55 866.348 493.95 848.938C490.15 840.278 493.03 830.638 497.33 823.878L495.45 823.338C491.05 830.508 488.23 840.558 492.24 849.688C500.39 868.288 527.62 866.528 535.77 865.538C549.15 863.928 562.74 860.808 575.79 857.788Z" fill="white"/>
<path d="M657.29 992.719C648.95 989.499 640.29 986.169 631.29 987.019C615.39 988.529 601.79 1004.24 600.97 1022.02C600.41 1034.16 605.05 1046.89 613.89 1058.09L615.49 1057.09C606.84 1046.21 602.3 1033.85 602.84 1022.09C603.63 1005.17 616.47 990.259 631.46 988.839C640.08 988.039 648.12 991.129 656.63 994.419C659.63 995.599 662.76 996.779 665.9 997.789C666.06 997.179 666.22 996.579 666.36 995.969C663.28 994.999 660.26 993.869 657.29 992.719Z" fill="white"/>
<path d="M216.54 933.089C205.64 924.089 188.7 921.669 170.07 926.479C153.47 930.779 139.23 939.279 129.45 950.539C130.09 950.739 130.72 950.979 131.37 951.169C140.89 940.489 154.6 932.419 170.54 928.299C188.54 923.629 204.91 925.909 215.35 934.539C220.148 938.671 223.914 943.865 226.35 949.709L228.29 949.489C225.729 943.168 221.702 937.547 216.54 933.089Z" fill="white"/>
<path d="M117.98 809.078C138.41 804.008 158.35 796.879 176.73 786.289C183.68 782.289 191.52 777.188 197.04 769.698C202.91 761.698 204.86 752.229 202.26 744.309C201.233 741.271 199.487 738.526 197.17 736.309L195.73 737.489C197.901 739.534 199.53 742.087 200.47 744.919C202.89 752.259 201.04 761.119 195.53 768.599C190.22 775.809 182.53 780.779 175.8 784.679C158.45 794.679 139.7 801.578 120.43 806.568L117.98 809.078Z" fill="white"/>
</g>
<path d="M446.05 764.458V767.658L445.54 817.388L445.48 822.778C445.129 830.756 441.712 838.291 435.943 843.812C430.173 849.333 422.496 852.415 414.51 852.415C406.524 852.415 398.847 849.333 393.077 843.812C387.308 838.291 383.891 830.756 383.54 822.778L382.94 761.318L446.05 764.458Z" fill="#F9B384"/>
<path d="M446.02 767.66L445.51 817.39C417.87 806.14 406.51 776.22 406.51 776.22L446.02 767.66Z" fill="#102048"/>
<path d="M456.95 680.88C466.86 692.77 495.78 760.12 466.46 783.1C433.46 808.96 383.26 766.46 383.26 766.46L376.53 688L420.11 676.51L456.95 680.88Z" fill="#F9B384"/>
<path d="M354.32 676.559C354.32 676.559 257.66 726.979 336.48 872.309C346.6 890.969 369.02 899.119 388.2 890.009C393.06 887.689 397.39 884.393 400.92 880.327C404.45 876.26 407.105 871.51 408.719 866.372C410.333 861.235 410.871 855.82 410.3 850.465C409.729 845.11 408.061 839.93 405.4 835.249C392.51 812.349 380.06 782.859 385.4 760.909L354.32 676.559Z" fill="#102048"/>
<path d="M381.948 718.915C392.16 708.702 392.16 692.145 381.948 681.933C371.736 671.721 355.179 671.721 344.966 681.933C334.754 692.145 334.754 708.702 344.966 718.915C355.179 729.127 371.736 729.127 381.948 718.915Z" fill="#FBC343"/>
<path d="M395.62 731.84C392.79 715.53 391.07 704.34 407.56 695.93C407.56 695.93 465.67 706.5 476.76 684.58C487.85 662.66 470.95 628.05 435.56 652.09C344.96 634.39 332.81 719.18 360.28 747.44L387.39 743.28C388.687 743.08 389.93 742.624 391.049 741.938C392.167 741.252 393.137 740.35 393.903 739.285C394.669 738.22 395.216 737.014 395.511 735.735C395.805 734.457 395.843 733.133 395.62 731.84Z" fill="#102048"/>
<path d="M440.61 735.749C442.742 735.749 444.47 734.021 444.47 731.889C444.47 729.757 442.742 728.029 440.61 728.029C438.478 728.029 436.75 729.757 436.75 731.889C436.75 734.021 438.478 735.749 440.61 735.749Z" fill="#102048"/>
<path d="M466.76 722.868C468.892 722.868 470.62 721.14 470.62 719.008C470.62 716.877 468.892 715.148 466.76 715.148C464.628 715.148 462.9 716.877 462.9 719.008C462.9 721.14 464.628 722.868 466.76 722.868Z" fill="#102048"/>
<path d="M464.08 743.78C463.801 743.781 463.532 743.673 463.33 743.48C463.126 743.274 463.011 742.995 463.011 742.705C463.011 742.414 463.126 742.136 463.33 741.93C464.88 740.3 466.58 738.01 465.87 736.35C465.16 734.69 461.99 733.88 460.56 733.88C457.48 733.88 456 728.39 455.73 727.29C455.68 727.145 455.662 726.991 455.675 726.839C455.688 726.686 455.733 726.538 455.807 726.404C455.881 726.269 455.982 726.152 456.104 726.059C456.226 725.966 456.366 725.9 456.515 725.864C456.664 725.829 456.819 725.824 456.969 725.852C457.12 725.88 457.263 725.938 457.39 726.025C457.516 726.111 457.624 726.223 457.705 726.353C457.786 726.483 457.839 726.628 457.86 726.78C458.42 729.1 459.69 731.69 460.56 731.69C462.03 731.69 466.56 732.38 467.87 735.48C468.82 737.7 467.87 740.37 464.87 743.48C464.765 743.579 464.641 743.657 464.505 743.709C464.369 743.76 464.225 743.784 464.08 743.78Z" fill="#102048"/>
<path d="M464.28 758.439C464.062 758.439 463.849 758.373 463.67 758.249C456.4 753.339 449.05 757.459 448.98 757.499C448.856 757.571 448.719 757.617 448.577 757.636C448.435 757.655 448.29 757.645 448.152 757.608C448.014 757.571 447.884 757.507 447.77 757.42C447.657 757.332 447.561 757.223 447.49 757.099C447.347 756.846 447.309 756.548 447.384 756.268C447.459 755.987 447.641 755.747 447.89 755.599C448.24 755.399 456.5 750.769 464.89 756.439C465.01 756.519 465.113 756.621 465.193 756.741C465.274 756.861 465.329 756.995 465.357 757.137C465.385 757.278 465.385 757.423 465.356 757.565C465.327 757.706 465.271 757.84 465.19 757.959C465.089 758.107 464.953 758.229 464.795 758.312C464.636 758.396 464.459 758.439 464.28 758.439Z" fill="#102048"/>
<path d="M438.92 715.158C441.12 719.288 437.29 720.158 432.8 722.508C428.31 724.858 423.72 725.768 422.67 723.788C421.62 721.808 424.41 718.288 428.9 715.898C433.39 713.508 437.22 711.998 438.92 715.158Z" fill="#102048"/>
<path d="M455.28 707.69C456.28 711.38 459 709.77 463.01 708.69C467.02 707.61 470.25 705.63 469.78 703.87C469.31 702.11 465.7 701.53 461.7 702.58C457.7 703.63 454.53 704.84 455.28 707.69Z" fill="#102048"/>
<path opacity="0.4" d="M430.529 758.191C435.153 753.926 435.444 746.72 431.178 742.096C426.913 737.473 419.707 737.182 415.084 741.447C410.46 745.712 410.169 752.918 414.434 757.542C418.7 762.166 425.905 762.456 430.529 758.191Z" fill="#EB5D60"/>
<path d="M393.395 760.723C398.601 753.977 396.609 743.713 388.944 737.798C381.28 731.882 370.846 732.556 365.64 739.302C360.433 746.049 362.425 756.313 370.09 762.228C377.754 768.143 388.188 767.469 393.395 760.723Z" fill="#F9B384"/>
<path d="M386.3 755.67C386.011 755.67 385.734 755.555 385.529 755.35C385.325 755.146 385.21 754.869 385.21 754.58C385.22 753.003 384.841 751.448 384.107 750.053C383.372 748.657 382.305 747.464 381 746.58C379.971 745.845 378.777 745.375 377.523 745.209C376.27 745.044 374.995 745.188 373.81 745.63C373.558 745.685 373.294 745.65 373.066 745.53C372.837 745.411 372.657 745.215 372.559 744.977C372.46 744.739 372.448 744.473 372.525 744.227C372.602 743.981 372.763 743.769 372.98 743.63C374.498 743.054 376.135 742.859 377.746 743.063C379.357 743.267 380.893 743.863 382.22 744.8C383.822 745.882 385.132 747.343 386.036 749.052C386.939 750.761 387.408 752.666 387.4 754.6C387.395 754.887 387.276 755.161 387.07 755.361C386.864 755.561 386.587 755.672 386.3 755.67Z" fill="#102048"/>
<path d="M229.558 835.051L190.092 877.744L191.928 879.441L231.393 836.748L229.558 835.051Z" fill="#102048"/>
<path d="M507.6 1018.59L506.88 1016.2C535.61 1007.44 563.49 996.959 588.76 965.359L590.76 966.919C565 999.079 536.74 1009.71 507.6 1018.59Z" fill="#102048"/>
<path d="M525.07 921.779H280.66C271.87 921.779 264.74 929.479 264.74 938.989V1113.5C264.74 1123.01 271.87 1130.72 280.66 1130.72H525.07C533.86 1130.72 540.99 1123.01 540.99 1113.5V938.999C540.99 929.479 533.86 921.779 525.07 921.779Z" fill="#D3DFFF"/>
<path d="M415.74 1015.22C415.97 1015.23 416.196 1015.28 416.405 1015.38C416.614 1015.48 416.801 1015.61 416.957 1015.78C417.113 1015.95 417.235 1016.15 417.314 1016.36C417.393 1016.58 417.429 1016.81 417.42 1017.04V1035.46C417.436 1035.92 417.269 1036.37 416.954 1036.72C416.64 1037.06 416.203 1037.26 415.74 1037.28H389.96C389.497 1037.26 389.06 1037.06 388.746 1036.72C388.431 1036.37 388.264 1035.92 388.28 1035.46V1017C388.271 1016.77 388.307 1016.54 388.386 1016.32C388.466 1016.11 388.587 1015.91 388.743 1015.74C388.899 1015.57 389.087 1015.44 389.295 1015.34C389.504 1015.24 389.73 1015.19 389.96 1015.18H415.74M415.74 1010.18H389.96C388.171 1010.2 386.463 1010.93 385.21 1012.21C383.958 1013.49 383.264 1015.21 383.28 1017V1035.42C383.264 1037.21 383.958 1038.93 385.21 1040.21C386.463 1041.49 388.171 1042.22 389.96 1042.24H415.74C417.529 1042.22 419.238 1041.49 420.49 1040.21C421.742 1038.93 422.436 1037.21 422.42 1035.42V1017C422.436 1015.21 421.742 1013.49 420.49 1012.21C419.238 1010.93 417.529 1010.2 415.74 1010.18Z" fill="#1F3C88"/>
<path d="M1473.68 1311.13H0V1316.13H1473.68V1311.13Z" fill="#102048"/>
</svg>
