<svg width="31" height="31" viewBox="0 0 31 31" fill="none" xmlns="http://www.w3.org/2000/svg">
<path d="M15.4373 0C15.5397 0.027322 15.6422 0.0546459 15.7446 0.0819679C17.0015 0.403001 17.8689 1.64615 17.7186 2.91663C17.5615 4.26224 16.455 5.27998 15.1231 5.30047C13.7706 5.32096 12.6504 4.35103 12.4455 2.9781C12.2543 1.72129 13.1012 0.457645 14.358 0.102459C14.481 0.0683061 14.6039 0.0341525 14.7201 0C14.966 0 15.205 0 15.4373 0Z" fill="white"/>
<path d="M30.163 19.3777C30.1357 19.4187 30.1084 19.4529 30.0879 19.4938C29.883 19.89 29.4868 20.0949 29.0975 20.0061C28.674 19.9037 28.4008 19.5621 28.4008 19.1045C28.394 18.3395 28.4008 17.5745 28.4008 16.8095C28.4008 16.7138 28.4008 16.6182 28.4008 16.4884C27.6836 16.4884 26.9937 16.4884 26.3653 16.4884C26.2014 15.8737 26.0511 15.2999 25.894 14.7262C26.6932 14.7262 27.5265 14.7262 28.4008 14.7262C28.4008 14.6169 28.4008 14.5212 28.4008 14.4324C28.4008 13.6879 28.4008 12.9434 28.4008 12.192C28.4008 11.6593 28.6467 11.3109 29.1043 11.2016C29.521 11.106 29.883 11.3109 30.1289 11.7959C30.1357 11.8095 30.1562 11.8164 30.1699 11.83C30.1631 14.3505 30.163 16.8641 30.163 19.3777Z" fill="white"/>
<path d="M10.9627 25.3282C10.3753 25.3282 9.82882 25.3282 9.27555 25.3282C7.21273 25.3214 5.66222 23.7777 5.66222 21.7149C5.66222 19.9663 5.65538 18.2177 5.66222 16.4759C5.66905 15.6562 6.22231 14.9664 6.99416 14.7819C7.7865 14.5907 8.59932 14.9254 8.96134 15.6494C9.09795 15.9295 9.17992 16.2642 9.17992 16.5784C9.20041 18.1972 9.18675 19.816 9.18675 21.4348C9.18675 21.5441 9.18675 21.6466 9.18675 21.79C9.82881 21.79 10.4572 21.8105 11.0788 21.7832C11.4067 21.7695 11.6116 21.872 11.8302 22.1111C13.5856 24.0646 16.6457 24.0304 18.3874 22.0496C18.5582 21.8515 18.729 21.7764 18.9885 21.7832C19.6374 21.8037 20.2795 21.79 20.9762 21.79C20.9762 21.6739 20.9762 21.5715 20.9762 21.469C20.9762 19.8024 20.9694 18.1289 20.983 16.4622C20.9899 15.5879 21.6319 14.8707 22.4994 14.741C23.319 14.6112 24.1456 15.1166 24.4119 15.9295C24.4802 16.1275 24.5076 16.3529 24.5076 16.5647C24.5144 18.3133 24.5212 20.0619 24.5076 21.8037C24.5007 23.7572 22.9366 25.3146 20.983 25.3282C20.4024 25.3351 19.8287 25.3282 19.2071 25.3282C19.2071 25.4443 19.2071 25.5468 19.2071 25.6561C19.2071 26.8241 19.2071 27.9921 19.2071 29.1601C19.2071 29.809 18.8519 30.1642 18.2098 30.1642C16.1265 30.1642 14.0501 30.1642 11.9668 30.1642C11.3179 30.1642 10.9627 29.8159 10.9627 29.167C10.9627 28.0058 10.9627 26.8514 10.9627 25.6902C10.9627 25.581 10.9627 25.4717 10.9627 25.3282Z" fill="white"/>
<path d="M19.2153 10.321C19.2153 11.2227 19.2153 12.0765 19.2153 12.9371C16.4558 12.9371 13.7236 12.9371 10.9709 12.9371C10.9709 12.0833 10.9709 11.2363 10.9709 10.3142C10.8616 10.403 10.8001 10.4508 10.7455 10.5123C10.0078 11.25 9.27008 11.9809 8.53921 12.7186C8.32747 12.9371 8.12256 13.0328 7.79469 12.9918C7.42585 12.944 7.02967 12.9986 6.66083 13.0532C6.45591 13.0874 6.30564 13.0601 6.14854 12.9371C5.30839 12.2814 5.22642 11.0724 5.97778 10.2869C6.59935 9.64483 7.24142 9.02325 7.86983 8.38801C8.41627 7.84157 8.96954 7.29513 9.51598 6.74186C10.0761 6.17493 10.7318 5.75144 11.5036 5.52603C11.5924 5.49871 11.7564 5.53969 11.8179 5.608C13.6894 7.54786 16.4831 7.54786 18.3751 5.60117C18.4434 5.53286 18.6005 5.49871 18.6962 5.52603C19.3929 5.73095 20.0145 6.09297 20.5267 6.60525C21.7562 7.82108 22.9789 9.03691 24.1947 10.2664C24.9666 11.0519 24.8914 12.2472 24.0581 12.9166C23.8942 13.0464 23.7371 13.0806 23.5185 13.0464C23.1223 12.9849 22.7193 12.9576 22.3232 12.9918C22.05 13.0191 21.8792 12.944 21.7016 12.7664C20.9639 12.0218 20.2194 11.2773 19.4748 10.5396C19.3997 10.4781 19.3246 10.4167 19.2153 10.321Z" fill="white"/>
<path d="M14.5967 16.482C13.3945 16.482 12.1855 16.482 11.038 16.482C10.874 15.8741 10.7238 15.3072 10.5735 14.7334C13.5652 14.7334 16.598 14.7334 19.5898 14.7334C19.4395 15.3003 19.2824 15.8741 19.1185 16.482C17.9709 16.482 16.7619 16.482 15.5529 16.482C17.0351 16.9397 17.8958 18.1077 17.7182 19.4396C17.5338 20.8057 16.4272 21.7825 15.0885 21.7893C13.7497 21.7893 12.6363 20.8125 12.4519 19.4464C12.3153 18.4424 12.8276 16.9533 14.5967 16.482Z" fill="white"/>
<path d="M1.7691 14.7268C2.63657 14.7268 3.47672 14.7268 4.27589 14.7268C4.11879 15.3142 3.96853 15.8811 3.8046 16.489C3.17619 16.489 2.49313 16.489 1.78276 16.489C1.77593 16.6052 1.7691 16.694 1.7691 16.7896C1.7691 17.5478 1.7691 18.2991 1.7691 19.0573C1.7691 19.6311 1.40026 20.0272 0.887967 20.0272C0.37568 20.0272 0 19.6311 0 19.0573C0 16.7623 0 14.4672 0 12.1722C0 11.5984 0.355185 11.1954 0.874304 11.1954C1.40025 11.1886 1.7691 11.5916 1.7691 12.1858C1.7691 13.0123 1.7691 13.8456 1.7691 14.7268Z" fill="white"/>
</svg>
