<svg width="1920" height="1290" viewBox="0 0 1920 1290" fill="none" xmlns="http://www.w3.org/2000/svg">
<mask id="mask0_230_1944" style="mask-type:alpha" maskUnits="userSpaceOnUse" x="0" y="0" width="1920" height="1290">
<rect width="1920" height="1290" fill="#D9D9D9"/>
</mask>
<g mask="url(#mask0_230_1944)">
<rect x="-303" y="825.502" width="2378.58" height="495" transform="rotate(-20.3074 -303 825.502)" fill="#E37048" fill-opacity="0.05"/>
<path d="M1532.22 125.68L2034.38 9.77748L2055.36 93.1801L1532.21 223.822L1532.22 125.68Z" fill="#F2BCA9"/>
<path d="M329.581 897.004L-170.742 1020.63L-193.001 937.558L328.069 798.874L329.581 897.004Z" fill="#E37048"/>
<path d="M1700.74 202.68L2202.91 86.778L2223.89 170.181L1693.53 295.5L1700.74 202.68Z" fill="#D9D9D9"/>
<path d="M1361.48 455.376L1361.48 366.395L1692.92 293.4L1692.92 381.599L1361.48 455.376Z" stroke="#E37048"/>
<path d="M298.791 1057.38L298.791 968.395L630.233 895.4L630.233 983.599L298.791 1057.38Z" stroke="#E37048"/>
<path d="M1473.22 183.68L1975.38 67.7775L1996.36 151.18L1473.21 281.822L1473.22 183.68Z" fill="#E37048"/>
<path d="M290.581 962.004L-209.742 1085.63L-232.001 1002.56L289.069 863.874L290.581 962.004Z" fill="#E37048" fill-opacity="0.44"/>
</g>
</svg>
