<svg width="405" height="451" viewBox="0 0 405 451" fill="none" xmlns="http://www.w3.org/2000/svg">
<path d="M344.27 243.92L271.549 216.42C266.519 214.52 263.989 208.9 265.889 203.88L303.959 103.22C305.86 98.1904 311.48 95.6604 316.5 97.5604L362.62 115L384.41 165.3L356.819 238.26C354.909 243.29 349.289 245.82 344.27 243.92Z" fill="#F5F5F5"/>
<path d="M362.619 115L351.909 143.33C350.139 148 352.499 153.23 357.169 154.99L384.409 165.3L362.619 115Z" fill="#EBEBEB"/>
<path d="M351.329 145.96C351.329 145.96 348.369 152.7 355.339 157.91C355.599 158.11 355.879 158.28 356.159 158.45C359.479 160.43 381.319 173.45 381.519 172.91C381.739 172.33 384.399 165.3 384.399 165.3L357.159 155C357.159 155 350.449 152.2 351.329 145.96Z" fill="#E0E0E0"/>
<path d="M346.24 139.87C346.1 140.23 338.46 137.68 329.17 134.17C319.88 130.66 312.46 127.51 312.6 127.15C312.74 126.79 320.38 129.34 329.67 132.85C338.96 136.36 346.38 139.51 346.24 139.87Z" fill="#E0E0E0"/>
<path d="M361.909 164.11C361.769 164.47 349.259 160.08 333.969 154.3C318.679 148.52 306.389 143.53 306.529 143.17C306.669 142.81 319.169 147.2 334.469 152.98C349.759 158.76 362.049 163.74 361.909 164.11Z" fill="#E0E0E0"/>
<path d="M361.84 179.37C361.7 179.73 348.08 174.92 331.41 168.62C314.74 162.32 301.34 156.91 301.48 156.55C301.62 156.19 315.24 161 331.91 167.31C348.58 173.6 361.98 179 361.84 179.37Z" fill="#E0E0E0"/>
<path d="M357.07 191.99C356.93 192.35 343.31 187.54 326.64 181.24C309.97 174.94 296.57 169.53 296.71 169.17C296.85 168.81 310.47 173.62 327.14 179.93C343.8 186.22 357.21 191.62 357.07 191.99Z" fill="#E0E0E0"/>
<path d="M352.299 204.61C352.159 204.97 338.539 200.16 321.869 193.86C305.199 187.55 291.799 182.15 291.939 181.79C292.079 181.43 305.699 186.24 322.369 192.55C339.029 198.84 352.429 204.24 352.299 204.61Z" fill="#E0E0E0"/>
<path d="M347.519 217.231C347.379 217.591 333.759 212.781 317.089 206.481C300.419 200.171 287.019 194.771 287.159 194.411C287.299 194.051 300.919 198.861 317.589 205.171C334.259 211.461 347.659 216.861 347.519 217.231Z" fill="#E0E0E0"/>
<path d="M154.08 288.801L58.2099 322.371C54.8899 323.531 51.2599 321.781 50.0999 318.471L1.99991 181.101C0.839913 177.781 2.58991 174.151 5.89991 172.991L101.77 139.421C105.09 138.261 108.72 140.011 109.88 143.321L157.98 280.691C159.14 284.011 157.4 287.641 154.08 288.801Z" fill="#EBEBEB"/>
<path d="M103.01 147.962L10.2627 180.44L57.9406 316.593L150.688 284.115L103.01 147.962Z" fill="#E0E0E0"/>
<path d="M101.354 147.314L8.60645 179.792L55.3755 313.349L148.123 280.871L101.354 147.314Z" fill="#FAFAFA"/>
<path d="M148.11 280.87C147.72 279.75 128.89 226.14 101.22 147.36L101.39 147.44C73.2599 157.29 41.7899 168.32 8.65992 179.92H8.64992L8.73992 179.73C26.2199 229.9 42.4899 276.23 55.4799 313.29L55.3299 313.22C111.74 293.56 147.2 281.19 148.11 280.87C147.2 281.19 111.77 293.64 55.4099 313.46L55.2999 313.5L55.2599 313.39C42.2699 276.32 26.0399 229.99 8.46992 179.84L8.41992 179.7L8.55992 179.65H8.56992C41.6999 168.05 73.1799 157.04 101.31 147.19L101.44 147.15L101.48 147.28C128.99 226.1 147.72 279.76 148.11 280.87Z" fill="#E0E0E0"/>
<path d="M115.22 292.39C115.22 292.39 135.87 274.97 139.45 256.83C139.45 256.83 133.72 265.82 121.79 267.46C121.79 267.46 121.38 286.51 115.22 292.39Z" fill="#E0E0E0"/>
<path d="M44.2699 220.89L39.3899 222.6C37.6099 223.22 35.6599 222.29 35.0299 220.5L33.3199 215.62C32.6999 213.84 33.6299 211.89 35.4199 211.26L40.2999 209.55C42.0799 208.93 44.0299 209.86 44.6599 211.65L46.3699 216.53C46.9899 218.31 46.0599 220.27 44.2699 220.89Z" fill="#EBEBEB"/>
<path d="M39.7101 217.961C39.7101 217.961 39.7001 217.961 39.7101 217.961C39.6301 217.991 39.5401 217.981 39.4801 217.941L37.2401 216.641C37.1101 216.561 37.0601 216.391 37.1401 216.261C37.2201 216.131 37.3901 216.081 37.5201 216.161L39.4901 217.301L41.8501 212.251C41.9201 212.111 42.0801 212.051 42.2201 212.121C42.3601 212.191 42.4201 212.351 42.3501 212.491L39.8601 217.821C39.8401 217.881 39.7801 217.941 39.7101 217.961Z" fill="white"/>
<path d="M103.75 188.881C103.78 188.961 91.7297 193.241 76.8497 198.451C61.9597 203.661 49.8797 207.831 49.8497 207.751C49.8197 207.671 61.8697 203.391 76.7497 198.181C91.6397 192.971 103.73 188.811 103.75 188.881Z" fill="#E0E0E0"/>
<path d="M75.4698 208.1C75.4798 208.12 75.1698 208.25 74.5998 208.47C73.9798 208.7 73.1698 209 72.1798 209.37C70.1298 210.11 67.2998 211.12 64.1698 212.22C61.0298 213.32 58.1898 214.3 56.1298 214.99C55.1298 215.32 54.3098 215.59 53.6798 215.8C53.0998 215.98 52.7798 216.08 52.7698 216.06C52.7598 216.04 53.0698 215.91 53.6398 215.69C54.2598 215.46 55.0698 215.16 56.0598 214.79C58.1098 214.05 60.9398 213.04 64.0798 211.94C67.2098 210.84 70.0598 209.86 72.1198 209.17C73.1198 208.84 73.9398 208.57 74.5698 208.36C75.1398 208.17 75.4598 208.08 75.4698 208.1Z" fill="#E0E0E0"/>
<path d="M105.04 192.561C105.07 192.641 93.0197 196.921 78.1397 202.131C63.2497 207.341 51.1697 211.511 51.1397 211.431C51.1097 211.351 63.1597 207.071 78.0397 201.861C92.9297 196.651 105.01 192.481 105.04 192.561Z" fill="#E0E0E0"/>
<path d="M51.2396 240.79L46.3596 242.5C44.5796 243.12 42.6296 242.19 41.9996 240.4L40.2896 235.52C39.6696 233.74 40.5996 231.79 42.3896 231.16L47.2696 229.45C49.0496 228.83 50.9996 229.76 51.6296 231.55L53.3396 236.43C53.9596 238.21 53.0196 240.16 51.2396 240.79Z" fill="#EBEBEB"/>
<path d="M46.6798 237.86C46.6698 237.86 46.6698 237.86 46.6798 237.86C46.5998 237.89 46.5098 237.88 46.4498 237.84L44.2098 236.54C44.0798 236.46 44.0298 236.29 44.1098 236.16C44.1898 236.03 44.3598 235.98 44.4898 236.06L46.4598 237.2L48.8198 232.15C48.8898 232.01 49.0498 231.95 49.1898 232.01C49.3298 232.08 49.3898 232.24 49.3198 232.38L46.8298 237.71C46.8098 237.78 46.7498 237.83 46.6798 237.86Z" fill="white"/>
<path d="M110.719 208.78C110.749 208.86 98.6994 213.14 83.8194 218.35C68.9294 223.56 56.8494 227.73 56.8194 227.65C56.7894 227.57 68.8394 223.29 83.7194 218.08C98.6094 212.87 110.699 208.71 110.719 208.78Z" fill="#E0E0E0"/>
<path d="M82.4395 228C82.4495 228.02 82.1395 228.15 81.5695 228.37C80.9495 228.6 80.1395 228.9 79.1495 229.27C77.0995 230.01 74.2695 231.02 71.1395 232.12C67.9995 233.22 65.1595 234.2 63.0995 234.89C62.0995 235.22 61.2795 235.49 60.6495 235.7C60.0695 235.88 59.7495 235.98 59.7395 235.96C59.7295 235.94 60.0395 235.81 60.6095 235.59C61.2295 235.36 62.0395 235.06 63.0295 234.69C65.0795 233.95 67.9095 232.94 71.0495 231.84C74.1795 230.74 77.0295 229.76 79.0895 229.07C80.0895 228.74 80.9095 228.47 81.5395 228.26C82.1095 228.07 82.4295 227.98 82.4395 228Z" fill="#E0E0E0"/>
<path d="M112.009 212.46C112.039 212.54 99.9894 216.82 85.1094 222.03C70.2194 227.24 58.1394 231.41 58.1094 231.33C58.0794 231.25 70.1294 226.97 85.0094 221.76C99.8894 216.54 111.979 212.38 112.009 212.46Z" fill="#E0E0E0"/>
<path d="M58.2103 260.69L53.3303 262.4C51.5503 263.02 49.6003 262.09 48.9703 260.3L47.2603 255.42C46.6403 253.64 47.5703 251.69 49.3603 251.06L54.2403 249.35C56.0203 248.73 57.9703 249.66 58.6003 251.45L60.3103 256.33C60.9303 258.11 59.9903 260.06 58.2103 260.69Z" fill="#EBEBEB"/>
<path d="M53.6505 257.761C53.6405 257.761 53.6405 257.761 53.6505 257.761C53.5705 257.791 53.4805 257.781 53.4205 257.741L51.1805 256.441C51.0505 256.361 51.0005 256.191 51.0805 256.061C51.1605 255.931 51.3305 255.881 51.4605 255.961L53.4305 257.101L55.7905 252.051C55.8605 251.911 56.0205 251.851 56.1605 251.921C56.3005 251.991 56.3605 252.151 56.2905 252.291L53.8005 257.621C53.7705 257.681 53.7205 257.731 53.6505 257.761Z" fill="white"/>
<path d="M117.69 228.681C117.72 228.761 105.67 233.041 90.7901 238.251C75.9001 243.461 63.8201 247.631 63.7901 247.551C63.7601 247.471 75.8101 243.191 90.6901 237.981C105.58 232.771 117.66 228.611 117.69 228.681Z" fill="#E0E0E0"/>
<path d="M89.4102 247.89C89.4202 247.91 89.1102 248.04 88.5402 248.26C87.9202 248.49 87.1102 248.79 86.1202 249.16C84.0702 249.9 81.2402 250.91 78.1102 252.01C74.9702 253.11 72.1302 254.09 70.0702 254.78C69.0702 255.11 68.2502 255.38 67.6202 255.59C67.0402 255.77 66.7202 255.87 66.7102 255.85C66.7002 255.83 67.0102 255.7 67.5802 255.48C68.2002 255.25 69.0102 254.95 70.0002 254.58C72.0502 253.84 74.8802 252.83 78.0202 251.73C81.1502 250.63 84.0002 249.65 86.0602 248.96C87.0602 248.63 87.8802 248.36 88.5102 248.15C89.0702 247.97 89.4002 247.88 89.4102 247.89Z" fill="#E0E0E0"/>
<path d="M118.98 232.361C119.01 232.441 106.96 236.721 92.0801 241.931C77.1901 247.141 65.1101 251.311 65.0801 251.231C65.0501 251.151 77.1001 246.87 91.9801 241.66C106.86 236.44 118.95 232.281 118.98 232.361Z" fill="#E0E0E0"/>
<path d="M65.18 280.591L60.3 282.301C58.52 282.921 56.57 281.991 55.94 280.201L54.23 275.321C53.61 273.541 54.54 271.591 56.33 270.961L61.21 269.251C62.99 268.631 64.94 269.561 65.57 271.351L67.28 276.231C67.9 278.011 66.96 279.961 65.18 280.591Z" fill="#EBEBEB"/>
<path d="M60.6105 277.66C60.5305 277.69 60.4405 277.68 60.3805 277.64L58.1405 276.34C58.0105 276.26 57.9605 276.09 58.0405 275.96C58.1205 275.83 58.2905 275.78 58.4205 275.86L60.3905 277L62.7505 271.95C62.8205 271.81 62.9805 271.75 63.1205 271.82C63.2605 271.89 63.3205 272.05 63.2505 272.19L60.7605 277.52C60.7405 277.58 60.6805 277.63 60.6105 277.66Z" fill="white"/>
<path d="M124.66 248.58C124.69 248.66 112.64 252.94 97.7598 258.15C82.8698 263.36 70.7898 267.53 70.7598 267.45C70.7298 267.37 82.7798 263.09 97.6598 257.88C112.54 252.67 124.63 248.5 124.66 248.58Z" fill="#E0E0E0"/>
<path d="M96.3702 267.791C96.3802 267.811 96.0702 267.941 95.5002 268.161C94.8801 268.391 94.0702 268.691 93.0802 269.061C91.0302 269.801 88.2002 270.811 85.0702 271.911C81.9302 273.011 79.0902 273.991 77.0302 274.681C76.0302 275.011 75.2102 275.281 74.5802 275.491C74.0002 275.671 73.6802 275.771 73.6702 275.751C73.6602 275.731 73.9702 275.601 74.5402 275.381C75.1602 275.151 75.9702 274.851 76.9602 274.481C79.0102 273.741 81.8402 272.731 84.9802 271.631C88.1102 270.531 90.9602 269.551 93.0202 268.861C94.0202 268.531 94.8402 268.261 95.4702 268.051C96.0402 267.871 96.3702 267.771 96.3702 267.791Z" fill="#E0E0E0"/>
<path d="M125.95 252.26C125.98 252.34 113.93 256.62 99.0499 261.83C84.1599 267.04 72.0799 271.21 72.0499 271.13C72.0199 271.05 84.0699 266.77 98.9499 261.56C113.83 256.34 125.92 252.18 125.95 252.26Z" fill="#E0E0E0"/>
<path d="M19.1104 166.781L21.5604 173.771C22.9804 177.831 27.4204 179.961 31.4804 178.541L82.7803 160.581C86.8403 159.161 88.9704 154.721 87.5504 150.661L85.1104 143.681L19.1104 166.781Z" fill="#E0E0E0"/>
<path d="M52.7895 157.301C48.9895 158.631 44.8195 156.621 43.4895 152.821C42.1595 149.021 44.1695 144.851 47.9695 143.521C51.7695 142.191 55.9395 144.201 57.2695 148.001C58.5895 151.801 56.5795 155.971 52.7895 157.301ZM48.8895 146.171C46.5495 146.991 45.3095 149.561 46.1295 151.901C46.9495 154.241 49.5195 155.481 51.8595 154.661C54.1995 153.841 55.4395 151.271 54.6195 148.931C53.7995 146.591 51.2295 145.351 48.8895 146.171Z" fill="#E0E0E0"/>
<path d="M93.7903 175.441C93.8403 175.571 80.3103 180.431 63.5803 186.291C46.8503 192.151 33.2503 196.791 33.2003 196.661C33.1503 196.531 46.6803 191.671 63.4103 185.811C80.1403 179.951 93.7403 175.311 93.7903 175.441Z" fill="#E0E0E0"/>
<path d="M76.4598 177.931C76.5098 178.061 70.5498 180.271 63.1598 182.861C55.7698 185.451 49.7398 187.441 49.6898 187.311C49.6398 187.181 55.5998 184.971 62.9898 182.381C70.3898 179.791 76.4198 177.801 76.4598 177.931Z" fill="#E0E0E0"/>
<path d="M342.969 380.561C346.559 378.711 350.789 378.471 354.779 379.131C356.919 379.481 359.159 380.121 360.609 381.731C362.069 383.341 362.339 386.171 360.669 387.551C359.669 388.371 358.279 388.501 356.989 388.481C353.869 388.441 350.409 387.891 347.909 389.771C346.489 390.841 345.539 392.621 343.839 393.151C342.179 393.671 340.299 392.681 339.419 391.181C338.539 389.681 338.509 387.801 338.919 386.111C338.919 386.121 339.349 382.431 342.969 380.561Z" fill="#FF725E"/>
<path d="M334.74 364.681C336.94 367.821 341.2 366.781 343.18 364.861C345.16 362.951 346 360.171 346.76 357.521C348.5 351.471 350.25 345.131 348.96 338.971C348.57 337.131 347.88 335.291 346.59 333.931C345.3 332.561 343.31 331.751 341.49 332.231C339.34 332.801 338 334.911 337.03 336.911C334.19 342.801 332.68 349.341 332.66 355.881C332.66 358.951 333.02 362.151 334.74 364.681Z" fill="#FF725E"/>
<path d="M328.71 369.181C331.09 366.351 331.55 362.221 330.49 358.681C329.43 355.131 327.03 352.121 324.27 349.661C321.03 346.771 317.22 344.531 313.13 343.091C311.52 342.521 309.82 342.081 308.12 342.241C306.42 342.401 304.71 343.271 303.92 344.781C302.75 347.021 303.87 349.731 305.09 351.941C307.23 355.841 309.68 359.571 312.41 363.081C314.6 365.911 317.12 368.701 320.46 369.971C323.8 371.251 327.27 371.101 329.05 368.781" fill="#FF725E"/>
<path d="M334.6 411.991C334.64 411.991 334.71 411.481 334.8 410.561C334.9 409.521 335.03 408.221 335.18 406.671C335.36 405.031 335.6 403.091 336.06 400.961C336.51 398.841 337.22 396.551 338.13 394.231C339.07 391.921 340.22 389.821 341.57 388.141C342.9 386.451 344.46 385.231 345.92 384.531C347.37 383.811 348.68 383.521 349.58 383.391C350.49 383.301 351 383.221 351 383.181C351 383.141 350.49 383.131 349.56 383.161C348.63 383.221 347.28 383.461 345.74 384.151C344.2 384.831 342.55 386.071 341.15 387.801C339.74 389.521 338.55 391.661 337.59 394.021C336.66 396.391 335.96 398.701 335.53 400.861C335.1 403.021 334.9 404.991 334.77 406.641C334.65 408.291 334.6 409.631 334.58 410.551C334.54 411.481 334.56 411.991 334.6 411.991Z" fill="#263238"/>
<path d="M334.859 409.001C334.879 409.001 334.889 408.771 334.899 408.341C334.899 407.841 334.899 407.221 334.889 406.451C334.889 404.811 334.889 402.431 334.969 399.501C335.119 393.631 335.619 387.321 336.599 378.421C337.519 370.051 338.759 360.311 340.069 353.981C340.349 352.541 340.629 351.241 340.899 350.111C341.149 348.971 341.369 347.991 341.579 347.201C341.759 346.451 341.909 345.841 342.019 345.361C342.109 344.941 342.159 344.711 342.139 344.711C342.119 344.701 342.039 344.921 341.909 345.331C341.769 345.811 341.579 346.411 341.359 347.141C341.119 347.931 340.869 348.901 340.579 350.031C340.279 351.161 339.969 352.451 339.659 353.891C338.369 359.631 336.989 367.651 336.009 376.571C335.029 385.491 334.589 393.611 334.549 399.491C334.519 402.431 334.579 404.811 334.649 406.451C334.699 407.221 334.739 407.841 334.769 408.341C334.819 408.771 334.839 409.001 334.859 409.001Z" fill="#263238"/>
<path d="M334.899 393.341C334.939 393.341 334.929 392.641 334.889 391.361C334.819 390.091 334.639 388.261 334.289 386.011C333.909 383.771 333.379 381.101 332.549 378.211C332.189 376.891 331.339 373.721 329.289 368.981C326.589 362.561 322.909 357.321 319.709 354.071C318.959 353.211 318.129 352.591 317.459 351.981C317.109 351.691 316.809 351.401 316.499 351.171C316.189 350.951 315.899 350.751 315.629 350.571C314.579 349.851 313.989 349.471 313.969 349.511C313.879 349.641 316.329 351.081 319.419 354.371C322.499 357.661 326.069 362.871 328.759 369.231C330.259 372.681 331.299 375.761 332.039 378.371C332.899 381.241 333.459 383.871 333.889 386.091C334.299 388.321 334.529 390.131 334.679 391.391C334.779 392.641 334.859 393.341 334.899 393.341Z" fill="#263238"/>
<path d="M319.76 420.971L321.33 442.471H348.96L350.53 420.971H319.76Z" fill="#263238"/>
<path d="M353.83 412.491H317.1V420.971H353.83V412.491Z" fill="#263238"/>
<path d="M317.1 441.641V443.991H318.82H353.21V441.641H317.1Z" fill="#455A64"/>
<path d="M320.51 448.131L318.82 443.991H351.9L349.93 448.131H320.51Z" fill="#455A64"/>
<path d="M350.01 427.99C350.02 427.99 349.97 428.06 349.88 428.19C349.77 428.34 349.63 428.52 349.47 428.74C349.08 429.24 348.54 429.93 347.86 430.8L347.79 430.89L347.72 430.79C346.71 429.39 345.36 427.52 343.77 425.32H344C342.82 426.99 341.51 428.84 340.11 430.83L339.99 431L339.85 430.84C338.41 429.13 336.85 427.28 335.23 425.35H335.5C335.42 425.45 335.33 425.56 335.25 425.67C333.82 427.46 332.43 429.2 331.12 430.84L330.98 431.01L330.85 430.83C329.45 428.85 328.14 426.99 326.96 425.32L327.19 425.33C325.27 427.52 323.64 429.37 322.39 430.79L322.3 430.89L322.24 430.78C321.61 429.72 321.1 428.87 320.74 428.26C320.58 427.99 320.46 427.76 320.35 427.59C320.27 427.44 320.23 427.35 320.23 427.35C320.24 427.35 320.29 427.42 320.39 427.56C320.5 427.73 320.64 427.94 320.82 428.21C321.2 428.81 321.73 429.64 322.4 430.69L322.25 430.68C323.48 429.24 325.08 427.36 326.97 425.15L327.09 425.01L327.2 425.16C328.39 426.83 329.72 428.67 331.13 430.65L330.87 430.64C332.18 428.99 333.56 427.26 334.99 425.46C335.08 425.35 335.16 425.24 335.24 425.14L335.37 424.98L335.51 425.14C337.13 427.07 338.68 428.93 340.11 430.64L339.85 430.65C341.27 428.67 342.59 426.82 343.78 425.17L343.9 425.01L344.01 425.17C345.57 427.39 346.89 429.28 347.88 430.7H347.74C348.45 429.85 349.01 429.18 349.41 428.69C349.59 428.48 349.74 428.31 349.86 428.17C349.95 428.05 350.01 427.99 350.01 427.99Z" fill="#E0E0E0"/>
<path d="M350.91 420.82C350.91 420.92 343.99 420.99 335.45 420.99C326.91 420.99 319.99 420.91 319.99 420.82C319.99 420.73 326.91 420.65 335.45 420.65C343.99 420.65 350.91 420.73 350.91 420.82Z" fill="#455A64"/>
<path d="M352.309 444.23C352.309 444.33 344.789 444.4 335.509 444.4C326.229 444.4 318.709 444.32 318.709 444.23C318.709 444.14 326.229 444.06 335.509 444.06C344.779 444.05 352.309 444.13 352.309 444.23Z" fill="#263238"/>
<path d="M79.8198 375.631C79.7398 375.721 79.1097 375.351 78.4097 374.781C77.7097 374.221 77.1997 373.691 77.2797 373.591C77.3597 373.501 77.9897 373.881 78.6897 374.441C79.3897 375.001 79.8898 375.531 79.8198 375.631Z" fill="#263238"/>
<path d="M98.9699 347.002C99.0899 344.322 99.1599 341.582 98.3199 339.042C97.4799 336.502 95.5199 334.162 92.8899 333.622C89.8999 333.002 86.8299 334.892 85.1499 337.442C83.4699 339.992 82.8999 343.102 82.3999 346.112C78.9899 366.892 77.7299 388.022 78.6499 409.062L90.8999 410.782C96.2799 388.812 97.9999 369.602 98.9699 347.002Z" fill="#455A64"/>
<path d="M91.2004 333.521C91.2104 333.521 91.1904 333.591 91.1404 333.721C91.0904 333.871 91.0204 334.051 90.9404 334.281C90.7404 334.801 90.4704 335.501 90.1204 336.401C89.9504 336.861 89.7204 337.361 89.5404 337.931C89.3604 338.501 89.1604 339.121 88.9504 339.781C88.7404 340.451 88.5104 341.161 88.2604 341.911C88.0604 342.681 87.8504 343.491 87.6304 344.341C86.7104 347.731 85.9404 351.861 85.2604 356.461C84.6004 361.071 84.1604 366.171 83.8204 371.531C83.1904 382.261 83.1004 392.001 82.8204 399.041C82.6904 402.561 82.5704 405.411 82.4304 407.381C82.3704 408.331 82.3104 409.091 82.2804 409.641C82.2604 409.881 82.2404 410.071 82.2304 410.231C82.2204 410.361 82.2104 410.431 82.2004 410.431C82.1904 410.431 82.1904 410.361 82.1904 410.231C82.1904 410.071 82.1904 409.881 82.2004 409.641C82.2204 409.091 82.2404 408.331 82.2704 407.371C82.3504 405.401 82.4304 402.551 82.5204 399.031C82.7204 391.991 82.7704 382.251 83.3904 371.501C83.7304 366.131 84.1804 361.021 84.8704 356.401C85.5704 351.791 86.3704 347.661 87.3404 344.261C87.5704 343.411 87.7904 342.601 88.0004 341.831C88.2504 341.081 88.5004 340.371 88.7204 339.701C88.9504 339.041 89.1604 338.421 89.3504 337.851C89.5404 337.281 89.7804 336.791 89.9704 336.331C90.3504 335.451 90.6504 334.751 90.8604 334.241C90.9604 334.021 91.0404 333.851 91.1004 333.701C91.1604 333.581 91.1904 333.521 91.2004 333.521Z" fill="#263238"/>
<path d="M92.3301 333.531C92.3301 333.531 93.0801 334.301 93.8301 336.061C94.6001 337.811 95.0801 340.591 94.9501 343.981C94.6201 350.751 94.0202 360.071 93.2102 370.371C92.4002 380.671 91.5001 389.971 90.7801 396.701C90.4201 400.061 90.1102 402.781 89.8802 404.661C89.7602 405.571 89.6702 406.291 89.6002 406.821C89.5702 407.041 89.5401 407.231 89.5201 407.381C89.5001 407.511 89.4802 407.571 89.4802 407.571C89.4702 407.571 89.4702 407.501 89.4802 407.381C89.4902 407.231 89.5001 407.041 89.5201 406.811C89.5701 406.281 89.6301 405.551 89.7201 404.641C89.9001 402.721 90.1702 400.001 90.4902 396.661C91.1302 389.931 91.9802 380.621 92.7902 370.321C93.5902 360.031 94.2502 350.701 94.6502 343.961C94.8202 340.591 94.4002 337.861 93.6802 336.111C92.9802 334.371 92.2801 333.561 92.3301 333.531Z" fill="#263238"/>
<path d="M100.82 365.221C100.78 365.331 99.7403 365.071 98.5003 364.621C97.2603 364.171 96.2903 363.721 96.3303 363.611C96.3703 363.501 97.4103 363.761 98.6503 364.211C99.8903 364.651 100.86 365.111 100.82 365.221Z" fill="#263238"/>
<path d="M102.3 352.741C102.35 352.851 101.36 353.401 100.09 353.971C98.8201 354.541 97.7501 354.911 97.7001 354.801C97.6501 354.691 98.6401 354.141 99.9101 353.571C101.18 353.001 102.25 352.631 102.3 352.741Z" fill="#263238"/>
<path d="M101.53 342.551C101.52 342.671 100.7 342.711 99.7004 342.641C98.7004 342.571 97.9004 342.421 97.9004 342.301C97.9104 342.181 98.7304 342.141 99.7304 342.211C100.73 342.281 101.54 342.431 101.53 342.551Z" fill="#263238"/>
<path d="M88.8901 336.031C88.7901 336.091 88.2501 335.431 87.6901 334.541C87.1301 333.651 86.7601 332.881 86.8601 332.811C86.9601 332.751 87.5001 333.411 88.0601 334.301C88.6301 335.191 89.0001 335.961 88.8901 336.031Z" fill="#263238"/>
<path d="M84.72 342.191C84.72 342.311 83.94 342.391 82.98 342.371C82.02 342.351 81.25 342.241 81.25 342.111C81.25 341.991 82.03 341.911 82.99 341.931C83.95 341.951 84.72 342.071 84.72 342.191Z" fill="#263238"/>
<path d="M81.7203 354.512C81.6703 354.622 80.8603 354.402 79.8903 354.012C78.9203 353.622 78.1803 353.212 78.2203 353.102C78.2703 352.992 79.0803 353.212 80.0503 353.602C81.0203 353.992 81.7603 354.402 81.7203 354.512Z" fill="#263238"/>
<path d="M81.3999 364.871C81.4199 364.991 80.7299 365.231 79.8399 365.421C78.9499 365.611 78.2199 365.661 78.1899 365.541C78.1699 365.421 78.8599 365.181 79.7499 364.991C80.6399 364.811 81.3699 364.761 81.3999 364.871Z" fill="#263238"/>
<path d="M79.9898 381.831C80.0098 381.951 79.2698 382.181 78.3398 382.351C77.3998 382.521 76.6298 382.561 76.6098 382.441C76.5898 382.321 77.3298 382.091 78.2598 381.921C79.1898 381.751 79.9698 381.711 79.9898 381.831Z" fill="#263238"/>
<path d="M79.0499 391.191C79.1099 391.301 78.49 391.731 77.67 392.171C76.85 392.601 76.14 392.871 76.09 392.761C76.03 392.651 76.6499 392.221 77.4699 391.781C78.2899 391.341 78.9899 391.081 79.0499 391.191Z" fill="#263238"/>
<path d="M86.6898 401.811C86.5898 401.871 86.0498 401.131 85.4898 400.151C84.9298 399.171 84.5598 398.331 84.6698 398.271C84.7698 398.211 85.3098 398.951 85.8698 399.931C86.4298 400.911 86.7998 401.751 86.6898 401.811Z" fill="#263238"/>
<path d="M88.8996 384.161C88.9796 384.251 88.3896 384.971 87.5596 385.781C86.7396 386.591 85.9996 387.171 85.9096 387.091C85.8296 387.001 86.4196 386.281 87.2496 385.471C88.0796 384.661 88.8096 384.071 88.8996 384.161Z" fill="#263238"/>
<path d="M88.4097 374.891C88.3197 374.971 87.7697 374.521 87.1697 373.871C86.5697 373.231 86.1597 372.641 86.2497 372.551C86.3397 372.471 86.8897 372.921 87.4897 373.571C88.0897 374.221 88.4997 374.811 88.4097 374.891Z" fill="#263238"/>
<path d="M89.9298 363.061C90.0198 363.141 89.5198 363.851 88.8098 364.631C88.0998 365.421 87.4598 365.991 87.3698 365.911C87.2798 365.831 87.7798 365.121 88.4898 364.341C89.1898 363.551 89.8398 362.981 89.9298 363.061Z" fill="#263238"/>
<path d="M90.7804 354.471C90.7004 354.561 90.0004 354.011 89.2204 353.251C88.4404 352.491 87.8804 351.801 87.9704 351.711C88.0504 351.621 88.7504 352.171 89.5304 352.931C90.3004 353.701 90.8604 354.391 90.7804 354.471Z" fill="#263238"/>
<path d="M92.46 342.861C92.56 342.921 92.21 343.701 91.68 344.601C91.14 345.501 90.63 346.181 90.52 346.111C90.42 346.051 90.77 345.271 91.3 344.371C91.83 343.481 92.35 342.801 92.46 342.861Z" fill="#263238"/>
<path d="M95.6096 332.101C95.7196 332.161 95.4095 332.941 94.9195 333.841C94.4295 334.741 93.9496 335.431 93.8396 335.371C93.7296 335.311 94.0395 334.531 94.5295 333.631C95.0195 332.731 95.4996 332.051 95.6096 332.101Z" fill="#263238"/>
<path d="M99.1899 336.992C99.2399 337.102 98.7499 337.442 98.0999 337.762C97.4399 338.072 96.8699 338.242 96.8199 338.132C96.7699 338.022 97.2599 337.682 97.9099 337.362C98.5599 337.052 99.1399 336.882 99.1899 336.992Z" fill="#263238"/>
<path d="M99.27 375.631C99.25 375.741 98.14 375.591 96.87 375.051C95.61 374.511 94.73 373.821 94.79 373.721C94.86 373.611 95.82 374.131 97.04 374.651C98.27 375.171 99.3 375.511 99.27 375.631Z" fill="#263238"/>
<path d="M97.8101 383.811C97.8301 383.931 97.1001 384.172 96.1601 384.352C95.2301 384.532 94.4501 384.582 94.4301 384.462C94.4101 384.342 95.1401 384.102 96.0801 383.922C97.0101 383.742 97.7901 383.691 97.8101 383.811Z" fill="#263238"/>
<path d="M96.0096 397.842C95.9396 397.932 94.9996 397.292 94.1496 396.202C93.2896 395.122 92.8796 394.062 92.9796 394.012C93.0896 393.952 93.6596 394.882 94.4896 395.932C95.3196 396.982 96.0996 397.752 96.0096 397.842Z" fill="#263238"/>
<path d="M76.3297 404.261C76.2497 404.171 76.7497 403.611 77.4397 403.021C78.1297 402.431 78.7597 402.021 78.8397 402.111C78.9197 402.201 78.4197 402.761 77.7297 403.351C77.0297 403.951 76.4097 404.351 76.3297 404.261Z" fill="#263238"/>
<path d="M70.6699 373.641C69.8699 371.151 68.3799 368.251 65.7599 368.211C64.2099 368.191 62.8099 369.301 62.0899 370.671C61.3599 372.041 61.0499 373.631 61.0999 375.181C61.3999 385.421 63.1699 397.131 66.7199 407.801H76.2799C76.1499 395.941 74.2799 384.921 70.6699 373.641Z" fill="#455A64"/>
<path d="M53.3795 357.972C52.0395 352.622 48.0595 349.742 43.4295 349.472C39.1995 350.212 37.5595 354.372 37.0595 358.632C36.5595 362.892 37.8795 367.132 39.1895 371.222C43.3895 384.342 47.5795 397.462 51.7795 410.592C55.7395 410.162 59.7095 409.722 63.6695 409.292C59.8995 391.712 57.7395 375.412 53.3795 357.972Z" fill="#455A64"/>
<path d="M65.7694 368.211C65.8094 368.241 65.3794 368.641 64.9594 369.561C64.5494 370.491 64.3494 371.971 64.5094 373.791C64.6994 375.611 64.8994 377.801 65.2094 380.191C65.5194 382.591 65.9494 385.221 66.4894 387.971C67.5694 393.461 68.7894 398.391 69.5594 401.981C69.9494 403.781 70.2494 405.231 70.4294 406.241C70.5094 406.701 70.5794 407.091 70.6294 407.411C70.6694 407.681 70.6894 407.821 70.6694 407.821C70.6494 407.821 70.6094 407.691 70.5394 407.431C70.4594 407.121 70.3694 406.741 70.2594 406.281C70.0094 405.211 69.6694 403.791 69.2494 402.051C68.3994 398.481 67.1294 393.561 66.0494 388.051C65.5094 385.301 65.0894 382.651 64.7994 380.241C64.6494 379.031 64.5494 377.881 64.4494 376.801C64.3594 375.731 64.2494 374.731 64.1894 373.801C64.0594 371.961 64.3094 370.421 64.7894 369.481C65.2794 368.561 65.7694 368.211 65.7694 368.211Z" fill="#263238"/>
<path d="M43.6002 349.131C43.6402 349.171 42.9702 349.731 42.1602 351.061C41.3602 352.371 40.5102 354.511 40.3502 357.281C40.1702 360.051 40.7902 363.331 41.8202 366.861C42.8602 370.401 44.0102 374.281 45.2102 378.361C47.5802 386.511 49.7302 393.891 51.3002 399.291C52.0502 401.941 52.6602 404.101 53.1002 405.651C53.2902 406.371 53.4502 406.951 53.5702 407.381C53.6702 407.781 53.7202 407.991 53.7002 407.991C53.6902 407.991 53.6102 407.791 53.4802 407.401C53.3402 406.971 53.1602 406.401 52.9302 405.691C52.4602 404.151 51.8002 402.011 51.0002 399.371C49.4002 393.981 47.2102 386.621 44.7902 378.481C43.6002 374.401 42.4602 370.511 41.4302 366.961C40.4102 363.421 39.8102 360.071 40.0402 357.251C40.2402 354.431 41.1502 352.261 42.0102 350.961C42.8802 349.651 43.6002 349.131 43.6002 349.131Z" fill="#263238"/>
<path d="M61.0699 408.021C61.0599 408.031 60.9599 407.831 60.7999 407.451C60.6399 407.071 60.3899 406.511 60.1199 405.781C59.5499 404.321 58.8299 402.171 58.0699 399.461C57.3099 396.761 56.5699 393.501 55.8499 389.871C55.1599 386.231 54.3999 382.231 53.6099 378.041C52.7799 373.851 51.8599 369.891 50.7899 366.351C49.7199 362.811 48.5299 359.701 47.3199 357.181C46.1199 354.661 44.9699 352.711 44.1099 351.401C43.6999 350.731 43.3299 350.251 43.1099 349.901C42.8799 349.561 42.7699 349.371 42.7799 349.361C42.7899 349.351 42.9299 349.521 43.1799 349.841C43.4199 350.171 43.8199 350.641 44.2499 351.291C45.1599 352.571 46.3499 354.511 47.5899 357.031C48.8399 359.551 50.0699 362.661 51.1599 366.211C52.2599 369.761 53.1899 373.731 54.0199 377.931C54.7999 382.131 55.5499 386.131 56.2299 389.771C56.9299 393.401 57.6299 396.661 58.3499 399.361C59.0599 402.061 59.7399 404.221 60.2599 405.701C60.4999 406.441 60.7299 407.011 60.8599 407.401C61.0199 407.801 61.0899 408.011 61.0699 408.021Z" fill="#263238"/>
<path d="M39.3994 369.261C39.4294 369.381 38.7794 369.641 37.9494 369.841C37.1194 370.041 36.4294 370.111 36.3994 369.991C36.3694 369.871 37.0194 369.611 37.8494 369.411C38.6794 369.211 39.3694 369.141 39.3994 369.261Z" fill="#263238"/>
<path d="M38.1397 361.141C38.1297 361.261 37.2297 361.311 36.1297 361.361C35.0297 361.401 34.1297 361.421 34.1097 361.301C34.0897 361.181 34.9897 360.961 36.1097 360.921C37.2397 360.871 38.1497 361.021 38.1397 361.141Z" fill="#263238"/>
<path d="M39.4792 353.721C39.3992 353.811 38.7592 353.391 38.0392 352.781C37.3192 352.171 36.7992 351.601 36.8792 351.511C36.9592 351.421 37.5992 351.841 38.3192 352.451C39.0392 353.061 39.5592 353.631 39.4792 353.721Z" fill="#263238"/>
<path d="M43.1101 346.861C43.2301 346.891 43.2001 347.471 43.1801 348.161C43.1601 348.861 43.1601 349.441 43.0401 349.461C42.9201 349.481 42.7201 348.901 42.7501 348.151C42.7601 347.401 42.9901 346.831 43.1101 346.861Z" fill="#263238"/>
<path d="M50.5196 350.091C50.6196 350.161 50.3296 350.751 49.8696 351.401C49.4096 352.051 48.9596 352.531 48.8596 352.461C48.7596 352.391 49.0496 351.801 49.5096 351.151C49.9696 350.501 50.4196 350.021 50.5196 350.091Z" fill="#263238"/>
<path d="M55.33 358.451C55.38 358.561 54.7601 358.921 53.9501 359.251C53.1401 359.581 52.4501 359.751 52.4101 359.641C52.3601 359.531 52.98 359.171 53.79 358.841C54.6 358.521 55.29 358.341 55.33 358.451Z" fill="#263238"/>
<path d="M58.2499 367.052C58.2999 367.162 57.4799 367.622 56.3599 367.872C55.2399 368.132 54.3099 368.062 54.2999 367.942C54.2899 367.822 55.1899 367.692 56.2599 367.442C57.3399 367.212 58.1999 366.942 58.2499 367.052Z" fill="#263238"/>
<path d="M44.8494 364.611C44.7294 364.571 44.8194 363.981 45.0394 363.281C45.2594 362.581 45.5294 362.051 45.6394 362.081C45.7594 362.121 45.6694 362.711 45.4494 363.411C45.2394 364.111 44.9694 364.651 44.8494 364.611Z" fill="#263238"/>
<path d="M46.72 375.411C46.61 375.361 46.85 374.561 47.26 373.621C47.67 372.681 48.09 371.961 48.2 372.011C48.31 372.061 48.07 372.861 47.66 373.801C47.25 374.741 46.83 375.461 46.72 375.411Z" fill="#263238"/>
<path d="M42.0994 378.371C42.0494 378.481 41.2994 378.281 40.3894 377.991C39.4794 377.701 38.7394 377.441 38.7694 377.321C38.7894 377.201 39.5894 377.281 40.5194 377.571C41.4494 377.861 42.1494 378.261 42.0994 378.371Z" fill="#263238"/>
<path d="M44.7601 387.171C44.8301 387.271 44.3201 387.751 43.6201 388.251C42.9201 388.751 42.3001 389.071 42.2301 388.971C42.1601 388.871 42.6701 388.391 43.3701 387.891C44.0701 387.401 44.6901 387.071 44.7601 387.171Z" fill="#263238"/>
<path d="M46.8995 395.951C46.9295 396.071 46.2995 396.321 45.4895 396.521C44.6795 396.721 44.0095 396.781 43.9795 396.661C43.9495 396.541 44.5795 396.291 45.3895 396.091C46.1895 395.891 46.8695 395.831 46.8995 395.951Z" fill="#263238"/>
<path d="M58.4897 374.391C58.5497 374.491 58.0097 374.921 57.2297 375.221C56.4497 375.521 55.7597 375.551 55.7397 375.431C55.7197 375.311 56.3297 375.091 57.0797 374.811C57.8197 374.521 58.4297 374.281 58.4897 374.391Z" fill="#263238"/>
<path d="M60.1401 388.041C60.0901 388.151 59.4501 387.961 58.7101 387.611C57.9701 387.261 57.4101 386.891 57.4601 386.781C57.5101 386.671 58.1501 386.861 58.8901 387.211C59.6401 387.561 60.2001 387.931 60.1401 388.041Z" fill="#263238"/>
<path d="M63.0695 397.821C63.0295 397.931 62.1795 397.711 61.1795 397.311C60.1795 396.921 59.3995 396.511 59.4495 396.401C59.4895 396.291 60.3395 396.511 61.3395 396.911C62.3295 397.291 63.1095 397.701 63.0695 397.821Z" fill="#263238"/>
<path d="M47.3695 405.471C47.3095 405.361 48.0895 404.841 48.9895 404.121C49.8895 403.411 50.5895 402.781 50.6795 402.861C50.7695 402.941 50.1995 403.731 49.2595 404.461C48.3195 405.211 47.4195 405.581 47.3695 405.471Z" fill="#263238"/>
<path d="M55.0894 400.502C54.9694 400.512 54.7994 399.862 54.4994 399.102C54.2094 398.332 53.8894 397.742 53.9894 397.662C54.0794 397.592 54.5894 398.112 54.9094 398.942C55.2294 399.762 55.2094 400.492 55.0894 400.502Z" fill="#263238"/>
<path d="M53.0496 388.751C52.9796 388.851 52.4796 388.611 51.9396 388.221C51.3896 387.831 51.0096 387.431 51.0796 387.331C51.1496 387.231 51.6496 387.471 52.1896 387.861C52.7296 388.251 53.1196 388.651 53.0496 388.751Z" fill="#263238"/>
<path d="M71.0601 370.331C71.1301 370.431 70.6501 370.911 69.9701 371.401C69.3001 371.901 68.7001 372.221 68.6201 372.121C68.5501 372.021 69.0301 371.541 69.7101 371.051C70.3801 370.561 70.9901 370.231 71.0601 370.331Z" fill="#263238"/>
<path d="M73.7699 377.751C73.7799 377.871 73.0199 378.031 72.0799 377.921C71.1399 377.821 70.4299 377.501 70.4599 377.391C70.4999 377.271 71.2299 377.391 72.1199 377.491C73.0199 377.591 73.7599 377.631 73.7699 377.751Z" fill="#263238"/>
<path d="M62.1 379.421C62.13 379.541 61.42 379.791 60.51 379.851C59.6 379.911 58.87 379.761 58.88 379.641C58.89 379.521 59.61 379.481 60.48 379.421C61.36 379.351 62.08 379.301 62.1 379.421Z" fill="#263238"/>
<path d="M63.1093 372.401C63.0993 372.521 62.3893 372.531 61.6093 372.171C60.8293 371.811 60.3793 371.261 60.4593 371.181C60.5393 371.091 61.0793 371.451 61.7893 371.771C62.4993 372.111 63.1193 372.281 63.1093 372.401Z" fill="#263238"/>
<path d="M74.7694 385.721C74.7094 385.821 73.9794 385.481 73.1394 384.951C72.2994 384.421 71.6794 383.921 71.7394 383.811C71.7994 383.711 72.5294 384.051 73.3694 384.581C74.2094 385.111 74.8394 385.621 74.7694 385.721Z" fill="#263238"/>
<path d="M103.239 406.541H40.9893V417.571H103.239V406.541Z" fill="#FF725E"/>
<path d="M45.6396 415.391L53.2096 448.361H90.3096L98.5996 415.391H45.6396Z" fill="#FF725E"/>
<path d="M103.209 417.591C103.209 417.711 89.1693 417.811 71.8493 417.811C54.5293 417.811 40.4893 417.711 40.4893 417.591C40.4893 417.471 54.5293 417.371 71.8493 417.371C89.1693 417.371 103.209 417.471 103.209 417.591Z" fill="#263238"/>
<path d="M68.5895 379.661C68.4895 379.721 68.0595 379.231 67.6395 378.551C67.2195 377.871 66.9595 377.271 67.0595 377.211C67.1595 377.151 67.5895 377.641 68.0095 378.321C68.4295 378.991 68.6895 379.591 68.5895 379.661Z" fill="#263238"/>
<path d="M68.6096 388.531C68.4996 388.491 68.6396 387.741 68.9396 386.851C69.2296 385.961 69.5696 385.271 69.6796 385.311C69.7896 385.351 69.6496 386.101 69.3496 386.991C69.0596 387.881 68.7296 388.571 68.6096 388.531Z" fill="#263238"/>
<path d="M71.6496 397.851C71.5396 397.901 71.0796 397.161 70.6096 396.191C70.1496 395.221 69.8596 394.391 69.9696 394.341C70.0796 394.291 70.5396 395.031 71.0096 396.001C71.4696 396.971 71.7596 397.801 71.6496 397.851Z" fill="#263238"/>
<path d="M65.0799 405.351C64.9899 405.271 65.3599 404.691 65.9099 404.061C66.4599 403.431 66.9799 402.981 67.0699 403.061C67.1599 403.141 66.7899 403.721 66.2399 404.351C65.6899 404.981 65.1699 405.431 65.0799 405.351Z" fill="#263238"/>
<path d="M63.7001 391.741C63.6801 391.861 63.0801 391.851 62.3601 391.731C61.6401 391.601 61.0801 391.401 61.1001 391.291C61.1201 391.171 61.7201 391.181 62.4401 391.301C63.1501 391.421 63.7201 391.621 63.7001 391.741Z" fill="#263238"/>
<path d="M280.269 330.72H132.649V448.44H280.269V330.72Z" fill="#E0E0E0"/>
<g opacity="0.3">
<path d="M143.399 330.96C160.779 337.16 179.949 338.48 198.599 338.83C202.459 338.9 206.369 338.9 210.109 339.87C213.849 340.84 217.469 342.94 219.389 346.29C221.479 349.94 221.259 354.51 220.069 358.54C218.879 362.57 216.829 366.29 215.339 370.23C212.729 377.13 211.919 384.71 213.009 392C213.469 395.1 214.299 398.22 216.089 400.8C217.879 403.37 220.769 405.33 223.909 405.38C229.519 405.46 233.359 399.95 236.139 395.07C247.549 375.08 259.889 352.36 267.189 330.54L143.399 330.96Z" fill="black"/>
</g>
<path d="M182.949 447.81C182.809 447.81 182.689 421.72 182.689 389.54C182.689 357.35 182.809 331.26 182.949 331.26C183.089 331.26 183.209 357.35 183.209 389.54C183.209 421.72 183.089 447.81 182.949 447.81Z" fill="#455A64"/>
<path d="M243.439 243.721C242.999 240.791 234.229 231.081 234.229 231.081C234.229 231.081 229.839 213.471 228.529 208.281C228.199 206.981 227.499 205.511 226.619 204.031C223.559 198.841 219.069 194.631 213.809 191.671L201.669 184.841L198.759 178.381L169.589 163.391L161.679 177.341C161.679 177.341 142.469 183.451 139.929 187.811C137.389 192.171 141.189 250.611 141.189 250.611C141.189 250.611 133.149 284.331 131.449 291.311C129.759 298.291 131.999 306.611 131.999 306.611L146.309 288.651C150.759 283.071 160.519 280.511 167.529 280.611L227.439 280.871L225.059 264.091L273.499 273.511C273.499 273.511 281.839 257.261 282.489 256.931C283.139 256.611 243.439 243.721 243.439 243.721Z" fill="#FF725E"/>
<path d="M168.34 182.831C167.92 182.401 171.73 195.261 176.5 208.351C179.07 215.401 180.36 222.881 180.36 230.421V259.241V277.821L209.09 275.871L204.8 244.651C204.8 244.651 201.3 224.511 200.32 216.851C199.42 209.841 196.34 190.821 196.34 190.821C196.34 190.821 180.37 195.081 168.34 182.831Z" fill="white"/>
<path d="M232.079 255.501C232.049 255.501 232.039 255.241 232.079 254.781C232.119 254.321 232.229 253.651 232.459 252.851C232.899 251.251 233.929 249.101 235.739 247.281C237.559 245.461 239.709 244.431 241.309 243.981C242.109 243.751 242.779 243.641 243.239 243.601C243.699 243.561 243.959 243.571 243.959 243.601C243.969 243.691 242.949 243.801 241.419 244.331C239.889 244.851 237.849 245.891 236.109 247.641C234.369 249.391 233.329 251.431 232.809 252.961C232.279 254.491 232.169 255.511 232.079 255.501Z" fill="#263238"/>
<path d="M233.56 244.121C233.5 244.011 235.38 243.051 237.95 242.851C240.51 242.631 242.53 243.261 242.48 243.391C242.45 243.551 240.45 243.161 237.99 243.371C235.52 243.561 233.62 244.271 233.56 244.121Z" fill="#263238"/>
<g opacity="0.3">
<path d="M138.29 269.99L135.8 272.82C138.47 275.93 141.94 278.53 145.92 279.51C149.9 280.49 154.03 280.6 158.13 280.62C159.79 280.62 161.47 280.61 163.07 280.15C164.69 279.68 166.21 278.76 167.9 278.66C169.03 278.59 170.14 278.9 171.25 279.14C172.36 279.38 173.53 279.54 174.61 279.19C175.69 278.84 176.63 277.84 176.56 276.71C164.1 273.07 151.24 270.81 138.29 269.99Z" fill="black"/>
</g>
<path d="M220.29 273.61L213.24 266.12L198.74 262.45C198.74 262.45 185.45 266.43 185.14 266.42C184.82 266.41 173.58 263.35 173.58 263.35L169.65 277.76L189.9 279.15L213.02 278.22C213.02 278.22 214.23 277.1 213.51 276.33C212.8 275.56 217.38 277.63 217.92 277.65C218.45 277.67 219.51 278.09 220.22 277.23C220.71 276.65 221.37 274.76 220.29 273.61Z" fill="#FFBE9D"/>
<path d="M213.51 276.34C213.48 276.41 212.61 276.13 211.21 275.68C209.8 275.23 207.86 274.64 205.69 274.08C203.51 273.52 201.52 273.11 200.08 272.82C198.63 272.53 197.74 272.35 197.75 272.28C197.76 272.21 198.68 272.26 200.14 272.46C201.61 272.66 203.63 273.02 205.82 273.58C208.01 274.14 209.96 274.8 211.34 275.34C212.71 275.87 213.54 276.28 213.51 276.34Z" fill="#EB996E"/>
<path d="M220.291 273.61C220.261 273.68 219.051 273.23 217.071 272.57C215.101 271.9 212.341 271.09 209.271 270.23C206.211 269.32 203.481 268.41 201.411 268.29C199.351 268.12 198.091 268.52 198.071 268.42C198.061 268.39 198.361 268.27 198.941 268.13C199.511 267.99 200.371 267.89 201.431 267.92C203.571 267.95 206.381 268.83 209.411 269.73C212.481 270.59 215.241 271.46 217.191 272.22C218.171 272.59 218.951 272.93 219.481 273.17C220.021 273.42 220.301 273.58 220.291 273.61Z" fill="#EB996E"/>
<path d="M139.92 187.811C139.92 187.811 129.47 195.081 126.93 205.541C124.39 216.011 113.37 258.741 115.63 265.141C117.89 271.541 161.84 277.811 161.84 277.811L167.05 255.841L144.73 249.731C144.73 249.731 145.01 229.381 145.3 220.951C145.59 212.521 139.92 187.811 139.92 187.811Z" fill="#FF725E"/>
<path d="M166.749 259.121L173.939 260.891L169.609 277.471L162.549 276.341L166.749 259.121Z" fill="white"/>
<path d="M115.459 262.881C115.499 262.881 115.439 263.251 115.569 263.921C115.709 264.581 116.139 265.541 117.099 266.411C119.009 268.191 122.659 269.671 127.279 270.501H127.299L127.319 270.511C129.429 271.201 131.839 271.761 134.419 272.341C136.999 272.921 139.769 273.511 142.689 274.101C148.539 275.301 155.009 276.551 161.859 277.841L161.559 278.031C162.059 275.991 162.579 273.841 163.109 271.651C164.339 266.611 165.539 261.721 166.669 257.091L166.849 257.391C159.469 255.281 152.729 253.361 147.019 251.731H147.009H146.999C143.969 250.491 140.959 250.041 138.349 250.211C135.729 250.331 133.529 251.031 131.819 251.741C130.109 252.471 128.889 253.271 128.069 253.821C127.689 254.101 127.389 254.311 127.159 254.481C126.949 254.631 126.839 254.701 126.839 254.691C126.829 254.681 126.929 254.591 127.119 254.431C127.319 254.271 127.599 254.021 127.999 253.721C128.799 253.141 130.009 252.301 131.729 251.531C133.439 250.781 135.659 250.031 138.329 249.881C140.979 249.671 144.059 250.101 147.159 251.341L147.139 251.331C152.869 252.941 159.609 254.831 166.999 256.901L167.229 256.971L167.169 257.211C166.039 261.841 164.849 266.731 163.629 271.771C163.099 273.951 162.569 276.111 162.069 278.151L162.009 278.391L161.769 278.341C154.909 277.051 148.439 275.771 142.599 274.551C139.679 273.941 136.909 273.331 134.329 272.741C131.749 272.141 129.359 271.571 127.209 270.841L127.239 270.851C122.559 269.961 118.909 268.421 116.979 266.551C116.009 265.631 115.599 264.621 115.479 263.931C115.369 263.241 115.459 262.881 115.459 262.881Z" fill="#263238"/>
<path d="M145.929 251.19C145.869 251.26 145.119 250.57 143.779 249.67C142.439 248.77 140.459 247.71 138.109 247.02C135.749 246.34 133.509 246.17 131.899 246.21C130.289 246.25 129.289 246.42 129.279 246.34C129.269 246.29 130.239 245.98 131.889 245.85C133.529 245.71 135.839 245.83 138.259 246.53C140.679 247.24 142.689 248.38 143.999 249.38C145.309 250.37 145.969 251.15 145.929 251.19Z" fill="#263238"/>
<path d="M148.86 215.391C148.9 215.391 148.9 215.871 148.87 216.731C148.85 217.591 148.78 218.841 148.66 220.371C148.41 223.441 147.96 227.681 147.15 232.311C146.36 236.951 145.35 241.101 144.38 244.031C144.13 244.761 143.88 245.421 143.67 245.991C143.43 246.531 143.22 247.011 143.03 247.431C142.62 248.191 142.38 248.601 142.35 248.591C142.32 248.571 142.5 248.131 142.85 247.351C143.01 246.921 143.2 246.431 143.4 245.891C143.59 245.311 143.81 244.661 144.03 243.921C144.91 240.981 145.85 236.841 146.64 232.221C147.44 227.601 147.95 223.391 148.29 220.331C148.44 218.881 148.57 217.671 148.67 216.711C148.75 215.861 148.82 215.391 148.86 215.391Z" fill="#263238"/>
<path d="M174.341 204.061C174.311 204.071 174.241 203.791 173.991 203.321C173.741 202.861 173.301 202.211 172.491 201.681C171.701 201.161 170.491 200.781 169.241 201.201C168.011 201.601 166.8 202.751 166.5 204.311L166.36 205.021L166.05 204.361C165 202.091 163.921 199.481 162.991 196.641C161.301 191.491 160.571 186.561 160.731 183.001C160.731 182.111 160.85 181.311 160.91 180.611C161.03 179.911 161.121 179.311 161.231 178.831C161.481 177.871 161.64 177.341 161.67 177.351C161.8 177.371 161.081 179.481 161.101 183.011C161.041 186.521 161.811 191.381 163.491 196.481C164.411 199.291 165.461 201.901 166.481 204.161L166.03 204.211C166.4 202.461 167.761 201.231 169.121 200.821C170.521 200.391 171.841 200.841 172.651 201.441C173.491 202.041 173.921 202.761 174.131 203.251C174.231 203.501 174.301 203.701 174.321 203.841C174.351 203.981 174.361 204.051 174.341 204.061Z" fill="#263238"/>
<path d="M198.719 206.311C198.689 206.311 198.619 205.891 198.489 205.121C198.379 204.351 198.129 203.221 198.279 201.771C198.479 200.351 199.149 198.621 200.689 197.341C201.449 196.711 202.489 196.291 203.599 196.301C204.689 196.301 205.879 196.721 206.659 197.671L206.219 197.921C205.919 197.151 205.599 196.351 205.269 195.531C203.399 190.821 201.739 186.541 200.569 183.441C200.019 181.961 199.559 180.721 199.199 179.761C198.889 178.891 198.729 178.401 198.759 178.381C198.789 178.371 199.009 178.831 199.389 179.681C199.789 180.631 200.299 181.851 200.909 183.311C202.179 186.381 203.889 190.631 205.759 195.351C206.079 196.171 206.399 196.971 206.699 197.741L207.309 199.281L206.259 197.991C205.609 197.191 204.569 196.801 203.599 196.791C202.609 196.781 201.689 197.131 200.979 197.701C199.549 198.841 198.849 200.491 198.629 201.821C198.439 203.191 198.639 204.331 198.689 205.101C198.749 205.881 198.759 206.311 198.719 206.311Z" fill="#263238"/>
<path d="M217.27 208.791C217.41 208.771 219.67 223.971 222.32 242.741C224.97 261.521 226.99 276.751 226.85 276.771C226.71 276.791 224.45 261.591 221.8 242.811C219.16 224.051 217.13 208.811 217.27 208.791Z" fill="#263238"/>
<g opacity="0.3">
<path d="M163.299 196.801C163.419 200.681 164.269 204.541 165.789 208.091C166.879 206.751 168.089 205.321 169.739 204.931C171.809 204.441 173.889 205.711 175.389 207.261C175.069 205.711 174.549 204.171 173.589 202.951C172.629 201.721 171.159 200.841 169.629 200.881C168.089 200.921 166.569 202.051 166.289 203.601L163.419 196.871" fill="black"/>
</g>
<path d="M146.41 207.791C146.31 207.791 146.35 206.741 146.04 205.111C145.74 203.481 145.01 201.271 143.61 199.161C142.9 198.111 142.11 197.211 141.32 196.441C140.51 195.701 139.74 195.091 139.03 194.661C137.63 193.771 136.64 193.431 136.67 193.341C136.68 193.311 136.93 193.371 137.39 193.521C137.62 193.591 137.89 193.691 138.2 193.831C138.51 193.971 138.86 194.121 139.23 194.341C139.98 194.741 140.81 195.351 141.66 196.091C142.49 196.861 143.32 197.791 144.05 198.871C145.5 201.051 146.2 203.361 146.41 205.051C146.52 205.891 146.55 206.581 146.51 207.061C146.48 207.531 146.45 207.791 146.41 207.791Z" fill="#263238"/>
<path d="M204.46 136.431C203.28 125.331 193.76 117.001 182.6 117.291L181.49 117.321C169.55 118.331 163.73 129.031 165.07 140.941L168.35 182.831L169.74 184.531C176.16 192.411 187.08 194.991 196.35 190.801L195.43 177.321C195.43 177.321 206.88 175.241 206.73 163.741C206.64 158.181 205.56 146.761 204.46 136.431Z" fill="#FFBE9D"/>
<path d="M195.5 177.31C195.5 177.31 188.17 177.94 180.32 173.29C180.32 173.29 184.08 181.47 195.52 180.14L195.5 177.31Z" fill="#EB996E"/>
<path d="M200.819 145.94C200.869 146.81 200.179 147.57 199.279 147.64C198.379 147.71 197.599 147.07 197.549 146.2C197.499 145.33 198.189 144.57 199.089 144.5C199.989 144.43 200.769 145.07 200.819 145.94Z" fill="#263238"/>
<path d="M201.55 139.691C201.42 139.891 200.12 140.031 198.56 140.871C197 141.701 196.07 142.761 195.85 142.741C195.75 142.741 195.84 142.451 196.24 141.981C196.64 141.521 197.38 140.871 198.35 140.351C199.32 139.831 200.23 139.591 200.79 139.541C201.37 139.491 201.62 139.591 201.55 139.691Z" fill="#263238"/>
<path d="M184.22 146.81C184.27 147.68 183.58 148.44 182.68 148.51C181.78 148.58 181 147.94 180.95 147.07C180.9 146.2 181.59 145.44 182.49 145.37C183.39 145.3 184.17 145.94 184.22 146.81Z" fill="#263238"/>
<path d="M183.97 142.101C183.74 142.151 182.67 141.431 180.96 141.001C179.25 140.571 177.86 140.681 177.7 140.531C177.62 140.461 177.88 140.331 178.49 140.281C179.09 140.221 180.07 140.271 181.14 140.531C182.21 140.801 183.04 141.211 183.5 141.531C183.96 141.861 184.08 142.081 183.97 142.101Z" fill="#263238"/>
<path d="M190.9 155.83C190.89 155.73 191.98 155.51 193.76 155.24C194.21 155.18 194.63 155.08 194.7 154.77C194.8 154.44 194.6 153.96 194.36 153.44C193.91 152.36 193.43 151.23 192.94 150.04C190.96 145.2 189.52 141.21 189.71 141.13C189.91 141.05 191.67 144.91 193.65 149.76C194.13 150.95 194.58 152.09 195.02 153.18C195.2 153.69 195.51 154.26 195.3 154.94C195.19 155.28 194.86 155.53 194.58 155.62C194.29 155.72 194.04 155.73 193.82 155.75C192.02 155.9 190.91 155.93 190.9 155.83Z" fill="#263238"/>
<path d="M184 135.281C183.8 135.751 182.05 135.441 179.97 135.591C177.88 135.701 176.18 136.221 175.93 135.781C175.82 135.571 176.13 135.131 176.83 134.701C177.52 134.271 178.61 133.881 179.86 133.801C181.11 133.721 182.24 133.981 182.98 134.321C183.72 134.661 184.08 135.051 184 135.281Z" fill="#263238"/>
<path d="M201.51 135.671C201.13 136.081 199.6 135.671 197.78 135.671C195.95 135.621 194.41 135.971 194.05 135.561C193.89 135.361 194.13 134.951 194.8 134.571C195.46 134.181 196.57 133.861 197.83 133.881C199.08 133.901 200.18 134.251 200.81 134.661C201.46 135.061 201.68 135.471 201.51 135.671Z" fill="#263238"/>
<path d="M207.81 126.26C207.59 125.22 206.56 124.33 205.51 124.49C206.07 124.29 206.65 124.08 207.1 123.68C207.55 123.28 207.83 122.64 207.64 122.08C207.35 121.19 206.21 121.01 205.31 120.75C204.13 120.42 203.07 119.71 202.31 118.75C201.22 117.37 200.8 115.57 199.85 114.09C198.63 112.17 196.5 110.84 194.24 110.59C191.97 110.34 189.61 111.17 188 112.78C186.24 110.98 183.59 110.09 181.1 110.47C178.61 110.85 176.35 112.49 175.21 114.73C172.16 113.46 168.44 113.98 165.85 116.05C163.27 118.11 161.94 121.63 162.5 124.89L169.66 129.28C169.78 127.07 172.25 125.31 174.38 125.92C176.54 126.54 177.92 129.05 180.17 129.22C181.92 129.35 183.4 128 185.1 127.55C187.15 127 189.32 127.82 191.17 128.87C193.02 129.91 194.78 131.21 196.84 131.73C199.26 132.34 201.83 131.81 204.14 130.86C205.13 130.46 206.11 129.96 206.84 129.19C207.57 128.4 208.03 127.3 207.81 126.26Z" fill="#263238"/>
<path d="M170.9 125.89L203.7 125.7C202.62 123.47 200.75 121.71 198.73 120.26C194.38 117.15 189.09 115.28 183.74 115.33C178.39 115.38 167.69 122.2 163.92 125.99C160.9 129.03 160.99 131.58 160.99 131.58C160.62 135.84 163.13 140.61 164.19 144.75C164.74 146.89 165.86 153.37 165.86 153.37C167.67 153.31 168.3 151.86 167.97 150.08L167.44 143.08C167.44 143.08 173.46 138.54 170.33 130.64C169.85 130.03 168.77 127.14 170.9 125.89Z" fill="#263238"/>
<path d="M166.94 142.63C165.27 136.82 163.74 130.6 165.51 124.82C165.19 124.81 164.86 124.79 164.54 124.78L164.13 125.08C162.3 124.46 160.1 125.16 158.96 126.73C157.82 128.29 157.83 130.6 158.97 132.16C157.03 132.07 155.16 133.69 154.99 135.63C154.87 136.97 155.45 138.26 156.05 139.46C156.65 140.66 157.29 141.91 157.3 143.25C157.31 144.59 156.45 146.05 155.12 146.21C155.72 147.59 157.38 148.4 158.83 148.01C158.37 149.15 157.58 150.14 156.58 150.85C158.72 152.3 161.65 151.81 163.97 150.68C165.35 150.01 166.7 149.05 167.26 147.63C167.88 146.04 167.4 144.27 166.94 142.63Z" fill="#263238"/>
<path d="M166.4 149.401C166.2 149.321 158.44 147.271 158.89 155.121C159.34 162.971 167.13 160.901 167.14 160.671C167.14 160.451 166.4 149.401 166.4 149.401Z" fill="#FFBE9D"/>
<path d="M165.26 157.821C165.22 157.801 165.13 157.921 164.9 158.041C164.68 158.161 164.3 158.251 163.88 158.121C163.03 157.861 162.26 156.591 162.14 155.171C162.08 154.461 162.19 153.771 162.41 153.191C162.62 152.601 162.96 152.181 163.38 152.081C163.79 151.961 164.1 152.191 164.21 152.411C164.33 152.621 164.29 152.781 164.33 152.791C164.35 152.811 164.49 152.651 164.41 152.331C164.37 152.181 164.27 152.001 164.07 151.861C163.87 151.721 163.59 151.661 163.3 151.701C162.7 151.781 162.18 152.371 161.94 153.001C161.66 153.641 161.52 154.421 161.59 155.221C161.73 156.801 162.63 158.231 163.78 158.501C164.34 158.611 164.79 158.421 165.02 158.221C165.26 158.011 165.29 157.831 165.26 157.821Z" fill="#EB996E"/>
<path d="M158.249 142.89C158.229 142.91 158.029 142.59 158.109 141.98C158.179 141.38 158.619 140.51 159.579 139.93C160.529 139.35 161.839 139.21 163.179 139.06C164.499 138.92 166.009 138.54 166.769 137.24C167.529 135.97 167.549 134.42 167.379 133.12C167.189 131.8 166.839 130.6 166.669 129.57C166.249 127.49 166.649 126.16 166.719 126.2C166.809 126.21 166.579 127.49 167.089 129.48C167.309 130.48 167.699 131.65 167.929 133.04C168.119 134.41 168.149 136.07 167.279 137.56C166.839 138.29 166.149 138.85 165.409 139.14C164.669 139.44 163.929 139.54 163.239 139.62C161.869 139.74 160.659 139.84 159.789 140.31C158.929 140.76 158.479 141.5 158.349 142.02C158.199 142.55 158.299 142.88 158.249 142.89Z" fill="#455A64"/>
<path d="M156.349 139.461C156.319 139.471 156.179 139.241 156.109 138.751C156.049 138.271 156.079 137.521 156.499 136.731C156.709 136.341 157.009 135.941 157.429 135.611C157.839 135.271 158.399 135.051 158.939 134.911C159.469 134.751 160.029 134.621 160.429 134.301C160.829 133.981 161.009 133.461 161.019 132.861C161.039 132.261 160.949 131.631 160.969 131.001C160.979 130.381 161.049 129.781 161.169 129.221C161.409 128.101 161.819 127.151 162.299 126.411C162.769 125.651 163.529 125.281 164.039 125.301C164.559 125.301 164.779 125.541 164.749 125.561C164.729 125.611 164.489 125.471 164.049 125.541C163.609 125.591 163.049 125.931 162.659 126.641C162.269 127.341 161.919 128.271 161.719 129.331C161.619 129.861 161.569 130.421 161.569 131.011C161.559 131.591 161.659 132.201 161.639 132.891C161.639 133.561 161.389 134.341 160.809 134.771C160.239 135.201 159.619 135.311 159.099 135.461C158.019 135.671 157.299 136.271 156.879 136.961C156.039 138.351 156.469 139.471 156.349 139.461Z" fill="#455A64"/>
<path d="M202.309 118.751C202.359 118.761 201.719 119.181 200.689 118.691C200.189 118.471 199.689 117.991 199.209 117.431C198.729 116.861 198.179 116.251 197.389 115.811C195.859 114.941 193.369 114.711 191.469 116.201C190.499 116.901 189.639 117.891 188.509 118.711C187.949 119.111 187.289 119.471 186.539 119.621C185.799 119.771 185.009 119.661 184.299 119.411C182.879 118.901 181.769 118.031 180.549 117.591C179.329 117.121 178.059 116.911 176.859 116.931C174.439 116.941 172.339 117.851 170.909 118.981C169.449 120.111 168.599 121.371 168.099 122.271C167.609 123.181 167.429 123.741 167.379 123.721C167.359 123.711 167.389 123.571 167.459 123.301C167.529 123.031 167.669 122.641 167.889 122.161C168.339 121.211 169.159 119.861 170.639 118.641C172.089 117.421 174.289 116.401 176.849 116.371C178.119 116.341 179.459 116.541 180.759 117.041C182.079 117.521 183.219 118.391 184.499 118.841C185.139 119.071 185.789 119.151 186.419 119.031C187.049 118.911 187.619 118.601 188.149 118.231C189.209 117.481 190.089 116.491 191.129 115.751C192.159 114.981 193.419 114.601 194.559 114.611C195.709 114.621 196.759 114.941 197.599 115.431C198.449 115.921 199.029 116.621 199.469 117.201C199.929 117.781 200.349 118.231 200.799 118.471C201.699 118.991 202.309 118.691 202.309 118.751Z" fill="#455A64"/>
<path d="M186.54 157.89C186.79 157.83 187.07 159.51 188.71 160.46C190.35 161.41 192.1 160.92 192.16 161.16C192.2 161.26 191.82 161.55 191.06 161.7C190.32 161.85 189.2 161.79 188.2 161.21C187.2 160.63 186.66 159.72 186.49 159.04C186.3 158.35 186.42 157.9 186.54 157.89Z" fill="#263238"/>
<path d="M290.019 314.14C287.049 311.49 282.939 310.26 278.969 310.49L272.209 331.97C277.159 332.19 282.099 334.74 286.879 333.43C290.719 332.38 293.629 328.77 294.159 324.83C294.709 320.89 292.999 316.79 290.019 314.14Z" fill="#FF725E"/>
<path d="M279.1 309.99C279.11 309.82 279.83 309.68 281.15 309.7C282.45 309.74 284.39 309.88 286.68 310.74C288.98 311.59 291.48 313.33 293.41 315.97C294.38 317.29 295.19 318.86 295.66 320.63C296.14 322.39 296.22 324.36 295.83 326.26C295.44 328.17 294.6 329.96 293.37 331.39C292.14 332.83 290.57 333.82 289.01 334.41C285.86 335.59 282.83 335.4 280.51 334.96C278.17 334.5 276.41 333.82 275.21 333.32C274.02 332.81 273.4 332.43 273.45 332.26C273.5 332.09 274.23 332.14 275.5 332.35C276.77 332.55 278.57 332.94 280.77 333.14C282.95 333.34 285.59 333.27 288.11 332.19C289.36 331.65 290.52 330.85 291.42 329.75C292.33 328.65 292.97 327.25 293.28 325.74C293.93 322.69 293 319.64 291.45 317.34C289.89 315.02 287.86 313.36 285.94 312.42C284.01 311.46 282.23 311.03 281.01 310.7C279.78 310.38 279.08 310.17 279.1 309.99Z" fill="#F5F5F5"/>
<path d="M216.47 390.54L201.77 431.73L252.92 450.28C254.39 445.29 231.49 425.88 231.49 425.88L241.99 399.88L216.47 390.54Z" fill="#FF725E"/>
<g opacity="0.6">
<path d="M216.479 417.931C215.389 417.841 214.299 418.711 214.169 419.791C214.039 420.871 214.909 421.99 215.989 422.09C217.079 422.2 218.409 421.201 218.419 420.111C218.429 419.021 217.339 417.771 216.259 417.921" fill="white"/>
</g>
<path d="M201.77 431.73L203.25 427.57L251.84 446.95C251.84 446.95 253.76 448.77 252.92 450.28L201.77 431.73Z" fill="white"/>
<path d="M232.42 425.92C232.32 426.17 231.03 425.83 229.51 426.18C227.98 426.5 226.95 427.35 226.76 427.17C226.55 427.04 227.46 425.68 229.31 425.28C231.15 424.87 232.55 425.71 232.42 425.92Z" fill="#263238"/>
<path d="M236.98 430.09C236.95 430.35 235.71 430.38 234.48 431.13C233.23 431.84 232.6 432.91 232.35 432.81C232.1 432.76 232.46 431.24 234.01 430.34C235.55 429.42 237.06 429.85 236.98 430.09Z" fill="#263238"/>
<path d="M237.689 437.61C237.439 437.58 237.549 436.21 238.689 435.07C239.819 433.93 241.189 433.81 241.219 434.06C241.289 434.32 240.259 434.78 239.339 435.72C238.399 436.65 237.949 437.68 237.689 437.61Z" fill="#263238"/>
<path d="M234.15 419.73C233.96 419.92 232.94 419.16 231.5 418.74C230.06 418.29 228.79 418.37 228.74 418.11C228.66 417.88 230.07 417.34 231.77 417.86C233.46 418.36 234.35 419.58 234.15 419.73Z" fill="#263238"/>
<path d="M235.13 413.22C235.1 413.32 234.05 413.12 232.57 412.28C231.83 411.86 231 411.27 230.19 410.48C229.78 410.09 229.38 409.65 229 409.17C228.82 408.93 228.6 408.68 228.45 408.29C228.27 407.93 228.35 407.21 228.82 406.92C229.22 406.62 229.75 406.62 230.12 406.75C230.5 406.87 230.78 407.06 231.03 407.23C231.55 407.57 232.02 407.96 232.42 408.35C233.24 409.15 233.83 410 234.22 410.76C235.01 412.29 235.07 413.37 234.97 413.39C234.83 413.43 234.53 412.44 233.65 411.09C233.21 410.42 232.61 409.67 231.83 408.97C231.44 408.62 231 408.29 230.52 407.98C230.03 407.64 229.57 407.47 229.34 407.66C229.26 407.73 229.24 407.77 229.29 407.97C229.35 408.16 229.52 408.38 229.7 408.62C230.05 409.08 230.41 409.5 230.77 409.88C231.5 410.65 232.25 411.26 232.9 411.73C234.25 412.67 235.19 413.09 235.13 413.22Z" fill="#263238"/>
<path d="M234.68 413.46C234.58 413.47 234.41 412.39 234.9 410.74C235.15 409.92 235.58 408.98 236.27 408.06C236.61 407.6 237.02 407.16 237.49 406.74C237.97 406.34 238.58 405.8 239.59 406.04C240.1 406.2 240.38 406.75 240.4 407.14C240.44 407.55 240.37 407.86 240.32 408.17C240.2 408.8 239.97 409.38 239.7 409.9C239.14 410.93 238.37 411.67 237.65 412.15C236.17 413.11 235.02 413.03 235.03 412.94C234.99 412.78 236.04 412.62 237.26 411.62C237.86 411.13 238.5 410.42 238.94 409.51C239.16 409.05 239.34 408.55 239.43 408.01C239.55 407.44 239.5 406.92 239.28 406.91C239.03 406.81 238.45 407.07 238.08 407.42C237.65 407.78 237.27 408.18 236.94 408.58C236.28 409.39 235.82 410.22 235.52 410.96C234.9 412.44 234.83 413.47 234.68 413.46Z" fill="#263238"/>
<path d="M166.92 280.54C159.16 280.72 151.8 281.82 146.46 287.44C139.37 294.9 130.61 305.54 130.11 312.91C129.37 323.93 136.01 327.21 140.87 329.89C143.02 331.08 145.47 331.61 147.92 331.52L237.6 330.84L240.42 315.65L182.42 301.36L184.83 279.53L166.92 280.54Z" fill="#263238"/>
<path d="M184.81 279.53L213.02 278.23C213.02 278.23 261.75 280.94 272.15 290.47C282.55 300 281.25 310.83 277.78 321.22C274.31 331.62 243.78 398.1 243.78 398.1C243.78 398.1 246.26 402.33 244.86 406.55C242.7 413.08 236.9 414.13 236.9 414.13L209.78 404.16C209.78 404.16 206.1 402.86 208.7 399.4C211.3 395.93 213.03 395.29 213.03 395.29V388.36C213.03 388.36 222.56 371.03 223.43 368.65C224.3 366.27 233.43 331.01 233.43 331.01L239.5 320.58C239.5 320.58 224.83 313.68 212.11 308.68L182.41 301.36L184.81 279.53Z" fill="#263238"/>
<path d="M230.569 402.911C230.519 402.981 229.659 402.301 228.189 401.351C226.719 400.401 224.609 399.221 222.119 398.271C219.629 397.331 217.259 396.801 215.529 396.541C213.799 396.271 212.709 396.211 212.719 396.131C212.719 396.071 213.819 396.001 215.579 396.181C217.339 396.351 219.769 396.831 222.309 397.791C224.849 398.761 226.969 400.011 228.409 401.051C229.829 402.091 230.609 402.871 230.569 402.911Z" fill="#455A64"/>
<path d="M244.119 398.151C244.069 398.191 243.459 397.561 242.539 396.491C241.629 395.421 240.409 393.891 239.129 392.161C237.849 390.431 236.759 388.811 236.009 387.621C235.259 386.431 234.839 385.661 234.889 385.621C234.949 385.581 235.479 386.271 236.309 387.411C237.259 388.711 238.339 390.201 239.539 391.851C240.759 393.491 241.859 394.971 242.819 396.261C243.669 397.391 244.179 398.101 244.119 398.151Z" fill="#455A64"/>
<path d="M254.059 311.061C254.079 311.141 253.059 311.361 251.489 311.881C249.919 312.401 247.799 313.281 245.649 314.621C243.509 315.961 241.779 317.481 240.629 318.661C239.469 319.841 238.829 320.661 238.759 320.611C238.709 320.581 239.249 319.681 240.359 318.411C241.459 317.141 243.189 315.541 245.379 314.171C247.569 312.811 249.759 311.961 251.389 311.521C253.009 311.091 254.049 311.001 254.059 311.061Z" fill="#455A64"/>
<path d="M226.319 358.14C226.299 358.14 226.34 357.93 226.43 357.55C226.54 357.12 226.679 356.57 226.849 355.9C227.249 354.4 227.8 352.35 228.47 349.85C229.91 344.69 231.86 337.68 234.02 329.94C235.15 326.06 236.11 322.35 237.2 319C238.46 315.67 240.46 313.11 242.31 311.21C244.17 309.31 245.92 308.03 247.16 307.21C247.79 306.81 248.28 306.51 248.62 306.33C248.96 306.14 249.15 306.05 249.15 306.07C249.17 306.11 248.47 306.53 247.27 307.38C246.07 308.24 244.379 309.55 242.569 311.46C240.78 313.36 238.85 315.91 237.65 319.16C236.61 322.47 235.64 326.21 234.52 330.08C232.3 337.81 230.299 344.8 228.819 349.95C228.079 352.44 227.48 354.47 227.04 355.96C226.83 356.62 226.66 357.16 226.53 357.59C226.41 357.95 226.339 358.15 226.319 358.14Z" fill="#455A64"/>
<path d="M201.369 307.35C201.229 307.36 200.629 302.09 200.049 295.57C199.459 289.05 199.099 283.75 199.239 283.74C199.379 283.73 199.979 289 200.559 295.52C201.149 302.04 201.509 307.34 201.369 307.35Z" fill="#455A64"/>
<path d="M154.41 321.431C154.33 321.471 153.9 320.621 153.01 319.361C152.13 318.111 150.75 316.491 148.91 315.061C147.07 313.631 145.17 312.671 143.74 312.131C142.31 311.581 141.38 311.361 141.4 311.271C141.41 311.221 142.38 311.301 143.87 311.781C145.36 312.251 147.34 313.181 149.24 314.651C151.13 316.131 152.51 317.831 153.32 319.161C154.14 320.491 154.46 321.411 154.41 321.431Z" fill="#455A64"/>
<path d="M171.7 302.281C171.65 302.361 170.45 301.591 168.38 300.651C166.31 299.701 163.32 298.671 159.89 298.171C156.45 297.681 153.29 297.841 151.04 298.161C148.79 298.481 147.42 298.881 147.4 298.791C147.39 298.761 147.72 298.631 148.33 298.441C148.94 298.231 149.85 298.011 150.98 297.801C153.24 297.381 156.46 297.161 159.96 297.651C163.45 298.161 166.48 299.271 168.53 300.321C169.56 300.841 170.36 301.311 170.89 301.681C171.43 302.041 171.71 302.251 171.7 302.281Z" fill="#455A64"/>
<path d="M239.25 315.64C239.25 315.66 239 315.62 238.55 315.52C238.04 315.41 237.38 315.27 236.56 315.09C234.78 314.69 232.29 314.13 229.25 313.45C223.08 312.07 214.54 310.21 205.07 308.34C195.6 306.47 187 304.93 180.76 303.85C177.69 303.32 175.18 302.89 173.38 302.58C172.55 302.43 171.88 302.31 171.37 302.22C170.91 302.13 170.67 302.08 170.68 302.06C170.69 302.04 170.93 302.06 171.39 302.12C171.9 302.19 172.57 302.27 173.41 302.38C175.16 302.62 177.7 302.99 180.82 303.48C187.07 304.46 195.69 305.94 205.17 307.82C214.64 309.7 223.18 311.61 229.33 313.08C232.41 313.82 234.89 314.43 236.6 314.88C237.41 315.1 238.07 315.27 238.57 315.41C239.02 315.55 239.25 315.62 239.25 315.64Z" fill="#455A64"/>
<path d="M182.4 303.93C182.3 303.96 182.09 302.74 181.16 301.06C180.69 300.23 180.01 299.3 179.11 298.41C178.22 297.51 177.13 296.6 175.97 295.69C173.63 293.9 171.25 292.63 169.55 291.7C167.83 290.78 166.77 290.21 166.81 290.14C166.84 290.08 167.96 290.53 169.72 291.37C171.47 292.22 173.91 293.45 176.29 295.27C177.47 296.19 178.56 297.11 179.46 298.06C180.37 299 181.05 299.99 181.49 300.87C181.93 301.76 182.17 302.53 182.29 303.06C182.41 303.62 182.43 303.93 182.4 303.93Z" fill="#455A64"/>
<path d="M282.289 317.5C282.409 317.61 280.909 319.13 279.739 321.43C278.549 323.72 278.189 325.83 278.029 325.8C277.899 325.8 278.039 323.58 279.269 321.2C280.489 318.79 282.209 317.39 282.289 317.5Z" fill="#263238"/>
<g opacity="0.3">
<path d="M218.1 215.021L224.52 260.241L224.84 260.961C226.35 245.401 224.02 229.481 218.1 215.021Z" fill="black"/>
</g>
<path d="M252.67 241L231.8 277.51L180.37 278.63L180.24 280.96L230.04 280.59L231.62 280.54L284.21 280.64L294.84 262.31L308.42 242.85C309.31 241.57 308.39 239.83 306.84 239.83L254.35 240.03C253.64 240.04 253.01 240.41 252.67 241Z" fill="#E0E0E0"/>
<path d="M294.831 262.311C294.831 262.311 297.531 264.791 297.111 266.891C296.681 268.991 296.831 270.561 294.831 270.701C294.831 270.701 294.971 273.401 292.131 273.831C292.131 273.831 292.741 277.131 288.901 277.701C288.901 277.701 287.721 281.231 285.301 280.371C282.881 279.521 281.321 278.521 281.321 278.521L280.611 277.241C280.611 277.241 277.051 275.901 277.931 273.891C278.461 272.671 280.311 272.351 280.311 272.351C280.311 272.351 279.541 270.561 280.541 269.221C281.391 268.071 284.181 269.021 284.181 269.021C284.181 269.021 284.021 267.541 285.061 266.301C286.011 265.181 290.431 268.231 290.431 268.231L292.851 265.351L294.831 262.311Z" fill="#FFBE9D"/>
<path d="M288.901 277.701C288.821 277.821 286.841 276.721 284.461 275.251C282.081 273.771 280.221 272.481 280.301 272.361C280.381 272.241 282.361 273.331 284.741 274.811C287.111 276.281 288.971 277.581 288.901 277.701Z" fill="#EB996E"/>
<path d="M292.13 273.831C292.06 273.951 290.21 272.981 288.01 271.651C285.81 270.321 284.09 269.151 284.16 269.031C284.23 268.911 286.08 269.881 288.28 271.211C290.48 272.531 292.2 273.711 292.13 273.831Z" fill="#EB996E"/>
<path d="M287.73 266.591C287.81 266.441 289.46 267.311 291.38 268.531C293.3 269.761 294.85 270.711 294.81 270.811C294.74 270.981 293.02 270.201 291.1 268.971C289.17 267.751 287.67 266.701 287.73 266.591Z" fill="#EB996E"/>
<path d="M308.41 241.221C308.41 241.231 308.32 241.241 308.16 241.251C307.96 241.261 307.719 241.271 307.419 241.281C306.729 241.291 305.779 241.311 304.579 241.331C302.069 241.351 298.509 241.381 294.139 241.411C285.279 241.431 273.12 241.461 259.69 241.491C258.85 241.491 258.009 241.491 257.179 241.491C256.389 241.431 255.679 241.781 255.269 242.391C254.479 243.821 253.699 245.221 252.929 246.611C251.389 249.381 249.91 252.061 248.5 254.611C245.67 259.701 243.12 264.281 240.97 268.141C238.83 271.951 237.079 275.051 235.849 277.241C235.249 278.281 234.78 279.101 234.44 279.701C234.29 279.961 234.16 280.161 234.06 280.331C233.97 280.471 233.919 280.541 233.919 280.541C233.909 280.541 233.949 280.461 234.019 280.311C234.109 280.131 234.219 279.921 234.349 279.651C234.669 279.041 235.119 278.201 235.679 277.141C236.879 274.931 238.57 271.811 240.65 267.961C242.77 264.081 245.29 259.481 248.09 254.371C249.49 251.811 250.97 249.131 252.5 246.351C253.27 244.961 254.049 243.541 254.849 242.101C255.339 241.321 256.32 240.891 257.19 240.961C258.02 240.961 258.859 240.961 259.699 240.961C273.139 240.991 285.299 241.021 294.15 241.041C298.53 241.071 302.079 241.101 304.59 241.121C305.789 241.141 306.739 241.161 307.429 241.171C307.729 241.181 307.969 241.191 308.169 241.201C308.329 241.201 308.41 241.211 308.41 241.221Z" fill="#263238"/>
<path d="M271.411 259.57C270.481 260.6 270.461 262.09 271.361 262.91C272.261 263.72 273.751 263.55 274.681 262.52C275.611 261.49 275.631 260 274.731 259.18C273.821 258.37 272.331 258.54 271.411 259.57Z" fill="white"/>
<g opacity="0.3">
<path d="M125.409 245.45C124.959 245.63 124.459 245.93 124.449 246.41C124.449 246.8 124.809 247.11 125.189 247.19C125.569 247.27 126.949 246.701 127.329 246.621C132.739 245.431 137.189 246.57 142.339 248.59L142.509 248.42C140.459 244.09 131.229 243.11 125.409 245.45Z" fill="black"/>
</g>
<path d="M404.04 448.441C404.04 448.581 313.58 448.701 202.03 448.701C90.43 448.701 0 448.581 0 448.441C0 448.301 90.44 448.181 202.03 448.181C313.59 448.181 404.04 448.291 404.04 448.441Z" fill="#263238"/>
<path d="M97.4393 129.69C97.6093 129.86 130.819 118.45 130.819 118.45L118.049 89.1504L88.4893 100.45L104.749 109.79L97.4393 129.69Z" fill="#455A64"/>
<path d="M113.009 97.9704V58.0804C113.009 58.0804 158.819 49.7104 191.819 50.2004C224.819 50.6904 258.809 56.1104 258.809 56.1104V94.4104C258.819 94.4104 155.379 85.1704 113.009 97.9704Z" fill="#455A64"/>
<path d="M112.779 98.0102L130.819 118.62V94.4102C130.819 94.4102 115.729 96.2102 112.779 98.0102Z" fill="#263238"/>
<path d="M113.009 58.0703C113.149 58.0703 113.219 67.0103 113.149 78.0403C113.079 89.0703 112.909 98.0103 112.769 98.0103C112.629 98.0103 112.559 89.0703 112.629 78.0403C112.699 67.0103 112.869 58.0703 113.009 58.0703Z" fill="#263238"/>
<path d="M274.339 126.631C274.169 126.801 240.959 115.391 240.959 115.391L253.729 86.0908L283.289 97.3908L267.029 106.731L274.339 126.631Z" fill="#455A64"/>
<path d="M258.999 94.9506L240.959 115.561V93.1006C246.979 93.3006 252.989 93.9206 258.999 94.9506Z" fill="#263238"/>
<path d="M258.819 56.1104C258.959 56.1104 259.119 64.8004 259.169 75.5304C259.219 86.2604 259.149 94.9504 258.999 94.9504C258.859 94.9504 258.699 86.2604 258.649 75.5304C258.599 64.8104 258.669 56.1104 258.819 56.1104Z" fill="#263238"/>
<path d="M138.849 75.5704C138.409 72.3904 140.539 69.7704 143.819 69.3204C145.639 69.0704 147.259 69.5204 148.419 70.5904L147.049 72.2504C146.229 71.5304 145.279 71.2404 144.229 71.3804C142.259 71.6504 141.049 73.2404 141.319 75.2304C141.599 77.2204 143.189 78.4104 145.169 78.1404C146.229 77.9904 147.059 77.4504 147.649 76.5204L149.419 77.7504C148.589 79.1104 147.159 79.9804 145.319 80.2404C142.049 80.6904 139.289 78.7504 138.849 75.5704Z" fill="white"/>
<path d="M149.759 74.0697C149.439 70.9197 151.649 68.3397 154.989 67.9897C158.319 67.6497 161.029 69.7097 161.349 72.8697C161.679 76.0297 159.449 78.5997 156.119 78.9497C152.779 79.2897 150.089 77.2197 149.759 74.0697ZM158.869 73.1297C158.659 71.1197 157.099 69.8897 155.209 70.0797C153.319 70.2697 152.039 71.7997 152.239 73.8097C152.449 75.8197 154.009 77.0497 155.899 76.8597C157.799 76.6697 159.079 75.1397 158.869 73.1297Z" fill="white"/>
<path d="M173.329 77.4004L172.899 71.0204L170.109 76.4704L168.999 76.5404L165.559 71.6204L165.959 77.8604L163.649 78.0104L162.969 67.3804L164.999 67.2504L169.399 73.6004L172.889 66.7404L174.909 66.6104L175.619 77.2404L173.329 77.4004Z" fill="white"/>
<path d="M187.1 70.1199C187.17 72.4899 185.43 74.0199 182.58 74.0999L180.44 74.1599L180.52 77.0999L178.06 77.1699L177.76 66.5199L182.37 66.3899C185.21 66.3099 187.03 67.7399 187.1 70.1199ZM184.6 70.1899C184.57 69.0199 183.79 68.3599 182.28 68.3999L180.27 68.4599L180.37 72.1599L182.38 72.0999C183.89 72.0599 184.63 71.3499 184.6 70.1899Z" fill="white"/>
<path d="M188.969 66.25H191.429V74.89H196.769V76.9H188.969V66.25Z" fill="white"/>
<path d="M206.369 75.2L206.309 77.18L198.059 76.94L198.369 66.29L206.419 66.52L206.359 68.5L200.759 68.34L200.689 70.65L205.629 70.79L205.569 72.71L200.629 72.57L200.559 75.03L206.369 75.2Z" fill="white"/>
<path d="M210.929 68.7801L207.529 68.5801L207.649 66.5801L216.909 67.1401L216.789 69.1401L213.389 68.9301L212.869 77.5501L210.409 77.4001L210.929 68.7801Z" fill="white"/>
<path d="M225.88 76.6598L225.7 78.6298L217.49 77.8698L218.47 67.2598L226.49 67.9998L226.31 69.9698L220.73 69.4498L220.52 71.7498L225.44 72.2098L225.26 74.1198L220.34 73.6598L220.11 76.1098L225.88 76.6598Z" fill="white"/>
<path d="M228.959 68.2695L233.749 68.9095C237.199 69.3695 239.289 71.7695 238.859 74.9595C238.429 78.1595 235.789 79.9195 232.339 79.4595L227.549 78.8195L228.959 68.2695ZM232.489 77.4395C234.589 77.7195 236.119 76.6495 236.389 74.6295C236.659 72.6095 235.459 71.1695 233.359 70.8995L231.129 70.5995L230.259 77.1395L232.489 77.4395Z" fill="white"/>
<path d="M279.309 59.7398L281.929 62.8098L289.309 59.7398L287.149 56.5098L279.309 59.7398Z" fill="#455A64"/>
<path d="M275.93 45.13C275.93 47.25 274.21 48.97 272.09 48.97C269.97 48.97 268.25 47.25 268.25 45.13C268.25 43.01 269.97 41.29 272.09 41.29C274.21 41.29 275.93 43.01 275.93 45.13Z" fill="#FF725E"/>
<path d="M189.908 102.41C189.908 103.47 189.048 104.33 187.988 104.33C186.928 104.33 186.068 103.47 186.068 102.41C186.068 101.35 186.928 100.49 187.988 100.49C189.048 100.49 189.908 101.35 189.908 102.41Z" fill="#FF725E"/>
<path d="M100.459 73.5498C100.459 74.3598 99.8091 75.0098 98.9991 75.0098C98.1991 75.0098 97.5391 74.3598 97.5391 73.5498C97.5391 72.7398 98.1891 72.0898 98.9991 72.0898C99.7991 72.0898 100.459 72.7398 100.459 73.5498Z" fill="#FF725E"/>
<path d="M95.0391 57.4803L99.3391 57.7403L101.379 49.2803L97.3691 49.4503L95.0391 57.4803Z" fill="#455A64"/>
<path d="M229.439 125.01L230.889 129.07L239.469 127.63L237.739 124L229.439 125.01Z" fill="#FF725E"/>
<path d="M142.659 101.58L140.009 104.98L145.819 111.45L147.959 108.04L142.659 101.58Z" fill="#455A64"/>
<path d="M132.38 21.7002L142.54 32.0602L156.84 26.6602L157.4 30.2102L151.21 42.8802L156.92 52.3402L156.44 55.1702L142.61 52.8402L134.43 61.8102L132.51 60.3602L130.82 48.9502L117.92 42.2302L117.35 39.6302L130.34 36.0702L132.38 21.7002Z" fill="#FF725E"/>
<g opacity="0.3">
<path d="M132.38 21.7002L142.54 32.0602L156.84 26.6602L157.4 30.2102L151.21 42.8802L156.92 52.3402L156.44 55.1702L142.61 52.8402L134.43 61.8102L132.51 60.3602L130.82 48.9502L117.92 42.2302L117.35 39.6302L130.34 36.0702L132.38 21.7002Z" fill="black"/>
</g>
<path d="M132.38 18.7998L142.54 29.1598L156.84 26.6598L150.12 39.5198L156.92 52.3398L142.61 49.9398L132.51 60.3598L130.38 46.0098L117.35 39.6298L130.34 33.1598L132.38 18.7998Z" fill="#FF725E"/>
<path d="M237.639 21.7002L227.479 32.0602L213.189 26.6602L212.619 30.2102L218.809 42.8802L213.099 52.3402L213.579 55.1702L227.409 52.8402L235.589 61.8102L237.509 60.3602L239.199 48.9502L252.099 42.2302L252.669 39.6302L239.679 36.0702L237.639 21.7002Z" fill="#FF725E"/>
<g opacity="0.3">
<path d="M237.639 21.7002L227.479 32.0602L213.189 26.6602L212.619 30.2102L218.809 42.8802L213.099 52.3402L213.579 55.1702L227.409 52.8402L235.589 61.8102L237.509 60.3602L239.199 48.9502L252.099 42.2302L252.669 39.6302L239.679 36.0702L237.639 21.7002Z" fill="black"/>
</g>
<path d="M237.64 18.7998L227.48 29.1598L213.19 26.6598L219.9 39.5198L213.1 52.3398L227.41 49.9398L237.51 60.3598L239.64 46.0098L252.67 39.6298L239.68 33.1598L237.64 18.7998Z" fill="#FF725E"/>
<path d="M184.679 3.54004L193.129 20.05L212.619 18.9L211.959 23.44L199.579 36.55L202.939 50.27L201.279 53.53L185.289 45.42L171.899 53.26L170.109 50.75L172.389 36.18L159.209 23.07L159.509 19.68L176.709 20.29L184.679 3.54004Z" fill="#FF725E"/>
<g opacity="0.3">
<path d="M184.679 3.54004L193.129 20.05L212.619 18.9L211.959 23.44L199.579 36.55L202.939 50.27L201.279 53.53L185.289 45.42L171.899 53.26L170.109 50.75L172.389 36.18L159.209 23.07L159.509 19.68L176.709 20.29L184.679 3.54004Z" fill="black"/>
</g>
<path d="M185.78 0L194.23 16.5L212.62 18.9L199.53 32.04L202.94 50.27L186.4 41.88L170.11 50.75L172.98 32.43L159.51 19.68L177.82 16.74L185.78 0Z" fill="#FF725E"/>
<path d="M219.449 148.111L233.569 149.671C236.969 144.831 241.709 140.841 247.539 138.331C264.309 131.111 283.749 138.861 290.969 155.631C298.189 172.401 290.439 191.841 273.669 199.061C256.899 206.281 237.459 198.531 230.239 181.761C227.229 174.761 226.829 167.291 228.599 160.441L228.589 160.461L219.449 148.111Z" fill="#FAFAFA"/>
<path d="M219.449 148.111C219.999 148.851 222.859 152.631 228.699 160.381L228.479 160.391L228.489 160.371C228.519 160.311 228.599 160.281 228.669 160.321C228.719 160.351 228.749 160.411 228.729 160.471C227.559 165.041 227.109 171.051 228.949 177.541C229.419 179.151 229.989 180.801 230.779 182.401C231.179 183.201 231.559 184.021 231.999 184.831C232.489 185.611 232.979 186.401 233.479 187.201C235.629 190.301 238.419 193.221 241.829 195.581C245.229 197.951 249.249 199.771 253.619 200.721C257.989 201.681 262.719 201.791 267.379 200.781C272.029 199.771 276.589 197.721 280.549 194.681C284.489 191.641 287.909 187.661 290.099 182.961C292.359 178.191 293.559 172.971 293.379 167.871C293.239 162.781 291.899 157.851 289.679 153.551C287.459 149.251 284.359 145.541 280.739 142.771C277.139 139.981 273.089 138.061 269.029 136.971C264.959 135.881 260.889 135.631 257.089 136.011C253.279 136.411 249.829 137.551 246.739 138.871C240.589 141.691 236.349 145.951 233.669 149.721C233.639 149.761 233.599 149.781 233.549 149.771C224.619 148.731 220.319 148.221 219.449 148.111C220.329 148.201 224.629 148.631 233.589 149.541L233.469 149.591C236.129 145.771 240.379 141.441 246.589 138.551C249.699 137.191 253.199 136.021 257.049 135.611C260.889 135.211 265.019 135.451 269.149 136.551C273.269 137.641 277.369 139.581 281.039 142.401C284.709 145.201 287.859 148.961 290.129 153.321C292.399 157.681 293.759 162.681 293.909 167.861C294.099 173.041 292.879 178.341 290.589 183.191C288.359 187.971 284.889 192.011 280.879 195.101C276.859 198.191 272.219 200.271 267.499 201.281C262.769 202.291 257.959 202.171 253.529 201.191C249.089 200.211 245.029 198.361 241.579 195.951C238.129 193.541 235.309 190.581 233.149 187.431C232.649 186.621 232.149 185.821 231.659 185.031C231.219 184.211 230.839 183.381 230.439 182.571C229.649 180.951 229.079 179.281 228.609 177.651C226.779 171.081 227.279 165.011 228.489 160.411L228.729 160.511L228.719 160.531C228.689 160.591 228.609 160.621 228.539 160.581C228.519 160.571 228.509 160.561 228.499 160.541C222.779 152.691 219.989 148.851 219.449 148.111Z" fill="#263238"/>
<path d="M248.419 156.921C248.429 156.931 248.439 157.081 248.449 157.381C248.459 157.711 248.469 158.131 248.479 158.661C248.489 159.811 248.509 161.431 248.539 163.471C248.569 167.621 248.609 173.461 248.649 180.461L248.419 180.231C255.269 180.221 263.339 180.211 271.949 180.191C272.009 180.131 271.459 180.681 271.689 180.451V180.441V180.431V180.401V180.351V180.251V180.051V179.651V178.851C271.689 178.321 271.689 177.781 271.689 177.251C271.689 176.191 271.689 175.141 271.689 174.101C271.689 172.021 271.689 169.991 271.699 168.021C271.709 164.071 271.719 160.341 271.729 156.921L271.959 157.151C264.959 157.101 259.119 157.061 254.969 157.041C252.929 157.011 251.319 157.001 250.159 156.981C249.629 156.971 249.209 156.961 248.879 156.951C248.589 156.941 248.429 156.931 248.419 156.921C248.409 156.911 248.549 156.901 248.829 156.891C249.149 156.881 249.559 156.871 250.069 156.861C251.209 156.851 252.809 156.831 254.829 156.801C259.009 156.771 264.909 156.731 271.959 156.691H272.179V156.921C272.189 160.341 272.199 164.071 272.209 168.021C272.209 170.001 272.209 172.031 272.219 174.101C272.219 175.141 272.219 176.191 272.219 177.251C272.219 177.781 272.219 178.311 272.219 178.851V179.651V180.051V180.251V180.351V180.401V180.431V180.441V180.451C272.449 180.221 271.899 180.771 271.959 180.711C263.349 180.701 255.279 180.691 248.429 180.671H248.199V180.441C248.249 173.381 248.289 167.491 248.309 163.311C248.329 161.301 248.349 159.701 248.369 158.551C248.379 158.041 248.389 157.631 248.399 157.311C248.399 157.051 248.409 156.921 248.419 156.921Z" fill="#263238"/>
<path d="M269.409 160.811C269.749 161.081 266.579 165.641 262.339 170.991C261.489 172.061 260.669 173.081 259.899 174.011L259.399 174.621L258.839 174.111C255.159 170.801 252.669 168.261 252.899 168.001C253.129 167.741 255.999 169.841 259.809 172.991L258.739 173.091C259.469 172.131 260.269 171.091 261.119 170.021C265.359 164.671 269.079 160.551 269.409 160.811Z" fill="#FF725E"/>
</svg>
