<svg width="161" height="65" viewBox="0 0 161 65" fill="none" xmlns="http://www.w3.org/2000/svg">
<path d="M124.577 21.5044C123.489 19.2647 121.883 17.5768 119.432 16.8951C115.683 15.8564 112.08 16.2297 108.818 18.5181C108.509 18.7291 108.201 18.9401 107.763 19.2484C106.838 16.7978 104.841 16.8464 102.797 17.0087C102.488 17.0412 102.18 17.0087 101.888 17.0087C99.9076 17.0087 97.9276 17.0087 95.834 17.0087C95.834 17.5443 95.834 17.9663 95.834 18.372C95.834 33.5306 95.834 48.6891 95.834 63.8477C95.834 64.221 95.8664 64.6267 95.8827 65C100.102 65 104.306 65 108.526 65C108.526 60.7965 108.526 56.593 108.526 52.4869C110.408 52.6654 112.177 52.99 113.963 52.99C120.065 52.9251 123.733 50.1174 125.551 44.2909C125.632 44.0312 125.697 43.7878 125.762 43.5119C126.979 38.8215 126.963 34.0499 126.541 29.2622C126.281 26.568 125.762 23.9388 124.577 21.5044ZM113.492 41.1748C112.924 43.9663 111.268 44.7453 108.461 43.7229C108.461 42.9601 108.461 42.1648 108.461 41.3695C108.461 36.8252 108.493 32.2647 108.444 27.7204C108.444 26.9251 108.72 26.5194 109.418 26.2921C109.808 26.1623 110.197 26 110.603 25.8702C112.34 25.367 113.459 25.9351 113.687 27.7041C114.287 32.1835 114.417 36.7116 113.492 41.1748ZM74.8003 18.015C74.7516 21.1473 74.784 24.2797 74.784 27.4769C73.3721 27.2984 72.1386 27.1199 70.8727 26.99C70.2397 26.9413 69.5743 26.9738 68.9251 27.0549C66.3121 27.3958 65.9551 27.8177 65.9551 30.3983C65.9551 37.2472 65.9551 44.0961 65.9551 50.9451C65.9551 51.3508 65.9551 51.7728 65.9551 52.2435C61.7191 52.2435 57.613 52.2435 53.3933 52.2435C53.3933 40.5581 53.3933 28.8727 53.3933 17.0737C53.653 17.0412 53.9451 16.9763 54.221 16.9763C56.9314 16.9763 59.658 16.9925 62.3845 16.9601C63.0986 16.9438 63.5044 17.171 63.7965 17.8202C64.186 18.6479 64.6729 19.427 65.1274 20.2547C67.4482 16.5705 69.7853 15.6292 73.7291 16.6841C74.4919 16.8951 74.8165 17.1873 74.8003 18.015ZM90.5593 6.34582C90.5593 9.86767 87.7191 12.7079 84.1973 12.7079H84.181C83.6779 12.7079 83.1586 12.6592 82.6392 12.5293C81.5031 12.2372 80.5294 11.6854 79.7503 10.9226C78.5656 9.77029 77.819 8.14732 77.819 6.34582C77.819 3.16479 80.1561 0.519355 83.2235 0.0649228C83.2884 0.0324634 83.3696 0.0162297 83.4507 0C83.9051 0 84.3758 0 84.8302 0C84.8627 0.0162297 84.8951 0.0324624 84.9276 0.0486921C88.0924 0.389516 90.5593 3.06742 90.5593 6.34582ZM77.8677 17.0574C82.0712 17.0574 86.1773 17.0574 90.3808 17.0574C90.3808 28.8077 90.3808 40.5256 90.3808 52.2921C86.1935 52.2921 82.0712 52.2921 77.8677 52.2921C77.8677 40.4931 77.8677 28.8077 77.8677 17.0574ZM159.179 27.8015C158.757 24.6529 157.523 21.7478 155.105 19.5081C152.167 16.7815 148.532 16.2135 144.734 16.392C137.333 16.7166 132.919 20.0112 131.101 26.633C129.624 32.005 129.624 37.4582 131.069 42.8627C132.432 48.0237 135.727 51.3346 141.082 52.4057C145.854 53.3633 150.593 53.1523 155.283 51.9675C157.994 51.2859 157.994 51.2859 157.994 48.5106C157.994 46.3845 157.994 44.2584 157.994 42.035C156.825 42.2459 155.819 42.4245 154.813 42.603C151.843 43.0899 148.856 43.7228 145.821 43.2522C143.517 42.8951 142.478 41.3533 142.819 38.8539C148.402 38.8539 154.018 38.8539 160.006 38.8539C159.747 35.0237 159.665 31.3883 159.179 27.8015ZM142.576 31.9238C142.754 29.9601 142.884 28.0612 143.127 26.1785C143.192 25.643 143.501 25.0749 143.858 24.6692C145.01 23.3383 147.104 23.6954 147.461 25.3995C147.899 27.4931 147.964 29.6841 148.207 31.9238C146.162 31.9238 144.491 31.9238 142.576 31.9238ZM43.9476 26.2272C43.9476 30.9014 43.9476 35.5755 43.9476 40.2335C43.9476 40.6067 43.9476 41.0125 43.98 41.3858C44.1748 42.9438 44.7428 43.4794 46.3171 43.382C47.6967 43.3009 49.0437 43.0899 50.5368 42.9276C50.5368 45.9463 50.5368 48.8514 50.5368 51.8864C46.1873 52.6817 41.8377 53.623 37.4232 52.5356C33.5119 51.5943 31.3533 48.3645 31.3046 43.5281C31.2397 37.8152 31.2884 32.1186 31.2884 26.4057C31.2884 26 31.2884 25.5943 31.2884 25.0911C29.7141 25.0911 28.2859 25.0911 26.7441 25.0911C26.7441 22.397 26.7441 19.784 26.7441 17.0574C28.221 17.0574 29.6979 17.0574 31.2722 17.0574C31.7428 14.7041 32.246 12.432 32.6517 10.1436C32.7978 9.38077 33.0412 8.9588 33.8689 8.78028C37.1798 8.03371 40.4744 7.206 43.8989 6.37828C43.8989 9.93259 43.8989 13.3895 43.8989 16.9763C46.1711 16.9763 48.3296 16.9763 50.6018 16.9763C50.0337 19.7353 49.4981 22.3483 48.9463 25.0424C47.3071 25.0424 45.7166 25.0424 43.9963 25.0424C43.98 25.4969 43.9476 25.8539 43.9476 26.2272ZM25.2185 42.6192C24.5531 48.9488 20.9988 52.2759 14.6043 52.8602C10.4657 53.2335 6.44072 52.6817 2.48067 51.5618C2.13985 51.4807 1.65296 51.0424 1.63673 50.7665C1.57181 47.9913 1.60427 45.1835 1.60427 42.2946C3.63298 42.7166 5.53186 43.2035 7.46319 43.4956C8.66419 43.6904 9.91388 43.7391 11.0986 43.5606C11.7154 43.4632 12.4619 42.8627 12.7703 42.2784C13.1923 41.4669 12.8028 40.5743 12.0237 40.0874C10.985 39.4382 9.86519 38.9351 8.79403 38.367C7.56057 37.7016 6.24596 37.1011 5.10988 36.3059C2.85395 34.7154 1.53935 32.4757 1.16606 29.7166C1.13361 29.4569 1.02 29.2135 0.955078 28.9538C0.955078 28.2722 0.955078 27.5743 0.955078 26.8926C1.14983 25.9675 1.26344 25.0262 1.52312 24.1174C2.72412 19.8165 5.87268 17.6904 10.0113 16.8627C14.4095 15.97 18.7591 16.3596 23.0275 17.7228C23.7091 17.9501 23.985 18.2584 23.9688 19.005C23.9201 21.6017 23.9526 24.1985 23.9526 26.7628C21.7778 26.3571 19.6842 25.9513 17.5743 25.6267C16.7141 25.4969 15.7728 25.432 14.9613 25.6592C14.3771 25.8215 13.5656 26.4382 13.4844 26.9413C13.387 27.5418 13.7928 28.4832 14.2959 28.8727C15.221 29.5868 16.3733 29.9763 17.412 30.5443C18.7591 31.2584 20.1873 31.8752 21.4045 32.7678C24.7803 35.186 25.6242 38.7241 25.2185 42.6192Z" fill="#6772E5"/>
</svg>
