<svg width="1400" height="400" viewBox="0 0 1400 400" fill="none" xmlns="http://www.w3.org/2000/svg">
<mask id="mask0_1_2" style="mask-type:alpha" maskUnits="userSpaceOnUse" x="0" y="0" width="1400" height="400">
<rect width="1400" height="400" fill="#D9D9D9"/>
</mask>
<g mask="url(#mask0_1_2)">
<rect width="1646.6" height="190.821" transform="matrix(0.987843 -0.155454 0.656457 0.754363 -220.938 255.969)" fill="#E37048" fill-opacity="0.05"/>
<path d="M1117.24 38.9705L1483.4 3.03183L1498.7 28.8931L1117.24 69.4022L1117.24 38.9705Z" fill="#F2BCA9"/>
<path d="M240.32 278.141L-124.499 316.474L-140.729 290.716L239.218 247.713L240.32 278.141Z" fill="#E37048"/>
<path d="M1240.12 62.8467L1606.29 26.908L1621.58 52.7693L1234.86 91.6281L1240.12 62.8467Z" fill="#D9D9D9"/>
<path d="M992.94 140.888L992.94 113.888L1234.23 91.2905L1234.23 118.048L992.94 140.888Z" stroke="#E37048"/>
<path d="M218.062 327.555L218.062 300.555L459.351 277.957L459.351 304.715L218.062 327.555Z" stroke="#E37048"/>
<path d="M1074.22 56.9552L1440.38 21.0165L1455.68 46.8777L1074.22 87.3868L1074.22 56.9552Z" fill="#E37048"/>
<path d="M211.883 298.296L-152.936 336.629L-169.166 310.871L210.78 267.868L211.883 298.296Z" fill="#E37048" fill-opacity="0.44"/>
</g>
</svg>
