<svg width="562" height="481" viewBox="0 0 562 481" fill="none" xmlns="http://www.w3.org/2000/svg">
<g opacity="0.3">
<path d="M499.14 439.464C499.14 439.464 523.845 364.9 501.263 333.938C478.68 302.976 460.803 289.245 472.113 264.254C483.422 239.263 478.382 198.381 448.525 186.115C418.667 173.85 432.472 127.567 399.424 101.074C366.376 74.5811 339.312 86.5986 323.446 53.8112C309.504 25.071 280.602 -2.05524 251.664 25.8407C245.372 32.0665 240.936 39.9198 238.852 48.5225C236.542 57.5232 228.46 73.1286 201.173 88.7215C159.186 112.719 175.834 128.188 158.963 155.898C142.091 183.608 88.037 169.678 67.7513 222.851C47.4655 276.023 91.2524 293.925 87.7018 325.657C84.1512 357.389 63.1206 374.77 75.9326 438.632" stroke="#E5C2A5" stroke-miterlimit="10"/>
<path d="M511.083 440.271C511.083 440.271 539.972 357.787 515.614 326.452C491.256 295.117 471.951 281.3 484.155 256.036C496.359 230.772 490.921 189.48 458.668 177.078C426.414 164.675 441.386 117.983 405.632 91.1799C369.877 64.3764 346.041 66.9339 328.908 33.8609C313.874 4.82278 277.474 -12.9924 246.263 15.1519C239.551 21.3064 234.75 29.2619 232.433 38.0695C229.95 47.1696 221.26 62.8991 191.775 78.7031C146.473 102.949 164.462 118.579 146.238 146.587C128.013 174.595 77.7577 164.986 55.2621 211.901C30.2215 264.217 69.1915 285.235 65.3553 317.365C61.5192 349.494 51.8977 374.982 65.7154 439.464" stroke="#E5C2A5" stroke-miterlimit="10"/>
<path d="M255.624 42.4655C249.457 48.7393 245.128 56.5845 243.11 65.1473C240.85 74.1604 232.955 89.7534 206.3 105.359C165.331 129.356 181.557 144.825 165.083 172.535C148.609 200.245 101.693 178.991 81.9041 232.126C62.115 285.261 107.764 309.296 104.251 341.09C100.737 372.885 73.5117 374.734 86.0258 438.546H499.438C499.438 438.546 521.486 381.5 499.438 350.501C477.389 319.501 459.909 305.808 470.958 280.804C482.007 255.801 477.091 214.944 447.891 202.678C418.692 190.412 432.249 144.192 399.933 117.662C367.618 91.1314 341.224 103.174 325.73 70.4608C312.111 41.7082 283.88 14.5944 255.624 42.4655Z" fill="#F7E4D2"/>
<path d="M257.25 57.4113C251.342 63.4222 247.202 70.9428 245.283 79.1496C243.122 87.7654 235.574 102.738 210.074 117.635C170.856 140.59 186.399 155.389 170.645 181.894C154.891 208.4 110.011 188.102 91.0663 238.928C72.1214 289.754 115.809 312.746 112.482 343.15C109.155 373.553 83.0836 375.341 95.1011 436.372H490.437C490.437 436.372 511.542 381.809 490.437 352.15C469.332 322.491 452.634 309.406 463.199 285.495C473.764 261.585 469.059 222.49 441.138 210.759C413.217 199.027 426.178 154.892 395.203 129.454C364.228 104.016 339.076 115.55 324.253 84.2521C311.279 56.6913 284.277 30.732 257.25 57.4113Z" stroke="white" stroke-miterlimit="10"/>
<path d="M409.815 208.103C407.332 206.688 404.179 207.718 403.608 206.862C403.037 206.005 406.24 203.609 407.246 201.039C408.251 198.469 407.121 191.802 402.975 194.943C401.715 195.992 400.682 197.285 399.937 198.745C399.193 200.204 398.752 201.8 398.642 203.435C398.642 203.435 398.58 203.721 398.518 204.217C397.678 201.661 397.457 198.942 397.872 196.284C397.882 196.226 397.88 196.165 397.867 196.108C397.853 196.05 397.829 195.995 397.794 195.946C397.76 195.898 397.716 195.857 397.665 195.825C397.615 195.794 397.559 195.773 397.5 195.763C397.441 195.753 397.381 195.755 397.323 195.768C397.265 195.782 397.211 195.806 397.162 195.841C397.114 195.876 397.073 195.919 397.041 195.97C397.01 196.02 396.988 196.077 396.979 196.135C396.607 198.514 396.696 200.941 397.239 203.286C395.661 201.585 393.784 200.188 391.702 199.164C391.65 199.137 391.592 199.121 391.533 199.117C391.474 199.113 391.415 199.122 391.359 199.141C391.303 199.161 391.252 199.192 391.208 199.232C391.165 199.273 391.13 199.321 391.106 199.375C391.079 199.429 391.063 199.488 391.059 199.548C391.055 199.608 391.063 199.668 391.083 199.725C391.102 199.781 391.133 199.834 391.174 199.878C391.214 199.923 391.263 199.959 391.317 199.984C391.317 199.984 395.886 202.181 397.649 205.459C397.356 205.241 397.049 205.042 396.73 204.863C395.421 203.875 393.925 203.165 392.333 202.774C390.741 202.384 389.086 202.321 387.469 202.591C382.391 203.683 386.687 208.898 389.294 209.816C391.901 210.735 395.812 209.94 396.072 210.859C396.333 211.778 393.465 213.528 392.944 216.297C392.422 219.065 395.687 221.946 397.512 222.082C399.337 222.219 401.659 216.644 401.634 212.498C404.837 214.981 410.213 216.545 411.156 215.279C412.311 213.864 412.261 209.506 409.815 208.103Z" fill="#DBA291"/>
<path d="M139.956 251.07C139.496 248.798 137.125 247.346 137.324 246.638C137.522 245.93 140.75 246.489 142.885 245.707C145.021 244.925 148.497 240.604 144.301 239.76C142.972 239.556 141.616 239.623 140.314 239.958C139.013 240.293 137.792 240.889 136.728 241.709C136.728 241.709 136.517 241.833 136.182 242.069C137.289 240.158 138.838 238.54 140.7 237.352C140.743 237.327 140.78 237.295 140.81 237.256C140.84 237.216 140.861 237.172 140.872 237.124C140.884 237.076 140.886 237.027 140.878 236.978C140.869 236.93 140.851 236.884 140.825 236.843C140.8 236.8 140.768 236.763 140.729 236.733C140.689 236.704 140.645 236.682 140.597 236.671C140.549 236.659 140.5 236.657 140.451 236.666C140.403 236.674 140.357 236.692 140.316 236.718C138.648 237.779 137.201 239.154 136.057 240.766C136.247 238.869 136.083 236.954 135.573 235.117C135.544 235.024 135.48 234.945 135.394 234.899C135.308 234.852 135.208 234.842 135.114 234.869C135.067 234.881 135.023 234.904 134.984 234.934C134.946 234.964 134.914 235.002 134.891 235.045C134.868 235.088 134.854 235.135 134.849 235.184C134.845 235.233 134.85 235.282 134.866 235.328C134.866 235.328 135.995 239.338 134.94 242.206C134.915 241.905 134.87 241.606 134.803 241.312C134.717 239.97 134.358 238.66 133.75 237.46C133.142 236.261 132.297 235.198 131.265 234.335C127.826 231.852 126.957 237.277 127.814 239.388C128.671 241.498 131.29 243.472 130.868 244.13C130.446 244.788 127.802 243.969 125.815 245.161C123.829 246.352 123.829 249.928 124.748 251.12C125.666 252.311 130.347 250.71 132.892 248.438C133.078 251.778 135.064 255.887 136.368 255.812C137.795 255.75 140.44 253.354 139.956 251.07Z" fill="#DBA291"/>
<path d="M279.572 91.5649C279.113 89.293 276.742 87.8405 276.94 87.1204C277.139 86.4004 280.367 86.9714 282.502 86.2017C284.637 85.432 288.114 81.0868 283.93 80.2426C282.599 80.0382 281.24 80.1066 279.936 80.4438C278.631 80.781 277.41 81.3799 276.344 82.2042C276.156 82.3096 275.974 82.4257 275.798 82.5518C276.902 80.6413 278.453 79.0269 280.317 77.8466C280.402 77.7929 280.462 77.7084 280.485 77.611C280.508 77.5137 280.492 77.4112 280.441 77.3252C280.39 77.2416 280.308 77.1817 280.212 77.1585C280.117 77.1352 280.016 77.1505 279.932 77.201C278.265 78.2679 276.819 79.6463 275.674 81.2606C275.86 79.3647 275.7 77.4508 275.202 75.6119C275.173 75.5154 275.108 75.434 275.02 75.3852C274.931 75.3365 274.828 75.3243 274.73 75.3512C274.683 75.3654 274.639 75.3889 274.6 75.4204C274.562 75.4519 274.53 75.4908 274.507 75.5348C274.484 75.5787 274.47 75.6269 274.465 75.6764C274.461 75.7259 274.467 75.7757 274.482 75.823C274.482 75.823 275.612 79.8205 274.557 82.6883C274.532 82.3884 274.49 82.09 274.433 81.7945C274.325 80.4527 273.947 79.1467 273.319 77.9559C272.692 76.765 271.829 75.7141 270.783 74.8671C267.344 72.3841 266.475 77.8218 267.331 79.9199C268.188 82.018 270.807 84.0043 270.385 84.6623C269.963 85.3203 267.319 84.5133 265.333 85.6927C263.346 86.8721 263.346 90.46 264.265 91.6518C265.184 92.8436 269.864 91.2545 272.409 88.9702C272.595 92.3222 274.582 96.4191 275.885 96.4191C277.189 96.4191 280.019 93.7996 279.572 91.5649Z" fill="#DBA291"/>
<path d="M216.207 153.167C216.049 153.38 215.831 153.541 215.581 153.629C215.331 153.718 215.06 153.731 214.803 153.666C214.546 153.601 214.314 153.461 214.136 153.264C213.958 153.067 213.843 152.822 213.805 152.559C213.767 152.297 213.807 152.029 213.921 151.79C214.035 151.55 214.218 151.35 214.446 151.214C214.674 151.078 214.937 151.013 215.202 151.027C215.467 151.041 215.722 151.133 215.934 151.292C216.216 151.507 216.402 151.823 216.453 152.174C216.504 152.524 216.416 152.881 216.207 153.167Z" fill="white"/>
<path d="M219.646 147.432C219.428 147.7 219.114 147.873 218.771 147.916C218.428 147.958 218.082 147.866 217.805 147.66C217.528 147.453 217.342 147.148 217.284 146.807C217.227 146.466 217.304 146.116 217.498 145.83C217.713 145.549 218.029 145.362 218.38 145.311C218.73 145.26 219.087 145.348 219.373 145.557C219.515 145.661 219.635 145.793 219.726 145.944C219.817 146.095 219.877 146.263 219.902 146.437C219.928 146.612 219.918 146.79 219.874 146.96C219.83 147.131 219.753 147.291 219.646 147.432Z" fill="white"/>
<path d="M223.656 156.457C223.438 156.725 223.124 156.898 222.781 156.94C222.438 156.983 222.092 156.891 221.815 156.685C221.538 156.478 221.351 156.172 221.294 155.832C221.237 155.491 221.314 155.141 221.508 154.855C221.726 154.587 222.04 154.414 222.383 154.371C222.726 154.329 223.072 154.421 223.349 154.627C223.626 154.834 223.813 155.139 223.87 155.48C223.927 155.821 223.85 156.171 223.656 156.457Z" fill="white"/>
<path d="M395.874 168.821C395.715 169.034 395.497 169.195 395.247 169.284C394.997 169.373 394.727 169.385 394.47 169.32C394.212 169.255 393.98 169.116 393.802 168.919C393.625 168.722 393.51 168.476 393.471 168.214C393.433 167.951 393.474 167.683 393.588 167.444C393.702 167.204 393.884 167.004 394.112 166.868C394.34 166.733 394.603 166.668 394.868 166.682C395.133 166.695 395.388 166.788 395.601 166.946C395.882 167.161 396.069 167.477 396.12 167.828C396.171 168.178 396.083 168.535 395.874 168.821Z" fill="white"/>
<path d="M399.312 163.123C399.155 163.334 398.939 163.493 398.692 163.58C398.445 163.668 398.177 163.681 397.922 163.616C397.668 163.552 397.438 163.413 397.262 163.218C397.086 163.024 396.972 162.781 396.934 162.521C396.896 162.261 396.936 161.996 397.048 161.759C397.161 161.522 397.341 161.323 397.566 161.189C397.791 161.054 398.052 160.989 398.314 161.002C398.576 161.015 398.828 161.105 399.039 161.261C399.18 161.365 399.298 161.496 399.388 161.646C399.478 161.796 399.537 161.963 399.563 162.136C399.588 162.309 399.579 162.485 399.536 162.654C399.493 162.824 399.417 162.983 399.312 163.123Z" fill="white"/>
<path d="M403.323 172.099C403.219 172.241 403.089 172.36 402.94 172.451C402.79 172.542 402.624 172.603 402.451 172.629C402.278 172.656 402.101 172.648 401.931 172.606C401.761 172.564 401.601 172.489 401.46 172.385C401.245 172.229 401.081 172.012 400.989 171.763C400.897 171.513 400.881 171.242 400.944 170.984C401.006 170.725 401.144 170.491 401.34 170.311C401.536 170.131 401.781 170.014 402.044 169.974C402.306 169.933 402.575 169.972 402.816 170.085C403.057 170.198 403.259 170.38 403.396 170.608C403.533 170.835 403.599 171.099 403.586 171.364C403.573 171.63 403.481 171.886 403.323 172.099Z" fill="white"/>
<path d="M332.509 114.644C332.352 114.858 332.135 115.02 331.885 115.11C331.636 115.201 331.365 115.215 331.108 115.151C330.85 115.088 330.618 114.95 330.439 114.754C330.26 114.558 330.143 114.314 330.103 114.051C330.063 113.789 330.102 113.521 330.214 113.281C330.327 113.041 330.508 112.839 330.735 112.702C330.962 112.565 331.224 112.498 331.489 112.51C331.754 112.522 332.01 112.612 332.223 112.77C332.366 112.873 332.488 113.004 332.58 113.154C332.672 113.305 332.733 113.472 332.759 113.647C332.786 113.821 332.777 114 332.734 114.171C332.691 114.342 332.615 114.503 332.509 114.644Z" fill="white"/>
<path d="M335.948 108.946C335.845 109.087 335.714 109.207 335.565 109.298C335.415 109.389 335.249 109.449 335.076 109.476C334.903 109.502 334.726 109.494 334.556 109.452C334.386 109.411 334.226 109.335 334.086 109.231C333.87 109.075 333.706 108.859 333.614 108.609C333.522 108.36 333.506 108.089 333.569 107.83C333.631 107.572 333.769 107.338 333.965 107.158C334.161 106.978 334.406 106.86 334.669 106.82C334.932 106.78 335.201 106.819 335.441 106.932C335.682 107.044 335.884 107.226 336.021 107.454C336.158 107.682 336.224 107.946 336.211 108.211C336.198 108.477 336.106 108.732 335.948 108.946Z" fill="white"/>
<path d="M339.957 117.933C339.856 118.083 339.725 118.21 339.572 118.308C339.42 118.405 339.249 118.471 339.071 118.501C338.892 118.531 338.71 118.524 338.534 118.482C338.358 118.439 338.193 118.362 338.048 118.254C337.903 118.145 337.781 118.009 337.69 117.853C337.599 117.696 337.541 117.523 337.518 117.343C337.496 117.164 337.511 116.982 337.561 116.808C337.611 116.634 337.695 116.472 337.81 116.332C338.028 116.064 338.341 115.891 338.684 115.848C339.027 115.806 339.374 115.897 339.651 116.104C339.928 116.31 340.114 116.616 340.171 116.957C340.229 117.298 340.152 117.648 339.957 117.933Z" fill="white"/>
<path d="M349.765 192.398C349.492 192.17 349.32 191.844 349.288 191.49C349.255 191.136 349.364 190.784 349.591 190.511C349.826 190.27 350.143 190.127 350.479 190.109C350.814 190.091 351.144 190.2 351.403 190.414C351.663 190.628 351.832 190.931 351.878 191.264C351.924 191.597 351.844 191.935 351.652 192.212C351.425 192.484 351.1 192.656 350.747 192.69C350.394 192.725 350.041 192.62 349.765 192.398Z" fill="white"/>
<path d="M355.265 196.134C354.992 195.907 354.82 195.58 354.788 195.227C354.755 194.873 354.864 194.52 355.091 194.247C355.326 194.007 355.643 193.864 355.978 193.846C356.314 193.828 356.644 193.937 356.903 194.15C357.162 194.364 357.332 194.668 357.378 195.001C357.424 195.334 357.343 195.672 357.152 195.948C357.04 196.084 356.903 196.197 356.748 196.28C356.592 196.363 356.422 196.415 356.247 196.432C356.072 196.449 355.895 196.432 355.726 196.381C355.558 196.33 355.401 196.246 355.265 196.134Z" fill="white"/>
<path d="M346.103 199.659C345.832 199.434 345.66 199.111 345.625 198.76C345.59 198.409 345.695 198.059 345.917 197.785C346.022 197.632 346.159 197.503 346.317 197.406C346.475 197.309 346.651 197.245 346.835 197.22C347.019 197.194 347.206 197.207 347.385 197.258C347.563 197.308 347.729 197.396 347.873 197.514C348.016 197.632 348.133 197.778 348.216 197.944C348.3 198.11 348.348 198.291 348.358 198.476C348.368 198.662 348.339 198.847 348.274 199.021C348.208 199.194 348.107 199.353 347.978 199.485C347.866 199.62 347.729 199.732 347.575 199.813C347.42 199.895 347.251 199.946 347.076 199.962C346.902 199.978 346.727 199.959 346.56 199.908C346.393 199.856 346.237 199.771 346.103 199.659Z" fill="white"/>
<path d="M157.56 220.443C157.56 220.78 157.46 221.109 157.272 221.389C157.085 221.669 156.819 221.887 156.507 222.016C156.195 222.144 155.853 222.177 155.523 222.11C155.192 222.044 154.889 221.88 154.652 221.641C154.415 221.402 154.254 221.098 154.189 220.767C154.125 220.436 154.161 220.094 154.291 219.784C154.422 219.473 154.642 219.208 154.923 219.023C155.204 218.837 155.535 218.74 155.871 218.742C156.094 218.742 156.315 218.786 156.52 218.872C156.726 218.958 156.913 219.083 157.07 219.241C157.227 219.399 157.351 219.587 157.435 219.793C157.519 219.999 157.561 220.22 157.56 220.443Z" fill="white"/>
<path d="M384.998 132.894C384.998 133.312 384.874 133.72 384.642 134.068C384.409 134.415 384.079 134.685 383.693 134.845C383.306 135.004 382.881 135.045 382.472 134.963C382.062 134.88 381.686 134.678 381.391 134.382C381.096 134.085 380.896 133.708 380.816 133.298C380.736 132.888 380.78 132.463 380.942 132.077C381.103 131.692 381.376 131.363 381.724 131.133C382.073 130.902 382.482 130.781 382.9 130.783C383.458 130.787 383.991 131.01 384.385 131.406C384.778 131.801 384.998 132.336 384.998 132.894Z" fill="white"/>
<path d="M239.348 198.629C239.351 199.047 239.229 199.457 238.999 199.805C238.768 200.154 238.44 200.426 238.054 200.588C237.669 200.75 237.244 200.793 236.834 200.713C236.424 200.633 236.046 200.433 235.75 200.139C235.454 199.844 235.251 199.468 235.169 199.058C235.086 198.648 235.128 198.223 235.287 197.837C235.446 197.451 235.717 197.12 236.064 196.888C236.411 196.655 236.82 196.531 237.238 196.531C237.796 196.531 238.33 196.752 238.726 197.145C239.121 197.538 239.345 198.072 239.348 198.629Z" fill="white"/>
<path d="M279.634 60.8997C279.634 61.1452 279.562 61.3852 279.425 61.5894C279.289 61.7936 279.095 61.9527 278.868 62.0466C278.641 62.1406 278.391 62.1652 278.151 62.1173C277.91 62.0694 277.689 61.9512 277.515 61.7775C277.341 61.6039 277.223 61.3827 277.175 61.1419C277.127 60.901 277.152 60.6514 277.246 60.4246C277.34 60.1977 277.499 60.0038 277.703 59.8674C277.907 59.731 278.147 59.6582 278.393 59.6582C278.722 59.6582 279.038 59.789 279.271 60.0218C279.504 60.2546 279.634 60.5704 279.634 60.8997Z" fill="white"/>
<path d="M378.009 249.865C378.009 250.243 377.897 250.613 377.687 250.927C377.477 251.242 377.178 251.487 376.829 251.631C376.479 251.776 376.095 251.814 375.724 251.74C375.353 251.666 375.012 251.484 374.745 251.217C374.478 250.95 374.296 250.609 374.222 250.238C374.148 249.867 374.186 249.483 374.331 249.133C374.475 248.784 374.72 248.485 375.035 248.275C375.349 248.065 375.719 247.953 376.097 247.953C376.348 247.953 376.597 248.003 376.829 248.099C377.061 248.195 377.271 248.336 377.449 248.513C377.626 248.691 377.767 248.901 377.863 249.133C377.959 249.365 378.009 249.614 378.009 249.865Z" fill="white"/>
<path d="M252.62 104.377C252.62 104.755 252.507 105.126 252.297 105.44C252.086 105.755 251.787 106 251.437 106.144C251.086 106.289 250.701 106.326 250.33 106.251C249.959 106.176 249.618 105.993 249.351 105.724C249.085 105.456 248.903 105.114 248.831 104.742C248.759 104.37 248.798 103.986 248.945 103.636C249.092 103.287 249.339 102.99 249.655 102.781C249.971 102.572 250.342 102.462 250.72 102.465C250.971 102.465 251.219 102.514 251.45 102.611C251.681 102.707 251.891 102.848 252.068 103.026C252.244 103.203 252.384 103.414 252.479 103.646C252.573 103.878 252.621 104.126 252.62 104.377Z" fill="white"/>
<path d="M41.8789 424.727H552.237C553.036 424.718 553.813 424.989 554.433 425.493C555.053 425.996 555.478 426.7 555.634 427.484C555.79 428.267 555.667 429.08 555.288 429.783C554.908 430.485 554.294 431.033 553.553 431.331C519.413 445.348 428.897 477.117 302.03 480.742C184.09 484.119 85.4919 453.43 39.8056 436.049C38.5478 435.545 37.5029 434.622 36.8481 433.436C36.1933 432.249 35.9689 430.873 36.213 429.54C36.4571 428.207 37.1545 427 38.1872 426.123C39.2198 425.245 40.5241 424.752 41.8789 424.727Z" fill="#F7E4D2"/>
<path d="M211.961 317.824C210.831 297.662 189.702 293.615 187.591 288.6C185.48 283.584 182.166 273.317 166.896 268.475C151.625 263.634 142.215 272.585 133.699 267.11C125.182 261.635 117.559 257.103 107.429 263.994C97.2984 270.884 90.0482 268.339 75.3988 266.688C60.7493 265.036 49.0794 279.164 49.0794 279.164C43.3438 284.428 48.8808 291.095 62.4005 294.36C81.4944 298.978 76.0567 311.381 86.2244 316.409C96.3921 321.437 108.571 316.409 116.181 322.542C123.792 328.674 123.27 339.649 132.767 342.244C142.265 344.839 153.463 338.519 158.838 342.244C164.214 345.968 167.231 357.042 173.736 360.866C180.241 364.69 198.566 365.633 198.566 365.633L202.998 364.566C202.998 364.566 213.128 337.986 211.961 317.824Z" fill="#B9BC7E"/>
<path d="M200.018 358.222C200.018 358.222 195.239 317.067 166.933 298.321C138.627 279.574 92.221 279.14 78.155 278.358L64.0891 277.575C64.0891 277.575 120.887 273.963 149.043 285.422C187.715 301.151 198.74 326.85 200.018 358.222Z" fill="#FFFBF4"/>
<path d="M179.261 314.907C179.261 314.907 155.598 293.802 152.023 276.173C148.447 258.544 158.925 252.002 151.886 243.088C144.847 234.174 147.988 218.196 155.611 214.149C163.233 210.102 166.3 201.238 167.045 188.997C167.79 176.756 177.113 172.199 180.006 175.601C187.964 184.949 184.003 194.509 196.145 200.431C208.287 206.352 212.632 218.693 209.578 228.773C206.524 238.854 219.944 242.082 228.833 257.476C237.722 272.871 231.316 285.745 227.517 295.404C223.718 305.062 234.196 316.695 230.397 327.818C226.598 338.942 200.416 357.279 200.416 357.279C200.416 357.279 187.74 352.623 179.261 314.907Z" fill="#CFC293"/>
<path d="M179.013 192.633C179.013 192.633 186.834 222.763 196.244 261.609C205.655 300.455 207.231 348.364 207.231 348.364C207.231 348.364 212.682 313.602 205.63 280.964C198.578 248.325 179.683 197.661 179.013 192.633Z" fill="#FFFBF4"/>
<path d="M182.439 330.624C179.211 314.075 195.475 306.452 196.157 301.958C196.84 297.464 197.498 288.451 208.82 281.411C220.143 274.372 229.64 279.661 235.413 273.478C241.186 267.296 246.4 262.069 256.046 265.558C265.692 269.046 270.944 265.558 282.527 261.163C294.11 256.768 306.401 265.868 306.401 265.868C312.124 268.947 309.02 275.477 298.741 280.902C284.228 288.562 291.192 297.489 283.979 303.646C276.766 309.804 265.953 308.265 260.987 314.758C256.021 321.25 258.753 330.077 251.602 334.125C244.451 338.172 234.084 335.366 230.497 339.5C226.909 343.634 226.772 353.156 222.278 357.626C217.784 362.095 203.147 366.589 203.147 366.589H199.348C199.348 366.589 185.654 347.185 182.439 330.624Z" fill="#B9BC7E"/>
<path d="M200.428 360.879C200.428 360.879 195.822 326.577 214.916 305.583C234.01 284.59 271.465 274.695 282.701 271.182L293.874 267.656C293.874 267.656 247.145 276.347 226.698 291.455C198.665 312.138 195.028 335.205 200.428 360.879Z" fill="#FFFBF4"/>
<path d="M189.242 360.816C189.242 360.816 158.056 352.274 141.694 359.723C125.331 367.172 122.302 377.501 122.302 377.501C122.302 377.501 129.304 379.984 142.637 378.085C155.971 376.185 157.969 368.413 167.268 372.138C176.567 375.862 179.621 379.512 187.442 377.278C195.263 375.043 199.298 366.651 199.298 366.651L189.242 360.816Z" fill="#9A9B82"/>
<path d="M204.587 361.934C204.587 361.934 212.967 352.276 225.134 352.909C237.3 353.542 239.423 357.8 245.382 358.073C251.341 358.346 254.631 356.459 262.763 359.24C267.344 360.732 271.667 362.927 275.575 365.746C275.575 365.746 267.307 377.713 254.47 374.622C241.633 371.531 231.862 369.52 227.654 373.84C223.445 378.16 196.989 370.289 196.989 370.289L204.587 361.934Z" fill="#9A9B82"/>
<path d="M385.06 323.559C385.06 323.559 402.578 334.795 438.63 341.089C474.683 347.383 489.891 337.116 491.877 332.324C493.863 327.532 487.904 324.875 464.428 320.58C440.952 316.284 434.633 310.996 446.24 309.667C457.848 308.339 474.012 318.594 487.904 318.594C501.797 318.594 511.381 311.207 511.716 306.179C512.051 301.151 470.052 299.785 464.751 292.523C459.45 285.26 491.976 292.845 505.98 294.832C519.984 296.818 525.608 285.905 524.602 282.268C523.597 278.63 489.543 277.451 486.241 272.423C482.938 267.395 500.456 269.183 515.676 272.423C530.897 275.663 538.495 264.416 536.508 261.771C534.522 259.127 506.415 257.14 503.435 252.175C500.456 247.209 518.606 248.487 527.917 250.474C537.228 252.46 547.098 243.521 543.796 240.542C540.493 237.562 519.649 236.569 518.966 232.274C518.283 227.978 546.726 230.287 544.416 224.005C542.107 217.724 534.174 211.839 521.946 211.591C509.717 211.342 498.457 224.279 491.852 220.281C485.248 216.283 507.992 206.724 502.094 203.087C496.197 199.449 482.914 201.423 478.283 207.717C473.652 214.012 473.317 224.577 468.351 224.241C463.385 223.906 472.026 209.133 467.706 205.781C463.385 202.429 452.187 209.505 449.878 216.085C447.569 222.665 450.201 235.948 445.57 236.582C440.939 237.215 446.687 215.414 442.653 213.428C438.618 211.442 425.731 224.341 425.396 232.286C425.061 240.232 429.369 252.721 422.429 254.744C415.489 256.768 416.805 231.951 411.516 229.642C406.228 227.333 395.7 242.491 397.289 254.918C398.878 267.345 402.578 277.501 397.624 277.55C392.671 277.6 389.021 261.722 385.06 259.065C381.1 256.408 377.512 263.037 376.494 279.909C375.476 296.781 383.422 319.425 385.06 323.559Z" fill="#D1C795"/>
<path d="M379.399 350.723C379.399 350.723 398.022 303.075 419.586 276.668C441.15 250.262 482.901 234.334 502.988 233.217C502.988 233.217 455.452 242.056 424.887 279.847C394.322 317.637 382.813 369.307 382.813 369.307L374.471 367.669L379.399 350.723Z" fill="#FFFBF4"/>
<path d="M42.8225 420.718C42.8225 420.718 45.4669 410.786 58.49 406.242C71.5131 401.698 73.3877 413.964 81.6435 413.48C89.8993 412.996 93.6486 428.911 93.6486 428.911H39.9175L42.8225 420.718Z" fill="#9A9B82"/>
<path d="M74.2939 428.342C73.4048 424.122 72.29 419.953 70.9544 415.852C76.7 404.458 79.7337 391.89 79.8185 379.129C79.6323 357.776 64.8215 335.367 64.8215 335.367C64.8215 335.367 60.9357 371.916 67.3789 405.536C62.922 393.506 57.1988 380.458 51.9101 369.049C55.9299 360.639 58.0693 351.454 58.1796 342.133C58.1796 325.485 46.7083 307.943 46.7083 307.943C46.7083 307.943 43.6419 335.069 47.9498 360.768C44.0392 352.599 40.6748 345.87 38.6387 341.898C38.1138 333.104 35.7719 324.514 31.7609 316.671C23.9893 301.947 5.68994 291.729 5.68994 291.729C5.68994 291.729 17.186 321.314 35.2123 342.63C36.8386 345.833 39.5823 351.32 42.8598 358.062C40.1002 353.945 36.8344 350.191 33.139 346.888C20.7739 335.963 0.0288086 332.884 0.0288086 332.884C0.0288086 332.884 23.6169 358.955 49.5637 372.09C52.2577 377.95 55.0511 384.195 57.6954 390.464C54.4282 386.011 50.6813 381.931 46.5221 378.298C30.3829 364.281 3.81531 360.507 3.81531 360.507C3.81531 360.507 32.6424 392.004 65.0325 409.012C67.4932 415.528 69.4847 422.212 70.9916 429.012L74.2939 428.342Z" fill="#B9BC7E"/>
<path d="M499.164 418.259H515.527C515.527 418.259 522.976 404.603 540.828 395.279C558.681 385.956 560.692 374.658 561.474 369.394C562.256 364.13 554.46 366.849 542.778 373.864C531.095 380.878 527.979 397.452 522.914 397.154C517.849 396.856 520.965 377.762 531.865 371.53C542.765 365.297 551.331 350.114 554.063 340.381C556.794 330.648 534.596 337.65 524.081 349.332C513.566 361.014 515.13 389.519 507.346 393.243C499.562 396.967 513.181 372.945 497.414 363.174C491.095 359.251 489.431 370.45 491.38 384.64C493.33 398.83 503.063 405.41 499.164 418.259Z" fill="#9A9B82"/>
<path d="M471.628 426.763C471.628 426.763 500.344 429.892 522.529 429.892C544.714 429.892 553.243 427.893 553.243 427.893C553.243 427.893 548.401 418.793 534.186 415.391C519.972 411.99 518.556 420.506 512.299 415.391C506.042 410.277 494.67 406.577 484.714 409.42C474.757 412.263 471.628 426.763 471.628 426.763Z" fill="#D7CA8C"/>
<path d="M288.771 452.859C383.603 452.859 460.48 446.562 460.48 438.793C460.48 431.025 383.603 424.728 288.771 424.728C193.939 424.728 117.063 431.025 117.063 438.793C117.063 446.562 193.939 452.859 288.771 452.859Z" fill="#E2C9B5"/>
<path d="M448.537 361.163L435.502 374.907L433.019 377.476L432.87 377.638H432.808C404.651 360.257 377.487 334.273 370.647 327.581C366.921 324.286 363.756 320.408 361.274 316.098C355.265 305.458 347.133 285.582 341.484 271.032L340.74 274.198L330.535 317.389C336.616 326.735 341.787 336.641 345.979 346.973C348.745 353.786 351.014 360.789 352.77 367.929L294.172 402.405V403.274L293.377 402.852L292.595 403.299V402.43L232.731 370.239C234.57 361.338 237.183 352.614 240.54 344.168C240.54 344.043 240.627 343.907 240.689 343.783C244.137 335.156 248.255 326.813 253.004 318.829L240.975 275.377L239.348 269.542L238.479 266.389C232.756 280.604 222.203 305.943 214.891 318.395C212.331 322.656 209.09 326.468 205.295 329.68C198.342 336.235 170.645 361.697 142.153 378.594L139.509 375.862L126.734 361.859L191.663 300.815L213.6 238.059C226.238 210.945 235.711 210.572 235.711 210.572C237.487 209.052 239.505 207.839 241.682 206.984L243.892 206.103C248.667 204.152 253.301 201.87 257.759 199.275C263.704 195.838 269.137 191.584 273.899 186.637C274.544 181.28 274.901 175.892 274.966 170.497C274.966 167.841 274.966 166.028 274.966 166.028L288.933 167.406L302.589 165.457C302.589 165.457 302.713 169.045 303.036 173.539C303.359 177.586 303.806 182.391 304.489 186.028C306.716 188.213 309.107 190.226 311.639 192.049C319.574 197.666 328.297 202.076 337.524 205.135C339.434 205.805 341.239 206.741 342.887 207.916C344.861 208.4 353.428 211.839 363.992 235.762L384.787 298.891L448.537 361.163Z" fill="#5E4453"/>
<path d="M311.664 192.05C309.442 194.533 302.639 199.896 283.371 204.328C257.3 210.312 243.892 206.091 243.892 206.091C248.667 204.14 253.301 201.858 257.759 199.263C263.704 195.826 269.137 191.572 273.899 186.625C274.544 181.268 274.901 175.88 274.966 170.485L303.061 173.502C303.384 177.549 303.831 182.354 304.513 185.991C306.74 188.189 309.13 190.215 311.664 192.05Z" fill="#3F2935"/>
<path d="M326.339 285.236C317.189 289.283 301.211 281.437 287.642 285.819C274.072 290.201 267.344 302.753 264.712 318.83C262.08 334.907 268.796 358.222 268.796 358.222C268.796 358.222 256.667 361.599 240.689 343.858C244.137 335.232 248.255 326.888 253.005 318.904L239.348 269.618L238.479 266.464C238.479 266.464 235.214 249.605 243.445 236.756C243.445 236.756 240.962 250.487 245.68 263.038C250.398 275.589 261.62 275.577 273.402 275.304C285.184 275.031 284.997 270.996 298.232 273.851C320.367 278.618 329.02 276.483 334.234 269.208C337.636 264.391 335.463 281.176 326.339 285.236Z" fill="#3F2935"/>
<path d="M263.321 151.081C263.321 151.081 260.18 144.662 256.034 144.873C251.887 145.084 250.509 153.961 256.344 160.839C262.179 167.716 267.517 164.774 267.517 164.774L263.321 151.081Z" fill="#EA8D78"/>
<path d="M315.227 150.077C315.227 150.077 318.132 143.546 322.279 143.646C326.426 143.745 328.139 152.51 322.577 159.611C317.015 166.712 311.615 163.969 311.615 163.969L315.227 150.077Z" fill="#EA8D78"/>
<path d="M317.09 136.829C317.586 162.466 302.316 185.383 290.149 185.607C275.388 185.892 261.111 161.82 260.652 137.922C260.317 120.231 270.919 105.643 288.61 105.358C306.301 105.072 316.754 119.151 317.09 136.829Z" fill="#FFA488"/>
<path d="M266.984 139.2C269.829 138.436 272.738 137.929 275.674 137.685C281.298 137.276 283.384 137.859 283.384 137.859C283.384 137.859 282.291 134.706 277.561 134.793C272.831 134.88 266.984 139.2 266.984 139.2Z" fill="#2F2A00"/>
<path d="M283.036 146.189C283.036 146.189 279.721 141.72 275.438 141.67C271.155 141.621 267.381 146.487 267.381 146.487C267.381 146.487 268.548 147.729 274.619 148.027C280.689 148.325 283.036 146.189 283.036 146.189Z" fill="#EA8D78"/>
<path d="M275.277 147.606C272.614 147.622 269.964 147.233 267.418 146.451H267.356C266.676 146.77 265.944 146.964 265.196 147.022C266.233 147.363 267.34 147.431 268.411 147.221C270.465 148.531 272.883 149.153 275.314 148.996C280.615 148.996 282.999 146.141 282.999 146.141C280.536 147.097 277.919 147.594 275.277 147.606Z" fill="#2F2A00"/>
<path d="M310.547 138.368C307.692 137.711 304.783 137.316 301.857 137.189C296.22 136.99 294.172 137.66 294.172 137.66C294.172 137.66 295.128 134.457 299.87 134.371C304.613 134.284 310.547 138.368 310.547 138.368Z" fill="#2F2A00"/>
<path d="M294.755 145.892C294.755 145.892 297.909 141.299 302.204 141.088C306.5 140.877 310.448 145.594 310.448 145.594C310.448 145.594 309.33 146.923 303.272 147.419C297.213 147.916 294.755 145.892 294.755 145.892Z" fill="#EA8D78"/>
<path d="M312.595 146.103C311.843 146.071 311.103 145.903 310.41 145.606C307.896 146.483 305.263 146.973 302.601 147.059C299.956 147.129 297.321 146.708 294.83 145.817C294.83 145.817 297.313 148.536 302.626 148.387C305.063 148.456 307.458 147.738 309.454 146.339C310.505 146.525 311.585 146.444 312.595 146.103Z" fill="#2F2A00"/>
<path d="M285.208 161.484C286.471 162.254 287.878 162.757 289.343 162.962C290.829 162.825 292.243 162.26 293.415 161.335C293.415 161.335 291.677 161.149 289.603 161.1C288.13 161.104 286.66 161.233 285.208 161.484Z" fill="#EA8D78"/>
<path d="M290.361 169.43C292.927 169.313 295.45 168.733 297.809 167.717C295.751 167.463 293.675 167.368 291.602 167.431C291.246 167.545 290.917 167.732 290.637 167.98C290.357 168.228 290.132 168.531 289.976 168.871C289.805 168.539 289.569 168.246 289.28 168.009C288.992 167.772 288.658 167.596 288.3 167.493C286.22 167.509 284.145 167.683 282.092 168.014C284.505 168.946 287.067 169.43 289.653 169.442H290.224L290.361 169.43Z" fill="#743F3D"/>
<path d="M283.644 169.977C283.644 169.977 284.6 171.342 288.188 172.211C291.776 173.08 294.395 171.615 296.493 170.237C295.873 171.337 295.015 172.285 293.982 173.011C292.949 173.737 291.767 174.223 290.522 174.433C286.45 174.93 283.781 170.523 283.644 169.977Z" fill="#EA8D78"/>
<path d="M299.945 120.541C295.438 118.437 290.486 117.465 285.519 117.711C277.238 118.133 270.807 124.601 268.411 129.182C266.015 133.763 263.582 135.067 263.582 135.067C263.582 135.067 264.339 146.165 262.216 150.895C262.216 150.895 259.348 146.103 256.009 144.912C254.313 138.076 253.942 130.98 254.916 124.005C256.654 113.217 268.088 101.658 283.47 100.007C298.852 98.3561 306.636 105.917 306.636 105.917C306.636 105.917 316.841 111.677 319.883 121.46C322.924 131.243 320.317 143.943 320.317 143.943C320.317 143.943 317.685 145.272 315.997 149.865C315.997 149.865 311.031 142.416 312.335 134.123C312.359 134.123 310.348 120.901 299.945 120.541Z" fill="#743F3D"/>
<path d="M309.094 111.429C306.003 112.41 286.115 101.634 286.115 101.634C286.077 100.291 286.228 98.9495 286.562 97.6484C287.021 95.5632 288.008 93.6306 289.427 92.0353C290.846 90.44 292.651 89.2351 294.668 88.5359C296.514 87.8567 298.476 87.5495 300.441 87.6323C302.406 87.7151 304.335 88.1862 306.117 89.0184C307.899 89.8505 309.499 91.0273 310.824 92.4808C312.149 93.9343 313.173 95.6357 313.837 97.487C315.947 103.67 312.186 110.473 309.094 111.429Z" fill="#743F3D"/>
<path d="M283.334 137.86C284.736 140.746 285.747 143.806 286.338 146.96C287.008 150.059 287.071 153.259 286.524 156.383C286.524 156.383 285.457 140.864 277.561 137.574C279.49 137.514 281.42 137.609 283.334 137.86Z" fill="#EA8D78"/>
<path d="M299.945 120.54C299.945 120.54 290.125 117.263 281.757 120.888C273.39 124.513 273.601 129.839 267.791 130.286L267.046 128.896C267.046 128.896 268.585 129.193 272.123 126.413C275.662 123.632 283.123 113.588 299.945 120.54Z" fill="#743F3D"/>
<path d="M259.994 413.766C259.994 413.766 251.962 414.784 249.156 415.33C249.156 415.33 237.983 413.716 233.228 413.915C228.473 414.113 225.928 419.725 223.296 425.82C220.664 431.916 210.31 438.397 206.66 442.195C203.01 445.994 202.936 451.544 202.936 452.723C202.936 453.903 200.639 457.255 201.893 459.998C203.147 462.742 204.5 461.836 205.617 461.525C206.735 461.215 207.591 459.266 207.591 459.266C209.015 459.358 210.445 459.22 211.825 458.856C213.066 458.297 212.011 458.024 214.829 457.826C216.907 457.777 218.959 457.357 220.888 456.584C222.613 455.877 234.445 443.611 240.838 440.346C247.232 437.081 257.102 437.863 257.102 437.863L259.994 413.766Z" fill="#FFA488"/>
<path d="M441.398 422.095C422.317 432.76 390.709 436.993 354.135 439.178C349.682 439.451 345.155 439.699 340.553 439.923L341.187 455.789L333.489 455.69C318.393 455.516 283.222 455.056 246.586 454.324C187.268 453.157 140.08 438.433 126.461 425.311C123.058 421.989 120.466 417.929 118.886 413.444C117.306 408.96 116.78 404.171 117.348 399.451C118.441 392.002 122.873 384.938 131.911 380.481C135.47 378.907 139.148 377.616 142.91 376.62C158.851 372.064 187.703 366.539 219.534 366.241L220.974 366.13C225.171 359.835 240.689 343.857 240.689 343.857C248.478 350.047 257.187 354.981 266.499 358.482C274.37 361.362 283.383 363.212 292.483 362.107C318.815 358.941 345.271 344.255 345.271 344.255C350.634 349.581 355.749 362.095 355.749 362.095C382.118 362.343 425.768 370.338 435.204 375.043L435.377 375.155C441.46 376.768 446.846 380.331 450.71 385.298C459.102 396.198 458.543 412.523 441.398 422.095Z" fill="#E9835B"/>
<path d="M126.722 361.809C123.646 361.324 120.546 361.005 117.435 360.854C114.766 360.854 109.403 362.604 106.374 363.113C103.345 363.622 101.83 363.734 101.904 364.193C101.979 364.652 103.009 365.77 106.361 366.229C109.713 366.688 112.569 365.807 114.369 365.77C116.169 365.733 116.554 366.8 116.554 366.8C115.867 368.332 114.809 369.669 113.476 370.69C112.143 371.711 110.577 372.384 108.919 372.648C103.084 373.666 100.787 372.797 100.39 371.977C99.9925 371.158 102.463 365.472 101.817 363.349C101.172 361.226 100.228 361.412 98.9869 364.777C97.7454 368.141 95.6101 371.381 95.6473 373.579C95.6846 375.776 99.4587 377.688 99.4587 377.688C99.4587 377.688 92.2209 376.844 90.0483 378.867C87.8757 380.891 92.2209 380.953 95.6473 381.263C99.0738 381.574 102.289 382.579 104.338 382.319C104.338 382.319 95.1383 382.182 93.3382 383.659C91.5381 385.137 95.2128 386.142 98.7014 386.068C102.19 385.993 106.932 386.751 107.69 386.738C107.69 386.738 99.4959 387.731 99.769 389.78C100.042 391.828 101.532 390.425 105.976 390.872C110.133 391.44 114.363 391.127 118.391 389.954C122.625 388.65 139.496 375.813 139.496 375.813L126.722 361.809Z" fill="#FFA488"/>
<path d="M410.163 381.884C375.104 386.85 276.977 411.977 276.977 411.977C276.977 411.977 225.282 388.277 190.62 382.778C157.709 377.514 138.478 380.133 142.91 376.57C158.851 372.014 187.703 366.489 219.534 366.191L220.974 366.08C225.171 359.785 240.689 343.808 240.689 343.808C248.475 350.015 257.183 354.966 266.499 358.482C267.741 364.267 288.374 392.709 303.272 388.029C318.17 383.349 337.723 376.943 347.071 380.158C356.419 383.373 375.402 381.611 388.487 378.668C401.572 375.726 410.163 381.884 410.163 381.884Z" fill="#CC6A4C"/>
<path d="M435.502 374.908C434.931 375.981 434.071 376.871 433.019 377.478L432.808 377.602C404.651 360.222 377.487 334.237 370.647 327.546C366.921 324.251 363.756 320.372 361.274 316.062C355.265 305.423 347.133 285.547 341.485 270.997L344.737 243.883C344.737 243.883 356.916 296.348 369.765 313.244C382.615 330.141 435.502 374.908 435.502 374.908Z" fill="#3F2935"/>
<path d="M240.975 275.44L239.348 269.605L238.479 266.451C232.756 280.666 222.204 306.005 214.891 318.457C212.332 322.718 209.09 326.531 205.295 329.742C198.342 336.297 170.645 361.76 142.153 378.656L139.509 375.863C139.509 375.863 195.611 327.942 212.086 309.096C228.56 290.251 238.678 249.133 238.678 249.133L240.975 275.44Z" fill="#3F2935"/>
<path d="M441.399 422.095C422.317 432.759 390.709 436.993 354.135 439.178C345.021 437.705 336.184 434.854 327.928 430.723V428.911L277.027 411.989C277.462 412.101 285.829 409.742 285.829 409.742C309.008 414.907 366.128 430.475 395.861 423.659C434.124 414.894 435.589 398.83 442.578 390.785C444.711 388.233 447.515 386.329 450.672 385.285C459.102 396.198 458.543 412.523 441.399 422.095Z" fill="#CC6A4C"/>
<path d="M327.928 430.711C327.928 430.711 335.935 431.952 338.729 432.499C338.729 432.499 349.976 431.108 354.694 431.394C359.412 431.679 361.87 437.353 364.415 443.498C366.96 449.643 377.14 456.323 380.715 460.184C384.291 464.045 384.278 469.606 384.167 470.786C384.055 471.965 386.376 475.354 385.073 478.086C383.769 480.817 382.429 479.873 381.274 479.526C380.119 479.178 379.35 477.229 379.35 477.229C377.926 477.298 376.5 477.135 375.129 476.745C373.887 476.161 374.967 475.901 372.149 475.652C370.069 475.57 368.02 475.112 366.103 474.299C364.402 473.567 352.819 461.065 346.488 457.676C340.156 454.287 330.274 454.845 330.274 454.845L327.928 430.711Z" fill="#FFA488"/>
<path d="M448.537 361.164C451.624 360.729 454.732 360.468 457.848 360.382C460.517 360.481 465.843 362.281 468.86 362.865C471.877 363.448 473.404 363.572 473.305 364.019C473.205 364.466 472.187 365.584 468.823 365.981C465.458 366.378 462.615 365.435 460.815 365.373C459.015 365.31 458.618 366.353 458.618 366.353C459.276 367.899 460.308 369.256 461.621 370.303C462.935 371.35 464.488 372.053 466.141 372.35C471.951 373.479 474.273 372.66 474.683 371.841C475.092 371.021 472.733 365.298 473.441 363.15C474.149 361.003 475.117 361.238 476.272 364.628C477.426 368.017 479.524 371.294 479.437 373.504C479.351 375.714 475.552 377.539 475.552 377.539C475.552 377.539 482.802 376.831 484.937 378.88C487.073 380.928 482.727 380.928 479.288 381.177C475.85 381.425 472.634 382.418 470.598 382.058C470.598 382.058 479.798 382.058 481.573 383.622C483.348 385.187 479.649 386.105 476.16 385.931C472.671 385.758 467.917 386.453 467.159 386.416C467.159 386.416 475.328 387.57 475.03 389.606C474.732 391.642 473.255 390.227 468.748 390.587C464.575 391.079 460.345 390.686 456.334 389.432C452.125 388.054 435.551 374.882 435.551 374.882L448.537 361.164Z" fill="#FFA488"/>
<path d="M333.489 455.69C318.393 455.516 283.222 455.057 246.586 454.324C187.268 453.157 140.08 438.434 126.461 425.311C123.058 421.99 120.466 417.929 118.886 413.445C117.306 408.96 116.78 404.172 117.348 399.451C122.314 403.349 132.047 410.14 150.533 419.377C180.899 434.573 236.965 442.754 281.372 447.037C325.78 451.32 329.79 449.433 329.79 449.433L333.489 455.69Z" fill="#CC6A4C"/>
<path d="M302.353 104.526C296.357 101.596 286.884 99.8081 286.884 99.8081C286.735 99.095 286.627 98.3737 286.562 97.6479C287.021 95.5627 288.008 93.6301 289.427 92.0348C290.846 90.4395 292.651 89.2347 294.668 88.5355C295.538 88.2137 296.436 87.9727 297.35 87.8154C296.344 88.8459 295.302 90.7577 296.22 93.9359C297.76 99.3487 308.337 107.456 302.353 104.526Z" fill="#603030"/>
<path d="M296.767 115.674C296.767 115.674 285.717 111.491 275.152 115.674C264.588 119.858 263.11 131.143 260.64 132.26C260.64 132.26 262.787 117.114 274.134 113.812C285.482 110.51 296.767 115.674 296.767 115.674Z" fill="#603030"/>
<path d="M305.134 108.71L300.95 118.133C302.628 117.286 303.961 115.885 304.723 114.168C305.486 112.45 305.631 110.522 305.134 108.71Z" fill="#603030"/>
</g>
</svg>
