<svg width="298" height="298" viewBox="0 0 298 298" fill="none" xmlns="http://www.w3.org/2000/svg">
<rect x="2" y="2" width="294" height="294" rx="8" fill="#FACDBE" fill-opacity="0.3" stroke="#E37048" stroke-width="4" stroke-dasharray="2 2"/>
<path d="M168.7 145.3C175.1 151.7 181.5 158.1 188 164.6C187.7 164.8 187.4 165 187.1 165.3C177.9 174.4 168.7 183.6 159.6 192.8C158.2 194.2 156.7 195 154.8 195.4C149.7 196.3 144.6 197.4 139.4 198.4C137.8 198.7 136.4 198.3 135.2 197.1C134.5 196.4 134.3 195.5 134.5 194.6C135.7 188.7 136.8 182.9 138.1 177C138.3 176.1 138.8 175.2 139.5 174.5C149.1 164.8 158.8 155.2 168.5 145.5C168.5 145.4 168.6 145.3 168.7 145.3Z" fill="#E37048" fill-opacity="0.5"/>
<path d="M130.7 177.1C130.2 179.5 129.8 181.8 129.3 184.2C128.9 184.2 128.5 184.2 128.1 184.2C122.1 184.2 116.2 184.2 110.2 184.2C103.5 184.2 99 179.8 99 173.1C99 152.1 99 131.1 99 110.1C99 103.4 103.4 99 110.2 99C131.2 99 152.2 99 173.3 99C180.1 99 184.5 103.4 184.5 110.2C184.5 116 184.5 121.8 184.5 127.6C182.1 128.1 179.8 128.6 177.4 129.1C177.4 128.7 177.4 128.3 177.4 127.9C177.4 122 177.4 116.1 177.4 110.3C177.4 107.8 175.8 106.2 173.3 106.2C152.3 106.2 131.3 106.2 110.2 106.2C107.7 106.2 106.1 107.8 106.1 110.3C106.1 131.3 106.1 152.2 106.1 173.2C106.1 176 107.3 177.2 110.1 177.2C116.5 177.2 122.9 177.2 129.3 177.2C129.7 177.1 130.1 177.1 130.7 177.1Z" fill="#E37048" fill-opacity="0.5"/>
<path d="M113.2 170C113.2 162.5 113.2 155.1 113.2 147.7C113.2 147.4 113.4 147 113.7 146.8C115 145.4 116.4 144.1 117.7 142.8C119.4 141.2 121.3 141.1 123 142.8C125.4 145.2 127.8 147.6 130.2 149.9C130.5 150.2 130.7 150.4 131.1 150.7C131.4 150.4 131.7 150.1 132 149.9C137.8 144.1 143.7 138.2 149.5 132.4C151.5 130.4 153.3 130.4 155.4 132.4C158.1 135.1 160.7 137.7 163.5 140.4C163.2 140.7 162.9 141 162.6 141.3C153.3 150.6 144 159.8 134.8 169.1C134.2 169.7 133.6 169.9 132.8 169.9C126.8 169.9 120.7 169.9 114.7 169.9C114.1 170 113.7 170 113.2 170Z" fill="#E37048" fill-opacity="0.5"/>
<path d="M173.8 140.1C180.6 132 190.1 133.5 194.9 138.6C200.5 144.6 199.7 153.7 192.9 159.2C186.6 152.9 180.3 146.5 173.8 140.1Z" fill="#E37048" fill-opacity="0.5"/>
<path d="M122.1 122.1C122.1 117.2 126.1 113.2 131 113.2C135.9 113.2 139.9 117.2 139.8 122.2C139.8 127 135.8 131 130.9 131C126.1 131 122.1 127 122.1 122.1Z" fill="#E37048" fill-opacity="0.5"/>
</svg>
