<svg width="1908" height="1176" viewBox="0 0 1908 1176" fill="none" xmlns="http://www.w3.org/2000/svg">
<rect x="-12" width="1920" height="1445" fill="url(#paint0_linear_5_902)"/>
<path d="M377.66 848.291L321.013 1095.86H224.503L195.83 955.291L167.157 1095.86H70.6471L14 848.291H97.5719L119.951 1004.25L153.52 848.291H238.141L271.709 1004.25L294.088 848.291H377.66Z" fill="white" fill-opacity="0.06"/>
<path d="M526.135 1098.31C502.823 1098.31 481.377 1092.83 461.795 1081.87C442.446 1070.92 427.061 1055.76 415.638 1036.42C404.215 1017.07 398.504 995.27 398.504 971.026C398.504 946.782 404.215 924.986 415.638 905.637C427.061 886.289 442.446 871.253 461.795 860.529C481.377 849.573 502.823 844.095 526.135 844.095C549.446 844.095 570.776 849.573 590.125 860.529C609.474 871.253 624.743 886.289 635.932 905.637C647.355 924.986 653.066 946.782 653.066 971.026C653.066 995.27 647.355 1017.07 635.932 1036.42C624.743 1055.76 609.357 1070.92 589.775 1081.87C570.427 1092.83 549.213 1098.31 526.135 1098.31ZM526.135 1025.92C541.52 1025.92 553.409 1021.03 561.802 1011.24C570.194 1001.21 574.39 987.81 574.39 971.026C574.39 954.009 570.194 940.605 561.802 930.814C553.409 920.79 541.52 915.778 526.135 915.778C510.516 915.778 498.511 920.79 490.118 930.814C481.726 940.605 477.53 954.009 477.53 971.026C477.53 987.81 481.726 1001.21 490.118 1011.24C498.511 1021.03 510.516 1025.92 526.135 1025.92Z" fill="white" fill-opacity="0.06"/>
<path d="M805.554 1095.86L759.047 1007.04H758.698V1095.86H681.07V848.291H796.462C816.51 848.291 833.644 851.904 847.864 859.131C862.084 866.124 872.691 875.798 879.685 888.154C886.911 900.276 890.524 914.029 890.524 929.415C890.524 945.966 885.862 960.653 876.538 973.474C867.446 986.295 854.275 995.503 837.024 1001.1L890.874 1095.86H805.554ZM758.698 955.291H789.469C796.929 955.291 802.523 953.659 806.253 950.395C809.983 946.899 811.848 941.537 811.848 934.31C811.848 927.783 809.866 922.655 805.904 918.925C802.174 915.195 796.695 913.33 789.469 913.33H758.698V955.291Z" fill="white" fill-opacity="0.06"/>
<path d="M1064.98 1095.86L992.951 988.51V1095.86H915.324V848.291H992.951V952.493L1063.94 848.291H1151.7L1066.38 966.83L1157.3 1095.86H1064.98Z" fill="white" fill-opacity="0.06"/>
<path d="M1680.96 933.261C1680.96 948.88 1677.35 963.1 1670.12 975.921C1662.89 988.509 1652.17 998.533 1637.95 1005.99C1623.96 1013.45 1606.95 1017.18 1586.9 1017.18H1556.13V1095.86H1478.5V848.29H1586.9C1617.2 848.29 1640.4 855.983 1656.48 871.369C1672.8 886.754 1680.96 907.385 1680.96 933.261ZM1578.16 955.99C1594.24 955.99 1602.28 948.413 1602.28 933.261C1602.28 918.108 1594.24 910.532 1578.16 910.532H1556.13V955.99H1578.16Z" fill="white" fill-opacity="0.06"/>
<path d="M1900 848.29V909.833H1834.26V1095.86H1756.63V909.833H1691.59V848.29H1900Z" fill="white" fill-opacity="0.06"/>
<path d="M1342.46 915.629C1341.3 903.099 1340.2 892.431 1339.54 881.763C1339.44 880.002 1340.65 877.436 1342.11 876.48C1347.29 873.007 1350.11 865.812 1348.3 859.672C1347.14 855.747 1346.24 851.772 1345.03 847.042C1347.8 846.79 1349.66 846.488 1351.52 846.488C1385.64 846.438 1419.76 846.438 1453.87 846.438C1462.88 846.438 1463.58 847.243 1462.63 856.402C1460.77 874.467 1458.91 892.482 1456.79 910.497C1455.73 919.554 1454.53 920.309 1445.62 920.259C1431.83 920.209 1418.04 920.259 1404.31 920.108C1399.73 920.058 1397.56 921.416 1397.61 926.499C1397.71 976.367 1397.66 1026.18 1397.66 1076.05C1397.66 1080.88 1398.27 1085.76 1397.41 1090.44C1397.01 1092.61 1393.84 1095.83 1391.88 1095.88C1371.35 1096.33 1350.77 1096.38 1330.23 1096.18C1323.89 1096.13 1323.24 1091.65 1324.04 1086.32C1329.78 1086.92 1335.06 1087.83 1340.4 1087.83C1342.66 1087.83 1344.88 1085.92 1347.14 1084.86C1345.43 1082.9 1343.97 1080.63 1342.01 1079.02C1339.24 1076.71 1335.57 1075.3 1333.15 1072.73C1329.33 1068.56 1328.42 1063.72 1331.89 1058.44C1340.45 1045.31 1348.65 1031.92 1357.21 1018.74C1359.82 1014.71 1360.53 1010.94 1358.36 1006.46C1352.93 995.338 1348.15 983.814 1342.16 972.995C1340 969.07 1335.06 966.756 1331.74 963.384C1330.59 962.176 1329.63 959.761 1329.98 958.201C1331.64 950.552 1334.41 943.054 1335.52 935.305C1336.83 926.499 1341.25 923.882 1352.63 923.479C1356.3 923.379 1361.18 925.694 1362.54 920.158C1363.85 914.824 1360.78 911.201 1355.8 909.842C1353.83 909.289 1351.22 910.245 1349.15 911.151C1346.99 912.107 1345.18 913.768 1342.46 915.629Z" fill="white" fill-opacity="0.06"/>
<path d="M1217.87 1096.03C1206.29 1096.03 1193.71 1096.28 1181.13 1095.73C1179.47 1095.68 1176.86 1091.65 1176.66 1089.29C1176.05 1083 1176.45 1076.66 1176.45 1070.32C1176.45 999.265 1176.45 928.262 1176.45 857.209C1176.45 846.842 1176.86 846.44 1187.07 846.49C1208.16 846.541 1229.24 846.692 1250.33 846.289C1250.22 903.152 1250.33 960.014 1250.33 1016.88C1250.33 1017.23 1250.17 1017.73 1249.97 1018.03C1243.93 1027.7 1237.64 1037.21 1231.51 1046.82C1228.69 1051.2 1225.57 1054.06 1219.73 1054.72C1210.52 1055.78 1209.51 1057.79 1211.38 1067C1213.24 1076.36 1215.55 1085.72 1217.87 1096.03Z" fill="white" fill-opacity="0.06"/>
<path d="M1280.52 920.311C1273.98 920.311 1268.9 920.914 1264.01 920.059C1261.85 919.656 1258.68 916.385 1258.63 914.423C1258.33 893.691 1258.43 872.908 1258.83 852.176C1258.88 850.264 1262 846.791 1263.71 846.791C1281.53 846.389 1299.34 846.54 1318.86 846.54C1312.78 854.591 1315.44 860.881 1319.52 867.322C1320.32 868.631 1318.91 871.952 1317.71 873.864C1308.85 888.055 1295.26 897.263 1282.08 906.724C1277.45 910.095 1275.49 914.071 1280.52 920.311Z" fill="white" fill-opacity="0.06"/>
<path d="M1250.33 1048.28C1250.33 1055.83 1250.33 1063.32 1250.33 1070.87C1250.33 1077.21 1250.12 1083.55 1250.28 1089.89C1250.43 1095.33 1247.81 1097.44 1242.68 1097.19C1237.19 1096.94 1231.61 1097.49 1226.22 1096.79C1229.14 1078.37 1233.12 1060.1 1250.33 1048.28Z" fill="white" fill-opacity="0.06"/>
<path d="M1295.72 916.738H1290.48C1289.12 916.738 1288.07 915.631 1288.07 914.323V909.089C1288.07 907.73 1289.17 906.674 1290.48 906.674H1295.72C1297.07 906.674 1298.13 907.781 1298.13 909.089V914.323C1298.13 915.631 1297.07 916.738 1295.72 916.738Z" fill="white" fill-opacity="0.06"/>
<defs>
<linearGradient id="paint0_linear_5_902" x1="948" y1="2581" x2="948" y2="385" gradientUnits="userSpaceOnUse">
<stop offset="0.276106" stop-color="#F2623D"/>
<stop offset="1"/>
</linearGradient>
</defs>
</svg>
