<svg width="91" height="91" viewBox="0 0 91 91" fill="none" xmlns="http://www.w3.org/2000/svg">
<path d="M46.1309 0C46.4371 0.0816541 46.7434 0.163314 47.0496 0.244968C50.8057 1.2044 53.3982 4.91967 52.9491 8.71658C52.4795 12.738 49.1726 15.7797 45.1919 15.8409C41.1501 15.9021 37.8023 13.0034 37.1899 8.9003C36.6183 5.14421 39.1495 1.36771 42.9056 0.306206C43.2731 0.204138 43.6405 0.102068 43.9876 0C44.7224 0 45.4369 0 46.1309 0Z" fill="white"/>
<path d="M90.1491 57.9116C90.0674 58.0341 89.9858 58.1362 89.9246 58.2587C89.3122 59.4426 88.1281 60.0551 86.9646 59.7897C85.6989 59.4835 84.8824 58.4628 84.8824 57.0951C84.862 54.8088 84.8824 52.5225 84.8824 50.2362C84.8824 49.9504 84.8824 49.6646 84.8824 49.2767C82.739 49.2767 80.6772 49.2767 78.7992 49.2767C78.3092 47.4395 77.8601 45.7248 77.3906 44.01C79.779 44.01 82.2695 44.01 84.8824 44.01C84.8824 43.6834 84.8824 43.3976 84.8824 43.1323C84.8824 40.9072 84.8824 38.6821 84.8824 36.4366C84.8824 34.8444 85.6173 33.8033 86.985 33.4767C88.2302 33.1909 89.3121 33.8033 90.047 35.2526C90.0674 35.2935 90.1287 35.3139 90.1695 35.3547C90.1491 42.8873 90.1491 50.3995 90.1491 57.9116Z" fill="white"/>
<path d="M32.7582 75.6951C31.0026 75.6951 29.3695 75.6951 27.716 75.6951C21.5511 75.6747 16.9173 71.0613 16.9173 64.8964C16.9173 59.6705 16.8969 54.4447 16.9173 49.2392C16.9377 46.7896 18.5912 44.7278 20.8979 44.1766C23.2659 43.6051 25.6951 44.6053 26.777 46.7692C27.1853 47.6061 27.4302 48.6064 27.4302 49.5454C27.4915 54.3834 27.4506 59.2214 27.4506 64.0594C27.4506 64.386 27.4506 64.6922 27.4506 65.1209C29.3695 65.1209 31.2476 65.1822 33.1052 65.1005C34.085 65.0597 34.6975 65.3659 35.3507 66.0804C40.597 71.9186 49.7422 71.8166 54.9476 65.8966C55.458 65.3046 55.9683 65.0801 56.744 65.1005C58.6833 65.1617 60.6022 65.1209 62.6844 65.1209C62.6844 64.7739 62.6844 64.4677 62.6844 64.1615C62.6844 59.1806 62.664 54.1793 62.7048 49.1984C62.7252 46.5854 64.644 44.442 67.2366 44.0542C69.6862 43.6663 72.1563 45.1769 72.9524 47.6061C73.1565 48.1981 73.2381 48.8718 73.2381 49.5046C73.2586 54.7304 73.279 59.9563 73.2381 65.1618C73.2177 71 68.5431 75.6543 62.7048 75.6951C60.9697 75.7155 59.2549 75.6951 57.3973 75.6951C57.3973 76.0422 57.3973 76.3484 57.3973 76.675C57.3973 80.1657 57.3973 83.6564 57.3973 87.1471C57.3973 89.0864 56.3357 90.1479 54.4169 90.1479C48.1908 90.1479 41.9851 90.1479 35.7589 90.1479C33.8197 90.1479 32.7582 89.1068 32.7582 87.1675C32.7582 83.6972 32.7582 80.2473 32.7582 76.777C32.7582 76.4504 32.7582 76.1238 32.7582 75.6951Z" fill="white"/>
<path d="M57.4272 30.8472C57.4272 33.5418 57.4272 36.0935 57.4272 38.6656C49.1802 38.6656 41.0148 38.6656 32.7881 38.6656C32.7881 36.1139 32.7881 33.5827 32.7881 30.8268C32.4615 31.0922 32.2778 31.2351 32.1145 31.4188C29.9098 33.6235 27.7052 35.8077 25.5209 38.0124C24.8881 38.6656 24.2757 38.9514 23.2959 38.8289C22.1935 38.686 21.0095 38.8493 19.9072 39.0127C19.2948 39.1147 18.8457 39.0331 18.3762 38.6656C15.8653 36.7059 15.6204 33.0927 17.8659 30.7452C19.7235 28.8263 21.6424 26.9687 23.5204 25.0702C25.1535 23.4371 26.807 21.8041 28.4401 20.1506C30.114 18.4562 32.0737 17.1906 34.3804 16.517C34.6458 16.4353 35.1357 16.5578 35.3194 16.7619C40.9127 22.5594 49.2619 22.5594 54.9164 16.7415C55.1206 16.5374 55.5901 16.4353 55.8759 16.517C57.958 17.1294 59.8157 18.2113 61.3467 19.7423C65.0211 23.3759 68.6751 27.0095 72.3087 30.6839C74.6155 33.0315 74.3909 36.6039 71.9005 38.6044C71.4106 38.9922 70.941 39.0943 70.2878 38.9922C69.1038 38.8085 67.8994 38.7269 66.7154 38.8289C65.8989 38.9106 65.3886 38.686 64.8578 38.1553C62.6531 35.9302 60.428 33.7051 58.203 31.5005C57.9784 31.3168 57.7539 31.133 57.4272 30.8472Z" fill="white"/>
<path d="M43.6232 49.2591C40.0304 49.2591 36.4172 49.2591 32.9877 49.2591C32.4978 47.4423 32.0487 45.7479 31.5996 44.0332C40.5407 44.0332 49.6044 44.0332 58.5455 44.0332C58.0964 45.7275 57.6269 47.4423 57.1369 49.2591C53.7075 49.2591 50.0943 49.2591 46.4811 49.2591C50.9108 50.6268 53.4829 54.1175 52.9521 58.0981C52.401 62.1808 49.094 65.1 45.093 65.1204C41.0919 65.1204 37.7645 62.2012 37.2133 58.1185C36.8051 55.1177 38.3361 50.6676 43.6232 49.2591Z" fill="white"/>
<path d="M5.2871 44.0096C7.87961 44.0096 10.3905 44.0096 12.7789 44.0096C12.3093 45.7652 11.8603 47.4595 11.3703 49.2763C9.4923 49.2763 7.45094 49.2763 5.32793 49.2763C5.30752 49.6233 5.2871 49.8887 5.2871 50.1745C5.2871 52.4404 5.2871 54.6859 5.2871 56.9518C5.2871 58.6665 4.18478 59.8505 2.65376 59.8505C1.12275 59.8505 0 58.6665 0 56.9518C0 50.0928 0 43.2339 0 36.375C0 34.6602 1.0615 33.4558 2.61293 33.4558C4.18477 33.4354 5.2871 34.6398 5.2871 36.4158C5.2871 38.8858 5.2871 41.3763 5.2871 44.0096Z" fill="white"/>
</svg>
