<svg width="30" height="23" viewBox="0 0 30 23" fill="none" xmlns="http://www.w3.org/2000/svg">
<path d="M5.49048 3.08369C5.49048 1.37667 6.8562 0 8.57417 0C10.2812 0 11.6579 1.37667 11.6579 3.08369C11.6469 4.80178 10.2702 6.16738 8.57417 6.16738C6.86715 6.16738 5.49048 4.79071 5.49048 3.08369ZM22.5 16.3095H16.9048V11.3095C16.9048 8.87369 14.7761 6.90476 12.381 6.90476H4.88096C2.25144 6.90476 -0.0011805 9.18333 9.97862e-06 11.4286V20.5952C-0.00308526 21.6111 0.714414 22.1415 1.42858 22.1428C2.14453 22.1442 2.85715 21.6137 2.85715 20.5952V11.6667H3.80953V22.1428H13.0952V11.6667H14.0476L14.0573 17.6631C14.051 18.7023 14.6932 19.1448 15.3571 19.1667H22.5C24.448 19.1667 24.448 16.3095 22.5 16.3095ZM24.143 6.12559C24.4706 6.12559 24.7361 5.86012 24.7361 5.5325C24.7361 5.20488 24.3654 4.64286 24.143 4.64286C23.9206 4.64286 23.5499 5.20488 23.5499 5.5325C23.5499 5.86012 23.8154 6.12559 24.143 6.12559ZM20.5704 11.9414C20.233 11.9414 19.9183 11.8009 19.6948 11.5583V9.68416C19.6948 8.86523 20.3586 8.20143 21.1775 8.20143H23.5499V6.42214H24.7361V8.20143H27.1085C27.9274 8.20143 28.5912 8.86523 28.5912 9.68416V11.5586C28.3676 11.8014 28.0527 11.942 27.7152 11.942C27.3074 11.942 26.9323 11.7371 26.7133 11.3965C26.6715 11.329 26.5961 11.289 26.5174 11.2915C26.4436 11.2938 26.376 11.3327 26.3365 11.3944C26.116 11.7373 25.7411 11.9419 25.3333 11.9419C24.9255 11.9419 24.5504 11.737 24.3287 11.392C24.2868 11.3279 24.2143 11.2896 24.1381 11.2915C24.0637 11.293 23.995 11.3317 23.955 11.3942C23.7345 11.7371 23.3595 11.9419 22.9518 11.9419C22.5445 11.9419 22.1699 11.7377 21.9493 11.3955C21.9093 11.3318 21.8398 11.2926 21.7644 11.2914H21.761C21.6854 11.2914 21.6148 11.3299 21.5738 11.3936C21.3533 11.7365 20.9782 11.9414 20.5704 11.9414ZM26.1446 10.3143C26.1446 10.519 26.3106 10.685 26.5154 10.685C26.7201 10.685 26.8861 10.519 26.8861 10.3143C26.8861 10.1095 26.7201 9.94357 26.5154 9.94357C26.3106 9.94357 26.1446 10.1095 26.1446 10.3143ZM23.7723 10.3143C23.7723 10.519 23.9382 10.685 24.143 10.685C24.3477 10.685 24.5137 10.519 24.5137 10.3143C24.5137 10.1095 24.3477 9.94357 24.143 9.94357C23.9382 9.94357 23.7723 10.1095 23.7723 10.3143ZM21.3999 10.3143C21.3999 10.519 21.5658 10.685 21.7706 10.685C21.9754 10.685 22.1413 10.519 22.1413 10.3143C22.1413 10.1095 21.9754 9.94357 21.7706 9.94357C21.5658 9.94357 21.3999 10.1095 21.3999 10.3143ZM28.5912 14.1324V12.1339C28.3337 12.297 28.0317 12.387 27.7152 12.387C27.2579 12.387 26.8305 12.1994 26.5242 11.8738C26.218 12.1992 25.7906 12.3868 25.3333 12.3868C24.8761 12.3868 24.4487 12.1992 24.1425 11.8738C23.8363 12.1992 23.409 12.3868 22.9517 12.3868C22.4944 12.3868 22.067 12.1992 21.7608 11.8738C21.4546 12.199 21.0275 12.3864 20.5702 12.3864C20.2539 12.3864 19.9521 12.2967 19.6946 12.1337V14.1325H18.2858V14.9457H30V14.1325L28.5912 14.1324Z" fill="white"/>
</svg>
