<svg width="21" height="26" viewBox="0 0 21 26" fill="none" xmlns="http://www.w3.org/2000/svg">
<path d="M4.93119 0.239258C4.93119 1.50183 4.93119 2.69295 4.93119 3.87215C4.93119 5.51588 6.0151 6.58788 7.67075 6.59979C9.51697 6.59979 11.3632 6.59979 13.2213 6.59979C14.865 6.59979 15.9251 5.5397 15.9251 3.90788C15.937 2.74059 15.9251 1.58521 15.937 0.417926C15.937 0.382193 15.9609 0.358371 15.9966 0.251171C16.7232 0.251171 17.4617 0.251171 18.2121 0.251171C18.6766 0.251171 19.1411 0.239263 19.5938 0.263085C20.3918 0.310729 20.8563 0.799085 20.8563 1.58522C20.8563 9.26788 20.8563 16.9624 20.8563 24.6451C20.8563 25.4908 20.3561 25.9911 19.5104 25.9911C13.4715 26.003 7.42061 26.003 1.38169 25.9911C0.500266 25.9911 0.0119111 25.4908 0 24.6213C0 16.9505 0 9.27978 0 1.60904C0 0.834815 0.404977 0.310732 1.13155 0.274999C2.20355 0.215443 3.28746 0.251171 4.37137 0.251171C4.55004 0.23926 4.71679 0.239258 4.93119 0.239258ZM10.4341 11.0307C11.3275 11.0307 12.2089 11.0307 13.1022 11.0307C13.8407 11.0307 14.5792 11.0307 15.3058 11.0307C15.6869 11.0307 15.9251 10.8282 15.937 10.4471C15.949 10.054 15.6988 9.86343 15.3296 9.81578C15.1747 9.79196 15.0199 9.80388 14.865 9.80388C12.0421 9.80388 9.21919 9.80388 6.39626 9.80388C6.1223 9.80388 5.84835 9.79196 5.57439 9.81578C5.18133 9.85152 4.91928 10.054 4.93119 10.4709C4.95502 10.8521 5.20515 11.0426 5.5863 11.0426C5.70541 11.0426 5.82453 11.0426 5.94364 11.0426C7.45635 11.0307 8.94523 11.0307 10.4341 11.0307ZM10.4103 15.9619C12.0064 15.9619 13.5906 15.9619 15.1866 15.9619C15.5678 15.9619 15.8775 15.8666 15.937 15.4378C16.0085 14.9971 15.6988 14.7351 15.1033 14.7351C12.0064 14.7351 8.9095 14.7351 5.81262 14.7351C5.24088 14.7351 4.93119 14.9733 4.94311 15.3783C4.95502 15.7713 5.24088 15.9738 5.8007 15.9738C7.33724 15.9619 8.87377 15.9619 10.4103 15.9619ZM10.4818 19.702C9.07626 19.702 7.67075 19.702 6.27715 19.702C6.0151 19.702 5.72924 19.6424 5.51484 19.7377C5.28853 19.8449 5.02648 20.0712 4.96693 20.2975C4.88355 20.6311 5.14559 20.8574 5.49101 20.9169C5.62204 20.9407 5.76497 20.9288 5.89599 20.9288C8.92141 20.9288 11.9587 20.9288 14.9842 20.9288C15.1152 20.9288 15.2581 20.9288 15.3891 20.9169C15.7465 20.8693 15.949 20.6549 15.937 20.2975C15.9251 19.9521 15.7346 19.7615 15.401 19.7258C15.2343 19.702 15.0556 19.702 14.8889 19.702C13.4238 19.702 11.9468 19.702 10.4818 19.702Z" fill="#BDBDBD"/>
<path d="M14.686 0.273438C14.686 1.60748 14.7098 2.90578 14.6741 4.20409C14.6503 4.83538 14.0785 5.34756 13.4353 5.35947C11.4462 5.38329 9.46895 5.37138 7.47979 5.35947C6.80086 5.35947 6.21722 4.84729 6.1934 4.19218C6.15766 2.89387 6.18148 1.59557 6.18148 0.273438C9.01633 0.273438 11.8154 0.273438 14.686 0.273438Z" fill="#BDBDBD"/>
</svg>
