<svg width="70" height="70" viewBox="0 0 70 70" fill="none" xmlns="http://www.w3.org/2000/svg">
<path d="M35.729 0C35.9661 0.0632375 36.2033 0.126479 36.4404 0.189717C39.3494 0.932757 41.3571 3.81007 41.0093 6.75061C40.6457 9.86506 38.0846 12.2206 35.0018 12.2681C31.8715 12.3155 29.2788 10.0706 28.8045 6.89289C28.3619 3.98396 30.3222 1.05923 33.2311 0.237143C33.5157 0.158096 33.8003 0.0790469 34.069 0C34.6382 0 35.1915 0 35.729 0Z" fill="url(#paint0_linear_353_2232)"/>
<path d="M69.8145 44.8518C69.7512 44.9467 69.688 45.0257 69.6406 45.1206C69.1663 46.0375 68.2493 46.5118 67.3482 46.3063C66.368 46.0692 65.7357 45.2787 65.7357 44.2195C65.7198 42.4488 65.7357 40.6782 65.7357 38.9075C65.7357 38.6862 65.7357 38.4648 65.7357 38.1645C64.0757 38.1645 62.4789 38.1645 61.0244 38.1645C60.645 36.7416 60.2972 35.4136 59.9336 34.0857C61.7833 34.0857 63.7121 34.0857 65.7357 34.0857C65.7357 33.8327 65.7357 33.6114 65.7357 33.4058C65.7357 31.6826 65.7357 29.9594 65.7357 28.2204C65.7357 26.9872 66.3048 26.181 67.364 25.928C68.3284 25.7067 69.1663 26.181 69.7354 27.3034C69.7512 27.335 69.7987 27.3509 69.8303 27.3825C69.8145 33.2161 69.8145 39.034 69.8145 44.8518Z" fill="url(#paint1_linear_353_2232)"/>
<path d="M25.3737 58.6217C24.0141 58.6217 22.7494 58.6217 21.4688 58.6217C16.6944 58.6059 13.1057 55.033 13.1057 50.2586C13.1057 46.2114 13.0898 42.1642 13.1057 38.1328C13.1215 36.2356 14.402 34.6389 16.1885 34.212C18.0224 33.7694 19.9037 34.544 20.7416 36.2198C21.0578 36.868 21.2475 37.6427 21.2475 38.3699C21.2949 42.1167 21.2633 45.8636 21.2633 49.6104C21.2633 49.8633 21.2633 50.1005 21.2633 50.4325C22.7494 50.4325 24.2038 50.4799 25.6425 50.4166C26.4013 50.385 26.8756 50.6222 27.3815 51.1755C31.4445 55.697 38.5271 55.6179 42.5585 51.0332C42.9537 50.5747 43.349 50.4008 43.9497 50.4166C45.4516 50.4641 46.9377 50.4325 48.5503 50.4325C48.5503 50.1637 48.5503 49.9266 48.5503 49.6894C48.5503 45.8319 48.5345 41.9586 48.5661 38.1011C48.5819 36.0775 50.0679 34.4176 52.0757 34.1172C53.9729 33.8168 55.8858 34.9867 56.5024 36.868C56.6605 37.3265 56.7237 37.8482 56.7237 38.3383C56.7395 42.3855 56.7553 46.4327 56.7237 50.4641C56.7079 54.9856 53.0876 58.5901 48.5661 58.6217C47.2223 58.6375 45.8943 58.6217 44.4556 58.6217C44.4556 58.8905 44.4556 59.1276 44.4556 59.3806C44.4556 62.084 44.4556 64.7874 44.4556 67.4908C44.4556 68.9927 43.6335 69.8147 42.1474 69.8147C37.3256 69.8147 32.5196 69.8147 27.6977 69.8147C26.1958 69.8147 25.3737 69.0085 25.3737 67.5066C25.3737 64.819 25.3737 62.1472 25.3737 59.4596C25.3737 59.2067 25.3737 58.9537 25.3737 58.6217Z" fill="url(#paint2_linear_353_2232)"/>
<path d="M44.4716 23.8876C44.4716 25.9744 44.4716 27.9506 44.4716 29.9426C38.0846 29.9426 31.7609 29.9426 25.3897 29.9426C25.3897 27.9664 25.3897 26.006 25.3897 23.8718C25.1367 24.0773 24.9945 24.188 24.868 24.3302C23.1606 26.0377 21.4532 27.7293 19.7616 29.4367C19.2715 29.9426 18.7972 30.1639 18.0383 30.0691C17.1846 29.9584 16.2677 30.0849 15.414 30.2113C14.9397 30.2904 14.5919 30.2271 14.2283 29.9426C12.2837 28.4249 12.094 25.6266 13.833 23.8085C15.2717 22.3225 16.7578 20.8838 18.2123 19.4135C19.477 18.1488 20.7576 16.884 22.0223 15.6035C23.3187 14.2913 24.8364 13.3111 26.6228 12.7894C26.8283 12.7262 27.2078 12.821 27.3501 12.9791C31.6818 17.469 38.1479 17.469 42.5271 12.9633C42.6852 12.8052 43.0488 12.7262 43.2701 12.7894C44.8827 13.2637 46.3213 14.1016 47.507 15.2873C50.3527 18.1014 53.1826 20.9154 55.9966 23.7611C57.7831 25.5792 57.6092 28.3458 55.6805 29.8952C55.3011 30.1955 54.9374 30.2746 54.4315 30.1955C53.5146 30.0532 52.5818 29.99 51.6649 30.0691C51.0325 30.1323 50.6373 29.9584 50.2262 29.5473C48.5188 27.8241 46.7956 26.1009 45.0724 24.3935C44.8985 24.2512 44.7245 24.1089 44.4716 23.8876Z" fill="url(#paint3_linear_353_2232)"/>
<path d="M33.7844 38.1488C31.002 38.1488 28.2037 38.1488 25.5477 38.1488C25.1683 36.7417 24.8205 35.4295 24.4727 34.1016C31.3972 34.1016 38.4165 34.1016 45.341 34.1016C44.9932 35.4137 44.6296 36.7417 44.2502 38.1488C41.5942 38.1488 38.796 38.1488 35.9977 38.1488C39.4283 39.208 41.4203 41.9114 41.0092 44.9942C40.5824 48.1561 38.0213 50.4168 34.9227 50.4326C31.824 50.4326 29.2471 48.1719 28.8202 45.01C28.504 42.6861 29.6898 39.2396 33.7844 38.1488Z" fill="url(#paint4_linear_353_2232)"/>
<path d="M4.09462 34.0858C6.10241 34.0858 8.04696 34.0858 9.89666 34.0858C9.53304 35.4454 9.18526 36.7575 8.80583 38.1646C7.35137 38.1646 5.77042 38.1646 4.12625 38.1646C4.11044 38.4333 4.09462 38.6389 4.09462 38.8602C4.09462 40.615 4.09462 42.3541 4.09462 44.1089C4.09462 45.4369 3.24093 46.3538 2.05522 46.3538C0.86952 46.3538 0 45.4369 0 44.1089C0 38.797 0 33.485 0 28.173C0 26.8451 0.822086 25.9123 2.0236 25.9123C3.24092 25.8965 4.09462 26.8293 4.09462 28.2047C4.09462 30.1176 4.09462 32.0464 4.09462 34.0858Z" fill="url(#paint5_linear_353_2232)"/>
<defs>
<linearGradient id="paint0_linear_353_2232" x1="34.8953" y1="0" x2="34.8953" y2="12.2688" gradientUnits="userSpaceOnUse">
<stop stop-color="#E37048"/>
<stop offset="1" stop-color="#FFA900"/>
</linearGradient>
<linearGradient id="paint1_linear_353_2232" x1="64.8819" y1="25.875" x2="64.8819" y2="46.3537" gradientUnits="userSpaceOnUse">
<stop stop-color="#E37048"/>
<stop offset="1" stop-color="#FFA900"/>
</linearGradient>
<linearGradient id="paint2_linear_353_2232" x1="34.9203" y1="34.0703" x2="34.9203" y2="69.8147" gradientUnits="userSpaceOnUse">
<stop stop-color="#E37048"/>
<stop offset="1" stop-color="#FFA900"/>
</linearGradient>
<linearGradient id="paint3_linear_353_2232" x1="34.9392" y1="12.7676" x2="34.9392" y2="30.2427" gradientUnits="userSpaceOnUse">
<stop stop-color="#E37048"/>
<stop offset="1" stop-color="#FFA900"/>
</linearGradient>
<linearGradient id="paint4_linear_353_2232" x1="34.9069" y1="34.1016" x2="34.9069" y2="50.4326" gradientUnits="userSpaceOnUse">
<stop stop-color="#E37048"/>
<stop offset="1" stop-color="#FFA900"/>
</linearGradient>
<linearGradient id="paint5_linear_353_2232" x1="4.94833" y1="25.9121" x2="4.94833" y2="46.3538" gradientUnits="userSpaceOnUse">
<stop stop-color="#E37048"/>
<stop offset="1" stop-color="#FFA900"/>
</linearGradient>
</defs>
</svg>
