<svg width="52" height="64" viewBox="0 0 52 64" fill="none" xmlns="http://www.w3.org/2000/svg">
<path d="M45.0109 63.962C32.2929 63.962 19.6079 63.962 6.88991 63.962C6.75778 63.929 6.65868 63.8629 6.52654 63.8629C5.27126 63.6317 4.18114 63.1031 3.22316 62.2773C0.943829 60.2952 0.712592 57.7186 0.943829 54.9438C1.0099 54.9107 1.04293 54.8777 1.07596 54.8777C2.72766 54.8777 4.34631 54.8777 5.998 54.8777C7.02205 54.8777 8.07913 54.9107 9.10318 54.8777C10.0942 54.8447 10.6558 53.9527 10.1603 53.1599C9.89599 52.7305 9.46655 52.5984 8.97104 52.5984C6.49351 52.5984 4.01597 52.5984 1.57147 52.5984C1.34024 52.5984 1.14203 52.5653 0.943829 52.5653C0.943829 44.1747 0.943829 35.8833 0.943829 27.5257C1.24113 27.5257 1.47237 27.5257 1.73664 27.5257C5.07306 27.5257 8.40947 27.5257 11.7789 27.5257C12.0102 27.5257 12.2414 27.5257 12.4726 27.4927C13.0012 27.4266 13.3315 27.0963 13.3976 26.5677C13.4636 26.0062 13.2654 25.5767 12.7369 25.3785C12.4726 25.2794 12.1753 25.2794 11.878 25.2794C8.4425 25.2794 5.04002 25.2794 1.60451 25.2794C1.37327 25.2794 1.17506 25.2794 0.844727 25.2794C0.943828 23.4295 0.844727 21.6787 1.17506 19.994C2.00091 15.6005 5.7007 12.7266 10.1272 12.7266C18.5839 12.7266 27.0405 12.7266 35.4642 12.7266C37.6114 12.7266 39.7916 12.7266 41.9388 12.7266C46.068 12.7596 49.6357 15.4353 50.6267 19.4324C50.99 20.8859 50.8909 22.4385 50.99 23.925C51.0231 24.3545 50.99 24.7839 50.99 25.2133C50.6267 25.2133 50.3954 25.2133 50.1312 25.2133C45.7046 25.2133 41.2451 25.2133 36.8185 25.2133C36.6203 25.2133 36.3891 25.2133 36.1909 25.2464C35.5963 25.3455 35.1669 25.841 35.1669 26.4026C35.1999 26.9972 35.6293 27.4266 36.257 27.4927C36.4552 27.5257 36.6864 27.4927 36.8846 27.4927C41.3111 27.4927 45.7707 27.4927 50.1972 27.4927C50.4285 27.4927 50.6927 27.4927 50.924 27.4927C50.924 35.8833 50.924 44.2078 50.924 52.5653C50.6597 52.5653 50.4285 52.5653 50.1972 52.5653C48.5125 52.5653 46.8278 52.5653 45.1431 52.5653C44.3503 52.5653 43.8547 52.9948 43.8217 53.6554C43.8217 54.3492 44.3172 54.8116 45.1431 54.8116C45.8368 54.8116 46.4974 54.8116 47.1912 54.8116C48.4134 54.8116 49.6357 54.8116 50.8909 54.8116C50.8909 55.6705 50.924 56.4963 50.8909 57.2892C50.7918 59.7006 49.7348 61.6166 47.6536 62.8719C46.9599 63.4004 45.9359 63.5986 45.0109 63.962ZM31.0707 26.8981C31.5001 26.4686 31.8965 26.1383 32.2599 25.7749C33.317 24.7178 33.317 23.4295 32.2599 22.3724C31.2689 21.3814 30.2448 20.3904 29.2538 19.3664C28.494 18.6066 27.6351 18.3753 26.5781 18.6726C24.4969 19.2673 22.3828 19.8619 20.3016 20.4565C19.4097 20.6877 18.8151 21.2163 18.4848 22.0751C16.1063 27.9221 13.6949 33.7361 11.3495 39.583C10.1272 42.5891 10.0942 45.6282 11.4816 48.6343C11.7129 49.1298 11.845 49.6914 11.845 50.2199C11.9111 52.9948 14.0582 55.0098 16.8331 54.8777C17.2295 54.8447 17.6589 54.9438 17.9893 55.142C23.0765 57.6856 28.428 58.7757 34.0767 57.9829C41.8066 56.8928 45.6386 47.6103 40.9808 41.3338C38.3711 37.7992 33.383 36.0815 28.8244 37.2376C27.6351 37.5349 26.479 38.0305 25.3888 38.4269C24.8933 36.3127 24.3648 34.0994 23.8693 31.8862C23.9354 31.8201 23.9684 31.754 24.0345 31.688C25.4219 31.9522 26.8423 32.1504 28.1967 32.5138C30.2778 33.0423 32.2268 31.688 32.3259 29.5738C32.425 28.5498 31.9626 27.6909 31.0707 26.8981ZM3.19013 21.5796C3.15709 22.3064 3.4544 22.7688 4.04901 22.934C4.61058 23.0661 5.04002 22.8679 5.30429 22.3724C5.43643 22.1412 5.43643 21.8439 5.46946 21.5796C5.73373 19.036 7.38542 17.4504 9.92902 17.2522C10.7218 17.1861 11.1843 16.7237 11.1182 16.0299C11.0852 15.3693 10.5897 14.9729 9.82992 14.9729C6.32834 15.0059 3.28923 18.012 3.19013 21.5796Z" fill="url(#paint0_linear_353_2239)"/>
<path d="M40.783 5.88901C40.783 5.12924 40.783 4.46856 40.783 3.80789C40.783 2.98204 40.2875 2.4535 39.6268 2.48653C38.9662 2.48653 38.5367 3.01507 38.5037 3.80789C38.5037 4.5016 38.5037 5.16227 38.5037 5.88901C37.7109 5.88901 37.0172 5.88901 36.1913 5.88901C36.1913 5.1953 36.1913 4.50159 36.1913 3.84092C36.1913 3.01507 35.7288 2.48653 35.0351 2.48653C34.3414 2.48653 33.912 3.01507 33.912 3.84092C33.912 4.46856 33.912 5.0962 33.912 5.72385C33.912 5.75688 33.879 5.78991 33.8459 5.88901C33.1522 5.88901 32.4255 5.88901 31.6327 5.88901C31.6327 5.1953 31.6327 4.56766 31.6327 3.90699C31.6327 3.04811 31.1702 2.48653 30.4765 2.51957C29.8158 2.51957 29.3533 3.04811 29.3533 3.90699C29.3533 4.56766 29.3533 5.22834 29.3533 5.92205C28.5605 5.92205 27.8668 5.92205 27.074 5.92205C27.074 5.22834 27.074 4.53463 27.074 3.87395C27.074 3.04811 26.6115 2.51957 25.9178 2.5526C25.2571 2.58563 24.8277 3.08114 24.8277 3.87395C24.8277 4.56766 24.8277 5.22834 24.8277 5.95508C24.0349 5.95508 23.3412 5.95508 22.5484 5.95508C22.5484 5.26137 22.5484 4.6007 22.5484 3.94002C22.5484 3.08114 22.0529 2.51957 21.3591 2.5526C20.6985 2.58563 20.269 3.11418 20.236 3.94002C20.236 4.6007 20.236 5.26137 20.236 5.95508C19.4762 5.95508 18.7825 5.95508 17.9567 5.95508C17.9567 5.29441 17.9567 4.6007 17.9567 3.94002C17.9567 3.11418 17.5272 2.58563 16.8335 2.5526C16.1398 2.51957 15.6773 3.04811 15.6773 3.94002C15.6773 4.56766 15.6773 5.22834 15.6773 5.92205C14.9176 5.92205 14.2238 5.92205 13.365 5.92205C13.365 5.19531 13.365 4.43553 13.365 3.67575C13.365 3.18024 13.1337 2.71777 12.6382 2.6517C12.2748 2.58563 11.7793 2.71777 11.449 2.91597C11.2178 3.08114 11.1187 3.51058 11.1187 3.84092C11.0526 4.50159 11.1187 5.19531 11.1187 5.92205C10.2598 5.92205 9.50001 5.95508 8.7072 5.92205C8.11259 5.88902 7.74922 5.42654 7.71618 4.83193C7.68315 3.67575 7.68315 2.5526 7.71618 1.39642C7.71618 0.702708 8.17866 0.306302 8.83933 0.240234C9.0045 0.240234 9.16967 0.240234 9.33484 0.240234C20.3681 0.240234 31.4014 0.240234 42.4677 0.240234C43.8221 0.240234 44.1194 0.537538 44.1194 1.85889C44.1194 2.81687 44.1194 3.77485 44.1194 4.73283C44.1194 5.42654 43.7561 5.85598 43.0954 5.92205C42.3686 5.92205 41.6089 5.88901 40.783 5.88901Z" fill="url(#paint1_linear_353_2239)"/>
<path d="M11.1846 10.3814C11.1846 9.65466 11.1846 8.96095 11.1846 8.20117C21.0286 8.20117 30.8727 8.20117 40.7498 8.20117C40.7498 8.92792 40.7498 9.62163 40.7498 10.3814C30.8727 10.3814 21.0617 10.3814 11.1846 10.3814Z" fill="url(#paint2_linear_353_2239)"/>
<path d="M30.7074 24.0582C30.0798 24.6858 29.5182 25.2474 28.8906 25.9081C28.362 25.4786 27.8004 25.0492 27.2719 24.5867C26.6112 23.9921 25.9506 23.9591 25.455 24.4546C24.9926 24.9501 25.0586 25.6438 25.7193 26.2384C26.7434 27.2625 27.9656 27.9892 29.287 28.5838C29.5843 28.716 29.9146 29.0133 30.0467 29.3106C30.278 29.9382 29.6834 30.4337 28.9566 30.3346C27.5031 30.1034 26.0497 29.8391 24.6292 29.6079C23.8034 29.4757 23.407 28.9802 23.2748 28.0222C23.1757 27.1303 22.449 26.6348 21.7222 26.9652C21.1937 27.1964 20.9294 27.6258 21.0285 28.1544C21.1276 28.749 21.3258 29.3106 21.491 29.8721C21.5901 30.2685 21.7222 30.665 21.7222 31.0614C21.6892 32.4157 21.9204 33.7371 22.3168 35.0254C23.0436 37.2717 23.407 39.551 22.9775 41.8964C22.8454 42.5902 22.5811 43.2839 22.3168 43.9445C22.0526 44.6382 22.1847 45.2659 22.7463 45.5632C23.3409 45.8605 24.0346 45.6623 24.3319 44.9356C24.6953 44.0436 24.9926 43.1187 25.2238 42.1607C25.3559 41.6322 25.5541 41.2358 25.9506 40.9385C27.404 39.7823 29.0888 39.2868 30.9056 39.1546C32.9537 39.0225 34.9027 39.4519 36.7196 40.476C39.7257 42.1607 41.3113 45.6623 40.6176 49.0648C39.9239 52.5664 37.083 55.3082 33.6805 55.7046C28.362 56.3322 23.3739 55.3742 18.6501 52.8306C18.0885 52.5333 17.56 52.4012 16.8663 52.5333C15.4788 52.8306 14.1575 51.7736 14.1575 50.3201C14.1575 49.2299 13.8602 48.305 13.4307 47.314C12.3737 45.0347 12.5388 42.6893 13.4638 40.4099C15.8092 34.629 18.1876 28.8811 20.566 23.1002C20.6651 22.869 20.9294 22.6377 21.1607 22.5717C23.1427 21.9771 25.1577 21.4485 27.1398 20.8869C27.3049 20.8539 27.5692 20.8539 27.7013 20.953C28.6924 22.0101 29.7164 23.0341 30.7074 24.0582ZM29.7494 52.4012C31.5333 52.4012 33.7465 52.0709 35.9268 51.4102C36.7196 51.1789 37.0829 50.5843 36.8847 49.9567C36.6865 49.329 36.125 49.0648 35.3322 49.2299C33.8787 49.5273 32.4582 49.8576 31.0047 50.0558C28.9566 50.287 26.9416 50.221 25.0256 49.3291C24.3319 48.9987 23.6712 49.1969 23.3739 49.7915C23.0766 50.3861 23.3409 51.0138 24.0346 51.3771C25.6863 52.17 27.404 52.5003 29.7494 52.4012ZM14.686 43.5481C14.9503 44.4731 15.1155 45.332 15.4458 46.1578C15.677 46.7854 16.3047 46.9837 16.8993 46.7524C17.4609 46.5212 17.7912 45.9266 17.5269 45.332C17.0314 44.0767 16.9984 42.8544 17.4939 41.5991C17.7582 40.9385 17.4609 40.3769 16.8332 40.1126C16.2386 39.8814 15.611 40.1126 15.3797 40.8063C15.0824 41.7313 14.9173 42.6562 14.686 43.5481Z" fill="url(#paint3_linear_353_2239)"/>
<defs>
<linearGradient id="paint0_linear_353_2239" x1="25.9247" y1="12.7266" x2="25.9247" y2="63.962" gradientUnits="userSpaceOnUse">
<stop stop-color="#E37048"/>
<stop offset="1" stop-color="#FFA900"/>
</linearGradient>
<linearGradient id="paint1_linear_353_2239" x1="25.9054" y1="0.240234" x2="25.9054" y2="5.95508" gradientUnits="userSpaceOnUse">
<stop stop-color="#E37048"/>
<stop offset="1" stop-color="#FFA900"/>
</linearGradient>
<linearGradient id="paint2_linear_353_2239" x1="25.9672" y1="8.20117" x2="25.9672" y2="10.3814" gradientUnits="userSpaceOnUse">
<stop stop-color="#E37048"/>
<stop offset="1" stop-color="#FFA900"/>
</linearGradient>
<linearGradient id="paint3_linear_353_2239" x1="26.7406" y1="20.8672" x2="26.7406" y2="55.8909" gradientUnits="userSpaceOnUse">
<stop stop-color="#E37048"/>
<stop offset="1" stop-color="#FFA900"/>
</linearGradient>
</defs>
</svg>
