<svg width="105" height="105" viewBox="0 0 105 105" fill="none" xmlns="http://www.w3.org/2000/svg">
<path d="M31.675 8.75H23.3625C13.7812 8.75 8.75 13.7812 8.75 23.3187V31.6313C8.75 41.1688 13.7812 46.2 23.3187 46.2H31.6312C41.1687 46.2 46.2 41.1688 46.2 31.6313V23.3187C46.2437 13.7812 41.2125 8.75 31.675 8.75Z" fill="white"/>
<path opacity="0.4" d="M81.6564 8.75H73.3439C63.8064 8.75 58.7751 13.7812 58.7751 23.3187V31.6313C58.7751 41.1688 63.8064 46.2 73.3439 46.2H81.6564C91.1939 46.2 96.2251 41.1688 96.2251 31.6313V23.3187C96.2251 13.7812 91.1939 8.75 81.6564 8.75Z" fill="white"/>
<path d="M81.6564 58.5908H73.3439C63.8064 58.5908 58.7751 63.6221 58.7751 73.1596V81.4721C58.7751 91.0096 63.8064 96.0408 73.3439 96.0408H81.6564C91.1939 96.0408 96.2251 91.0096 96.2251 81.4721V73.1596C96.2251 63.6221 91.1939 58.5908 81.6564 58.5908Z" fill="white"/>
<path opacity="0.4" d="M31.675 58.5908H23.3625C13.7812 58.5908 8.75 63.6221 8.75 73.1596V81.4721C8.75 91.0533 13.7812 96.0846 23.3187 96.0846H31.6312C41.1687 96.0846 46.2 91.0533 46.2 81.5158V73.2033C46.2437 63.6221 41.2125 58.5908 31.675 58.5908Z" fill="white"/>
</svg>
