<svg width="31" height="31" viewBox="0 0 31 31" fill="none" xmlns="http://www.w3.org/2000/svg">
<path d="M15.4376 0C15.5401 0.027322 15.6425 0.0546459 15.745 0.0819679C17.0018 0.403001 17.8693 1.64615 17.719 2.91663C17.5619 4.26224 16.4554 5.27998 15.1234 5.30047C13.771 5.32096 12.6508 4.35103 12.4459 2.9781C12.2546 1.72129 13.1016 0.457645 14.3584 0.102459C14.4814 0.0683061 14.6043 0.0341525 14.7204 0C14.9663 0 15.2054 0 15.4376 0Z" fill="#BDBDBD"/>
<path d="M30.1626 19.3777C30.1353 19.4187 30.108 19.4529 30.0875 19.4938C29.8826 19.89 29.4864 20.0949 29.0971 20.0061C28.6736 19.9037 28.4004 19.5621 28.4004 19.1045C28.3935 18.3395 28.4004 17.5745 28.4004 16.8095C28.4004 16.7138 28.4004 16.6182 28.4004 16.4884C27.6832 16.4884 26.9933 16.4884 26.3649 16.4884C26.2009 15.8737 26.0507 15.2999 25.8936 14.7262C26.6927 14.7262 27.5261 14.7262 28.4004 14.7262C28.4004 14.6169 28.4004 14.5212 28.4004 14.4324C28.4004 13.6879 28.4004 12.9434 28.4004 12.192C28.4004 11.6593 28.6463 11.3109 29.1039 11.2016C29.5206 11.106 29.8826 11.3109 30.1285 11.7959C30.1353 11.8095 30.1558 11.8164 30.1695 11.83C30.1626 14.3505 30.1626 16.8641 30.1626 19.3777Z" fill="#BDBDBD"/>
<path d="M10.9627 25.3277C10.3753 25.3277 9.82882 25.3277 9.27555 25.3277C7.21273 25.3209 5.66222 23.7772 5.66222 21.7144C5.66222 19.9658 5.65538 18.2172 5.66222 16.4754C5.66905 15.6558 6.22231 14.9659 6.99416 14.7814C7.7865 14.5902 8.59932 14.9249 8.96134 15.6489C9.09795 15.929 9.17992 16.2637 9.17992 16.5779C9.20041 18.1967 9.18675 19.8155 9.18675 21.4344C9.18675 21.5436 9.18675 21.6461 9.18675 21.7895C9.82881 21.7895 10.4572 21.81 11.0788 21.7827C11.4067 21.769 11.6116 21.8715 11.8302 22.1106C13.5856 24.0641 16.6457 24.0299 18.3874 22.0491C18.5582 21.851 18.729 21.7759 18.9885 21.7827C19.6374 21.8032 20.2795 21.7895 20.9762 21.7895C20.9762 21.6734 20.9762 21.571 20.9762 21.4685C20.9762 19.8019 20.9694 18.1284 20.983 16.4617C20.9899 15.5874 21.6319 14.8702 22.4994 14.7405C23.319 14.6107 24.1455 15.1161 24.4119 15.929C24.4802 16.1271 24.5076 16.3525 24.5076 16.5642C24.5144 18.3128 24.5212 20.0614 24.5076 21.8032C24.5007 23.7567 22.9366 25.3141 20.983 25.3277C20.4024 25.3346 19.8287 25.3277 19.2071 25.3277C19.2071 25.4439 19.2071 25.5463 19.2071 25.6556C19.2071 26.8236 19.2071 27.9916 19.2071 29.1596C19.2071 29.8085 18.8519 30.1637 18.2098 30.1637C16.1265 30.1637 14.0501 30.1637 11.9668 30.1637C11.3179 30.1637 10.9627 29.8154 10.9627 29.1665C10.9627 28.0053 10.9627 26.8509 10.9627 25.6898C10.9627 25.5805 10.9627 25.4712 10.9627 25.3277Z" fill="#BDBDBD"/>
<path d="M19.2156 10.3215C19.2156 11.2232 19.2156 12.077 19.2156 12.9376C16.4561 12.9376 13.7239 12.9376 10.9712 12.9376C10.9712 12.0838 10.9712 11.2368 10.9712 10.3147C10.8619 10.4035 10.8004 10.4513 10.7458 10.5128C10.0081 11.2505 9.27038 11.9813 8.53952 12.719C8.32777 12.9376 8.12286 13.0332 7.795 12.9923C7.42615 12.9444 7.02998 12.9991 6.66113 13.0537C6.45622 13.0879 6.30595 13.0606 6.14884 12.9376C5.30869 12.2819 5.22673 11.0729 5.97808 10.2874C6.59966 9.64531 7.24173 9.02373 7.87013 8.3885C8.41657 7.84206 8.96985 7.29562 9.51629 6.74235C10.0764 6.17542 10.7321 5.75193 11.504 5.52652C11.5928 5.4992 11.7567 5.54018 11.8182 5.60848C13.6897 7.54835 16.4834 7.54835 18.3754 5.60166C18.4438 5.53335 18.6009 5.4992 18.6965 5.52652C19.3932 5.73144 20.0148 6.09345 20.5271 6.60574C21.7565 7.82157 22.9792 9.0374 24.195 10.2669C24.9669 11.0524 24.8918 12.2477 24.0584 12.9171C23.8945 13.0469 23.7374 13.0811 23.5188 13.0469C23.1226 12.9854 22.7196 12.9581 22.3235 12.9923C22.0503 13.0196 21.8795 12.9444 21.7019 12.7669C20.9642 12.0223 20.2197 11.2778 19.4751 10.5401C19.4 10.4786 19.3249 10.4172 19.2156 10.3215Z" fill="#BDBDBD"/>
<path d="M14.5964 16.482C13.3942 16.482 12.1852 16.482 11.0377 16.482C10.8738 15.8741 10.7235 15.3072 10.5732 14.7334C13.565 14.7334 16.5978 14.7334 19.5895 14.7334C19.4392 15.3003 19.2821 15.8741 19.1182 16.482C17.9707 16.482 16.7617 16.482 15.5527 16.482C17.0349 16.9397 17.8955 18.1077 17.7179 19.4396C17.5335 20.8057 16.427 21.7825 15.0882 21.7893C13.7494 21.7893 12.6361 20.8125 12.4516 19.4464C12.315 18.4424 12.8273 16.9533 14.5964 16.482Z" fill="#BDBDBD"/>
<path d="M1.7691 14.7263C2.63657 14.7263 3.47672 14.7263 4.27589 14.7263C4.11879 15.3137 3.96853 15.8806 3.80459 16.4885C3.17619 16.4885 2.49313 16.4885 1.78276 16.4885C1.77593 16.6047 1.7691 16.6935 1.7691 16.7891C1.7691 17.5473 1.7691 18.2986 1.7691 19.0568C1.7691 19.6306 1.40026 20.0267 0.887967 20.0267C0.37568 20.0267 0 19.6306 0 19.0568C0 16.7618 0 14.4667 0 12.1717C0 11.5979 0.355185 11.1949 0.874304 11.1949C1.40025 11.1881 1.7691 11.5911 1.7691 12.1853C1.7691 13.0118 1.7691 13.8451 1.7691 14.7263Z" fill="#BDBDBD"/>
</svg>
