<svg width="32" height="31" viewBox="0 0 32 31" fill="none" xmlns="http://www.w3.org/2000/svg">
<path fill-rule="evenodd" clip-rule="evenodd" d="M16.001 27.4059C22.6441 27.4059 28.0294 22.0206 28.0294 15.3775C28.0294 8.73441 22.6441 3.34912 16.001 3.34912C9.35794 3.34912 3.97266 8.73441 3.97266 15.3775C3.97266 22.0206 9.35794 27.4059 16.001 27.4059ZM17.001 9.36331C17.001 8.81102 16.5533 8.36331 16.001 8.36331C15.4487 8.36331 15.001 8.81102 15.001 9.36331V15.3775C15.001 15.6427 15.1064 15.8971 15.2939 16.0846L19.5466 20.3373C19.9371 20.7278 20.5703 20.7278 20.9608 20.3373C21.3513 19.9467 21.3513 19.3136 20.9608 18.9231L17.001 14.9633V9.36331Z" fill="#4B4B4B"/>
</svg>
