<svg width="221" height="30" viewBox="0 0 221 30" fill="none" xmlns="http://www.w3.org/2000/svg">
<path d="M42.6126 0.491685L35.9749 29.5011H24.6662L21.3063 13.0296L17.9465 29.5011H6.63774L0 0.491685H9.79271L12.415 18.7659L16.3485 0.491685H26.2641L30.1976 18.7659L32.8199 0.491685H42.6126Z" fill="#E37048"/>
<path d="M60.0105 29.7879C57.2789 29.7879 54.7658 29.1459 52.4713 27.8621C50.2041 26.5783 48.4012 24.8027 47.0628 22.5355C45.7243 20.2683 45.0551 17.7143 45.0551 14.8734C45.0551 12.0326 45.7243 9.47858 47.0628 7.21137C48.4012 4.94416 50.2041 3.18229 52.4713 1.92576C54.7658 0.64192 57.2789 0 60.0105 0C62.742 0 65.2414 0.64192 67.5086 1.92576C69.7758 3.18229 71.565 4.94416 72.8762 7.21137C74.2147 9.47858 74.8839 12.0326 74.8839 14.8734C74.8839 17.7143 74.2147 20.2683 72.8762 22.5355C71.565 24.8027 69.7622 26.5783 67.4677 27.8621C65.2004 29.1459 62.7147 29.7879 60.0105 29.7879ZM60.0105 21.3063C61.8133 21.3063 63.2064 20.7327 64.1898 19.5854C65.1731 18.4108 65.6648 16.8402 65.6648 14.8734C65.6648 12.8794 65.1731 11.3087 64.1898 10.1615C63.2064 8.98689 61.8133 8.3996 60.0105 8.3996C58.1803 8.3996 56.7735 8.98689 55.7902 10.1615C54.8068 11.3087 54.3151 12.8794 54.3151 14.8734C54.3151 16.8402 54.8068 18.4108 55.7902 19.5854C56.7735 20.7327 58.1803 21.3063 60.0105 21.3063Z" fill="#E37048"/>
<path d="M92.752 29.5011L87.3024 19.0937H87.2615V29.5011H78.1653V0.491685H91.6866C94.0358 0.491685 96.0435 0.915079 97.7098 1.76187C99.376 2.58134 100.619 3.71495 101.438 5.16268C102.285 6.5831 102.709 8.19473 102.709 9.99758C102.709 11.937 102.162 13.6579 101.07 15.1603C100.004 16.6626 98.4609 17.7416 96.4396 18.3972L102.75 29.5011H92.752ZM87.2615 13.0296H90.8671C91.7413 13.0296 92.3968 12.8384 92.8339 12.456C93.2709 12.0463 93.4895 11.418 93.4895 10.5712C93.4895 9.80637 93.2573 9.20542 92.7929 8.76837C92.3559 8.33131 91.7139 8.11279 90.8671 8.11279H87.2615V13.0296Z" fill="#E37048"/>
<path d="M123.151 29.5011L114.711 16.9221V29.5011H105.614V0.491685H114.711V12.7018L123.028 0.491685H133.313L123.315 14.3818L133.968 29.5011H123.151Z" fill="#E37048"/>
<path d="M195.333 10.4464C195.333 12.2765 194.91 13.9428 194.063 15.4451C193.216 16.9202 191.96 18.0948 190.293 18.9689C188.654 19.843 186.66 20.28 184.311 20.28H180.706V29.4991H171.609V0.489746H184.311C187.862 0.489746 190.58 1.39117 192.465 3.19401C194.377 4.99685 195.333 7.4143 195.333 10.4464ZM183.287 13.1096C185.172 13.1096 186.114 12.2219 186.114 10.4464C186.114 8.67083 185.172 7.78306 183.287 7.78306H180.706V13.1096H183.287Z" fill="#E37048"/>
<path d="M221 0.489746V7.70112H213.297V29.4991H204.2V7.70112H196.579V0.489746H221Z" fill="#E37048"/>
<path d="M155.371 8.58924C155.241 7.12314 155.111 5.86988 155.028 4.61661C155.016 4.41561 155.158 4.10818 155.323 4.00177C155.926 3.59978 156.257 2.74852 156.056 2.02729C155.926 1.56618 155.82 1.10507 155.666 0.549373C155.986 0.525726 156.21 0.490234 156.423 0.490234C160.419 0.490234 164.416 0.490234 168.412 0.490234C169.464 0.490234 169.547 0.584846 169.44 1.66077C169.216 3.77715 169.003 5.89351 168.755 7.99807C168.637 9.06217 168.495 9.14493 167.442 9.14493C165.823 9.13311 164.215 9.14492 162.595 9.1331C162.063 9.12128 161.803 9.28681 161.814 9.87798C161.826 15.7187 161.826 21.5595 161.814 27.4002C161.814 27.9677 161.885 28.5352 161.779 29.0791C161.732 29.3274 161.365 29.7057 161.129 29.7176C158.717 29.7648 156.317 29.7767 153.905 29.753C153.16 29.7412 153.089 29.221 153.183 28.5944C153.857 28.6653 154.472 28.7717 155.099 28.7717C155.359 28.7717 155.619 28.547 155.891 28.4288C155.69 28.1923 155.524 27.9322 155.288 27.7431C154.957 27.4711 154.531 27.3056 154.248 27.01C153.798 26.5253 153.692 25.9577 154.106 25.3311C155.111 23.7941 156.068 22.2216 157.073 20.6845C157.381 20.2116 157.463 19.7741 157.215 19.2539C156.577 17.9533 156.021 16.6055 155.323 15.3286C155.075 14.8674 154.496 14.5955 154.106 14.2053C153.964 14.0634 153.857 13.7797 153.893 13.6023C154.082 12.7037 154.413 11.8288 154.543 10.9184C154.697 9.88981 155.217 9.58242 156.553 9.53512C156.991 9.5233 157.558 9.79522 157.712 9.14493C157.865 8.5183 157.511 8.09267 156.92 7.93897C156.683 7.87985 156.388 7.98627 156.139 8.09268C155.903 8.17544 155.69 8.36459 155.371 8.58924Z" fill="#E37048"/>
<path d="M140.773 29.7213C139.414 29.7213 137.936 29.7449 136.47 29.6858C136.28 29.674 135.973 29.2129 135.938 28.9291C135.867 28.1961 135.914 27.4512 135.914 26.7063C135.914 18.3827 135.914 10.0591 135.914 1.73544C135.914 0.517633 135.961 0.470343 137.155 0.482166C139.626 0.482166 142.097 0.505789 144.569 0.458496C144.557 7.12686 144.569 13.7834 144.569 20.4518C144.569 20.4873 144.557 20.5582 144.533 20.5937C143.824 21.7287 143.091 22.8401 142.369 23.9633C142.038 24.4717 141.672 24.8146 140.986 24.8855C139.91 25.0038 139.792 25.2402 140.005 26.3162C140.229 27.4275 140.501 28.5153 140.773 29.7213Z" fill="#E37048"/>
<path d="M148.114 9.13421C147.345 9.13421 146.754 9.20515 146.186 9.09874C145.938 9.05145 145.56 8.67311 145.56 8.43664C145.524 6.00103 145.536 3.57726 145.583 1.14166C145.583 0.917012 145.95 0.515008 146.163 0.503185C148.255 0.455891 150.336 0.479551 152.618 0.479551C151.909 1.42542 152.216 2.15846 152.701 2.91516C152.796 3.06886 152.63 3.45902 152.488 3.68367C151.448 5.35076 149.863 6.42669 148.315 7.53809C147.747 7.92826 147.522 8.40116 148.114 9.13421Z" fill="#E37048"/>
<path d="M144.579 24.127C144.579 25.0137 144.579 25.8886 144.579 26.7754C144.579 27.5202 144.555 28.2651 144.579 28.9982C144.602 29.6366 144.295 29.8849 143.692 29.8494C143.042 29.8258 142.391 29.8849 141.765 29.8021C142.096 27.6503 142.557 25.5221 144.579 24.127Z" fill="#E37048"/>
<path d="M149.608 8.71985H149.572C149.253 8.71985 149.005 8.45973 149.005 8.15232V8.11685C149.005 7.79762 149.265 7.54932 149.572 7.54932H149.608C149.927 7.54932 150.175 7.80944 150.175 8.11685V8.15232C150.187 8.45973 149.927 8.71985 149.608 8.71985Z" fill="#E37048"/>
</svg>
