<svg width="23" height="23" viewBox="0 0 23 23" fill="none" xmlns="http://www.w3.org/2000/svg">
<path d="M11.5 23C8.45001 23 5.52494 21.7884 3.36827 19.6317C1.2116 17.4751 0 14.55 0 11.5C0 8.45001 1.2116 5.52494 3.36827 3.36827C5.52494 1.2116 8.45001 0 11.5 0C14.55 0 17.4751 1.2116 19.6317 3.36827C21.7884 5.52494 23 8.45001 23 11.5C23 14.55 21.7884 17.4751 19.6317 19.6317C17.4751 21.7884 14.55 23 11.5 23ZM9.062 9.062L4.991 18.009L13.938 13.938L18.009 4.991L9.062 9.062ZM11.5 12.65C11.195 12.65 10.9025 12.5288 10.6868 12.3132C10.4712 12.0975 10.35 11.805 10.35 11.5C10.35 11.195 10.4712 10.9025 10.6868 10.6868C10.9025 10.4712 11.195 10.35 11.5 10.35C11.805 10.35 12.0975 10.4712 12.3132 10.6868C12.5288 10.9025 12.65 11.195 12.65 11.5C12.65 11.805 12.5288 12.0975 12.3132 12.3132C12.0975 12.5288 11.805 12.65 11.5 12.65Z" fill="white"/>
</svg>
