<svg width="221" height="30" viewBox="0 0 221 30" fill="none" xmlns="http://www.w3.org/2000/svg">
<path d="M42.6126 0.491685L35.9749 29.5011H24.6662L21.3063 13.0296L17.9465 29.5011H6.63774L0 0.491685H9.79271L12.415 18.7659L16.3485 0.491685H26.2641L30.1976 18.7659L32.8199 0.491685H42.6126Z" fill="#E37048"/>
<path d="M60.0105 29.7879C57.2789 29.7879 54.7658 29.1459 52.4713 27.8621C50.2041 26.5783 48.4012 24.8027 47.0628 22.5355C45.7243 20.2683 45.0551 17.7143 45.0551 14.8734C45.0551 12.0326 45.7243 9.47858 47.0628 7.21137C48.4012 4.94416 50.2041 3.18229 52.4713 1.92576C54.7658 0.64192 57.2789 0 60.0105 0C62.742 0 65.2414 0.64192 67.5086 1.92576C69.7758 3.18229 71.565 4.94416 72.8762 7.21137C74.2147 9.47858 74.8839 12.0326 74.8839 14.8734C74.8839 17.7143 74.2147 20.2683 72.8762 22.5355C71.565 24.8027 69.7622 26.5783 67.4677 27.8621C65.2004 29.1459 62.7147 29.7879 60.0105 29.7879ZM60.0105 21.3063C61.8133 21.3063 63.2064 20.7327 64.1898 19.5854C65.1731 18.4108 65.6648 16.8402 65.6648 14.8734C65.6648 12.8794 65.1731 11.3087 64.1898 10.1615C63.2064 8.98689 61.8133 8.3996 60.0105 8.3996C58.1803 8.3996 56.7735 8.98689 55.7902 10.1615C54.8068 11.3087 54.3151 12.8794 54.3151 14.8734C54.3151 16.8402 54.8068 18.4108 55.7902 19.5854C56.7735 20.7327 58.1803 21.3063 60.0105 21.3063Z" fill="#E37048"/>
<path d="M92.752 29.5011L87.3024 19.0937H87.2615V29.5011H78.1653V0.491685H91.6866C94.0358 0.491685 96.0435 0.915079 97.7098 1.76187C99.376 2.58134 100.619 3.71495 101.438 5.16268C102.285 6.5831 102.709 8.19473 102.709 9.99758C102.709 11.937 102.162 13.6579 101.07 15.1603C100.004 16.6626 98.4609 17.7416 96.4396 18.3972L102.75 29.5011H92.752ZM87.2615 13.0296H90.8671C91.7413 13.0296 92.3968 12.8384 92.8339 12.456C93.2709 12.0463 93.4895 11.418 93.4895 10.5712C93.4895 9.80637 93.2573 9.20542 92.7929 8.76837C92.3559 8.33131 91.7139 8.11279 90.8671 8.11279H87.2615V13.0296Z" fill="#E37048"/>
<path d="M123.151 29.5011L114.711 16.9221V29.5011H105.614V0.491685H114.711V12.7018L123.028 0.491685H133.313L123.315 14.3818L133.968 29.5011H123.151Z" fill="#E37048"/>
<path d="M195.333 10.4459C195.333 12.276 194.91 13.9423 194.063 15.4447C193.216 16.9197 191.96 18.0943 190.293 18.9684C188.655 19.8425 186.66 20.2796 184.311 20.2796H180.706V29.4986H171.609V0.489258H184.311C187.862 0.489258 190.58 1.39068 192.465 3.19352C194.377 4.99636 195.333 7.41381 195.333 10.4459ZM183.287 13.1092C185.172 13.1092 186.114 12.2214 186.114 10.4459C186.114 8.67034 185.172 7.78258 183.287 7.78258H180.706V13.1092H183.287Z" fill="#E37048"/>
<path d="M221 0.489258V7.70063H213.297V29.4986H204.201V7.70063H196.579V0.489258H221Z" fill="#E37048"/>
<path d="M155.371 8.58826C155.241 7.12216 155.111 5.86891 155.028 4.61563C155.016 4.41463 155.158 4.1072 155.324 4.00079C155.927 3.5988 156.258 2.74754 156.057 2.02631C155.927 1.5652 155.82 1.10409 155.667 0.548396C155.986 0.52475 156.21 0.489258 156.423 0.489258C160.42 0.489258 164.416 0.489258 168.412 0.489258C169.464 0.489258 169.547 0.583869 169.441 1.65979C169.216 3.77617 169.003 5.89254 168.755 7.99709C168.637 9.06119 168.495 9.14396 167.443 9.14396C165.823 9.13213 164.215 9.14395 162.595 9.13212C162.063 9.1203 161.803 9.28583 161.815 9.877C161.827 15.7177 161.827 21.5585 161.815 27.3992C161.815 27.9667 161.886 28.5343 161.779 29.0781C161.732 29.3264 161.365 29.7048 161.129 29.7166C158.717 29.7639 156.317 29.7757 153.905 29.752C153.16 29.7402 153.089 29.22 153.184 28.5934C153.858 28.6643 154.472 28.7707 155.099 28.7707C155.359 28.7707 155.619 28.5461 155.891 28.4278C155.69 28.1914 155.525 27.9313 155.288 27.7421C154.957 27.4702 154.532 27.3046 154.248 27.0091C153.799 26.5243 153.692 25.9568 154.106 25.3301C155.111 23.7931 156.069 22.2206 157.074 20.6836C157.381 20.2106 157.464 19.7731 157.215 19.2529C156.577 17.9523 156.021 16.6045 155.324 15.3276C155.075 14.8665 154.496 14.5945 154.106 14.2043C153.964 14.0625 153.858 13.7787 153.893 13.6013C154.082 12.7028 154.413 11.8279 154.543 10.9175C154.697 9.88883 155.217 9.58144 156.553 9.53415C156.991 9.52233 157.558 9.79424 157.712 9.14396C157.866 8.51732 157.511 8.09169 156.92 7.93799C156.683 7.87887 156.388 7.98529 156.14 8.0917C155.903 8.17446 155.69 8.36362 155.371 8.58826Z" fill="#E37048"/>
<path d="M140.773 29.7208C139.413 29.7208 137.936 29.7444 136.469 29.6853C136.28 29.6735 135.973 29.2124 135.937 28.9286C135.866 28.1956 135.914 27.4507 135.914 26.7059C135.914 18.3822 135.914 10.0586 135.914 1.73495C135.914 0.517145 135.961 0.469854 137.155 0.481678C139.626 0.481678 142.097 0.505301 144.568 0.458008C144.557 7.12638 144.568 13.7829 144.568 20.4513C144.568 20.4868 144.557 20.5577 144.533 20.5932C143.824 21.7282 143.091 22.8396 142.369 23.9628C142.038 24.4712 141.672 24.8141 140.986 24.885C139.91 25.0033 139.792 25.2397 140.005 26.3157C140.229 27.4271 140.501 28.5148 140.773 29.7208Z" fill="#E37048"/>
<path d="M148.114 9.13421C147.345 9.13421 146.754 9.20515 146.186 9.09874C145.938 9.05145 145.56 8.67311 145.56 8.43664C145.524 6.00103 145.536 3.57726 145.583 1.14166C145.583 0.917012 145.95 0.515008 146.163 0.503185C148.255 0.455891 150.336 0.479551 152.618 0.479551C151.909 1.42542 152.216 2.15846 152.701 2.91516C152.796 3.06886 152.63 3.45902 152.488 3.68367C151.448 5.35076 149.863 6.42669 148.315 7.53809C147.747 7.92826 147.522 8.40116 148.114 9.13421Z" fill="#E37048"/>
<path d="M144.579 24.127C144.579 25.0137 144.579 25.8886 144.579 26.7754C144.579 27.5202 144.555 28.2651 144.579 28.9982C144.602 29.6366 144.295 29.8849 143.692 29.8494C143.041 29.8258 142.391 29.8849 141.765 29.8021C142.096 27.6503 142.557 25.5221 144.579 24.127Z" fill="#E37048"/>
<path d="M149.607 8.71936H149.572C149.253 8.71936 149.004 8.45924 149.004 8.15183V8.11636C149.004 7.79713 149.264 7.54883 149.572 7.54883H149.607C149.927 7.54883 150.175 7.80895 150.175 8.11636V8.15183C150.187 8.45924 149.927 8.71936 149.607 8.71936Z" fill="#E37048"/>
</svg>
