<svg width="70" height="70" viewBox="0 0 70 70" fill="none" xmlns="http://www.w3.org/2000/svg">
<path d="M60.6464 0.125H9.93767C4.77106 0.125 0.583008 4.31305 0.583008 9.47966V60.1884C0.583008 65.355 4.77106 69.5431 9.93767 69.5431H34.9471L34.9896 44.7374H28.5451C27.7066 44.7374 27.0274 44.0603 27.0253 43.2218L26.9934 35.2257C26.9892 34.3851 27.6727 33.6995 28.5133 33.6995H34.9471V25.9729C34.9471 17.0067 40.4236 12.1245 48.4219 12.1245H54.9852C55.8237 12.1245 56.5051 12.8059 56.5051 13.6444V20.386C56.5051 21.2266 55.8237 21.9058 54.9852 21.9058L50.9564 21.908C46.607 21.908 45.7643 23.9754 45.7643 27.0088V33.6973H55.3227C56.2333 33.6973 56.9402 34.4933 56.8319 35.3955L55.8831 43.3916C55.7918 44.1579 55.1444 44.7332 54.3739 44.7332H45.8067L45.7643 69.5388H60.6464C65.813 69.5388 70.0011 65.3508 70.0011 60.1842V9.47329C70.0011 4.31305 65.813 0.125 60.6464 0.125Z" fill="#475993"/>
</svg>
