<svg width="114" height="114" viewBox="0 0 114 114" fill="none" xmlns="http://www.w3.org/2000/svg">
<path fill-rule="evenodd" clip-rule="evenodd" d="M113.8 56.9992C113.8 88.369 88.37 113.799 57.0002 113.799C25.6304 113.799 0.200195 88.369 0.200195 56.9992C0.200195 25.6294 25.6304 0.199219 57.0002 0.199219C88.37 0.199219 113.8 25.6294 113.8 56.9992ZM71.2002 35.6992C71.2002 43.5417 64.8426 49.8992 57.0002 49.8992C49.1578 49.8992 42.8002 43.5417 42.8002 35.6992C42.8002 27.8568 49.1578 21.4992 57.0002 21.4992C64.8426 21.4992 71.2002 27.8568 71.2002 35.6992ZM56.9997 64.0992C42.6752 64.0992 30.3322 72.5834 24.7217 84.8008C32.5338 93.8627 44.097 99.5992 57.0001 99.5992C69.9029 99.5992 81.4659 93.8629 89.278 84.8014C83.6676 72.5837 71.3245 64.0992 56.9997 64.0992Z" fill="#E37048"/>
</svg>
