<svg width="69" height="67" viewBox="0 0 69 67" fill="none" xmlns="http://www.w3.org/2000/svg">
<path fill-rule="evenodd" clip-rule="evenodd" d="M35.5103 51.9901C34.163 50.707 34.163 48.6266 35.5103 47.3434L50.3208 33.2382L35.5103 19.133C34.163 17.8498 34.163 15.7694 35.5103 14.4863C36.8576 13.2031 39.042 13.2031 40.3893 14.4863L57.6393 30.9149C58.9866 32.198 58.9866 34.2784 57.6393 35.5616L40.3893 51.9901C39.042 53.2733 36.8576 53.2733 35.5103 51.9901Z" fill="white"/>
<path fill-rule="evenodd" clip-rule="evenodd" d="M14.8103 51.9901C13.463 50.707 13.463 48.6266 14.8103 47.3434L29.6208 33.2382L14.8103 19.133C13.463 17.8498 13.463 15.7694 14.8103 14.4863C16.1576 13.2031 18.342 13.2031 19.6893 14.4863L36.9393 30.9149C38.2866 32.198 38.2866 34.2784 36.9393 35.5616L19.6893 51.9901C18.342 53.2733 16.1576 53.2733 14.8103 51.9901Z" fill="white"/>
</svg>
