<svg width="1920" height="1063" viewBox="0 0 1920 1063" fill="none" xmlns="http://www.w3.org/2000/svg">
<rect width="1920" height="1063" fill="url(#paint0_radial_597_969)" fill-opacity="0.28"/>
<path d="M70 971.5C70 972.881 68.8807 974 67.5 974C66.1193 974 65 972.881 65 971.5C65 970.119 66.1193 969 67.5 969C68.8807 969 70 970.119 70 971.5Z" fill="white" fill-opacity="0.15"/>
<path d="M81 971.5C81 972.881 79.8807 974 78.5 974C77.1193 974 76 972.881 76 971.5C76 970.119 77.1193 969 78.5 969C79.8807 969 81 970.119 81 971.5Z" fill="white" fill-opacity="0.15"/>
<path d="M92 971.5C92 972.881 90.8807 974 89.5 974C88.1193 974 87 972.881 87 971.5C87 970.119 88.1193 969 89.5 969C90.8807 969 92 970.119 92 971.5Z" fill="white" fill-opacity="0.15"/>
<path d="M103 971.5C103 972.881 101.881 974 100.5 974C99.1193 974 98 972.881 98 971.5C98 970.119 99.1193 969 100.5 969C101.881 969 103 970.119 103 971.5Z" fill="white" fill-opacity="0.15"/>
<path d="M114 971.5C114 972.881 112.881 974 111.5 974C110.119 974 109 972.881 109 971.5C109 970.119 110.119 969 111.5 969C112.881 969 114 970.119 114 971.5Z" fill="white" fill-opacity="0.15"/>
<path d="M125 971.5C125 972.881 123.881 974 122.5 974C121.119 974 120 972.881 120 971.5C120 970.119 121.119 969 122.5 969C123.881 969 125 970.119 125 971.5Z" fill="white" fill-opacity="0.15"/>
<path d="M70 982.5C70 983.881 68.8807 985 67.5 985C66.1193 985 65 983.881 65 982.5C65 981.119 66.1193 980 67.5 980C68.8807 980 70 981.119 70 982.5Z" fill="white" fill-opacity="0.15"/>
<path d="M81 982.5C81 983.881 79.8807 985 78.5 985C77.1193 985 76 983.881 76 982.5C76 981.119 77.1193 980 78.5 980C79.8807 980 81 981.119 81 982.5Z" fill="white" fill-opacity="0.15"/>
<path d="M92 982.5C92 983.881 90.8807 985 89.5 985C88.1193 985 87 983.881 87 982.5C87 981.119 88.1193 980 89.5 980C90.8807 980 92 981.119 92 982.5Z" fill="white" fill-opacity="0.15"/>
<path d="M103 982.5C103 983.881 101.881 985 100.5 985C99.1193 985 98 983.881 98 982.5C98 981.119 99.1193 980 100.5 980C101.881 980 103 981.119 103 982.5Z" fill="white" fill-opacity="0.15"/>
<path d="M114 982.5C114 983.881 112.881 985 111.5 985C110.119 985 109 983.881 109 982.5C109 981.119 110.119 980 111.5 980C112.881 980 114 981.119 114 982.5Z" fill="white" fill-opacity="0.15"/>
<path d="M125 982.5C125 983.881 123.881 985 122.5 985C121.119 985 120 983.881 120 982.5C120 981.119 121.119 980 122.5 980C123.881 980 125 981.119 125 982.5Z" fill="white" fill-opacity="0.15"/>
<path d="M70 993.5C70 994.881 68.8807 996 67.5 996C66.1193 996 65 994.881 65 993.5C65 992.119 66.1193 991 67.5 991C68.8807 991 70 992.119 70 993.5Z" fill="white" fill-opacity="0.15"/>
<path d="M81 993.5C81 994.881 79.8807 996 78.5 996C77.1193 996 76 994.881 76 993.5C76 992.119 77.1193 991 78.5 991C79.8807 991 81 992.119 81 993.5Z" fill="white" fill-opacity="0.15"/>
<path d="M92 993.5C92 994.881 90.8807 996 89.5 996C88.1193 996 87 994.881 87 993.5C87 992.119 88.1193 991 89.5 991C90.8807 991 92 992.119 92 993.5Z" fill="white" fill-opacity="0.15"/>
<path d="M103 993.5C103 994.881 101.881 996 100.5 996C99.1193 996 98 994.881 98 993.5C98 992.119 99.1193 991 100.5 991C101.881 991 103 992.119 103 993.5Z" fill="white" fill-opacity="0.15"/>
<path d="M114 993.5C114 994.881 112.881 996 111.5 996C110.119 996 109 994.881 109 993.5C109 992.119 110.119 991 111.5 991C112.881 991 114 992.119 114 993.5Z" fill="white" fill-opacity="0.15"/>
<path d="M125 993.5C125 994.881 123.881 996 122.5 996C121.119 996 120 994.881 120 993.5C120 992.119 121.119 991 122.5 991C123.881 991 125 992.119 125 993.5Z" fill="white" fill-opacity="0.15"/>
<path d="M70 1004.5C70 1005.88 68.8807 1007 67.5 1007C66.1193 1007 65 1005.88 65 1004.5C65 1003.12 66.1193 1002 67.5 1002C68.8807 1002 70 1003.12 70 1004.5Z" fill="white" fill-opacity="0.15"/>
<path d="M81 1004.5C81 1005.88 79.8807 1007 78.5 1007C77.1193 1007 76 1005.88 76 1004.5C76 1003.12 77.1193 1002 78.5 1002C79.8807 1002 81 1003.12 81 1004.5Z" fill="white" fill-opacity="0.15"/>
<path d="M92 1004.5C92 1005.88 90.8807 1007 89.5 1007C88.1193 1007 87 1005.88 87 1004.5C87 1003.12 88.1193 1002 89.5 1002C90.8807 1002 92 1003.12 92 1004.5Z" fill="white" fill-opacity="0.15"/>
<path d="M103 1004.5C103 1005.88 101.881 1007 100.5 1007C99.1193 1007 98 1005.88 98 1004.5C98 1003.12 99.1193 1002 100.5 1002C101.881 1002 103 1003.12 103 1004.5Z" fill="white" fill-opacity="0.15"/>
<path d="M114 1004.5C114 1005.88 112.881 1007 111.5 1007C110.119 1007 109 1005.88 109 1004.5C109 1003.12 110.119 1002 111.5 1002C112.881 1002 114 1003.12 114 1004.5Z" fill="white" fill-opacity="0.15"/>
<path d="M125 1004.5C125 1005.88 123.881 1007 122.5 1007C121.119 1007 120 1005.88 120 1004.5C120 1003.12 121.119 1002 122.5 1002C123.881 1002 125 1003.12 125 1004.5Z" fill="white" fill-opacity="0.15"/>
<path d="M70 1015.5C70 1016.88 68.8807 1018 67.5 1018C66.1193 1018 65 1016.88 65 1015.5C65 1014.12 66.1193 1013 67.5 1013C68.8807 1013 70 1014.12 70 1015.5Z" fill="white" fill-opacity="0.15"/>
<path d="M81 1015.5C81 1016.88 79.8807 1018 78.5 1018C77.1193 1018 76 1016.88 76 1015.5C76 1014.12 77.1193 1013 78.5 1013C79.8807 1013 81 1014.12 81 1015.5Z" fill="white" fill-opacity="0.15"/>
<path d="M92 1015.5C92 1016.88 90.8807 1018 89.5 1018C88.1193 1018 87 1016.88 87 1015.5C87 1014.12 88.1193 1013 89.5 1013C90.8807 1013 92 1014.12 92 1015.5Z" fill="white" fill-opacity="0.15"/>
<path d="M103 1015.5C103 1016.88 101.881 1018 100.5 1018C99.1193 1018 98 1016.88 98 1015.5C98 1014.12 99.1193 1013 100.5 1013C101.881 1013 103 1014.12 103 1015.5Z" fill="white" fill-opacity="0.15"/>
<path d="M114 1015.5C114 1016.88 112.881 1018 111.5 1018C110.119 1018 109 1016.88 109 1015.5C109 1014.12 110.119 1013 111.5 1013C112.881 1013 114 1014.12 114 1015.5Z" fill="white" fill-opacity="0.15"/>
<path d="M125 1015.5C125 1016.88 123.881 1018 122.5 1018C121.119 1018 120 1016.88 120 1015.5C120 1014.12 121.119 1013 122.5 1013C123.881 1013 125 1014.12 125 1015.5Z" fill="white" fill-opacity="0.15"/>
<path d="M70 1026.5C70 1027.88 68.8807 1029 67.5 1029C66.1193 1029 65 1027.88 65 1026.5C65 1025.12 66.1193 1024 67.5 1024C68.8807 1024 70 1025.12 70 1026.5Z" fill="white" fill-opacity="0.15"/>
<path d="M81 1026.5C81 1027.88 79.8807 1029 78.5 1029C77.1193 1029 76 1027.88 76 1026.5C76 1025.12 77.1193 1024 78.5 1024C79.8807 1024 81 1025.12 81 1026.5Z" fill="white" fill-opacity="0.15"/>
<path d="M92 1026.5C92 1027.88 90.8807 1029 89.5 1029C88.1193 1029 87 1027.88 87 1026.5C87 1025.12 88.1193 1024 89.5 1024C90.8807 1024 92 1025.12 92 1026.5Z" fill="white" fill-opacity="0.15"/>
<path d="M103 1026.5C103 1027.88 101.881 1029 100.5 1029C99.1193 1029 98 1027.88 98 1026.5C98 1025.12 99.1193 1024 100.5 1024C101.881 1024 103 1025.12 103 1026.5Z" fill="white" fill-opacity="0.15"/>
<path d="M114 1026.5C114 1027.88 112.881 1029 111.5 1029C110.119 1029 109 1027.88 109 1026.5C109 1025.12 110.119 1024 111.5 1024C112.881 1024 114 1025.12 114 1026.5Z" fill="white" fill-opacity="0.15"/>
<path d="M125 1026.5C125 1027.88 123.881 1029 122.5 1029C121.119 1029 120 1027.88 120 1026.5C120 1025.12 121.119 1024 122.5 1024C123.881 1024 125 1025.12 125 1026.5Z" fill="white" fill-opacity="0.15"/>
<path d="M70 31.5C70 32.8807 68.8807 34 67.5 34C66.1193 34 65 32.8807 65 31.5C65 30.1193 66.1193 29 67.5 29C68.8807 29 70 30.1193 70 31.5Z" fill="white" fill-opacity="0.15"/>
<path d="M81 31.5C81 32.8807 79.8807 34 78.5 34C77.1193 34 76 32.8807 76 31.5C76 30.1193 77.1193 29 78.5 29C79.8807 29 81 30.1193 81 31.5Z" fill="white" fill-opacity="0.15"/>
<path d="M92 31.5C92 32.8807 90.8807 34 89.5 34C88.1193 34 87 32.8807 87 31.5C87 30.1193 88.1193 29 89.5 29C90.8807 29 92 30.1193 92 31.5Z" fill="white" fill-opacity="0.15"/>
<path d="M103 31.5C103 32.8807 101.881 34 100.5 34C99.1193 34 98 32.8807 98 31.5C98 30.1193 99.1193 29 100.5 29C101.881 29 103 30.1193 103 31.5Z" fill="white" fill-opacity="0.15"/>
<path d="M114 31.5C114 32.8807 112.881 34 111.5 34C110.119 34 109 32.8807 109 31.5C109 30.1193 110.119 29 111.5 29C112.881 29 114 30.1193 114 31.5Z" fill="white" fill-opacity="0.15"/>
<path d="M125 31.5C125 32.8807 123.881 34 122.5 34C121.119 34 120 32.8807 120 31.5C120 30.1193 121.119 29 122.5 29C123.881 29 125 30.1193 125 31.5Z" fill="white" fill-opacity="0.15"/>
<path d="M70 42.5C70 43.8807 68.8807 45 67.5 45C66.1193 45 65 43.8807 65 42.5C65 41.1193 66.1193 40 67.5 40C68.8807 40 70 41.1193 70 42.5Z" fill="white" fill-opacity="0.15"/>
<path d="M81 42.5C81 43.8807 79.8807 45 78.5 45C77.1193 45 76 43.8807 76 42.5C76 41.1193 77.1193 40 78.5 40C79.8807 40 81 41.1193 81 42.5Z" fill="white" fill-opacity="0.15"/>
<path d="M92 42.5C92 43.8807 90.8807 45 89.5 45C88.1193 45 87 43.8807 87 42.5C87 41.1193 88.1193 40 89.5 40C90.8807 40 92 41.1193 92 42.5Z" fill="white" fill-opacity="0.15"/>
<path d="M103 42.5C103 43.8807 101.881 45 100.5 45C99.1193 45 98 43.8807 98 42.5C98 41.1193 99.1193 40 100.5 40C101.881 40 103 41.1193 103 42.5Z" fill="white" fill-opacity="0.15"/>
<path d="M114 42.5C114 43.8807 112.881 45 111.5 45C110.119 45 109 43.8807 109 42.5C109 41.1193 110.119 40 111.5 40C112.881 40 114 41.1193 114 42.5Z" fill="white" fill-opacity="0.15"/>
<path d="M125 42.5C125 43.8807 123.881 45 122.5 45C121.119 45 120 43.8807 120 42.5C120 41.1193 121.119 40 122.5 40C123.881 40 125 41.1193 125 42.5Z" fill="white" fill-opacity="0.15"/>
<path d="M70 53.5C70 54.8807 68.8807 56 67.5 56C66.1193 56 65 54.8807 65 53.5C65 52.1193 66.1193 51 67.5 51C68.8807 51 70 52.1193 70 53.5Z" fill="white" fill-opacity="0.15"/>
<path d="M81 53.5C81 54.8807 79.8807 56 78.5 56C77.1193 56 76 54.8807 76 53.5C76 52.1193 77.1193 51 78.5 51C79.8807 51 81 52.1193 81 53.5Z" fill="white" fill-opacity="0.15"/>
<path d="M92 53.5C92 54.8807 90.8807 56 89.5 56C88.1193 56 87 54.8807 87 53.5C87 52.1193 88.1193 51 89.5 51C90.8807 51 92 52.1193 92 53.5Z" fill="white" fill-opacity="0.15"/>
<path d="M103 53.5C103 54.8807 101.881 56 100.5 56C99.1193 56 98 54.8807 98 53.5C98 52.1193 99.1193 51 100.5 51C101.881 51 103 52.1193 103 53.5Z" fill="white" fill-opacity="0.15"/>
<path d="M114 53.5C114 54.8807 112.881 56 111.5 56C110.119 56 109 54.8807 109 53.5C109 52.1193 110.119 51 111.5 51C112.881 51 114 52.1193 114 53.5Z" fill="white" fill-opacity="0.15"/>
<path d="M125 53.5C125 54.8807 123.881 56 122.5 56C121.119 56 120 54.8807 120 53.5C120 52.1193 121.119 51 122.5 51C123.881 51 125 52.1193 125 53.5Z" fill="white" fill-opacity="0.15"/>
<path d="M70 64.5C70 65.8807 68.8807 67 67.5 67C66.1193 67 65 65.8807 65 64.5C65 63.1193 66.1193 62 67.5 62C68.8807 62 70 63.1193 70 64.5Z" fill="white" fill-opacity="0.15"/>
<path d="M81 64.5C81 65.8807 79.8807 67 78.5 67C77.1193 67 76 65.8807 76 64.5C76 63.1193 77.1193 62 78.5 62C79.8807 62 81 63.1193 81 64.5Z" fill="white" fill-opacity="0.15"/>
<path d="M92 64.5C92 65.8807 90.8807 67 89.5 67C88.1193 67 87 65.8807 87 64.5C87 63.1193 88.1193 62 89.5 62C90.8807 62 92 63.1193 92 64.5Z" fill="white" fill-opacity="0.15"/>
<path d="M103 64.5C103 65.8807 101.881 67 100.5 67C99.1193 67 98 65.8807 98 64.5C98 63.1193 99.1193 62 100.5 62C101.881 62 103 63.1193 103 64.5Z" fill="white" fill-opacity="0.15"/>
<path d="M114 64.5C114 65.8807 112.881 67 111.5 67C110.119 67 109 65.8807 109 64.5C109 63.1193 110.119 62 111.5 62C112.881 62 114 63.1193 114 64.5Z" fill="white" fill-opacity="0.15"/>
<path d="M125 64.5C125 65.8807 123.881 67 122.5 67C121.119 67 120 65.8807 120 64.5C120 63.1193 121.119 62 122.5 62C123.881 62 125 63.1193 125 64.5Z" fill="white" fill-opacity="0.15"/>
<path d="M70 75.5C70 76.8807 68.8807 78 67.5 78C66.1193 78 65 76.8807 65 75.5C65 74.1193 66.1193 73 67.5 73C68.8807 73 70 74.1193 70 75.5Z" fill="white" fill-opacity="0.15"/>
<path d="M81 75.5C81 76.8807 79.8807 78 78.5 78C77.1193 78 76 76.8807 76 75.5C76 74.1193 77.1193 73 78.5 73C79.8807 73 81 74.1193 81 75.5Z" fill="white" fill-opacity="0.15"/>
<path d="M92 75.5C92 76.8807 90.8807 78 89.5 78C88.1193 78 87 76.8807 87 75.5C87 74.1193 88.1193 73 89.5 73C90.8807 73 92 74.1193 92 75.5Z" fill="white" fill-opacity="0.15"/>
<path d="M103 75.5C103 76.8807 101.881 78 100.5 78C99.1193 78 98 76.8807 98 75.5C98 74.1193 99.1193 73 100.5 73C101.881 73 103 74.1193 103 75.5Z" fill="white" fill-opacity="0.15"/>
<path d="M114 75.5C114 76.8807 112.881 78 111.5 78C110.119 78 109 76.8807 109 75.5C109 74.1193 110.119 73 111.5 73C112.881 73 114 74.1193 114 75.5Z" fill="white" fill-opacity="0.15"/>
<path d="M125 75.5C125 76.8807 123.881 78 122.5 78C121.119 78 120 76.8807 120 75.5C120 74.1193 121.119 73 122.5 73C123.881 73 125 74.1193 125 75.5Z" fill="white" fill-opacity="0.15"/>
<path d="M70 86.5C70 87.8807 68.8807 89 67.5 89C66.1193 89 65 87.8807 65 86.5C65 85.1193 66.1193 84 67.5 84C68.8807 84 70 85.1193 70 86.5Z" fill="white" fill-opacity="0.15"/>
<path d="M81 86.5C81 87.8807 79.8807 89 78.5 89C77.1193 89 76 87.8807 76 86.5C76 85.1193 77.1193 84 78.5 84C79.8807 84 81 85.1193 81 86.5Z" fill="white" fill-opacity="0.15"/>
<path d="M92 86.5C92 87.8807 90.8807 89 89.5 89C88.1193 89 87 87.8807 87 86.5C87 85.1193 88.1193 84 89.5 84C90.8807 84 92 85.1193 92 86.5Z" fill="white" fill-opacity="0.15"/>
<path d="M103 86.5C103 87.8807 101.881 89 100.5 89C99.1193 89 98 87.8807 98 86.5C98 85.1193 99.1193 84 100.5 84C101.881 84 103 85.1193 103 86.5Z" fill="white" fill-opacity="0.15"/>
<path d="M114 86.5C114 87.8807 112.881 89 111.5 89C110.119 89 109 87.8807 109 86.5C109 85.1193 110.119 84 111.5 84C112.881 84 114 85.1193 114 86.5Z" fill="white" fill-opacity="0.15"/>
<path d="M125 86.5C125 87.8807 123.881 89 122.5 89C121.119 89 120 87.8807 120 86.5C120 85.1193 121.119 84 122.5 84C123.881 84 125 85.1193 125 86.5Z" fill="white" fill-opacity="0.15"/>
<defs>
<radialGradient id="paint0_radial_597_969" cx="0" cy="0" r="1" gradientUnits="userSpaceOnUse" gradientTransform="translate(118 101.582) rotate(27.6272) scale(1536.71 929.172)">
<stop stop-color="#FFBB00"/>
<stop offset="1" stop-color="#E37048" stop-opacity="0.85"/>
</radialGradient>
</defs>
</svg>
