<svg width="26" height="26" viewBox="0 0 26 26" fill="none" xmlns="http://www.w3.org/2000/svg">
<path d="M0 4.63217C0.0825704 4.28443 0.142988 3.93065 0.250397 3.59097C1.36006 0.0733379 5.76516 -1.15851 8.53228 1.28034C8.89411 1.59921 9.19284 1.99058 9.56072 2.39202C9.83662 2.10336 10.0481 1.88183 10.2595 1.6603C11.0644 0.815801 12.0385 0.290841 13.1891 0.0793799C15.9992 -0.437525 18.814 1.63278 19.1523 4.46367C19.3 5.69887 19.0637 6.84277 18.4146 7.90209C18.3931 7.93633 18.3749 7.97258 18.3407 8.03501C18.4394 8.04038 18.5179 8.04911 18.5958 8.04911C19.5672 8.04978 20.5386 8.04844 21.5099 8.04978C22.0181 8.05045 22.3618 8.35791 22.3605 8.80567C22.3591 9.25343 22.0161 9.55619 21.5052 9.55686C20.0733 9.55753 18.6415 9.55686 17.2096 9.55686C17.1451 9.55686 17.0807 9.55686 16.9806 9.55686C17.4425 9.05741 17.8782 8.58682 18.3139 8.11557C18.2984 8.09342 18.283 8.07126 18.2675 8.04911C18.1789 8.04911 18.0903 8.04911 18.001 8.04911C16.7363 8.04911 15.4722 8.04575 14.2075 8.05381C14.0403 8.05515 13.9578 8.00279 13.8853 7.85443C13.5194 7.10257 13.1347 6.36011 12.7702 5.60757C12.6131 5.28333 12.4077 5.04032 12.0204 5.03764C11.633 5.03428 11.4216 5.27259 11.2638 5.59683C10.8939 6.35608 10.5113 7.10928 10.136 7.86517C10.0823 7.97325 10.0373 8.05985 9.88294 8.05247C8.74844 7.99876 8.75045 8.16659 8.35707 8.99095C8.34633 9.0131 8.33089 9.03324 8.31545 9.05338C8.31209 9.05808 8.30068 9.05741 8.27181 9.06345C8.23221 8.99296 8.18589 8.91711 8.14695 8.83856C7.59312 7.73225 7.04198 6.62393 6.48547 5.51829C6.25522 5.06113 5.79134 4.89062 5.40601 5.1437C5.25497 5.24306 5.12944 5.41222 5.0462 5.57669C4.33126 6.98576 3.6284 8.40154 2.92152 9.81464C2.88124 9.8952 2.83828 9.97508 2.78793 10.0717C1.70713 9.01512 0.539729 8.04508 0.174539 6.48833C0.112108 6.22182 0.0584036 5.9533 0.000671448 5.68545C1.43421e-07 5.3357 0 4.98393 0 4.63217Z" fill="white"/>
<path d="M13.518 25.7368C13.4307 25.7113 13.3441 25.6844 13.2568 25.6616C11.7793 25.2749 11.0409 23.6336 11.7538 22.2701C12.4781 20.8846 13.2313 19.5138 13.9724 18.1363C14.8169 16.5681 15.6547 14.9959 16.5086 13.4331C17.1967 12.1744 18.7535 11.7723 19.9095 12.5738C20.2149 12.7853 20.4989 13.0894 20.6761 13.4143C22.2798 16.3492 23.8661 19.2943 25.439 22.246C26.1989 23.6718 25.4074 25.3286 23.8279 25.6884C23.7896 25.6972 23.7547 25.72 23.7184 25.7368C20.319 25.7368 16.9181 25.7368 13.518 25.7368ZM19.3529 18.2108C19.3529 17.6509 19.3543 17.091 19.3523 16.5312C19.3503 16.0223 19.0441 15.6833 18.595 15.688C18.1607 15.6927 17.8472 16.0357 17.8459 16.5204C17.8432 17.6402 17.8432 18.7606 17.8459 19.8803C17.8472 20.365 18.1614 20.7073 18.5964 20.7114C19.0368 20.7154 19.3489 20.3791 19.3516 19.891C19.355 19.3312 19.3529 18.7706 19.3529 18.2108ZM19.3516 22.4783C19.355 22.0634 19.0287 21.7257 18.6165 21.7177C18.203 21.7096 17.8439 22.0634 17.8472 22.4749C17.8506 22.8777 18.197 23.2221 18.6011 23.2234C19.0113 23.2247 19.3476 22.8898 19.3516 22.4783Z" fill="white"/>
<path d="M2.77747 10.1053C3.14535 10.4745 3.50517 10.8356 3.89721 11.229C4.52823 9.96967 5.13912 8.75058 5.77015 7.48987C5.83392 7.60332 5.88024 7.67783 5.91918 7.75503C6.47703 8.8694 7.03153 9.98511 7.5914 11.0975C7.7995 11.511 8.21974 11.6875 8.59164 11.4908C8.75007 11.4069 8.89507 11.2498 8.98368 11.0914C9.22737 10.6537 9.44285 10.1993 9.65969 9.74746C9.72413 9.61253 9.79529 9.5454 9.95909 9.55211C11.0473 9.59508 11.0211 9.45746 11.44 8.62236C11.6226 8.25784 11.8052 7.89332 12.0113 7.48047C12.1026 7.65769 12.1737 7.7933 12.2422 7.92957C12.4295 8.30349 12.6222 8.67472 12.8014 9.05199C12.9672 9.40107 13.2324 9.56084 13.619 9.55816C14.624 9.55077 15.6289 9.55547 16.6332 9.55547C16.7144 9.55547 16.7957 9.55547 16.9252 9.55547C16.8473 9.64274 16.8024 9.69779 16.7527 9.74746C14.5857 11.9151 12.4194 14.0821 10.2518 16.2491C9.7926 16.7082 9.4019 16.7035 8.93669 16.239C7.3316 14.6346 5.72718 13.0301 4.12209 11.4257C4.05899 11.3626 3.99186 11.3035 3.90526 11.2216C3.75086 11.5284 3.61123 11.8104 3.4669 12.0903C3.24403 12.5233 2.81305 12.6851 2.42168 12.4871C2.03232 12.2897 1.90679 11.846 2.12228 11.4089C2.33709 10.9746 2.55728 10.543 2.77747 10.1053Z" fill="white"/>
</svg>
