<svg width="282" height="39" viewBox="0 0 282 39" fill="none" xmlns="http://www.w3.org/2000/svg">
<path d="M54.3697 0.627344L45.9006 37.6406H31.4717L27.1849 16.6246L22.898 37.6406H8.46913L0 0.627344H12.4946L15.8404 23.9436L20.8592 0.627344H33.5106L38.5293 23.9436L41.8751 0.627344H54.3697Z" fill="#E37048"/>
<path d="M76.5677 38.0066C73.0825 38.0066 69.876 37.1875 66.9484 35.5495C64.0557 33.9114 61.7554 31.646 60.0477 28.7532C58.3399 25.8605 57.486 22.6018 57.486 18.9771C57.486 15.3525 58.3399 12.0938 60.0477 9.20104C61.7554 6.30829 64.0557 4.06031 66.9484 2.4571C69.876 0.819032 73.0825 0 76.5677 0C80.0529 0 83.2419 0.819032 86.1347 2.4571C89.0274 4.06031 91.3102 6.30829 92.9832 9.20104C94.6909 12.0938 95.5448 15.3525 95.5448 18.9771C95.5448 22.6018 94.6909 25.8605 92.9832 28.7532C91.3102 31.646 89.01 33.9114 86.0824 35.5495C83.1896 37.1875 80.0181 38.0066 76.5677 38.0066ZM76.5677 27.1849C78.8679 27.1849 80.6454 26.453 81.9001 24.9892C83.1548 23.4905 83.7821 21.4865 83.7821 18.9771C83.7821 16.4329 83.1548 14.4289 81.9001 12.9651C80.6454 11.4664 78.8679 10.7171 76.5677 10.7171C74.2326 10.7171 72.4377 11.4664 71.183 12.9651C69.9283 14.4289 69.301 16.4329 69.301 18.9771C69.301 21.4865 69.9283 23.4905 71.183 24.9892C72.4377 26.453 74.2326 27.1849 76.5677 27.1849Z" fill="#E37048"/>
<path d="M118.343 37.6406L111.39 24.3618H111.337V37.6406H99.7316V0.627344H116.984C119.981 0.627344 122.542 1.16756 124.668 2.24798C126.794 3.29355 128.38 4.73993 129.426 6.58711C130.506 8.39943 131.046 10.4557 131.046 12.756C131.046 15.2305 130.349 17.4262 128.955 19.3431C127.596 21.26 125.627 22.6366 123.048 23.4731L131.099 37.6406H118.343ZM111.337 16.6246H115.938C117.053 16.6246 117.89 16.3806 118.447 15.8927C119.005 15.3699 119.284 14.5683 119.284 13.4879C119.284 12.512 118.988 11.7453 118.395 11.1876C117.837 10.63 117.018 10.3512 115.938 10.3512H111.337V16.6246Z" fill="#E37048"/>
<path d="M157.129 37.6406L146.36 21.5911V37.6406H134.754V0.627344H146.36V16.2064L156.973 0.627344H170.094L157.338 18.3498L170.931 37.6406H157.129Z" fill="#E37048"/>
<path d="M249.221 13.3311C249.221 15.6663 248.681 17.7923 247.601 19.7091C246.52 21.5912 244.917 23.0898 242.791 24.2051C240.7 25.3204 238.156 25.878 235.158 25.878H230.558V37.6407H218.952V0.627441H235.158C239.689 0.627441 243.157 1.77757 245.562 4.07783C248.002 6.37809 249.221 9.46253 249.221 13.3311ZM233.852 16.7293C236.256 16.7293 237.459 15.5966 237.459 13.3311C237.459 11.0657 236.256 9.93304 233.852 9.93304H230.558V16.7293H233.852Z" fill="#E37048"/>
<path d="M281.969 0.627441V9.82848H272.141V37.6407H260.535V9.82848H250.811V0.627441H281.969Z" fill="#E37048"/>
<path d="M198.614 10.6947C198.441 8.82138 198.275 7.22644 198.178 5.63149C198.163 5.36817 198.343 4.98448 198.561 4.84153C199.336 4.32242 199.758 3.24659 199.487 2.32874C199.314 1.74192 199.178 1.14757 198.998 0.440374C199.411 0.402757 199.69 0.357617 199.968 0.357617C205.069 0.350094 210.17 0.350098 215.271 0.350098C216.617 0.350098 216.723 0.470468 216.58 1.83972C216.301 4.5406 216.023 7.23395 215.707 9.92731C215.549 11.2815 215.368 11.3944 214.037 11.3868C211.975 11.3793 209.914 11.3868 207.86 11.3643C207.176 11.3567 206.852 11.5599 206.86 12.3197C206.875 19.7754 206.867 27.2235 206.867 34.6791C206.867 35.4014 206.957 36.1311 206.829 36.8308C206.769 37.1543 206.295 37.6358 206.002 37.6433C202.932 37.711 199.855 37.7185 196.786 37.6884C195.838 37.6809 195.74 37.0113 195.86 36.2139C196.718 36.3041 197.508 36.4396 198.306 36.4396C198.644 36.4396 198.975 36.1537 199.314 35.9957C199.058 35.7023 198.84 35.3637 198.546 35.123C198.133 34.7769 197.583 34.5663 197.222 34.1826C196.65 33.5581 196.515 32.8359 197.034 32.0459C198.313 30.0823 199.539 28.0811 200.818 26.11C201.21 25.5082 201.315 24.9439 200.991 24.2743C200.179 22.6117 199.464 20.8888 198.569 19.2713C198.245 18.6845 197.508 18.3384 197.012 17.8343C196.838 17.6538 196.696 17.2927 196.748 17.0594C196.996 15.9159 197.41 14.7949 197.576 13.6363C197.771 12.3197 198.433 11.9285 200.134 11.8683C200.683 11.8533 201.413 12.1994 201.616 11.3718C201.811 10.5743 201.352 10.0326 200.608 9.82951C200.314 9.74676 199.923 9.8897 199.615 10.0251C199.291 10.1681 199.02 10.4163 198.614 10.6947Z" fill="#E37048"/>
<path d="M179.987 37.666C178.256 37.666 176.376 37.7036 174.495 37.6209C174.246 37.6134 173.855 37.0115 173.825 36.6579C173.735 35.7175 173.795 34.7695 173.795 33.8216C173.795 23.1986 173.795 12.5832 173.795 1.9602C173.795 0.410392 173.855 0.350202 175.382 0.357725C178.535 0.365248 181.687 0.387824 184.839 0.327637C184.824 8.82902 184.839 17.3304 184.839 25.8318C184.839 25.8845 184.817 25.9597 184.787 26.0048C183.884 27.4493 182.943 28.8712 182.026 30.3082C181.604 30.9627 181.138 31.3916 180.265 31.4894C178.888 31.6473 178.738 31.9483 179.016 33.3251C179.295 34.7244 179.641 36.1237 179.987 37.666Z" fill="#E37048"/>
<path d="M189.353 11.3947C188.375 11.3947 187.615 11.485 186.885 11.3571C186.561 11.2969 186.087 10.8079 186.08 10.5145C186.035 7.41485 186.05 4.30771 186.11 1.20808C186.118 0.922197 186.584 0.403092 186.84 0.403092C189.503 0.342905 192.166 0.365473 195.085 0.365473C194.175 1.56921 194.574 2.50963 195.183 3.47262C195.304 3.66823 195.093 4.16476 194.912 4.45065C193.588 6.57224 191.557 7.94901 189.586 9.3634C188.894 9.86747 188.6 10.4618 189.353 11.3947Z" fill="#E37048"/>
<path d="M184.839 30.5259C184.839 31.6544 184.839 32.7754 184.839 33.9039C184.839 34.8518 184.809 35.7997 184.832 36.7477C184.854 37.5602 184.463 37.8762 183.695 37.8386C182.875 37.801 182.04 37.8837 181.235 37.7784C181.672 35.0249 182.266 32.2939 184.839 30.5259Z" fill="#E37048"/>
<path d="M191.625 10.8606H190.843C190.639 10.8606 190.481 10.6951 190.481 10.4995V9.71707C190.481 9.51394 190.647 9.35596 190.843 9.35596H191.625C191.828 9.35596 191.986 9.52147 191.986 9.71707V10.4995C191.986 10.6951 191.828 10.8606 191.625 10.8606Z" fill="#E37048"/>
</svg>
