<svg width="282" height="39" viewBox="0 0 282 39" fill="none" xmlns="http://www.w3.org/2000/svg">
<path d="M54.3697 0.627344L45.9006 37.6406H31.4717L27.1849 16.6246L22.898 37.6406H8.46913L0 0.627344H12.4946L15.8404 23.9436L20.8592 0.627344H33.5106L38.5293 23.9436L41.8751 0.627344H54.3697Z" fill="white"/>
<path d="M76.5677 38.0066C73.0825 38.0066 69.876 37.1875 66.9484 35.5495C64.0557 33.9114 61.7554 31.646 60.0477 28.7532C58.3399 25.8605 57.486 22.6018 57.486 18.9771C57.486 15.3525 58.3399 12.0938 60.0477 9.20104C61.7554 6.30829 64.0557 4.06031 66.9484 2.4571C69.876 0.819032 73.0825 0 76.5677 0C80.0529 0 83.2419 0.819032 86.1347 2.4571C89.0274 4.06031 91.3102 6.30829 92.9832 9.20104C94.6909 12.0938 95.5448 15.3525 95.5448 18.9771C95.5448 22.6018 94.6909 25.8605 92.9832 28.7532C91.3102 31.646 89.01 33.9114 86.0824 35.5495C83.1896 37.1875 80.0181 38.0066 76.5677 38.0066ZM76.5677 27.1849C78.8679 27.1849 80.6454 26.453 81.9001 24.9892C83.1548 23.4905 83.7821 21.4865 83.7821 18.9771C83.7821 16.4329 83.1548 14.4289 81.9001 12.9651C80.6454 11.4664 78.8679 10.7171 76.5677 10.7171C74.2326 10.7171 72.4377 11.4664 71.183 12.9651C69.9283 14.4289 69.301 16.4329 69.301 18.9771C69.301 21.4865 69.9283 23.4905 71.183 24.9892C72.4377 26.453 74.2326 27.1849 76.5677 27.1849Z" fill="white"/>
<path d="M118.343 37.6406L111.39 24.3618H111.337V37.6406H99.7316V0.627344H116.984C119.981 0.627344 122.542 1.16756 124.668 2.24798C126.794 3.29355 128.38 4.73993 129.426 6.58711C130.506 8.39943 131.046 10.4557 131.046 12.756C131.046 15.2305 130.349 17.4262 128.955 19.3431C127.596 21.26 125.627 22.6366 123.048 23.4731L131.099 37.6406H118.343ZM111.337 16.6246H115.938C117.053 16.6246 117.89 16.3806 118.447 15.8927C119.005 15.3699 119.284 14.5683 119.284 13.4879C119.284 12.512 118.988 11.7453 118.395 11.1876C117.837 10.63 117.018 10.3512 115.938 10.3512H111.337V16.6246Z" fill="white"/>
<path d="M157.129 37.6406L146.36 21.5911V37.6406H134.754V0.627344H146.36V16.2064L156.973 0.627344H170.094L157.338 18.3498L170.931 37.6406H157.129Z" fill="white"/>
<path d="M249.221 13.3307C249.221 15.6658 248.681 17.7918 247.601 19.7087C246.52 21.5907 244.917 23.0893 242.791 24.2046C240.7 25.3199 238.156 25.8775 235.158 25.8775H230.558V37.6402H218.952V0.626953H235.158C239.689 0.626953 243.157 1.77708 245.562 4.07734C248.002 6.3776 249.221 9.46204 249.221 13.3307ZM233.852 16.7288C236.256 16.7288 237.459 15.5961 237.459 13.3307C237.459 11.0653 236.256 9.93255 233.852 9.93255H230.558V16.7288H233.852Z" fill="white"/>
<path d="M281.969 0.626953V9.82799H272.141V37.6402H260.535V9.82799H250.811V0.626953H281.969Z" fill="white"/>
<path d="M198.614 10.6942C198.441 8.82089 198.275 7.22595 198.178 5.631C198.163 5.36768 198.343 4.98399 198.561 4.84105C199.336 4.32194 199.758 3.2461 199.487 2.32825C199.314 1.74143 199.178 1.14708 198.998 0.439886C199.411 0.402269 199.69 0.357129 199.968 0.357129C205.069 0.349605 210.17 0.349609 215.271 0.349609C216.617 0.349609 216.723 0.46998 216.58 1.83923C216.301 4.54011 216.023 7.23346 215.707 9.92682C215.549 11.281 215.368 11.3939 214.037 11.3864C211.975 11.3788 209.914 11.3864 207.86 11.3638C207.176 11.3563 206.852 11.5594 206.86 12.3193C206.875 19.7749 206.867 27.223 206.867 34.6786C206.867 35.4009 206.957 36.1306 206.829 36.8303C206.769 37.1538 206.295 37.6353 206.002 37.6428C202.932 37.7105 199.855 37.718 196.786 37.688C195.838 37.6804 195.74 37.0109 195.86 36.2134C196.718 36.3037 197.508 36.4391 198.306 36.4391C198.644 36.4391 198.975 36.1532 199.314 35.9952C199.058 35.7018 198.84 35.3632 198.546 35.1225C198.133 34.7764 197.583 34.5658 197.222 34.1821C196.65 33.5576 196.515 32.8354 197.034 32.0455C198.313 30.0819 199.539 28.0807 200.818 26.1095C201.21 25.5077 201.315 24.9434 200.991 24.2738C200.179 22.6112 199.464 20.8883 198.569 19.2708C198.245 18.684 197.508 18.3379 197.012 17.8339C196.838 17.6533 196.696 17.2922 196.748 17.059C196.996 15.9154 197.41 14.7944 197.576 13.6358C197.771 12.3193 198.433 11.928 200.134 11.8678C200.683 11.8528 201.413 12.1989 201.616 11.3713C201.811 10.5738 201.352 10.0322 200.608 9.82903C200.314 9.74627 199.923 9.88921 199.615 10.0246C199.291 10.1676 199.02 10.4158 198.614 10.6942Z" fill="white"/>
<path d="M179.987 37.6665C178.256 37.6665 176.376 37.7041 174.495 37.6214C174.246 37.6138 173.855 37.012 173.825 36.6584C173.735 35.718 173.795 34.77 173.795 33.8221C173.795 23.1991 173.795 12.5837 173.795 1.96069C173.795 0.410881 173.855 0.35069 175.382 0.358213C178.535 0.365737 181.687 0.388312 184.839 0.328125C184.824 8.82951 184.839 17.3309 184.839 25.8323C184.839 25.8849 184.817 25.9602 184.787 26.0053C183.884 27.4498 182.943 28.8717 182.026 30.3087C181.604 30.9632 181.138 31.392 180.265 31.4898C178.888 31.6478 178.738 31.9488 179.016 33.3255C179.295 34.7249 179.641 36.1242 179.987 37.6665Z" fill="white"/>
<path d="M189.353 11.3947C188.375 11.3947 187.615 11.485 186.885 11.3571C186.561 11.2969 186.087 10.8079 186.08 10.5145C186.035 7.41485 186.05 4.30771 186.11 1.20808C186.118 0.922197 186.584 0.403092 186.84 0.403092C189.503 0.342905 192.166 0.365473 195.085 0.365473C194.175 1.56921 194.574 2.50963 195.183 3.47262C195.304 3.66823 195.093 4.16476 194.912 4.45065C193.588 6.57224 191.557 7.94901 189.586 9.3634C188.894 9.86747 188.6 10.4618 189.353 11.3947Z" fill="white"/>
<path d="M184.839 30.5273C184.839 31.6558 184.839 32.7768 184.839 33.9053C184.839 34.8533 184.809 35.8012 184.832 36.7491C184.854 37.5617 184.463 37.8777 183.695 37.84C182.875 37.8024 182.04 37.8852 181.235 37.7799C181.672 35.0263 182.266 32.2953 184.839 30.5273Z" fill="white"/>
<path d="M191.625 10.8621H190.843C190.639 10.8621 190.481 10.6966 190.481 10.501V9.71854C190.481 9.51541 190.647 9.35742 190.843 9.35742H191.625C191.828 9.35742 191.986 9.52293 191.986 9.71854V10.501C191.986 10.6966 191.828 10.8621 191.625 10.8621Z" fill="white"/>
</svg>
