<svg width="1012" height="137" viewBox="0 0 1012 137" fill="none" xmlns="http://www.w3.org/2000/svg">
<path d="M195.128 2.25148L164.733 135.089H112.949L97.5641 59.6642L82.179 135.089H30.395L0 2.25148H44.842L56.8498 85.9314L74.8617 2.25148H120.266L138.278 85.9314L150.286 2.25148H195.128Z" fill="#E37048"/>
<path d="M274.795 136.402C262.287 136.402 250.779 133.463 240.272 127.584C229.89 121.705 221.635 113.575 215.506 103.193C209.377 92.811 206.312 81.1158 206.312 68.1072C206.312 55.0987 209.377 43.4035 215.506 33.0217C221.635 22.6399 229.89 14.5721 240.272 8.81829C250.779 2.93943 262.287 0 274.795 0C287.303 0 298.748 2.93943 309.13 8.81829C319.512 14.5721 327.704 22.6399 333.708 33.0217C339.837 43.4035 342.902 55.0987 342.902 68.1072C342.902 81.1158 339.837 92.811 333.708 103.193C327.704 113.575 319.449 121.705 308.942 127.584C298.56 133.463 287.178 136.402 274.795 136.402ZM274.795 97.5641C283.05 97.5641 289.429 94.9374 293.932 89.6839C298.435 84.3054 300.687 77.1132 300.687 68.1072C300.687 58.9762 298.435 51.784 293.932 46.5306C289.429 41.152 283.05 38.4628 274.795 38.4628C266.414 38.4628 259.972 41.152 255.47 46.5306C250.967 51.784 248.715 58.9762 248.715 68.1072C248.715 77.1132 250.967 84.3054 255.47 89.6839C259.972 94.9374 266.414 97.5641 274.795 97.5641Z" fill="#E37048"/>
<path d="M424.722 135.089L399.768 87.4324H399.58V135.089H357.928V2.25148H419.844C430.601 2.25148 439.794 4.19025 447.424 8.06779C455.054 11.8203 460.745 17.0112 464.498 23.6405C468.375 30.1448 470.314 37.5246 470.314 45.7801C470.314 54.6609 467.813 62.5411 462.809 69.4206C457.931 76.3001 450.864 81.2409 441.608 84.2428L470.502 135.089H424.722ZM399.58 59.6642H416.091C420.094 59.6642 423.096 58.7886 425.097 57.0375C427.098 55.1612 428.099 52.2843 428.099 48.4068C428.099 44.9045 427.036 42.1527 424.909 40.1514C422.908 38.1501 419.969 37.1494 416.091 37.1494H399.58V59.6642Z" fill="#E37048"/>
<path d="M563.924 135.089L525.273 77.4884V135.089H483.621V2.25148H525.273V58.1632L563.361 2.25148H610.454L564.674 65.8558L613.456 135.089H563.924Z" fill="#E37048"/>
<path d="M894.436 47.8436C894.436 56.2241 892.497 63.8542 888.62 70.7337C884.742 77.4881 878.988 82.8666 871.358 86.8693C863.853 90.8719 854.722 92.8732 843.965 92.8732H827.454V135.088H785.802V2.25119H843.965C860.226 2.25119 872.672 6.3789 881.302 14.6343C890.058 22.8897 894.436 33.9595 894.436 47.8436ZM839.275 60.0391C847.905 60.0391 852.221 55.974 852.221 47.8436C852.221 39.7133 847.905 35.6481 839.275 35.6481H827.454V60.0391H839.275Z" fill="#E37048"/>
<path d="M1011.97 2.25119V35.2729H976.693V135.088H935.04V35.2729H900.142V2.25119H1011.97Z" fill="#E37048"/>
<path d="M712.809 38.3831C712.188 31.66 711.594 25.9359 711.243 20.2117C711.189 19.2667 711.837 17.8897 712.62 17.3767C715.401 15.5136 716.913 11.6525 715.941 8.35847C715.32 6.25242 714.834 4.11935 714.186 1.58129C715.671 1.44628 716.67 1.28428 717.669 1.28428C735.976 1.25728 754.282 1.25729 772.589 1.25729C777.422 1.25729 777.8 1.68929 777.287 6.6034C776.288 16.2966 775.289 25.9628 774.155 35.6291C773.588 40.4892 772.94 40.8942 768.16 40.8672C760.762 40.8402 753.364 40.8672 745.993 40.7862C743.536 40.7592 742.375 41.4882 742.402 44.2153C742.456 70.9729 742.429 97.7035 742.429 124.461C742.429 127.053 742.753 129.672 742.294 132.183C742.078 133.344 740.377 135.072 739.324 135.099C728.308 135.342 717.264 135.369 706.248 135.261C702.846 135.234 702.495 132.831 702.927 129.969C706.005 130.293 708.84 130.779 711.702 130.779C712.917 130.779 714.105 129.753 715.32 129.186C714.402 128.133 713.619 126.918 712.566 126.054C711.081 124.812 709.11 124.056 707.814 122.679C705.762 120.438 705.276 117.846 707.139 115.011C711.729 107.964 716.13 100.782 720.72 93.7074C722.124 91.5474 722.502 89.5223 721.341 87.1193C718.425 81.1521 715.86 74.969 712.647 69.1639C711.486 67.0578 708.84 65.8158 707.058 64.0067C706.437 63.3587 705.924 62.0627 706.113 61.2257C707.004 57.1216 708.489 53.0985 709.083 48.9404C709.785 44.2153 712.161 42.8112 718.263 42.5952C720.234 42.5412 722.853 43.7833 723.582 40.8132C724.284 37.9512 722.637 36.0071 719.964 35.2781C718.911 34.9811 717.507 35.4941 716.4 35.9801C715.239 36.4931 714.267 37.3841 712.809 38.3831Z" fill="#E37048"/>
<path d="M645.956 135.182C639.746 135.182 632.996 135.317 626.246 135.02C625.355 134.993 623.951 132.832 623.843 131.563C623.519 128.188 623.735 124.786 623.735 121.384C623.735 83.2594 623.735 45.1615 623.735 7.03662C623.735 1.47449 623.951 1.25847 629.432 1.28547C640.745 1.31248 652.058 1.3935 663.372 1.17749C663.318 31.6882 663.372 62.1989 663.372 92.7096C663.372 92.8986 663.291 93.1686 663.183 93.3306C659.943 98.5147 656.568 103.618 653.273 108.775C651.761 111.124 650.087 112.663 646.955 113.014C642.014 113.581 641.474 114.661 642.473 119.602C643.472 124.624 644.714 129.646 645.956 135.182Z" fill="#E37048"/>
<path d="M679.573 40.895C676.063 40.895 673.336 41.219 670.717 40.76C669.556 40.544 667.855 38.7889 667.828 37.7359C667.666 26.6116 667.72 15.4604 667.936 4.33611C667.963 3.31009 669.637 1.44707 670.555 1.44707C680.113 1.23106 689.671 1.31205 700.147 1.31205C696.88 5.63215 698.311 9.00724 700.498 12.4633C700.93 13.1653 700.174 14.9473 699.526 15.9734C694.774 23.5875 687.484 28.5287 680.41 33.6048C677.926 35.4138 676.873 37.5469 679.573 40.895Z" fill="#E37048"/>
<path d="M663.372 109.558C663.372 113.608 663.372 117.631 663.372 121.681C663.372 125.083 663.264 128.485 663.345 131.887C663.426 134.804 662.022 135.938 659.268 135.803C656.325 135.668 653.328 135.965 650.439 135.587C652.005 125.704 654.138 115.903 663.372 109.558Z" fill="#E37048"/>
<path d="M687.726 38.9781H684.918C684.189 38.9781 683.622 38.3841 683.622 37.682V34.874C683.622 34.1449 684.216 33.5779 684.918 33.5779H687.726C688.455 33.5779 689.022 34.1719 689.022 34.874V37.682C689.022 38.3841 688.455 38.9781 687.726 38.9781Z" fill="#E37048"/>
</svg>
