<svg width="17" height="16" viewBox="0 0 17 16" fill="none" xmlns="http://www.w3.org/2000/svg">
<path d="M16.1829 12.9875C15.2632 12.9875 14.3435 12.9875 13.4054 12.9875C13.4054 12.72 13.4054 12.4708 13.4054 12.218C13.4054 12.0348 13.4054 11.8479 13.4054 11.6647C13.4054 11.5474 13.3468 11.4705 13.2295 11.4668C13.1013 11.4595 13.039 11.5401 13.0317 11.661C13.028 11.7013 13.0317 11.7453 13.0317 11.7856C13.0317 13.1121 13.0317 14.4422 13.0317 15.7687C13.0317 15.831 13.0317 15.8933 13.0317 15.9702C11.4084 15.9702 9.79614 15.9702 8.16188 15.9702C8.16188 15.9079 8.16188 15.8456 8.16188 15.7833C8.16188 14.4495 8.16188 13.1194 8.16188 11.7856C8.16188 11.7417 8.16555 11.7013 8.16188 11.661C8.15455 11.5475 8.09959 11.4668 7.97867 11.4668C7.85042 11.4668 7.78813 11.5438 7.78446 11.6684C7.7808 12.0055 7.78446 12.3426 7.78446 12.6797C7.78446 12.775 7.78446 12.8702 7.78446 12.9765C6.86107 12.9765 5.94134 12.9765 5.02528 12.9765C5.02161 12.9692 5.01062 12.9582 5.01062 12.9509C5.01795 12.3389 4.98864 11.727 5.03994 11.1187C5.15719 9.74463 6.30777 8.54642 7.67087 8.34855C8.01898 8.29725 8.37441 8.31191 8.72618 8.29359C8.79213 8.28993 8.86175 8.29359 8.9387 8.29359C8.9387 7.99679 8.94237 7.7183 8.93504 7.44348C8.93504 7.40317 8.8874 7.35554 8.85076 7.32256C8.2425 6.78391 7.92004 6.11336 7.89805 5.29989C7.89439 5.21195 7.86141 5.11301 7.81378 5.03973C7.51697 4.58536 7.38506 4.08336 7.34842 3.54838C7.30078 2.80087 7.41804 2.07901 7.75515 1.40112C8.00065 0.906447 8.34509 0.499715 8.90206 0.342152C9.0413 0.301845 9.1952 0.287189 9.33811 0.294518C9.46269 0.30551 9.55796 0.276197 9.66056 0.217569C10.2102 -0.0865647 10.7745 -0.0425954 11.3388 0.169931C12.6616 0.671935 13.7535 2.17794 13.8048 3.58868C13.8232 4.12 13.6803 4.60735 13.3834 5.05072C13.3358 5.12034 13.3028 5.21195 13.2992 5.29623C13.2735 6.11702 12.9437 6.79124 12.3355 7.33355C12.2915 7.37386 12.2622 7.44714 12.2622 7.50577C12.2549 7.75861 12.2585 8.01144 12.2585 8.2826C12.3281 8.28626 12.3978 8.29359 12.4674 8.29359C12.9511 8.29359 13.4384 8.27526 13.9074 8.43283C15.1863 8.86887 15.9374 9.75196 16.161 11.0821C16.1683 11.1187 16.1793 11.1517 16.1903 11.1847C16.1829 11.7856 16.1829 12.3866 16.1829 12.9875ZM8.61991 4.77957C8.63091 4.77957 8.6419 4.77957 8.65289 4.78323C8.65289 4.98477 8.6419 5.18264 8.65289 5.38417C8.70419 6.35153 9.47735 7.12835 10.452 7.20164C11.4047 7.27126 12.3062 6.60803 12.482 5.66632C12.6323 4.86018 12.4271 4.10901 11.9984 3.42379C11.8921 3.25157 11.6979 3.10867 11.511 3.01706C11.009 2.77522 10.474 2.68361 9.91339 2.74957C9.29414 2.82285 8.85443 3.18561 8.71885 3.79388C8.64923 4.11267 8.64923 4.44978 8.61991 4.77957ZM11.478 7.80624C10.8771 8.01144 10.2908 8.01144 9.70087 7.80624C9.65323 8.24229 9.70087 8.62704 10.0856 8.88354C10.4007 9.0924 10.7305 9.09973 11.053 8.90552C11.4634 8.65635 11.522 8.26061 11.478 7.80624Z" fill="#464646"/>
<path d="M16.1864 15.7067C16.0838 15.9229 15.908 15.9888 15.6734 15.9852C14.9846 15.9778 14.2957 15.9815 13.6031 15.9815C13.5445 15.9815 13.4895 15.9815 13.4199 15.9815C13.4199 15.1094 13.4199 14.2483 13.4199 13.3652C14.3397 13.3652 15.263 13.3652 16.1864 13.3652C16.1864 14.1457 16.1864 14.9262 16.1864 15.7067Z" fill="#464646"/>
<path d="M1.517 0.664551C1.517 1.05296 1.517 1.41939 1.517 1.78215C1.517 2.28782 1.85045 2.6176 2.35978 2.62126C2.92774 2.62126 3.4957 2.62126 4.06732 2.62126C4.57299 2.62126 4.89911 2.29515 4.89911 1.79314C4.90277 1.43405 4.89911 1.07861 4.90277 0.719515C4.90277 0.708522 4.9101 0.701194 4.9211 0.668216C5.14462 0.668216 5.3718 0.668216 5.60265 0.668216C5.74555 0.668216 5.88846 0.664552 6.0277 0.671881C6.27321 0.686538 6.41611 0.836773 6.41611 1.07861C6.41611 3.44206 6.41611 5.80917 6.41611 8.17261C6.41611 8.43277 6.26221 8.58667 6.00205 8.58667C4.14427 8.59034 2.28283 8.59034 0.425054 8.58667C0.153899 8.58667 0.00366426 8.43277 0 8.16528C0 5.8055 0 3.44572 0 1.08594C0 0.847764 0.124585 0.686539 0.348104 0.675546C0.677887 0.657225 1.01134 0.668216 1.34478 0.668216C1.39975 0.664552 1.45105 0.664551 1.517 0.664551ZM3.20989 3.98437C3.48471 3.98437 3.75586 3.98437 4.03068 3.98437C4.25787 3.98437 4.48505 3.98437 4.70857 3.98437C4.82583 3.98437 4.89911 3.92207 4.90277 3.80482C4.90644 3.6839 4.82949 3.62527 4.7159 3.61061C4.66826 3.60328 4.62063 3.60695 4.57299 3.60695C3.70456 3.60695 2.83613 3.60695 1.96771 3.60695C1.88343 3.60695 1.79915 3.60328 1.71487 3.61061C1.59395 3.62161 1.51334 3.6839 1.517 3.81215C1.52433 3.9294 1.60128 3.98803 1.71854 3.98803C1.75518 3.98803 1.79182 3.98803 1.82846 3.98803C2.29382 3.98437 2.75186 3.98437 3.20989 3.98437ZM3.20256 5.50137C3.69357 5.50137 4.18092 5.50137 4.67193 5.50137C4.78918 5.50137 4.88445 5.47205 4.90277 5.34014C4.92476 5.20456 4.82949 5.12395 4.64628 5.12395C3.69357 5.12395 2.74086 5.12395 1.78816 5.12395C1.61227 5.12395 1.517 5.19724 1.52067 5.32182C1.52433 5.44274 1.61227 5.50503 1.78449 5.50503C2.25718 5.50137 2.72987 5.50137 3.20256 5.50137ZM3.22455 6.65195C2.79216 6.65195 2.35978 6.65195 1.93106 6.65195C1.85045 6.65195 1.76251 6.63362 1.69655 6.66294C1.62693 6.69592 1.54632 6.76553 1.528 6.83516C1.50235 6.93775 1.58296 7.00738 1.68922 7.0257C1.72953 7.03303 1.7735 7.02937 1.81381 7.02937C2.74453 7.02937 3.67891 7.02937 4.60963 7.02937C4.64994 7.02937 4.69391 7.02936 4.73422 7.0257C4.84415 7.01104 4.90644 6.94508 4.90277 6.83516C4.89911 6.72889 4.84048 6.67027 4.73788 6.65927C4.68658 6.65194 4.63162 6.65195 4.58032 6.65195C4.12962 6.65195 3.67525 6.65195 3.22455 6.65195Z" fill="#464646"/>
<path d="M7.76627 15.9744C7.70764 15.9781 7.65634 15.9818 7.60504 15.9818C6.89418 15.9818 6.18331 15.9818 5.47245 15.9818C5.13167 15.9818 4.99609 15.8425 4.99609 15.5017C4.99609 14.8495 4.99609 14.1973 4.99609 13.5414C4.99609 13.4901 4.99609 13.4388 4.99609 13.3765C5.92315 13.3765 6.84288 13.3765 7.76627 13.3765C7.76627 14.2449 7.76627 15.106 7.76627 15.9744Z" fill="#464646"/>
<path d="M4.51906 0.675781C4.51906 1.08618 4.52639 1.48558 4.5154 1.88498C4.50807 2.07919 4.33219 2.23675 4.13432 2.24042C3.52239 2.24775 2.91412 2.24408 2.30219 2.24042C2.09332 2.24042 1.91378 2.08285 1.90645 1.88132C1.89546 1.48191 1.90278 1.08251 1.90278 0.675781C2.77488 0.675781 3.63598 0.675781 4.51906 0.675781Z" fill="#464646"/>
</svg>
