<svg width="26" height="26" viewBox="0 0 26 26" fill="none" xmlns="http://www.w3.org/2000/svg">
<path d="M13.0004 2.59998C8.69261 2.59998 5.20043 6.09215 5.20043 10.4V15.0615L4.28119 15.9807C3.90939 16.3525 3.79817 16.9117 3.99939 17.3975C4.2006 17.8832 4.67463 18.2 5.20043 18.2H20.8004C21.3262 18.2 21.8003 17.8832 22.0015 17.3975C22.2027 16.9117 22.0915 16.3525 21.7197 15.9807L20.8004 15.0615V10.4C20.8004 6.09215 17.3083 2.59998 13.0004 2.59998Z" fill="#E37048"/>
<path d="M13.0004 23.4C10.8465 23.4 9.10039 21.6539 9.10039 19.5H16.9004C16.9004 21.6539 15.1543 23.4 13.0004 23.4Z" fill="#E37048"/>
</svg>
