<svg width="26" height="26" viewBox="0 0 26 26" fill="none" xmlns="http://www.w3.org/2000/svg">
<path d="M13.0004 2.6001C8.69261 2.6001 5.20043 6.09228 5.20043 10.4001V15.0616L4.28119 15.9809C3.90939 16.3527 3.79817 16.9118 3.99939 17.3976C4.2006 17.8834 4.67463 18.2001 5.20043 18.2001H20.8004C21.3262 18.2001 21.8003 17.8834 22.0015 17.3976C22.2027 16.9118 22.0915 16.3527 21.7197 15.9809L20.8004 15.0616V10.4001C20.8004 6.09228 17.3083 2.6001 13.0004 2.6001Z" fill="white"/>
<path d="M13.0004 23.4001C10.8465 23.4001 9.10039 21.654 9.10039 19.5001H16.9004C16.9004 21.654 15.1543 23.4001 13.0004 23.4001Z" fill="white"/>
</svg>
