<svg width="409" height="251" viewBox="0 0 409 251" fill="none" xmlns="http://www.w3.org/2000/svg">
<mask id="mask0_1514_6622" style="mask-type:alpha" maskUnits="userSpaceOnUse" x="0" y="0" width="409" height="251">
<rect width="409" height="251" fill="#D9D9D9"/>
</mask>
<g mask="url(#mask0_1514_6622)">
<rect x="0.5" y="0.5" width="408" height="250" fill="url(#paint0_linear_1514_6622)" stroke="url(#paint1_linear_1514_6622)"/>
<path d="M44.905 352.112C45.2531 309.746 76.5059 272.278 114.424 253.39C152.343 234.502 195.96 231.021 238.327 230.582C280.694 230.144 323.537 232.361 364.989 223.659C406.453 214.943 447.479 193.386 468.469 156.589C469.513 154.745 469.281 152.347 469.281 150.233V61.2832C435.153 91.7753 419.307 137.172 386.108 168.657C349.981 202.914 297.326 213.744 247.533 213.937C197.74 214.131 148.191 205.222 98.4242 206.575C48.6569 207.929 -3.83085 221.402 -37.4689 258.109C-38.178 262.338 -40.0733 265.574 -40.7695 269.803V357.94C-36.8887 357.94 -37.2368 360.802 -33.356 360.802L44.905 352.112Z" fill="url(#paint2_linear_1514_6622)"/>
<path opacity="0.7" d="M-46.6621 301.676C11.8338 250.233 93.3568 226.045 170.444 237.275C191.589 240.356 212.399 245.952 233.724 247.125C255.049 248.299 277.702 244.495 294.192 230.919C310.683 217.342 318.599 196.288 330.293 178.431C354.764 141.028 398.394 116.931 443.082 116.132L446.163 73.1332C419.642 67.6923 392.515 67.0347 366.522 74.6416C340.53 82.2486 316.626 98.842 303.398 122.462C287.952 150.015 288.158 183.949 274.376 212.378C269.502 222.422 262.475 232.027 252.316 236.682C232.731 245.668 210.619 233.6 191.202 224.266C119.001 189.583 30.1033 192.02 -40.0866 230.635C-43.2712 256.666 -43.4775 275.658 -46.6621 301.676Z" fill="url(#paint3_linear_1514_6622)"/>
<path opacity="0.4" d="M492.489 163.486L503.822 102.966C503.874 102.669 503.616 103.933 503.68 103.636C436.353 91.2201 362.939 126.625 330.732 187.041C321.037 205.221 314.281 225.94 298.564 239.258C276.079 258.314 242.17 256.019 214.553 245.757C186.923 235.494 161.975 218.501 133.649 210.352C102.254 201.314 67.649 203.944 37.982 217.637C8.31506 231.329 -16.156 255.929 -29.668 285.674C-17.3035 287.775 -5.04218 291.308 7.32229 293.409C20.1767 275.192 34.4107 256.974 51.4037 242.533C68.3968 228.093 89.6446 217.585 111.937 217.456C138.78 217.302 163.393 231.858 184.976 247.807C206.559 263.755 227.304 281.896 252.587 290.921C272.907 298.167 297.133 298.502 314.552 285.764C332.035 272.974 338.919 250.308 342.465 228.944C346.024 207.58 347.584 185.133 358.401 166.374C371.346 143.914 396.822 129.951 422.699 128.558C448.575 127.179 472.943 146.467 492.489 163.486Z" fill="url(#paint4_linear_1514_6622)"/>
<path d="M93.1895 368.964C120.342 347.162 156.378 339.529 191.19 338.472C226.001 337.415 260.735 342.224 295.559 342.146C317.052 342.108 340.492 339.336 355.693 324.135C369.836 309.991 373.369 288.498 384.251 271.724C399.916 247.576 431.917 235.379 459.675 242.973L459.843 291.992C433.838 279.937 403.165 286.719 383.232 307.309C371.925 318.99 364.95 334.333 353.591 345.963C335.824 364.142 309.252 371.091 283.852 371.762C258.453 372.432 233.234 367.61 207.873 365.921C182.513 364.232 155.876 365.999 133.803 378.621C122.547 375.527 104.432 372.045 93.1895 368.964Z" fill="url(#paint5_linear_1514_6622)"/>
<path opacity="0.7" d="M-23.2107 210.07C-12.3805 213.332 -0.389921 208.11 7.35882 199.872C15.1076 191.633 19.4525 180.829 23.3849 170.218C27.3173 159.607 31.1079 148.699 38.0701 139.777C51.0406 123.158 73.294 116.054 94.3742 116.157C115.454 116.26 135.954 122.539 156.261 128.212C176.568 133.898 197.545 139.068 218.522 136.889C251.347 133.472 280.821 111.399 296.538 82.3771C281.749 76.0337 267.283 69.3938 252.508 63.0762C236.43 100.453 195.34 125.208 154.843 121.185C122.21 117.949 92.4918 98.3001 59.7047 97.5007C32.9258 96.8432 6.15977 109.852 -9.87923 131.319C-25.9182 152.786 -31.4494 184.568 -23.2107 210.07Z" fill="url(#paint6_linear_1514_6622)"/>
<g opacity="0.6">
<path d="M-24.3574 184.178C48.0372 146.711 132.706 138.228 203.773 182.928C240.544 206.058 273.112 242.739 312.719 254.691C339.434 262.749 367.502 258.726 393.469 248.154C419.422 237.569 443.545 220.653 466.946 202.654" stroke="white" stroke-width="0.25" stroke-miterlimit="10"/>
<path d="M465.914 196.04C443.351 214.864 419.782 232.553 394.215 243.938C380.987 249.856 367.166 254.02 353.19 255.683C340.077 257.282 326.849 256.676 313.879 253.259C292.102 247.625 272.195 234.616 252.611 220.073C236.185 207.901 219.965 194.66 202.895 184.591C201.167 183.572 199.44 182.592 197.699 181.638C161.134 161.525 121.836 156.174 82.2285 159.204C45.0707 162.054 7.65495 172.123 -26.5117 187.26" stroke="white" stroke-width="0.25" stroke-miterlimit="10"/>
<path d="M464.883 189.439C443.158 209.088 420.131 227.551 394.964 239.748C381.929 246.104 368.236 250.72 354.35 252.86C341.29 254.923 328.061 254.73 315.039 251.855C293.07 247.007 272.737 234.913 252.74 220.834C235.966 209.037 219.398 195.899 201.993 186.281C200.239 185.314 198.473 184.385 196.707 183.483C159.639 164.607 120.534 161.706 80.7205 165.407C43.3563 168.901 5.43776 177.81 -28.7031 190.355" stroke="white" stroke-width="0.25" stroke-miterlimit="10"/>
<path d="M463.863 182.852C442.976 203.326 420.49 222.562 395.71 235.559C382.855 242.366 369.292 247.394 355.509 250.025C342.487 252.513 329.272 252.809 316.198 250.437C294.022 246.427 273.264 235.21 252.88 221.57C235.745 210.146 218.83 197.098 201.102 187.957C199.309 187.029 197.517 186.152 195.712 185.314C158.181 167.638 119.231 167.225 79.2233 171.596C41.6529 175.722 3.2315 183.47 -30.8965 193.45" stroke="white" stroke-width="0.25" stroke-miterlimit="10"/>
<path d="M462.832 176.251C442.783 197.551 420.813 217.509 396.458 231.356C383.772 238.576 370.363 244.082 356.67 247.189C343.7 250.142 330.472 250.889 317.346 249.033C294.951 245.861 273.781 235.508 253.01 222.318C235.514 211.269 218.263 198.324 200.2 189.634C198.382 188.758 196.551 187.932 194.72 187.133C156.737 170.63 117.929 172.719 77.7285 177.76C39.9518 182.53 1.04048 189.132 -33.0488 196.532" stroke="white" stroke-width="0.25" stroke-miterlimit="10"/>
<path d="M461.814 169.648C442.59 191.773 421.175 212.492 397.219 227.164C384.713 234.823 371.446 240.767 357.844 244.351C344.912 247.755 331.697 248.967 318.52 247.613C295.919 245.292 274.323 235.79 253.165 223.064C235.321 212.376 217.722 199.547 199.336 191.322C197.48 190.497 195.623 189.723 193.754 188.975C155.32 173.645 116.653 178.248 76.2462 183.96C38.2503 189.362 -1.15093 194.803 -35.2402 199.625" stroke="white" stroke-width="0.25" stroke-miterlimit="10"/>
<path d="M460.783 163.061C442.398 186.01 421.511 207.49 397.968 222.975C385.642 231.084 372.517 237.467 359.018 241.528C346.125 245.396 332.91 247.059 319.694 246.208C296.873 244.738 274.865 236.087 253.321 223.813C235.116 213.498 217.168 200.773 198.461 193.011C196.578 192.225 194.683 191.503 192.788 190.819C153.902 176.663 115.378 183.78 74.7772 190.149C36.5621 196.183 -3.32906 200.463 -37.3926 202.72" stroke="white" stroke-width="0.25" stroke-miterlimit="10"/>
<path d="M459.765 156.461C442.217 180.236 421.872 202.489 398.729 218.773C386.584 227.321 373.6 234.168 360.191 238.693C347.35 243.025 334.122 245.152 320.867 244.791C297.828 244.173 275.419 236.385 253.475 224.549C234.909 214.609 216.627 201.974 197.584 194.676C195.663 193.941 193.742 193.271 191.808 192.639C152.484 179.643 114.088 189.287 73.2945 196.326C34.8732 202.992 -5.52086 206.125 -39.5586 205.803" stroke="white" stroke-width="0.25" stroke-miterlimit="10"/>
<path d="M458.734 149.858C442.024 174.458 422.22 197.485 399.477 214.582C387.512 223.568 374.671 230.866 361.352 235.855C348.549 240.651 335.321 243.23 322.015 243.372C298.756 243.617 275.936 236.668 253.605 225.283C234.691 215.716 216.047 203.184 196.682 196.351C194.735 195.655 192.775 195.036 190.815 194.456C151.053 182.62 112.786 194.791 71.7865 202.501C33.1588 209.811 -7.73805 211.771 -41.75 208.883" stroke="white" stroke-width="0.25" stroke-miterlimit="10"/>
<path d="M457.713 143.271C441.841 168.696 422.579 192.496 400.235 210.392C388.451 219.83 375.751 227.565 362.523 233.032C349.772 238.293 336.531 241.335 323.186 241.967C299.708 243.076 276.475 236.965 253.757 226.044C234.482 216.851 215.503 204.422 195.816 198.04C193.83 197.396 191.845 196.828 189.859 196.3C149.658 185.624 111.521 200.31 70.3272 208.69C31.4804 216.632 -9.90641 217.444 -43.8926 211.978" stroke="white" stroke-width="0.25" stroke-miterlimit="10"/>
<path d="M456.683 136.668C441.65 162.931 422.929 187.492 400.985 206.187C389.381 216.076 376.823 224.264 363.685 230.181C350.973 235.906 337.744 239.426 324.348 240.548C300.651 242.533 277.005 237.247 253.888 226.778C234.251 217.959 214.938 205.633 194.915 199.715C192.903 199.122 190.879 198.606 188.855 198.129C148.216 188.601 110.207 205.826 68.8074 214.877C29.7543 223.451 -12.1224 223.103 -46.0957 215.071" stroke="white" stroke-width="0.25" stroke-miterlimit="10"/>
<path d="M455.662 130.067C441.467 157.156 423.288 182.491 401.744 201.998C390.32 212.325 377.904 220.964 364.856 227.359C352.195 233.56 338.954 237.531 325.507 239.143C301.59 242.005 277.532 237.557 254.027 227.526C234.043 219.068 214.368 206.846 194.023 201.392C191.973 200.838 189.923 200.373 187.873 199.961C146.796 191.567 108.916 211.345 67.3228 221.067C28.0505 230.285 -14.3162 228.777 -48.2637 218.166" stroke="white" stroke-width="0.25" stroke-miterlimit="10"/>
<path d="M454.631 123.48C441.274 151.394 423.649 177.502 402.479 197.809C391.249 208.588 378.962 217.677 366.004 224.536C353.395 231.202 340.141 235.65 326.655 237.739C302.519 241.478 278.061 237.855 254.157 228.275C233.812 220.191 213.802 208.072 193.121 203.082C191.045 202.58 188.957 202.167 186.868 201.793C145.365 194.534 107.601 216.865 65.8147 227.244C26.3361 237.094 -16.5334 234.425 -50.4551 221.249" stroke="white" stroke-width="0.25" stroke-miterlimit="10"/>
<path d="M453.6 116.877C441.081 145.616 423.997 172.511 403.227 193.604C392.177 204.834 380.045 214.374 367.165 221.685C354.594 228.828 341.34 233.74 327.815 236.306C303.46 240.934 278.589 238.123 254.299 229.008C233.592 221.298 213.234 209.282 192.244 204.743C190.13 204.292 188.015 203.918 185.901 203.609C143.96 197.472 106.325 222.368 64.3321 233.418C24.6471 243.9 -18.7252 240.083 -52.6211 224.328" stroke="white" stroke-width="0.25" stroke-miterlimit="10"/>
<path d="M452.581 110.277C440.887 139.841 424.371 167.51 403.987 189.415C393.119 201.096 381.128 211.088 368.338 218.863C355.819 226.47 342.565 231.859 328.988 234.902C304.427 240.42 279.131 238.422 254.453 229.758C233.399 222.421 212.693 210.508 191.368 206.434C189.227 206.021 187.074 205.712 184.921 205.454C142.554 200.439 105.036 227.888 62.8494 239.608C22.9453 250.735 -20.9041 245.745 -54.7871 227.424" stroke="white" stroke-width="0.25" stroke-miterlimit="10"/>
<path d="M451.552 103.688C440.696 134.076 424.722 162.532 404.738 185.223C394.062 197.343 382.2 207.799 369.501 216.025C357.033 224.109 343.766 229.962 330.138 233.482C305.358 239.89 279.649 238.717 254.585 230.491C233.169 223.529 212.128 211.706 190.467 208.109C188.289 207.748 186.11 207.477 183.931 207.283C141.126 203.39 103.736 233.405 61.3432 245.795C21.2329 257.554 -23.1193 251.416 -56.9766 230.517" stroke="white" stroke-width="0.25" stroke-miterlimit="10"/>
<path d="M450.533 97.0869C440.516 128.301 425.095 157.53 405.498 181.021C395.003 193.592 383.296 204.499 370.674 213.189C358.258 221.737 344.991 228.081 331.311 232.077C306.324 239.388 280.19 239.014 254.739 231.239C232.976 224.638 211.573 212.931 189.603 209.785C187.399 209.463 185.181 209.244 182.976 209.102C139.733 206.317 102.472 238.911 59.886 251.972C19.5564 264.362 -25.2857 257.064 -59.1172 233.599" stroke="white" stroke-width="0.25" stroke-miterlimit="10"/>
<path d="M449.5 90.4863C440.321 122.526 425.494 152.579 406.244 176.831C395.968 189.879 384.365 201.212 371.833 210.353C359.468 219.378 346.188 226.186 332.47 230.66C307.277 238.873 280.73 239.298 254.879 231.988C232.755 225.761 211.017 214.157 188.712 211.475C186.469 211.204 184.238 211.037 181.982 210.946C138.3 209.27 101.168 244.443 58.3759 258.161C17.8401 271.196 -27.5049 262.738 -61.3105 236.681" stroke="white" stroke-width="0.25" stroke-miterlimit="10"/>
<path d="M448.482 83.8965C440.14 116.761 425.867 147.588 407.005 172.64C396.91 186.126 385.461 197.923 373.006 207.528C360.693 217.03 347.413 224.315 333.643 229.253C308.244 238.368 281.272 239.606 255.021 232.734C232.536 226.881 210.45 215.38 187.823 213.15C185.553 212.93 183.284 212.802 181.002 212.776C136.882 212.196 99.8788 249.959 56.8933 264.348C16.1511 278.015 -29.6967 268.396 -63.4766 239.774" stroke="white" stroke-width="0.25" stroke-miterlimit="10"/>
<path d="M447.451 77.2969C439.947 110.986 426.216 142.587 407.753 168.438C397.838 182.375 386.544 194.65 374.167 204.693C361.918 214.686 348.625 222.421 334.791 227.837C309.186 237.854 281.788 239.892 255.151 233.471C232.317 227.991 209.883 216.581 186.92 214.827C184.625 214.647 182.318 214.57 179.997 214.608C135.438 215.124 98.5641 255.466 55.3852 270.538C14.4239 284.837 -31.901 274.071 -65.668 242.87" stroke="white" stroke-width="0.25" stroke-miterlimit="10"/>
<path d="M446.432 70.6943C439.767 105.209 426.577 137.584 408.501 164.247C398.78 178.622 387.627 191.348 375.327 201.856C363.13 212.312 349.85 220.564 335.952 226.417C310.165 237.376 282.316 240.174 255.292 234.204C232.098 229.099 209.329 217.791 186.044 216.489C183.71 216.36 181.376 216.335 179.03 216.412C134.033 217.972 97.2877 260.958 53.9025 276.687C12.7349 291.63 -34.0928 279.704 -67.834 245.924" stroke="white" stroke-width="0.25" stroke-miterlimit="10"/>
<path d="M445.401 64.1064C436.427 118.528 411.299 167.728 376.5 199.033C341.702 230.337 297.556 243.436 255.447 234.966C229.532 229.757 204.146 216.722 178.05 218.269C132.602 220.964 95.9855 266.502 52.4198 282.902C11.033 298.477 -36.2846 285.39 -70 249.045" stroke="white" stroke-width="0.25" stroke-miterlimit="10"/>
</g>
<path d="M118.292 209.382C116.912 209.163 115.532 208.802 114.14 208.75C112.464 208.686 111.497 207.976 110.53 206.571C109.305 204.779 108.841 202.948 108.867 200.885C108.88 200.099 108.944 199.325 109.009 198.397C108.776 198.294 108.312 198.1 108.029 197.984C108.828 196.747 109.64 195.522 110.427 194.271C110.594 194 110.698 193.678 110.801 193.369C111.278 191.963 111.278 191.963 110.092 191.048C109.46 190.571 109.421 189.72 109.705 189.294C110.375 188.289 110.04 187.296 109.924 186.316C109.834 185.53 109.872 184.846 110.285 184.15C110.762 183.338 111.11 182.448 111.549 181.597C112.129 180.475 112.206 179.289 112.142 178.039C112.103 177.278 112.283 176.504 112.374 175.744C112.387 175.666 112.464 175.589 112.451 175.525C112.193 173.655 112.98 171.953 113.276 170.187C113.379 169.555 113.366 168.897 113.392 168.253C113.457 166.461 113.508 164.681 113.586 162.889C113.611 162.361 113.508 161.961 113.057 161.626C112.193 160.981 111.394 160.22 110.491 159.627C108.183 158.093 106.533 156.056 105.424 153.516C104.921 152.356 104.328 151.208 103.619 150.164C103 149.236 102.162 148.436 101.479 147.637C101.415 147.173 101.402 146.683 101.273 146.231C101.131 145.742 101.299 145.458 101.66 145.123C102.098 144.71 102.407 144.143 102.717 143.717C102.227 143.563 101.66 143.485 101.647 143.369C101.595 142.828 101.685 142.26 101.788 141.706C101.814 141.538 102.162 141.435 102.214 141.255C102.755 139.398 104.212 138.225 105.386 136.832C105.631 136.536 105.747 136.007 105.721 135.608C105.643 134.615 105.411 133.622 105.308 132.629C105.27 132.281 105.45 131.907 105.527 131.533C105.605 131.533 105.669 131.546 105.747 131.546C105.656 131.327 105.566 131.108 105.463 130.85C105.992 130.515 106.546 130.205 107.036 129.831C107.294 129.638 107.461 129.316 107.681 129.071C107.81 128.929 107.926 128.761 108.08 128.645C108.428 128.375 108.776 128.117 109.15 127.897C109.344 127.781 109.602 127.794 109.795 127.691C110.027 127.575 110.337 127.446 110.427 127.24C110.891 126.183 110.646 125.86 109.486 125.989C108.983 126.041 108.506 126.17 107.964 126.273C108.054 126.647 108.119 126.905 108.209 127.214C107.951 127.304 107.706 127.382 107.41 127.485C107.075 126.505 106.288 126.531 105.476 126.492C105.076 126.479 104.651 126.325 104.315 126.118C103.851 125.847 103.452 125.461 103.013 125.138C102.343 124.636 101.698 124.171 101.543 123.217C101.466 122.766 101.002 122.379 100.693 121.967C100.409 121.58 100.138 121.18 99.8158 120.832C99.6095 120.613 99.3388 120.342 99.068 120.303C96.4894 119.917 94.2073 118.859 92.0928 117.351C91.8608 117.183 91.4095 117.119 91.1388 117.222C89.8752 117.699 88.6891 117.531 87.4513 117.054C84.8856 116.075 82.423 114.901 80.1796 113.303C79.7542 112.993 79.4963 112.709 79.5737 112.116C79.7284 110.969 79.0708 110.131 78.3875 109.293C76.2215 106.663 74.0941 103.994 71.9667 101.338C71.6831 100.977 71.3737 100.603 71.2318 100.177C70.8193 98.9783 69.7878 98.7849 68.6532 98.4239C68.6532 98.8236 68.5372 99.2233 68.679 99.4682C69.2721 100.487 69.9425 101.467 70.5872 102.459C70.6774 102.588 70.8579 102.679 70.8966 102.82C71.3737 104.587 72.6759 105.837 73.7202 107.243C74.0554 107.694 74.352 108.171 74.6614 108.635C74.6227 108.7 74.584 108.764 74.5325 108.842C74.2359 108.738 73.8878 108.7 73.6428 108.532C73.2045 108.223 72.7661 107.875 72.418 107.462C72.1472 107.14 72.0054 106.701 71.7991 106.327C71.58 105.941 71.4381 105.451 71.1287 105.193C70.3164 104.522 69.4268 103.942 68.4985 103.272C68.6661 102.898 68.8466 102.485 69.04 102.021C67.3639 100.899 66.5645 99.1588 65.9715 97.3667C65.4944 95.9226 64.5532 95.2522 63.2123 94.9943C62.5806 94.8783 62.3227 94.4915 61.9746 94.0145C60.8658 92.4931 60.2985 90.6494 59.0092 89.2053C58.4548 88.5865 58.4806 87.439 58.2743 86.5236C58.1454 85.9434 58.068 85.3503 57.9649 84.7701C57.8488 84.1126 57.6812 83.455 58.2227 82.862C58.3516 82.733 58.3388 82.4623 58.3645 82.2431C58.3903 81.9723 58.3517 81.7016 58.3903 81.4308C58.5837 79.8579 58.9576 78.272 57.823 76.8667C58.9963 76.3896 59.6796 76.5185 60.0278 77.1761C60.5822 75.977 60.0149 74.5717 58.8674 73.9399C57.3589 73.1148 55.902 72.1736 54.445 71.2453C54.2645 71.1292 54.0583 70.7553 54.1227 70.6135C54.4579 69.8657 54.0067 69.4403 53.5168 69.105C51.918 68.022 50.7576 66.5135 49.5457 65.0566C49.4039 64.889 49.1847 64.7085 49.1847 64.5409C49.1331 62.9164 47.6891 62.1041 47.0315 60.8406C46.8252 60.4538 46.4771 60.0799 45.768 60.2991C45.3683 60.4151 44.7752 59.8994 44.1564 59.6286C44.2079 59.8736 44.2337 60.0154 44.2853 60.3377C42.0161 59.5641 39.8372 58.7777 37.6196 58.0814C35.3762 57.3852 33.107 56.7792 30.7862 56.1088C30.7862 56.5472 30.7862 57.0371 30.7862 57.3981C29.5098 57.9525 28.285 58.4811 26.8539 59.1C27.4211 57.9009 27.924 56.8437 28.4139 55.7865C28.3752 55.7349 28.3366 55.6704 28.285 55.6189C27.6145 56.1604 26.9312 56.6761 26.2737 57.2305C25.6161 57.7849 24.9715 58.3651 24.3139 58.9324C24.3139 58.984 24.2881 59.0613 24.3139 59.0871C25.0101 59.7189 24.7781 60.1959 24.1205 60.6859C22.9344 61.5626 21.89 62.6456 20.3815 63.0711C19.9045 63.2 19.4145 63.5094 19.0793 63.8704C18.5507 64.4506 18.035 64.5151 17.2356 64.1412C19.2727 63.3547 19.9174 61.5368 20.9101 59.5899C20.0463 59.7575 19.4017 59.8736 18.757 60.0025C18.6796 60.0154 18.6023 60.0541 18.5249 60.0412C17.5322 59.8091 16.5265 59.5899 15.5337 59.3063C15.3919 59.2676 15.2501 58.9066 15.2759 58.7132C15.3661 57.9783 14.9149 57.8236 14.3605 57.7978C13.9608 57.772 13.5353 57.8494 13.1485 57.7849C12.8649 57.7333 12.5554 57.5786 12.3362 57.3981C12.2202 57.295 12.1557 56.9855 12.2202 56.8308C12.2847 56.689 12.5296 56.5987 12.723 56.5472C12.8906 56.5085 13.0712 56.5601 13.3032 56.3925C12.7746 56.1733 12.246 55.9283 11.7045 55.7349C10.6988 55.3739 10.5312 54.8582 11.2145 54.0459C11.5627 53.6333 11.9366 53.2337 12.2718 52.8082C12.6457 52.3569 13.0196 52.0475 13.6513 52.3827C13.7803 52.4472 14.0252 52.4085 14.1671 52.3311C14.9535 51.8541 15.7271 51.3513 16.4749 50.8871C16.4105 50.4101 16.3589 49.9459 16.2686 49.2626C16.0108 49.3013 15.5079 49.2626 15.0954 49.4431C14.5023 49.6881 13.9866 49.8557 13.3161 49.688C12.6715 49.5204 11.9752 49.5204 11.2919 49.5462C10.6472 49.572 10.3249 49.3399 10.2733 48.6695C10.4667 48.605 10.6601 48.5406 11.0856 48.3987C10.1702 48.1022 9.4482 47.883 8.72618 47.6509C8.71329 47.5994 8.70039 47.5349 8.6875 47.4833C10.2089 46.9934 11.7303 46.5035 13.3161 46.0006C13.4837 46.9031 14.0639 46.8774 14.6441 46.8C15.5079 46.684 16.3589 46.5679 17.2098 46.4132C17.3259 46.3874 17.429 46.2327 17.5708 46.0006C14.541 45.8975 12.6586 43.4994 9.79631 42.4163C10.3249 42.094 10.6215 41.7846 10.9825 41.7072C12.13 41.4494 13.1485 41.0755 14.0639 40.2632C14.8117 39.6057 15.8174 39.206 16.7457 38.7676C17.2743 38.5098 17.7127 38.2777 17.4935 37.5686C19.2727 37.5686 21.0004 37.4138 22.7023 37.5943C30.2061 38.3679 37.5809 39.8377 44.8913 41.6943C45.0202 41.7201 45.1491 41.733 45.162 41.5396C45.3683 41.3333 45.5359 41.0368 45.7938 40.9337C47.2636 40.3019 48.7334 39.683 50.229 39.1286C50.6545 38.961 51.1573 38.9868 51.6215 38.9223C51.6601 39.0126 51.6859 39.1028 51.7246 39.206C50.4482 39.9022 49.1718 40.5984 47.8954 41.2947C50.3322 41.1528 51.9438 39.6057 53.5425 37.9811C54.6642 38.845 55.773 39.683 56.9721 40.5984C57.0623 40.2503 57.1139 40.044 57.1784 39.7733C57.4105 39.928 57.6038 40.0311 57.7586 40.173C58.2485 40.6113 58.6482 40.4953 59.1123 40.0827C59.3444 39.8635 59.7183 39.6314 60.002 39.6701C63.0447 40.044 66.0617 40.5855 68.8337 42.0038C69.0013 42.094 69.1689 42.1843 69.3237 42.2874C69.3881 42.3261 69.4397 42.4035 69.4655 42.4421C69.0787 42.6871 68.679 42.9321 68.2922 43.177C68.3051 43.2673 68.318 43.3576 68.3309 43.4607C68.9756 43.5381 69.6202 43.6412 70.2649 43.667C70.9353 43.6928 71.6186 43.667 72.2891 43.5896C74.2359 43.3962 74.4551 43.422 76.2601 44.5695C76.5309 45.0208 76.8016 45.4591 77.0982 45.9491C78.2715 45.0852 77.1627 44.3632 77.2013 43.5896C77.8976 43.2931 78.6325 42.9579 79.3932 42.6742C79.5866 42.5969 79.8573 42.6871 80.0894 42.7516C82.4617 43.4994 84.8598 44.0151 87.3611 43.4349C87.5287 43.3962 87.7092 43.4994 87.8897 43.5252C88.212 43.5638 88.5215 43.6025 88.8438 43.6412C88.8567 43.5638 88.8696 43.4736 88.8825 43.3962C88.5473 43.2415 88.212 43.0868 87.8768 42.9192C87.8639 42.8676 87.851 42.8031 87.851 42.7516C88.096 42.7 88.3667 42.5582 88.5859 42.6097C88.9985 42.7129 89.4627 42.8547 89.7592 43.1384C89.9913 43.3704 89.9397 43.8604 90.1202 44.1827C90.3136 44.5179 90.623 44.7629 90.8809 45.0465C91.0485 44.8918 91.113 44.8531 91.113 44.8274C90.8809 43.7314 91.2677 42.9965 92.312 42.5582C92.6086 42.4292 92.8278 42.094 93.1888 41.7459C92.802 41.6299 92.5312 41.5525 92.2347 41.4752C92.557 40.5855 93.1759 41.2044 93.6658 41.2302C93.9752 40.3664 93.9108 40.2761 93.0856 40.0827C92.2218 39.8764 91.3322 39.6701 90.5328 39.3091C89.7979 38.9739 89.9526 38.1101 89.8752 37.4654C89.7979 36.8723 90.2491 36.5629 90.9325 36.6531C90.8938 36.3437 90.868 36.0987 90.8164 35.7764C91.6545 35.9569 92.4281 36.1245 93.2145 36.2921C93.3435 36.3179 93.5756 36.3953 93.5627 36.4469C93.5369 37.6201 94.8649 37.994 95.084 39.1286C94.852 39.2962 94.5812 39.5025 94.1428 39.8248C95.0583 40.0311 95.7545 40.1987 96.3862 40.3406C96.4894 41.127 96.5796 41.862 96.6957 42.7129C97.6111 42.2358 98.3589 41.8491 99.1454 41.4494C99.2872 41.733 99.4161 41.9909 99.5579 42.2358C99.4677 42.2358 99.3774 42.2358 99.2872 42.2487C99.2485 42.6355 99.1325 43.0481 99.1969 43.422C99.3388 44.1827 99.9189 44.5179 100.654 44.5437C100.821 44.5437 101.054 44.4019 101.144 44.2472C101.505 43.6799 101.763 43.061 102.162 42.5324C102.394 42.2101 102.794 42.0167 103.142 41.733C102.91 41.2044 102.665 40.65 102.407 40.0569C104.019 39.7217 105.295 40.1858 106.585 41.2173C106.469 41.4494 106.301 41.8104 106.146 42.1585C106.043 42.1198 105.953 42.094 105.85 42.0553C106.469 43.2028 107.32 44.4277 106.133 45.5752C105.54 46.1425 104.586 46.2585 103.568 45.7041C103.761 46.0393 103.851 46.194 103.942 46.3487C102.949 46.2972 101.969 46.2456 101.002 46.194C100.989 46.2585 100.976 46.323 100.95 46.4003C101.157 46.555 101.363 46.7097 101.621 46.9031C101.131 47.3028 100.68 47.7154 100.164 48.0635C99.9963 48.1796 99.6611 48.1796 99.4419 48.1022C98.8359 47.883 98.2557 47.5478 97.6498 47.3544C97.2759 47.2255 96.8375 47.2642 96.4378 47.2255C96.412 47.3157 96.3991 47.4189 96.3734 47.5091C97.6498 47.9862 98.9262 48.4632 100.177 48.9403C99.8545 50.6679 98.5265 50.5777 97.2114 50.5003C97.2114 50.9 97.2114 51.2094 97.2114 51.6349C96.051 51.4415 94.9551 51.2481 93.8463 51.0547C93.8205 51.1063 93.7947 51.1708 93.7689 51.2223C94.5167 51.5833 95.2774 51.9314 95.9737 52.2667C95.5611 52.6921 95.1872 53.2723 94.6586 53.5689C92.9438 54.523 92.6086 56.3409 91.8608 57.888C91.3193 59.0097 91.5513 59.2934 92.6344 59.8994C92.9696 60.0799 93.2274 60.4925 93.3822 60.8664C94.2589 62.8906 94.246 62.8777 96.3991 62.7487C96.6957 62.7359 97.0309 62.8519 97.3145 62.9679C99.4935 63.8447 101.621 64.9277 103.877 65.5336C105.257 65.9075 105.824 66.4748 106.03 67.7899C106.314 69.6208 107.1 71.1937 108.776 72.1865C108.867 72.2381 108.97 72.2767 109.112 72.3412C109.15 72.1091 109.176 71.9028 109.215 71.6708C109.395 71.7352 109.563 71.7868 109.679 71.8255C110.594 69.9818 109.486 68.3443 109.163 66.578C110.685 66.0107 111.252 64.5409 112.206 63.4321C112.348 63.2774 112.335 62.8132 112.193 62.6198C111.755 61.9752 111.252 61.3563 110.723 60.7761C110.337 60.3506 110.311 60.0412 110.633 59.5255C111.007 58.9453 111.239 58.262 111.42 57.5915C111.549 57.0629 111.587 56.4182 110.491 56.6116C111.149 55.7478 111.536 54.9871 110.878 54.2651C112.477 54.1233 114.037 53.8525 115.584 53.9041C116.254 53.9299 117.028 54.523 117.531 55.0645C118.111 55.6962 118.73 56.0443 119.529 56.0959C120.045 56.1346 120.226 56.328 120.213 56.8566C120.2 57.527 120.329 58.2104 120.342 58.8808C120.354 59.1258 120.238 59.3837 120.187 59.6286C120.148 59.7962 120.11 59.9638 120.071 60.1315C120.251 60.1572 120.445 60.2346 120.599 60.183C121.167 60.0154 121.631 60.0025 121.992 60.5956C122.069 60.7245 122.456 60.7503 122.675 60.7116C123.217 60.6214 123.745 60.4796 124.48 60.312C124.919 59.6415 124.712 58.3393 125.873 57.7075C126.659 58.3909 127.368 59.1516 127.665 60.2217C127.704 60.3764 127.716 60.6085 127.82 60.6601C128.799 61.1887 128.735 62.3491 129.393 63.1484C129.135 63.2129 128.903 63.2774 128.632 63.3547C128.825 64.5667 131.03 64.2572 130.45 65.8689C131.649 66.1267 132.771 66.3588 133.97 66.6167C133.144 67.7384 131.533 67.3645 130.965 68.5377C131.017 68.628 131.056 68.7182 131.107 68.8085C131.791 68.4862 132.5 68.1896 133.157 67.8157C133.712 67.5063 133.995 67.4934 134.382 68.1123C134.614 68.4733 135.246 68.5893 135.787 68.8601C135.839 69.4145 136.2 70.1494 135.53 70.7553C135.31 70.9616 135.014 71.1035 134.743 71.2324C133.828 71.6708 132.899 72.122 131.971 72.5346C131.546 72.728 131.094 72.9472 130.643 72.973C128.516 73.1277 126.376 73.205 124.235 73.334C123.965 73.3469 123.552 73.4758 123.462 73.6692C123.126 74.4041 122.456 74.6362 121.811 74.9843C120.612 75.616 119.903 76.7506 119.014 78.027C120.122 77.305 120.999 76.6991 121.915 76.1576C122.417 75.8481 122.972 75.616 123.526 75.384C124.906 74.8167 124.957 74.8296 126.066 76.0802C125.512 76.2865 125.009 76.4928 124.364 76.7377C124.893 76.8538 125.293 76.944 125.705 77.0343C125.164 78.1044 125.164 78.1044 126.195 78.8651C126.44 79.0456 126.685 79.2003 126.93 79.3808C127.923 80.0642 127.923 80.0641 129.006 79.8063C129.251 80.0899 129.483 80.3865 129.766 80.7217C128.967 80.9409 128.09 81.2761 127.188 81.4179C126.608 81.5082 126.156 81.6113 125.873 82.1528C125.757 82.3591 125.576 82.5525 125.383 82.6943C125.228 82.8104 124.944 82.9393 124.854 82.8748C124.687 82.7588 124.558 82.5138 124.532 82.2947C124.429 81.5082 125.073 81.2632 125.602 80.9538C125.744 80.8764 125.873 80.7862 125.873 80.7862C125.924 80.3478 125.963 80.0513 126.002 79.7031C125.06 80.0513 124.145 80.3865 123.23 80.7346C122.856 82.0755 121.515 81.8176 120.612 82.2689C120.174 82.4881 119.865 82.6943 119.684 83.1714C119.465 83.7129 119.104 84.2028 118.794 84.7443C119.065 84.8862 119.349 85.0409 119.632 85.1956C119.645 85.273 119.658 85.3374 119.671 85.4148C119.323 85.4664 118.962 85.5179 118.614 85.5695C118.459 85.5953 118.304 85.6082 118.163 85.6726C117.312 86.0208 116.461 86.3689 115.623 86.7686C115.429 86.8588 115.236 87.0909 115.159 87.3101C114.914 87.9289 114.733 88.5607 114.475 89.3343C114.114 89.0248 113.96 88.883 113.805 88.7541C114.411 90.0047 113.947 90.8943 112.928 91.6292C113.031 90.6236 113.134 89.6179 113.238 88.5607C112.554 88.6123 112.438 88.9088 112.541 89.3987C112.683 90.1336 112.812 90.8815 112.941 91.6292C112.967 91.6808 113.005 91.7195 113.018 91.7711C113.444 93.3698 113.431 93.3698 112.038 94.2981C112.18 94.4013 112.283 94.4915 112.412 94.5947C112.361 94.6204 112.271 94.6849 112.18 94.7236C110.362 95.4585 109.125 96.9154 107.771 98.2305C107.087 98.9009 106.894 99.8035 107.1 100.719C107.345 101.763 107.616 102.833 108.054 103.813C108.532 104.883 108.428 105.825 107.835 106.972C107.049 105.966 106.237 105.051 105.579 104.045C105.347 103.697 105.437 103.104 105.463 102.627C105.489 102.124 105.282 101.892 104.831 101.75C103.129 101.235 101.427 100.667 99.7127 100.19C99.4806 100.126 99.068 100.293 98.9133 100.487C98.6039 100.886 98.4362 101.376 98.1784 101.866C97.7013 101.776 97.2372 101.686 96.7601 101.583C95.2388 101.247 93.7561 101.351 92.2862 101.866C91.474 102.15 90.623 102.331 89.7721 102.537C89.1145 102.704 88.5601 103.362 88.6117 104.058C88.6891 105.038 88.5215 105.953 88.3281 106.908C88.0702 108.21 88.0831 109.602 88.1991 110.943C88.3281 112.31 90.9067 114.708 92.2734 114.966C93.2017 115.146 94.9938 114.334 95.4837 113.535C95.6771 113.212 95.8834 112.89 96.1026 112.581C97.2888 111.008 98.5007 110.853 99.9963 111.962C99.7642 112.838 99.545 113.664 99.313 114.502C98.8101 114.398 98.7328 114.695 98.7844 115.159C98.8875 115.971 99.0164 116.784 98.2171 117.609C98.8101 117.673 99.2485 117.738 99.674 117.751C100.757 117.789 101.84 117.764 102.923 117.841C103.632 117.892 104.315 119.233 104.238 119.93C104.109 121.103 104.058 122.302 104.122 123.475C104.148 123.849 104.702 124.158 104.909 124.545C105.579 125.783 106.598 125.847 107.771 125.474C108.132 125.358 108.506 125.254 108.88 125.229C109.743 125.177 110.517 125.306 111.046 126.157C111.278 126.531 111.716 126.763 112.167 127.15C112.051 127.769 111.819 128.645 111.729 129.548C111.703 129.793 112.116 130.076 112.412 130.45C113.044 129.303 113.573 128.336 114.14 127.304C114.424 127.446 114.836 127.536 115.068 127.794C116.448 129.342 118.433 128.62 120.071 129.161C120.161 129.187 120.303 129.148 120.38 129.097C121.631 128.297 122.611 128.839 123.526 129.715C123.707 129.896 123.965 129.999 124.235 130.18C123.952 130.45 123.694 130.695 123.307 131.069C123.823 131.134 124.171 131.185 124.519 131.224C125.615 131.379 126.595 131.624 126.853 132.952C126.904 133.248 127.278 133.648 127.575 133.712C129.07 134.073 130.566 134.409 132.087 134.602C133.428 134.77 135.027 135.917 135.439 137.193C135.568 137.606 135.736 138.006 135.929 138.392C136.11 138.753 136.342 139.089 136.626 139.54C136.239 139.953 135.826 140.404 135.414 140.868C135.014 141.332 134.627 141.809 134.292 142.415C135.362 141.861 136.226 142.402 137.09 142.789C137.244 142.866 137.348 143.073 137.554 143.331C138.211 142.144 139.23 141.822 140.532 142.131C141.744 142.428 142.917 142.673 142.672 144.362C144.555 144.362 146.308 144.336 148.062 144.388C148.397 144.401 148.758 144.633 149.067 144.813C150.279 145.535 151.453 146.309 152.677 146.979C153.09 147.211 153.206 147.418 153.154 147.843C153.038 149.029 153 150.228 152.832 151.402C152.781 151.801 152.497 152.291 152.162 152.51C151.388 153.039 150.847 153.671 150.563 154.56C150.382 155.102 150.021 155.424 149.248 155.231C149.145 156.095 148.887 156.933 148.977 157.732C149.351 161.278 147.623 164.114 145.934 166.964C145.78 167.208 145.303 167.402 144.993 167.402C142.273 167.35 140.274 168.872 138.276 170.406C138.108 170.535 138.018 170.883 138.044 171.128C138.199 172.907 137.863 174.506 136.626 175.886C136.11 176.453 135.8 177.201 135.272 177.819C135.465 177.381 135.659 176.956 135.839 176.517C135.8 176.466 135.749 176.414 135.71 176.363C135.517 176.466 135.246 176.517 135.143 176.685C134.176 178.245 133.248 179.818 132.306 181.391C131.984 181.932 131.507 182.203 130.888 182.139C129.663 181.997 128.451 181.816 127.188 181.649C127.226 181.739 127.252 182.087 127.433 182.203C128.413 182.809 128.245 183.982 128.787 184.795C128.98 185.078 127.755 186.69 127.304 186.858C125.834 187.386 124.326 187.644 122.572 187.412C122.572 188.134 122.611 188.804 122.546 189.462C122.521 189.694 122.25 190.068 122.043 190.094C121.231 190.197 120.393 190.197 119.542 190.248C119.336 191.564 119.645 192.053 121.038 192.17C120.793 192.466 120.651 192.801 120.432 192.879C119.426 193.201 119.13 194.013 119.052 194.877C118.988 195.509 118.665 195.728 118.176 195.96C117.763 196.153 117.093 196.463 117.093 196.708C117.105 197.469 116.976 198.384 117.905 198.848C118.163 198.977 118.382 199.183 118.64 199.364C117.892 200.511 117.028 201.556 116.487 202.755C115.958 203.915 115.765 205.217 115.416 206.481C115.21 206.481 114.926 206.481 114.411 206.481C114.772 206.777 114.978 206.971 115.21 207.125C116.074 207.68 116.964 208.209 117.815 208.776C118.085 208.956 118.279 209.266 118.511 209.524C118.511 209.382 118.395 209.382 118.292 209.382ZM179.779 77.3695C179.572 78.4525 179.327 79.5355 179.147 80.6314C179.108 80.8506 179.302 81.0956 179.405 81.3277C179.495 81.5469 179.688 81.7531 179.714 81.9723C179.766 82.4236 179.727 82.8748 179.727 83.3906C180.178 83.3906 180.617 83.4164 181.042 83.3906C181.79 83.339 182.422 83.4292 182.783 84.2286C182.976 84.667 183.35 84.6928 183.801 84.422C184.253 84.1642 184.781 83.9708 185.297 83.8676C186.303 83.6742 187.463 83.945 188.095 82.7975C188.121 82.7588 188.185 82.7459 188.237 82.7201C189.449 82.1786 190.106 81.289 189.913 79.9223C189.835 79.3937 190.042 79.0456 190.467 78.7748C191.279 78.2333 192.079 77.6789 192.878 77.1116C193.084 76.9698 193.304 76.7377 193.342 76.5057C193.587 75.2679 194.657 74.6491 195.831 75.0487C196.153 75.1648 196.617 75.1261 196.926 74.9843C197.739 74.6233 198.512 74.172 199.286 73.7208C199.815 73.4113 200.201 73.4629 200.614 73.9528C202.419 76.0673 204.753 77.5629 206.983 79.1616C207.963 79.8708 208.363 80.7475 207.886 81.8305C209.123 81.3277 209.407 80.5154 208.724 79.355C208.93 79.1745 209.149 78.9811 209.381 78.7748C209.781 79.0327 210.155 79.2519 210.516 79.484C210.58 79.3937 210.632 79.3164 210.696 79.2261C210.284 78.8909 209.91 78.3752 209.446 78.2591C208.324 77.9626 207.821 76.6475 206.571 76.6217C206.493 76.6217 206.416 76.4799 206.351 76.4025C205.604 75.4742 204.817 74.5717 204.147 73.5918C203.889 73.2179 203.67 72.5733 203.837 72.2381C204.018 71.8513 204.637 71.6708 205.101 71.3742C205.281 71.9415 205.397 72.3154 205.578 72.8569C205.797 72.5088 205.926 72.3025 206.119 71.9931C206.571 72.6119 206.906 73.0761 207.254 73.5402C207.512 73.8884 207.705 74.3267 208.04 74.5459C208.956 75.139 209.936 75.6547 210.903 76.1576C211.895 76.6604 212.089 77.4726 211.947 78.4783C211.921 78.6846 211.87 78.9553 211.973 79.0843C213.262 80.683 214.912 81.7145 216.962 82.1915C217.143 81.1085 215.97 81.3535 215.686 80.7475C216.537 79.9997 215.222 79.3035 215.596 78.517C216.227 78.4009 216.588 79.6774 217.375 78.9038C217.207 78.633 217.053 78.4009 216.859 78.0915C218.045 77.7821 218.858 78.4396 219.567 78.8393C220.663 78.3365 221.668 77.8852 222.713 77.4082C222.352 77.1116 222.029 76.9054 221.797 76.6217C221.617 76.3896 221.398 76.0028 221.488 75.7965C221.939 74.5846 222.068 73.1792 223.254 72.3412C223.357 72.2767 223.422 72.1349 223.46 72.0189C223.744 70.9745 225.033 69.9173 225.897 69.827C226.568 70.4072 227.083 70.8456 227.625 71.2969C227.457 71.4258 227.238 71.5805 227.006 71.761C227.483 72.0962 228.257 72.0833 227.844 73.1792C229.043 72.728 229.984 72.367 230.797 72.0576C230.049 71.6837 229.275 71.3097 228.515 70.9358C228.553 70.8714 228.579 70.794 228.618 70.7296C230.41 70.188 232.189 69.6465 233.981 69.105C233.453 69.6465 233.453 69.6465 233.053 70.7682C233.001 70.9101 232.86 71.0261 232.731 71.1164C232.447 71.3226 232.15 71.5031 231.867 71.7094C231.905 71.8384 231.944 71.9544 231.97 72.0833C232.576 72.4314 233.208 72.7538 233.801 73.1406C234.716 73.7594 235.606 74.417 236.495 75.0745C236.599 75.1519 236.702 75.3324 236.702 75.4613C236.676 76.1576 236.624 76.8409 236.573 77.6016C234.432 77.5242 232.37 78.1302 230.474 76.712C229.314 75.8481 227.96 76.4412 226.748 76.9053C225.794 77.2663 224.93 77.795 223.834 77.5629C223.293 77.4469 223.215 77.7692 223.589 78.2204C222.236 78.6201 220.701 78.4912 219.786 79.8708C220.418 80.1544 220.611 80.6057 220.211 81.1601C220.431 81.4824 220.663 81.7531 220.792 82.0626C221.127 82.8491 221.527 83.4679 222.532 83.4292C222.764 83.4164 223.061 83.6613 223.228 83.8676C223.628 84.3447 224.066 84.3447 224.35 83.8676C224.698 83.3003 225.085 83.339 225.575 83.5324C226 83.7129 226.413 83.9321 226.838 84.061C227.161 84.1642 227.548 84.2415 227.87 84.177C228.579 84.0223 229.262 83.7258 229.971 83.584C230.693 83.4292 230.861 83.6613 230.681 84.3704C230.603 84.6799 230.436 85.0538 230.539 85.3116C230.887 86.2142 230.526 86.9362 230.126 87.684C229.881 88.1352 229.701 88.6252 229.443 89.0764C228.876 90.0692 228.914 91.0619 229.469 92.0031C229.817 92.6091 229.752 93.1506 229.636 93.7824C229.572 94.0918 229.675 94.5431 229.881 94.7752C230.797 95.884 231.815 96.9025 232.241 98.3337C232.279 98.4755 232.421 98.6044 232.55 98.6947C233.762 99.5069 234.316 100.693 234.536 102.098C234.6 102.485 234.832 102.872 235.051 103.22C235.967 104.651 237.024 106.005 237.798 107.514C238.507 108.867 238.945 110.376 239.422 111.846C239.615 112.426 239.899 112.671 240.454 112.542C241.421 112.323 242.413 112.142 243.342 111.781C245.095 111.085 246.81 110.273 248.55 109.499C248.692 109.435 248.834 109.331 248.924 109.215C249.556 108.313 250.484 107.926 251.49 107.617C252.109 107.423 252.779 107.256 253.256 106.869C254.455 105.902 255.835 105.064 256.415 103.517C256.428 103.465 256.48 103.426 256.505 103.375C258.065 100.938 258.607 101.338 255.629 99.7003C254.584 99.1201 253.759 98.4368 253.875 96.9928C253.501 97.328 253.218 97.5343 252.986 97.7921C252.006 98.8752 250.82 99.4296 249.337 99.378C248.847 99.3651 248.499 99.3264 248.46 98.7204C248.409 98.1403 248.254 97.5601 248.189 97.2119C247.609 96.8767 247.171 96.6962 246.836 96.3868C246.539 96.1031 246.41 95.6519 246.139 95.3296C245.469 94.5431 244.76 93.7953 244.051 92.9959C244.566 92.5575 244.979 92.2868 245.301 91.9258C245.804 91.3714 246.294 91.4101 246.771 91.8742C247.467 92.5575 248.086 93.3054 248.795 93.9758C249.492 94.6462 250.201 95.3296 251 95.8453C252.044 96.5415 253.127 96.0387 254.21 95.5616C254.455 95.9871 254.636 96.3739 254.881 96.722C255.061 96.967 255.306 97.2377 255.564 97.3151C257.421 97.8437 259.316 98.166 261.263 97.9211C262.178 97.805 263.094 97.7921 264.009 97.7277C265.105 97.6632 265.982 97.9984 266.704 98.888C267.439 99.8035 268.174 100.809 269.579 100.68C269.592 100.68 269.618 100.758 269.656 100.835C269.257 101.028 268.844 101.222 268.367 101.441C268.999 102.021 269.54 102.575 270.146 103.065C270.314 103.194 270.688 103.246 270.868 103.143C271.487 102.795 272.067 102.356 272.776 101.892C272.828 102.447 272.931 103.065 272.944 103.697C272.97 104.819 272.751 105.979 272.944 107.062C273.563 110.363 275.2 113.251 276.993 116.036C277.379 116.642 277.805 117.222 278.269 117.867C278.849 117.054 279.971 116.822 279.945 115.675C279.945 115.52 280.177 115.378 280.254 115.211C280.422 114.888 280.693 114.566 280.719 114.218C280.835 113.006 280.912 111.781 280.912 110.569C280.912 109.976 281.093 109.654 281.595 109.344C283.981 107.823 286.392 106.289 288.055 103.968C288.867 102.846 289.679 102.33 291.02 102.227C291.82 102.163 292.903 102.124 293.032 100.732C293.702 101.66 294.269 102.447 294.849 103.233C295.249 103.787 295.533 104.587 296.074 104.832C297.286 105.386 297.028 106.443 297.235 107.346C297.325 107.746 297.183 108.184 297.144 108.584C298.485 109.074 299.362 108.455 299.955 107.32C300.845 108.171 301.36 109.151 301.657 110.414C302.199 112.671 301.915 114.94 301.786 117.209C301.76 117.583 301.954 118.008 302.173 118.331C302.766 119.22 303.578 120.007 304.016 120.961C304.39 121.773 304.597 122.65 305.009 123.475C305.68 124.842 306.904 125.061 308.091 125.474C307.82 124.532 307.42 123.681 307.369 122.818C307.265 121.27 306.376 120.316 305.177 119.62C304.39 119.169 304.029 118.589 303.823 117.764C303.72 117.338 303.423 116.835 303.075 116.655C302.624 116.41 302.547 116.165 302.663 115.765C302.908 114.875 303.23 114.012 303.398 113.109C303.539 112.361 303.913 111.987 304.481 111.936C306.144 113.754 307.743 115.481 309.354 117.235C309.728 117.003 310.282 116.668 310.824 116.332C310.953 116.255 311.159 116.113 311.159 116.01C311.121 115.03 311.843 114.966 312.526 114.759C313.854 114.347 314.125 113.805 314.034 112.413C313.944 111.136 313.428 110.066 312.681 109.074C311.997 108.158 311.301 107.269 310.579 106.379C310.192 105.902 310.179 105.425 310.36 104.858C310.669 103.865 311.43 103.362 312.242 102.846C313.673 101.931 313.648 101.892 314.821 103.13C314.885 103.207 314.976 103.272 314.911 103.207C315.478 102.911 315.981 102.679 316.458 102.408C317.232 101.982 317.993 101.544 318.766 101.131C318.908 101.054 319.114 100.977 319.256 101.015C320.275 101.312 321.151 100.99 322.054 100.538C323.459 99.8421 324.4 98.6431 325.471 97.5859C325.561 97.4956 325.69 97.3409 325.664 97.2506C325.496 96.3481 326.205 95.9742 326.682 95.4456C327.031 95.0588 327.392 94.6849 327.662 94.2594C328.642 92.738 328.462 92.2739 326.85 91.8742C326.824 91.8613 326.811 91.8098 326.786 91.7711C327.92 91.1006 328.114 90.9459 327.624 89.6566C327.172 88.4704 326.386 87.4003 325.664 86.3302C325.406 85.9563 325.355 85.75 325.561 85.3503C326.141 84.177 327.031 83.5195 328.371 83.5324C328.836 83.5324 329.081 83.339 328.965 82.8491C327.778 82.7459 326.566 81.7789 325.548 83.0811C325.251 82.6814 325.097 82.256 324.8 82.1141C324.104 81.766 323.975 81.1858 323.898 80.6443C324.478 80.3736 325.032 80.1802 325.509 79.8837C326.193 79.4453 326.837 78.9425 327.482 78.4396C327.933 78.0786 328.307 78.0915 328.655 78.6072C328.41 79.2132 327.598 79.6774 328.152 80.4896C328.539 80.2962 328.939 80.077 329.364 79.8965C329.79 79.716 330.215 79.5097 330.666 79.4453C331.608 79.3164 332.433 79.6774 332.355 80.7088C332.33 81.0698 332.02 81.3921 331.827 81.7531C332.046 82.3462 332.484 82.5912 333.142 82.4494C333.632 82.3462 333.903 82.5525 333.967 83.0425C333.696 83.223 333.464 83.3906 333.413 83.4292C333.58 84.5767 333.722 85.5695 333.864 86.6009C334.135 86.4978 334.457 86.3689 334.779 86.2399C335.14 86.111 335.488 85.9692 335.849 85.866C336.804 85.5953 337.281 84.8475 336.958 83.9192C336.713 83.2358 336.326 82.617 336.004 81.9594C335.695 81.3277 335.36 80.7088 335.14 80.0513C335.076 79.8579 335.282 79.4969 335.476 79.3164C336.094 78.7233 336.804 78.2204 337.384 77.5887C338.003 76.9182 338.531 76.1447 339.086 75.4098C339.46 74.9069 340.014 74.8553 340.439 75.139C341.084 75.5645 341.638 75.4098 342.167 75.0487C342.863 74.5846 343.624 74.1462 344.153 73.5145C345.661 71.7094 347.195 69.9044 348.472 67.9189C349.722 65.9849 350.199 63.7415 350.006 61.395C349.851 59.5126 348.988 58.7261 346.46 59.1903C346.293 59.216 346.074 59.2676 345.945 59.1903C345.12 58.739 344.32 58.2491 343.482 57.7591C343.469 57.7849 343.534 57.6431 343.65 57.527C346.138 54.884 349 52.705 352.004 50.6937C352.172 50.5777 352.404 50.5003 352.61 50.5003C354.338 50.539 356.079 50.6163 357.806 50.6163C358.258 50.6163 358.696 50.423 359.147 50.294C359.482 50.2038 359.831 49.9459 360.127 50.0104C360.81 50.1651 361.455 50.4487 362.113 50.7195C362.19 50.7582 362.19 50.9903 362.242 51.1836C363.389 51.0547 364.549 50.9258 365.865 50.784C365.439 50.423 365.168 50.2038 364.833 49.9072C365.233 49.7009 365.542 49.4818 365.89 49.3786C367.347 48.966 368.804 48.5277 370.287 48.2182C371.383 47.9862 372.505 48.012 373.51 47.3673C374.297 46.8645 375.186 46.5292 376.063 46.1038C376.127 47.3415 375.638 48.0506 374.58 48.4632C374.297 48.5792 373.974 48.734 373.781 48.966C372.492 50.5519 370.919 51.8025 369.114 52.705C367.799 53.3626 367.244 54.4456 366.96 55.7478C366.406 58.4296 367.309 60.9179 367.979 63.561C369.139 62.3233 370.197 61.1758 371.267 60.0283C371.434 59.6415 371.563 58.8937 371.847 58.8292C373.394 58.4425 374.013 57.3208 374.464 55.9799C374.516 55.8123 374.606 55.606 374.748 55.5286C375.199 55.2837 375.238 55.1289 375.07 54.6777C374.916 54.278 374.89 53.8396 374.799 53.4142C374.941 53.2852 374.851 53.2337 374.748 53.1821C373.832 52.705 373.742 52.3698 374.335 51.5704C374.632 51.1579 374.916 50.7195 375.238 50.3198C375.483 50.0104 375.792 49.5075 376.05 49.5204C376.991 49.572 377.713 49.1465 378.448 48.6953C378.487 48.6695 378.551 48.6953 378.655 48.7082C378.68 48.9274 378.693 49.1465 378.732 49.4302C378.912 49.327 379.028 49.2626 379.132 49.1852C380.124 48.5406 381.13 48.128 382.29 48.85C382.497 48.9789 382.948 48.9145 383.18 48.7598C385.514 47.2255 387.95 45.9104 390.555 44.866C391.083 44.6597 391.496 44.5179 391.973 44.7887C392.579 45.1368 393.03 45.0337 393.353 44.4277C392.863 43.8862 392.166 43.4865 392.308 42.5711C392.334 42.4292 392.192 42.1843 392.063 42.1198C391.419 41.7846 390.748 41.5138 390.116 41.1786C389.949 41.0884 389.846 40.8434 389.73 40.6629C389.794 40.6113 389.859 40.5598 389.923 40.5082C390.452 40.7403 391.161 40.2374 391.573 40.9723C391.599 41.0239 391.78 40.9981 391.883 41.011C393.069 41.1013 394.126 40.1472 394.126 38.961C394.139 37.0915 394.126 35.222 394.075 33.3525C394.062 33.0689 393.843 32.6692 393.61 32.5403C390.529 30.8642 387.112 30.8255 383.734 30.6579C383.27 30.6321 383.012 31.2381 383.244 31.6635C383.438 32.0116 383.657 32.334 383.863 32.6692C382.974 33.1978 382.226 33.172 381.478 32.5403C380.421 31.6506 379.235 31.3025 377.842 31.6119C377.378 31.7151 376.811 31.7538 376.411 31.5733C375.663 31.2252 374.98 31.3799 374.284 31.5991C373.704 31.7796 373.162 32.0503 372.724 32.2308C372.401 31.8569 372.131 31.5217 371.834 31.1994C371.473 30.7868 371.009 30.4387 370.738 29.9745C370.454 29.4717 370.145 29.1752 369.552 29.1752C367.502 29.1752 365.439 29.1881 363.389 29.1365C362.938 29.1236 362.345 29.072 362.087 28.7884C361.481 28.1179 360.772 27.7827 359.934 27.6022C359.611 27.5248 359.302 27.4217 358.902 27.3057C359.212 27.0478 359.418 26.8673 359.624 26.6997C359.611 26.6223 359.599 26.545 359.586 26.4676C357.935 26.3516 356.298 26.2484 354.622 26.1324C354.725 25.9648 354.841 25.7843 354.97 25.5651C352.765 25.088 350.689 25.2557 348.627 25.8487C348.523 25.8745 348.369 25.939 348.33 26.0164C347.917 27.0607 347.363 27.4733 346.319 27.5635C345.274 27.6538 344.23 27.8214 343.173 27.8987C342.825 27.9245 342.412 27.9116 342.116 27.7569C340.62 27.0349 340.646 27.0349 339.537 28.2984C339.382 28.466 338.957 28.595 338.763 28.5047C336.932 27.628 335.127 26.7126 333.168 25.7198C334.019 25.2814 334.792 24.8818 335.643 24.4434C334.625 24.0824 333.671 23.6956 332.691 23.3862C330.538 22.7286 331.208 22.4579 329.699 24.3403C329.545 24.5336 329.313 24.8044 329.119 24.8044C327.907 24.7528 326.682 24.6497 325.471 24.5465C325.006 24.5079 324.671 24.3016 324.555 23.7987C324.504 23.6053 324.297 23.3088 324.143 23.3088C322.338 23.2314 320.468 22.5094 318.869 23.7601C318.482 23.4377 318.16 22.9478 317.748 22.8575C316.922 22.6641 316.059 22.6899 315.285 22.6384C315.117 22.8833 314.988 23.3088 314.756 23.3733C313.235 23.7987 311.688 24.1469 310.154 24.5337C310.115 24.4563 310.076 24.3789 310.025 24.3016C312.926 22.6384 315.839 20.988 318.779 19.3119C318.65 19.1443 318.508 18.9767 318.379 18.8091C318.586 18.4997 318.766 18.2418 318.972 17.9324C318.715 17.7519 318.521 17.5456 318.276 17.4682C316.987 17.0814 315.685 16.6818 314.37 16.3723C313.596 16.1918 312.797 16.05 312.036 16.6044C311.765 16.7978 311.275 16.6947 310.708 16.7462C311.056 16.2563 311.249 15.9855 311.507 15.6116C310.476 15.4956 309.548 15.4053 308.555 15.2893C308.722 14.8767 308.864 14.5157 309.083 14C308.361 14.0645 307.652 13.9226 307.24 14.2192C306.324 14.8509 305.061 15.1217 304.622 16.3594C304.597 16.4497 304.39 16.4626 304.274 16.5399C303.965 16.7462 303.681 16.9783 303.372 17.1588C303.049 17.3393 302.688 17.5843 302.34 17.5972C301.103 17.6359 299.852 17.5585 298.614 17.5843C296.074 17.6358 293.599 18.0097 291.265 19.0799C290.156 19.5956 289.151 20.266 288.442 21.2588C288.725 21.7616 288.97 22.2 289.202 22.6126C288.687 23.1283 288.184 22.8575 287.681 22.8704C285.554 22.9736 283.439 23.2959 281.286 23.5409C281.479 24.134 281.57 24.5981 281.776 24.9978C281.931 25.3201 282.188 25.6296 282.472 25.8487C283.078 26.3129 283.749 26.7126 284.367 27.1509C284.471 27.2283 284.522 27.4346 284.496 27.5764C284.419 28.3242 284.316 29.072 284.213 29.9745C284.006 29.678 283.903 29.5233 283.787 29.3557C283.594 29.5233 283.439 29.6522 283.284 29.7811C283.194 29.7425 283.104 29.7038 283.014 29.6651C283.233 28.9044 283.465 28.1566 283.697 27.3443C281.389 26.8028 279.055 26.0292 276.632 27.2928C277.018 27.512 277.431 27.7311 277.843 27.744C278.617 27.7698 278.836 28.2469 279.017 28.9431C278.501 28.8142 278.063 28.711 277.624 28.6079C276.967 28.4402 276.038 28.466 275.742 28.0406C275.42 27.5764 275.639 26.6997 275.677 26.0164C275.703 25.5264 275.548 25.2557 275.162 25.2299C274.659 26.0808 274.259 26.9318 273.705 27.6409C273.357 28.0792 273.318 28.4016 273.537 28.8528C273.86 29.5491 274.053 30.2066 273.653 31.006C273.305 31.6764 273.756 32.1019 274.504 32.2437C275.587 32.45 276.67 32.695 277.702 33.0947C278.501 33.4041 278.565 34.3711 277.895 34.861C277.702 34.5645 277.547 34.255 277.328 33.9843C277.186 33.8167 276.954 33.5975 276.786 33.6104C276 33.7264 275.213 33.9198 274.298 34.1132C274.981 35.0673 274.491 35.6217 273.834 36.1632C273.486 36.4597 273.189 36.8208 272.867 37.156C271.552 38.4582 270.249 38.5097 268.702 37.3236C268.78 37.2849 268.844 37.2333 268.909 37.2333C270.004 37.2849 271.139 37.4267 271.719 36.1374C271.745 36.073 271.861 36.0472 271.9 35.9827C272.274 35.4283 272.673 34.8739 272.996 34.2937C273.099 34.1132 273.06 33.6877 272.931 33.5588C271.822 32.566 272.145 31.3541 272.351 30.155C272.403 29.8327 272.441 29.3943 272.261 29.1623C271.526 28.234 271.719 27.3186 272.158 26.3645C272.312 26.0292 272.428 25.6811 272.596 25.2428C271.577 25.1267 270.662 25.0623 269.76 24.9076C268.96 24.7657 268.522 25.1267 268.109 25.7585C267.439 26.7899 266.691 27.7569 265.853 28.9173C265.995 29.4459 266.755 30.2453 265.776 31.006C266.278 31.3799 266.743 31.6506 267.116 32.0245C267.465 32.3726 267.722 32.8239 268.058 33.2881C267.31 34.2164 267.336 34.1519 266.175 33.533C264.886 32.8497 263.571 32.205 262.204 31.6893C261.108 31.2767 259.935 31.2252 258.749 31.6506C258.878 32.1792 258.981 32.6692 259.097 33.1333C258.491 33.4299 257.962 33.7006 257.614 33.8682C257.292 33.5975 257.034 33.2107 256.854 33.2494C255.268 33.5846 253.682 33.9972 252.096 34.3711C251.748 34.4484 251.361 34.4871 251.013 34.4355C250.936 34.4226 250.936 33.9198 250.91 33.6491C250.897 33.5459 250.936 33.4428 250.949 33.3138C250.536 33.4557 250.175 33.662 249.801 33.6877C247.454 33.9069 245.482 34.8481 243.922 36.6274C243.793 36.7692 243.561 36.9368 243.419 36.8981C242.697 36.7305 241.975 36.4855 241.111 36.2277C241.756 35.8538 242.246 35.5701 242.761 35.2607C241.227 33.7909 241.124 33.7393 240.028 33.894C239.938 34.4226 239.848 34.8997 239.783 35.3767C239.744 35.6475 239.641 36.0472 239.783 36.1761C240.557 36.9368 239.951 37.6588 239.886 38.4324C239.242 38.2261 238.636 37.8264 238.171 37.9425C237.282 38.1874 236.366 38.6258 235.67 39.2189C235.399 39.4509 235.67 40.3148 235.683 40.895C235.683 40.9723 235.644 41.0368 235.58 41.256C234.291 41.0626 233.001 40.8692 231.712 40.6887C231.673 40.7531 231.635 40.8047 231.596 40.8692C231.905 41.1657 232.228 41.4494 232.537 41.7459C232.679 41.8748 232.795 42.0296 232.924 42.1585C232.743 42.2616 232.524 42.4808 232.382 42.4421C231.635 42.2487 230.861 42.0811 230.165 41.7459C229.108 41.2302 228.811 40.3664 229.056 39.206C229.095 39.0126 228.914 38.6774 228.734 38.5226C228.115 37.9682 227.444 37.4783 226.787 36.9497C226.826 36.8852 226.864 36.8208 226.903 36.7563C229.559 37.8135 232.318 37.7362 235.09 37.6588C235.851 37.633 236.508 37.1431 236.56 36.4598C236.611 35.828 236.25 35.467 235.657 35.1962C232.756 33.9069 229.881 32.5789 227.006 31.238C226.477 30.9931 226.039 30.9544 225.51 31.238C224.621 31.7151 223.422 31.4057 222.674 30.5547C223.215 30.4774 223.718 30.4129 224.402 30.3226C224.105 30.0132 223.963 29.7553 223.757 29.6393C222.12 28.7626 220.379 28.6465 218.626 29.1752C217.207 29.6135 215.841 30.2582 214.422 30.6579C213.043 31.0447 212.166 32.6305 210.49 32.2308C210.438 32.2179 210.361 32.3211 210.31 32.3855C209.704 33.1462 208.698 33.6104 208.517 34.7192C208.504 34.7965 208.401 34.8868 208.324 34.9384C207.138 35.8667 205.965 36.7821 204.791 37.6975C204.92 37.9553 204.998 38.123 205.075 38.3035C204.456 38.845 203.515 39.1802 203.966 40.3664C203.205 40.8434 202.419 41.2689 201.723 41.8233C201.065 42.339 200.498 42.9708 199.918 43.5896C199.428 44.1182 198.964 44.6597 198.061 44.3116C198.1 44.5437 198.126 44.6855 198.113 44.634C197.61 44.9563 197.223 45.356 196.759 45.4591C195.624 45.7299 195.482 46.6453 195.534 47.4575C195.611 48.734 195.934 50.0104 196.204 51.261C196.449 52.3698 197.79 53.0016 198.783 52.4214C199.827 51.8154 200.769 51.0547 201.903 50.2553C202.741 52.3698 203.605 54.5745 204.521 56.8953C204.92 56.7921 205.694 56.805 205.823 56.5214C206.132 55.8252 206.635 55.9412 207.151 55.8638C207.344 55.838 207.666 55.7478 207.679 55.6447C207.911 54.3038 208.891 53.1176 208.569 51.7638C209.098 51.4028 209.6 51.0676 210.245 50.6292C209.768 50.5519 209.549 50.5132 209.304 50.4745C209.987 50.2682 210.632 50.062 211.496 49.8041C210.89 49.2368 210.542 48.7469 210.065 48.5019C209.343 48.128 209.123 47.5865 209.201 46.8516C209.278 46.0909 208.994 45.2141 209.781 44.6726C210.645 44.0796 211.521 43.4994 212.45 43.0223C213.327 42.5711 213.636 42.1585 213.559 41.1528C213.546 40.9852 213.597 40.766 213.7 40.6371C214.139 40.0827 214.577 39.5283 215.08 39.0384C215.26 38.8579 215.634 38.7031 215.866 38.7547C216.627 38.9352 217.401 39.1286 218.071 39.4896C218.29 39.6057 218.458 40.4179 218.303 40.5855C217.633 41.3204 216.833 41.9393 216.073 42.5969C215.647 42.9579 215.248 43.4607 214.745 43.6154C214.074 43.8346 213.855 44.2987 213.894 44.8274C213.984 45.9877 214.203 47.1223 214.384 48.2698C214.397 48.373 214.551 48.4761 214.654 48.5535C215.415 49.1852 216.434 49.2755 217.259 49.1981C218.123 49.1208 219.206 49.3399 219.902 48.4761C219.941 48.4374 220.057 48.4632 220.134 48.4503C220.753 48.4503 221.372 48.4503 222.004 48.4503C222.39 48.7597 222.803 49.1079 223.28 49.4818C222.571 49.9201 221.565 49.3528 221.462 50.5003C221.165 50.5261 220.869 50.5519 220.572 50.5648C219.489 50.6035 218.406 50.6035 217.336 50.6937C216.962 50.7324 216.614 51.0031 216.227 51.1836C216.563 51.6865 216.717 52.2022 217.027 52.3311C217.607 52.5761 217.504 52.9758 217.362 53.2981C217.143 53.7623 216.782 54.1619 216.434 54.6648C215.97 54.1362 215.673 53.8009 215.389 53.4657C213.932 54.033 213.391 54.7035 213.571 55.6833C213.907 57.5528 213.92 57.5657 212.205 58.3006C211.65 58.5456 211.057 59.0613 210.503 58.2362C210.438 58.133 210.129 58.1201 209.974 58.1717C208.633 58.623 207.138 58.6874 206.068 59.822C205.655 59.5384 205.243 59.3192 204.894 59.0226C204.495 58.6874 204.108 58.6101 203.644 58.8421C202.857 59.2547 202.238 59.461 201.362 58.6874C200.279 57.7204 200.085 56.9855 201.297 56.083C201.8 55.7091 201.71 55.2836 201.426 54.8969C201.117 54.4714 200.743 54.394 200.382 54.8969C200.317 54.9871 200.163 55 200.047 55.0387C199.144 55.2836 198.667 56.0959 198.976 56.9855C199.26 57.8107 199.621 58.623 199.995 59.5642C199.763 59.6544 199.505 59.8349 199.221 59.8736C198.306 60.0283 197.378 60.0928 196.475 60.2991C196.166 60.3635 195.934 60.7503 195.676 60.9824C195.341 61.1758 195.044 61.395 194.825 61.6657C194.425 62.1428 194.142 62.955 193.652 63.1097C192.221 63.561 191.382 64.6311 190.428 65.611C189.913 66.1525 189.294 66.2686 188.61 65.8431C188.378 65.7013 188.069 65.6755 187.747 65.5852C187.888 66.1525 188.004 66.578 188.108 66.9648C186.934 67.6223 185.387 66.4362 184.485 67.9576C184.91 68.1123 185.245 68.2283 185.568 68.3572C186.109 68.5764 186.754 68.7053 187.154 69.0792C188.095 69.9689 188.868 70.9874 188.353 72.4443C188.301 72.5862 188.365 72.7538 188.378 72.9214C188.469 73.8884 187.888 74.5846 186.921 74.5459C185.735 74.5072 184.536 74.3783 183.35 74.3525C181.945 74.3267 180.539 74.3783 179.263 75.3969C180.101 76.0673 179.908 76.7248 179.779 77.3695ZM243.857 71.6579C243.935 71.5289 244.076 71.4387 244.218 71.3613C245.16 70.8843 246.152 70.5104 247.029 69.9431C248.112 69.2469 249.105 69.595 250.123 69.9818C250.265 70.0333 250.368 70.433 250.343 70.6393C250.291 71.0777 250.123 71.516 250.007 71.9673C247.996 72.2509 247.996 72.2509 248.125 72.9214C247.854 73.0116 247.583 73.1019 247.326 73.1921C247.467 73.4371 247.596 73.6821 247.751 73.9141C247.854 74.0689 247.996 74.1978 248.125 74.3396C248.963 75.2421 250.149 75.9255 250.085 77.4469C250.291 77.1503 250.484 76.8538 250.871 76.2994C251.168 77.0214 251.387 77.55 251.606 78.0786C251.168 78.0786 250.729 78.0786 250.226 78.0786C250.046 78.4525 249.878 78.8909 250.639 79.2261C251.271 79.4969 251.155 79.961 250.459 80.2962C251.31 80.6572 251.464 81.2116 251.245 81.9208C251.219 81.9981 251.219 82.0755 251.219 82.1657C251.103 83.8676 251.052 83.9965 249.324 83.7516C248.177 83.584 247.068 83.0811 245.946 82.6943C245.469 82.5267 245.327 82.1786 245.533 81.6629C245.83 80.8893 246.036 80.077 246.333 79.2906C246.41 79.0972 246.707 79.0069 246.758 78.9682C245.985 77.9626 245.172 76.9569 244.425 75.9255C244.205 75.6289 244.154 75.2164 244.025 74.8682C243.806 74.2494 243.587 73.6305 243.367 73.0245C243.29 73.0245 243.226 73.0245 243.148 73.0245C243.38 72.5604 243.599 72.1091 243.857 71.6579ZM200.678 127.214C200.459 127.575 200.021 127.975 200.085 128.271C200.227 128.942 200.511 129.664 200.936 130.205C202.496 132.178 203.747 134.318 204.778 136.6C204.894 136.845 204.856 137.155 204.882 137.438C204.92 137.786 204.856 138.173 204.985 138.483C205.436 139.475 205.72 140.571 205.062 141.435C204.263 142.492 203.837 143.653 203.489 144.865C203.296 145.509 203.193 146.231 203.27 146.902C203.502 148.9 204.662 150.512 205.629 152.201C205.887 152.639 205.965 153.194 206.081 153.709C206.519 155.592 206.751 157.552 207.421 159.344C208.04 160.994 209.123 162.477 209.961 164.05C210.206 164.501 210.593 165.159 210.438 165.468C210.013 166.28 210.567 166.847 210.671 167.518C210.709 167.724 210.916 167.995 211.122 168.072C212.269 168.536 213.417 168.201 214.564 167.982C215.415 167.827 216.279 167.814 217.143 167.737C217.426 167.711 217.762 167.802 217.981 167.686C219.683 166.731 221.436 165.868 223.009 164.733C224.866 163.405 226.258 161.613 226.851 159.344C226.993 158.789 226.916 158.183 226.942 157.603C226.838 157.552 226.748 157.5 226.645 157.448C227.341 157.049 227.999 156.585 228.721 156.249C229.52 155.875 230.062 155.476 229.843 154.431C229.649 153.516 229.636 152.575 229.559 151.634C229.533 151.286 229.456 150.886 229.585 150.589C230.204 149.171 231.287 148.075 232.679 147.495C234.097 146.902 235 145.858 235.76 144.633C235.928 144.362 235.941 143.962 235.902 143.627C235.812 142.712 235.515 141.809 235.554 140.907C235.606 139.978 235.735 139.14 234.832 138.534C234.755 138.483 234.703 138.354 234.677 138.251C234.445 137.077 234.213 135.917 234.007 134.744C233.839 133.751 234.291 132.9 234.768 132.075C235.309 131.121 235.709 130.025 236.431 129.251C237.514 128.091 238.79 127.098 240.067 126.144C242.903 124.042 244.992 121.348 246.526 118.215C247.158 116.925 247.519 115.507 248.009 114.141C247.919 114.05 247.815 113.96 247.725 113.87C247.261 113.999 246.81 114.153 246.346 114.257C245.069 114.566 243.806 114.888 242.529 115.159C241.936 115.288 241.33 115.34 240.724 115.404C240.557 115.417 240.338 115.417 240.209 115.327C239.564 114.901 238.932 114.437 238.262 113.973C238.442 113.664 238.648 113.328 238.855 112.967C238.442 112.645 238.081 112.374 237.72 112.078C236.16 110.814 234.523 109.641 233.801 107.63C233.607 107.088 233.195 106.585 232.769 106.186C232.125 105.58 231.931 104.832 231.867 104.007C231.789 102.975 231.66 101.957 230.719 101.273C230.577 101.17 230.461 100.964 230.449 100.796C230.294 99.4425 229.546 98.3852 228.837 97.2893C228.27 96.4255 227.676 95.5745 227.225 94.6591C226.942 94.0789 226.877 93.3698 226.722 92.7252C226.813 92.6994 226.89 92.6607 226.98 92.6349C227.522 93.344 228.063 94.0403 228.669 94.8267C228.811 94.4013 228.888 94.1176 228.992 93.8469C229.623 92.1836 229.004 91.1522 227.238 90.8943C227.109 90.8815 226.967 90.8299 226.838 90.817C225.923 90.7654 224.879 90.4302 224.131 90.7525C223.048 91.2167 222.158 91.1909 221.14 90.7912C220.766 90.6494 220.34 90.5849 219.941 90.572C218.767 90.5462 217.71 90.1079 216.704 89.6437C215.841 89.2569 215.015 89.2053 214.126 89.1151C213.494 89.0635 213.21 89.2827 213.03 89.8758C212.875 90.3528 212.566 90.7912 212.334 91.2425C212.076 91.7453 211.715 91.9129 211.135 91.7066C210.245 91.3972 209.317 91.178 208.414 90.8686C208.131 90.7654 207.886 90.5333 207.628 90.3528C206.932 89.8887 206.287 89.3601 205.552 88.9862C204.508 88.4575 203.27 88.5607 202.226 87.8516C201.491 87.3487 201.233 87.1553 201.516 86.2786C201.826 85.3245 202.071 84.3318 202.303 83.4937C201.516 83.3261 200.885 83.0296 200.304 83.094C199.492 83.1714 198.719 83.3519 197.855 83.3777C194.528 83.4421 191.254 83.9836 188.121 85.2085C186.444 85.866 184.82 85.75 183.182 84.9119C183.002 85.1698 182.744 85.4019 182.654 85.6984C182.37 86.6912 181.648 87.2327 180.797 87.7098C179.972 88.1868 179.34 88.7799 179.031 89.7984C178.837 90.4431 178.605 90.9975 178.67 91.6937C178.696 92.016 178.502 92.4544 178.257 92.6865C177.368 93.5503 176.491 94.4786 175.472 95.1748C172.726 97.0701 171.411 99.8163 170.534 102.872C170.47 103.078 170.457 103.401 170.586 103.542C171.269 104.316 171.127 105.347 171.463 106.224C171.566 106.508 171.54 106.895 171.45 107.178C171.076 108.274 170.638 109.357 170.173 110.582C170.483 110.956 171.05 111.459 170.792 112.374C170.728 112.619 171.179 113.07 171.476 113.328C171.733 113.547 172.107 113.612 172.43 113.741C172.365 113.805 172.288 113.87 172.223 113.934C172.455 114.282 172.636 114.656 172.907 114.966C173.474 115.61 174.093 116.229 174.673 116.874C174.802 117.029 174.854 117.248 174.931 117.441C175.034 117.699 175.047 118.073 175.227 118.228C176.375 119.143 177.574 119.968 178.721 120.884C179.933 121.864 181.184 122.353 182.718 121.683C183.054 121.541 183.466 121.515 183.84 121.503C184.962 121.464 186.083 121.077 187.192 121.644C187.424 121.76 187.811 121.619 188.108 121.528C189.706 121.051 191.292 120.471 192.917 120.097C194.593 119.71 195.405 120.213 196.217 121.773C196.308 121.954 196.617 122.134 196.823 122.134C197.339 122.147 197.842 122.044 198.358 122.005C198.654 121.98 198.976 121.889 199.221 121.992C200.898 122.676 201.104 123.114 200.704 124.906C200.64 125.203 200.537 125.486 200.524 125.783C200.498 126.234 200.511 126.698 200.511 127.163C200.562 127.175 200.627 127.188 200.678 127.214ZM359.882 174.364C359.676 175.267 359.482 176.156 359.276 177.085C359.96 177.304 359.715 176.311 360.308 176.066C360.449 176.582 360.578 177.059 360.72 177.587C361.455 177.691 361.881 178.258 361.893 179.057C361.919 180.127 362.487 180.759 363.376 181.185C363.866 181.417 364.421 181.546 364.859 181.842C365.865 182.513 366.677 182.242 367.45 181.494C367.476 181.468 367.554 181.468 367.528 181.481C368.121 181.984 368.662 182.448 369.217 182.925C369.333 182.745 369.384 182.525 369.513 182.461C370.377 181.984 371.125 181.262 372.221 181.314C372.866 181.352 373.149 180.991 373.317 180.321C373.858 178.206 374.658 176.195 376.372 174.699C376.566 174.532 376.721 174.261 376.772 174.016C377.082 172.598 377.43 171.18 377.636 169.748C377.739 169.001 377.584 168.214 377.507 167.453C377.443 166.886 377.43 166.254 377.159 165.777C376.785 165.107 376.179 164.565 375.715 163.934C375.431 163.534 375.186 163.096 375.006 162.644C374.851 162.258 374.825 161.832 374.232 161.961C374.155 161.974 374.013 161.909 373.974 161.845C373.588 161.226 373.239 160.581 372.853 159.963C372.621 159.602 372.414 159.202 372.092 158.944C371.512 158.48 370.841 158.119 370.235 157.681C370.042 157.539 369.9 157.268 369.823 157.036C369.384 155.772 369.023 154.496 368.533 153.245C368.392 152.871 367.979 152.472 367.605 152.343C367.167 152.188 367.038 151.969 366.909 151.582C366.561 150.525 366.148 149.481 365.761 148.436C365.684 148.462 365.607 148.475 365.529 148.501C365.336 149.197 364.73 149.635 364.717 150.512C364.704 151.556 364.279 152.601 364.021 153.645C363.931 154.045 363.84 154.444 363.699 154.818C363.299 155.888 362.512 156.043 361.636 155.27C361.365 155.037 361.017 154.87 360.694 154.702C359.495 154.07 358.283 153.439 356.955 152.755C357.458 151.892 357.806 151.195 358.258 150.576C358.735 149.932 358.748 149.854 357.974 149.648C357.793 149.597 357.6 149.519 357.42 149.545C356.027 149.751 354.738 149.352 353.449 148.887C353.384 148.862 353.294 148.875 353.178 148.862C353.32 149.055 353.423 149.223 353.642 149.545C351.399 149.597 350.393 150.86 349.929 152.884C349.31 153.103 348.871 153.013 348.265 152.562C347.917 152.317 347.518 152.124 347.131 151.956C346.435 151.659 345.816 151.892 345.416 152.549C345.274 152.781 345.158 153.052 344.952 153.194C344.101 153.774 343.186 154.251 342.386 154.896C341.974 155.231 341.729 155.798 341.458 156.288C341.316 156.546 341.355 156.92 341.174 157.113C339.756 158.699 337.99 159.756 335.927 160.182C334.844 160.401 334.019 160.93 333.284 161.652C332.691 162.232 331.904 162.606 331.762 163.676C331.633 164.591 331.466 165.378 332.098 166.164C332.278 166.383 332.175 166.822 332.227 167.26C331.775 167.092 331.517 166.989 331.195 166.86C332.123 168.807 332.974 170.677 333.89 172.508C334.509 173.745 334.986 174.97 334.457 176.375C334.405 176.517 334.457 176.698 334.418 176.865C334.315 177.394 334.586 177.639 335.037 177.832C336.571 178.503 337.964 178.284 339.15 177.11C340.053 176.208 341.136 176.002 342.348 176.066C343.108 176.105 343.74 175.924 344.359 175.254C345.081 174.48 346.099 173.861 347.105 173.475C348.871 172.791 350.754 172.869 352.636 172.843C354.287 172.817 355.499 173.255 356.285 174.738C356.453 175.06 356.891 175.331 356.904 175.641C356.955 176.35 357.368 176.53 357.961 176.711C358.541 175.911 359.109 175.125 359.689 174.351C359.727 174.325 359.805 174.351 359.882 174.364ZM373.755 147.366C372.595 146.206 371.434 145.032 370.261 143.859C370.532 143.614 370.712 143.447 370.919 143.266C370.029 142.596 369.036 142.222 368.456 141.164C368.056 140.43 367.128 140.004 366.2 139.72C364.446 139.179 362.744 138.457 361.004 137.877C359.831 137.503 358.773 137.838 357.832 138.637C357.613 138.818 357.239 139.089 357.084 139.011C356.607 138.792 355.847 138.998 355.744 138.135C355.55 136.394 353.913 136.097 352.688 136.6C352.456 136.691 352.301 136.974 352.069 137.219C352.52 137.413 352.933 137.451 353.036 137.658C353.397 138.38 354.003 138.186 354.57 138.173C354.725 138.173 354.893 138.173 355.047 138.173C355.06 138.264 355.073 138.341 355.099 138.431C354.557 138.599 354.029 138.766 353.461 138.947C353.771 139.359 354.093 139.785 354.428 140.236C354.673 139.927 354.893 139.643 354.957 139.553C355.666 139.965 356.246 140.352 356.865 140.649C357.445 140.932 358.077 141.126 358.683 141.332C359.418 141.59 360.076 141.886 360.385 142.686C360.694 143.459 361.068 144.194 361.313 144.736C361.868 145.02 362.358 145.161 362.68 145.471C363.544 146.309 364.756 146.476 365.89 145.78C365.632 145.587 365.388 145.406 365.065 145.161C365.684 144.916 366.625 145.419 366.574 144.323C367.915 144.439 369.023 144.787 369.965 145.754C370.932 146.734 372.221 147.198 373.536 147.547C373.652 147.482 373.704 147.418 373.755 147.366ZM245.521 141.719C245.366 142.376 245.314 143.124 244.347 143.047C244.476 144.169 243.587 144.658 242.955 145.29C242.8 145.445 242.478 145.509 242.233 145.522C240.776 145.6 240.234 146.038 240.093 147.482C240.028 148.165 240.183 148.862 240.196 149.558C240.209 149.983 240.286 150.486 240.105 150.834C239.487 152.072 239.396 153.374 239.461 154.702C239.525 155.953 240.183 156.688 241.279 156.842C242.13 156.959 243.496 156.056 243.78 155.179C244.863 151.827 246.436 148.617 246.41 144.981C246.655 144.981 246.823 144.981 247.106 144.981C246.629 143.846 247.248 142.26 245.521 141.719ZM333.451 133.429C333.335 133.622 333.103 133.828 332.884 133.88C332.072 134.086 331.234 134.202 330.421 134.396C329.3 134.666 328.204 134.86 327.43 133.519C327.198 134.047 326.889 134.602 327.018 135.014C327.417 136.33 327.998 137.593 328.513 138.921C328.939 138.869 329.416 138.818 329.932 138.753C330.035 139.05 330.138 139.347 330.254 139.656C330.563 139.566 330.873 139.527 331.131 139.385C331.685 139.076 332.162 139.218 332.652 139.54C333.877 140.339 334.728 140.03 334.921 138.599C335.024 137.851 335.36 137.425 335.953 137.103C336.391 136.871 336.649 136.575 336.649 136.02C336.636 135.169 336.855 134.46 337.822 134.615C337.281 133.545 336.752 132.5 336.236 131.456C336.314 131.417 336.378 131.379 336.455 131.327C335.927 131.147 335.385 130.979 334.844 130.798C334.367 131.714 333.928 132.591 333.451 133.429ZM185.929 52.1377C185.271 52.1377 184.743 52.1377 184.188 52.1377C183.814 53.0274 183.402 53.9686 183.002 54.9226C182.976 54.9742 182.989 55.0258 182.976 55.1418C183.917 55.1676 183.144 55.967 183.543 56.328C183.724 56.2635 183.943 56.1733 184.291 56.0314C184.214 56.7406 184.149 57.3594 184.072 58.0041C184.678 58.0041 185.323 58.0041 185.929 58.0041C185.98 58.3135 185.929 58.6745 186.083 58.8421C186.728 59.5513 186.573 60.3506 185.658 60.6859C185.374 60.789 185.104 60.905 184.833 61.0082C185.142 61.6013 185.142 61.6013 183.879 62.723C184.859 62.839 185.684 62.9421 186.509 63.0324C186.599 63.1226 186.689 63.2129 186.78 63.3031C186.56 63.3934 186.316 63.5739 186.109 63.5481C184.743 63.3547 184.253 64.5022 183.466 65.2242C183.698 65.2629 183.917 65.2629 184.124 65.1855C185.22 64.773 186.277 64.3088 187.515 64.3346C188.456 64.3604 189.397 64.167 190.325 64.0123C190.622 63.9607 190.893 63.6899 191.344 63.4063C190.815 63.2645 190.544 63.1871 190.287 63.1226C190.222 63.0324 190.158 62.9421 190.093 62.839C190.583 62.5167 191.086 62.1814 191.718 61.7689C191.009 61.5626 190.596 61.4981 190.248 61.3176C190.003 61.1887 189.655 60.9179 189.655 60.7116C189.629 59.0355 188.03 58.262 187.502 56.8566C187.411 56.5987 186.883 56.4827 186.548 56.3409C186.29 56.2506 186.006 56.2377 185.568 56.1604C185.954 55.9928 186.174 55.9025 186.38 55.8123C186.315 55.7736 186.264 55.7478 186.199 55.7091C186.548 55.0645 186.883 54.4327 187.257 53.7365C186.47 53.6591 185.774 53.5947 184.897 53.5173C185.31 52.9629 185.606 52.5761 185.929 52.1377ZM312.861 131.327C313.132 131.508 313.39 131.765 313.57 132.049C315.878 135.556 318.147 139.076 321.461 141.783C322.015 142.235 322.531 142.441 323.214 142.209C323.279 141.912 323.395 141.616 323.369 141.332C323.317 140.455 323.459 139.437 323.072 138.741C322.441 137.632 321.512 136.665 320.558 135.788C318.534 133.919 316.42 132.139 314.318 130.36C313.97 130.064 313.467 129.909 313.016 129.754C312.565 129.599 312.075 129.548 311.533 129.432C311.636 130.36 312.178 130.876 312.861 131.327ZM344.514 84.6154C344.282 85.028 344.062 85.1569 343.56 85.1182C341.987 84.9893 340.555 85.4535 339.318 86.4204C339.15 86.5494 339.137 86.8846 339.06 87.1296C339.369 87.1038 339.692 87.1296 339.988 87.0393C340.194 86.9877 340.362 86.7041 340.568 86.6783C341.922 86.5365 343.431 85.9305 344.243 87.9805C344.978 86.227 346.267 85.9821 347.685 86.1626C348.046 85.8145 348.382 85.505 348.82 85.0925C348.871 85.4664 348.897 85.6598 348.923 85.866C349.323 85.5308 349.645 85.1569 349.748 84.7314C349.98 83.7516 349.838 82.6041 350.315 81.7918C351.205 80.2962 350.599 78.9682 350.303 77.5371C350.045 77.7563 349.929 78.2076 349.735 78.2333C349 78.3494 349 78.9167 348.859 79.4066C348.704 79.9739 348.498 80.5412 348.394 81.1214C348.137 82.5009 347.054 83.0425 345.906 83.7C345.88 83.3519 345.867 83.1198 345.829 82.6557C345.313 83.4163 344.875 83.9965 344.514 84.6154ZM399.825 188.701C399.348 187.979 400.005 187.683 400.354 187.231C400.689 186.806 400.934 186.303 401.14 185.981C400.354 185.555 399.773 185.246 399.232 184.949C398.729 185.633 398.239 186.484 397.582 187.18C396.898 187.902 396.06 188.469 395.312 189.14C394.655 189.733 394.036 190.377 393.391 190.996C393.172 191.203 392.914 191.357 392.708 191.564C392.618 191.654 392.527 191.834 392.553 191.95C392.579 192.066 392.747 192.182 392.876 192.221C393.443 192.363 394.01 192.479 394.577 192.595C394.81 192.647 395.067 192.75 395.274 192.672C395.802 192.479 396.447 192.324 396.782 191.937C397.208 191.46 397.401 190.764 397.633 190.145C397.71 189.952 397.594 189.681 397.556 189.359C398.291 189.153 399 188.946 399.825 188.701ZM178.67 61.8849C178.528 62.1557 178.451 62.4522 178.335 62.7358C178.644 62.8132 178.979 63.0324 179.25 62.955C180.114 62.723 180.939 62.4006 181.79 62.0912C182.589 61.8075 183.054 60.8663 182.731 60.0928C182.538 59.6157 182.473 59.2676 183.002 58.9324C183.144 58.8421 183.144 58.3651 183.054 58.1072C182.963 57.8623 182.693 57.5528 182.473 57.527C181.919 57.4497 181.326 57.4626 180.771 57.5399C180.526 57.5786 180.101 58.0041 180.127 58.0557C180.539 58.8292 179.933 58.8421 179.482 59.0484C179.018 59.2676 178.605 59.5899 178.167 59.8607C178.206 59.9381 178.244 60.0283 178.283 60.1057C178.67 60.2217 179.044 60.3377 179.443 60.4538C179.16 61.0082 178.889 61.4337 178.67 61.8849ZM403.719 180.759C403.293 180.385 402.958 179.818 402.249 179.818C402.133 179.818 401.965 179.483 401.901 179.264C401.514 177.948 400.495 177.201 399.438 176.466C399.889 177.291 400.392 178.077 400.998 178.774C402.043 179.986 402.133 180.94 401.346 182.268C401.205 182.5 401.243 183.144 401.398 183.222C401.978 183.518 402.055 183.995 402.146 184.55C402.21 184.936 402.416 185.285 402.649 185.865C403.267 184.808 404.35 184.331 404.376 183.106C404.376 182.964 404.673 182.77 404.866 182.68C405.962 182.203 406.065 181.945 405.588 180.785C404.969 181.043 404.363 181.339 403.719 180.759ZM349.606 76.0415C350.496 76.106 351.399 76.1704 352.288 76.222C352.533 76.2349 352.83 76.2607 353.01 76.1447C353.668 75.7192 354.287 75.2292 354.983 74.7135C354.97 74.4428 354.931 74.0173 354.905 73.5531C353.088 74.5588 352.456 72.7409 351.154 71.9931C351.089 72.367 350.96 72.7022 350.973 73.0374C350.986 73.7594 350.754 74.3009 350.109 74.6362C349.065 75.1648 348.704 76.338 349.31 77.3695C349.593 77.2019 349.877 77.0343 350.187 76.8538C349.954 76.6346 349.761 76.4541 349.568 76.2865C349.581 76.1833 349.593 76.106 349.606 76.0415ZM104.419 50.9645C104.728 50.784 105.192 50.7711 105.553 50.8355C105.811 50.8742 106.004 51.1965 106.249 51.3642C106.83 51.7767 107.655 51.7509 108.003 51.4415C107.358 50.9387 106.739 50.3843 106.03 49.933C105.27 49.4431 104.432 49.0563 103.632 48.6179C103.142 48.3601 102.639 48.1022 102.137 47.8443C101.582 48.9145 101.904 50.5261 100.68 51.5447C101.17 51.4802 101.66 51.4157 102.175 51.3642C102.278 51.6478 102.356 51.9057 102.498 52.3311C103.168 51.8283 103.761 51.3255 104.419 50.9645ZM368.791 188.186C369.384 189.165 370.687 189.127 371.073 188.121C371.421 187.219 372.027 186.174 371.086 185.117C370.003 185.607 368.933 185.323 367.76 184.679C367.734 186.084 368.198 187.206 368.791 188.186ZM332.974 144.839C332.265 144.607 331.505 144.581 331.195 144.194C330.679 143.537 330.086 143.511 329.416 143.485C328.797 143.459 328.165 143.537 327.546 143.472C327.031 143.421 326.489 143.305 326.038 143.06C324.697 142.325 324.143 142.351 323.008 143.408C323.304 143.485 323.653 143.485 323.872 143.653C324.865 144.388 325.973 144.542 327.172 144.414C327.572 144.375 327.985 144.426 328.384 144.491C329.919 144.749 331.453 145.032 333.026 145.316C333.013 145.174 332.987 144.929 332.974 144.839ZM338.815 90.8943C339.047 89.9016 339.266 88.9088 339.46 88.0708C338.428 87.2456 337.822 88.0192 336.842 88.3028C338.351 88.7025 338.028 89.6179 337.796 90.3528C338.106 90.5075 338.338 90.6236 338.57 90.7396C338.647 90.8041 338.725 90.8428 338.815 90.8943ZM204.327 82.2173C204.804 82.5783 205.255 82.978 205.758 83.2745C206.635 83.7903 206.854 83.6484 206.983 82.6428C207.009 82.4365 207.073 82.2431 207.138 81.9981C206.21 81.9981 205.333 81.9981 204.456 81.9981C204.417 82.0755 204.379 82.1399 204.327 82.2173ZM342.683 87.1811C341.6 86.5623 340.994 87.5679 340.13 87.9031C340.246 88.1481 340.349 88.3286 340.427 88.4962C341.277 88.1481 342.051 87.8387 342.825 87.5164C342.773 87.4003 342.721 87.2843 342.683 87.1811Z" fill="#F9E3CF"/>
<path d="M103.491 89.136V115.618C103.491 115.734 103.491 115.863 103.478 115.966C103.478 116.031 103.478 116.07 103.465 116.121C103.465 116.327 103.452 116.534 103.414 116.727C103.401 116.779 103.401 116.83 103.388 116.882C102.795 120.917 99.3135 124.025 95.0975 124.025H47.045C42.8289 124.025 39.322 120.917 38.7418 116.882C38.7289 116.83 38.7289 116.779 38.716 116.727C38.6902 116.534 38.6645 116.327 38.6645 116.121C38.6516 116.07 38.6516 116.031 38.6516 115.966C38.6387 115.863 38.6387 115.734 38.6387 115.618V89.136C38.6387 89.0199 38.6387 88.891 38.6516 88.775C38.6516 88.7234 38.6516 88.6718 38.6645 88.6203C38.6645 88.414 38.6773 88.2077 38.716 88.0143C38.7289 87.9498 38.7289 87.9111 38.7418 87.8596C39.3478 83.824 42.8418 80.7168 47.045 80.7168H95.0846C99.2877 80.7168 102.769 83.824 103.375 87.8596C103.388 87.9111 103.388 87.9498 103.401 88.0143C103.426 88.2077 103.452 88.414 103.452 88.6203C103.465 88.6718 103.465 88.7234 103.465 88.775C103.491 88.891 103.491 89.007 103.491 89.136Z" fill="url(#paint7_linear_1514_6622)"/>
<path d="M103.491 102.738V101.977H85.4148V88.7621H103.478C103.478 88.7105 103.478 88.6589 103.465 88.6074C103.465 88.4011 103.452 88.1948 103.414 88.0014H93.6406V80.7168H92.8799V88.0143H49.2626V80.7168H48.5019V88.0143H38.716C38.6902 88.2077 38.6645 88.414 38.6645 88.6203C38.6516 88.6718 38.6516 88.7234 38.6516 88.775H56.7148V101.99H38.6387V102.751H56.7148V115.979H38.6516C38.6516 116.044 38.6516 116.083 38.6645 116.134C38.6645 116.34 38.6773 116.547 38.716 116.74H48.5019V124.038H49.2626V116.74H92.8799V124.038H93.6406V116.74H103.414C103.439 116.547 103.465 116.34 103.465 116.134C103.478 116.083 103.478 116.044 103.478 115.979H85.4148V102.751H103.491V102.738ZM84.6412 115.954H57.4755V88.7621H84.6541V115.954H84.6412Z" fill="#704C1B"/>
</g>
<defs>
<linearGradient id="paint0_linear_1514_6622" x1="447.378" y1="250.665" x2="-44.7243" y2="-0.798604" gradientUnits="userSpaceOnUse">
<stop stop-color="#F98821"/>
<stop offset="1" stop-color="#FFB42E"/>
</linearGradient>
<linearGradient id="paint1_linear_1514_6622" x1="204.5" y1="0" x2="204.5" y2="251" gradientUnits="userSpaceOnUse">
<stop stop-color="#E37048"/>
<stop offset="1" stop-color="#FF4F11"/>
</linearGradient>
<linearGradient id="paint2_linear_1514_6622" x1="166.143" y1="43.4353" x2="224.344" y2="244.496" gradientUnits="userSpaceOnUse">
<stop stop-color="white"/>
<stop offset="1" stop-color="white" stop-opacity="0"/>
</linearGradient>
<linearGradient id="paint3_linear_1514_6622" x1="314.982" y1="356.089" x2="215.422" y2="210.35" gradientUnits="userSpaceOnUse">
<stop stop-color="white"/>
<stop offset="1" stop-color="white" stop-opacity="0"/>
</linearGradient>
<linearGradient id="paint4_linear_1514_6622" x1="184.158" y1="-0.934139" x2="257.228" y2="268.634" gradientUnits="userSpaceOnUse">
<stop stop-color="white"/>
<stop offset="1" stop-color="white" stop-opacity="0"/>
</linearGradient>
<linearGradient id="paint5_linear_1514_6622" x1="247.981" y1="235.977" x2="289.181" y2="337.352" gradientUnits="userSpaceOnUse">
<stop stop-color="white"/>
<stop offset="1" stop-color="white" stop-opacity="0"/>
</linearGradient>
<linearGradient id="paint6_linear_1514_6622" x1="143.508" y1="213.874" x2="132.453" y2="115.61" gradientUnits="userSpaceOnUse">
<stop stop-color="white"/>
<stop offset="1" stop-color="white" stop-opacity="0"/>
</linearGradient>
<linearGradient id="paint7_linear_1514_6622" x1="14.9757" y1="101.648" x2="145.695" y2="103.318" gradientUnits="userSpaceOnUse">
<stop offset="0.00350899" stop-color="#E48C36"/>
<stop offset="0.2648" stop-color="#A98045"/>
<stop offset="0.4664" stop-color="#E3CF8A"/>
<stop offset="0.7368" stop-color="#7E4C1A"/>
<stop offset="1" stop-color="#ECB55F"/>
</linearGradient>
</defs>
</svg>
