<svg width="25" height="34" viewBox="0 0 25 34" fill="none" xmlns="http://www.w3.org/2000/svg">
<path d="M12.9785 33.0789C12.9785 31.8076 12.9794 30.5354 12.9777 29.2641C12.9777 29.1208 12.9664 29.0016 13.159 28.9497C15.2491 28.3849 16.4884 27.0221 16.9254 24.9165C16.9315 24.8862 16.9436 24.8569 16.979 24.748C18.2719 24.8059 19.6054 24.7342 20.8896 24.9536C22.6947 25.2619 23.9712 26.9219 24.0005 28.7485C24.0238 30.1917 23.9988 31.6357 23.9953 33.0798C20.3222 33.0789 16.6508 33.0789 12.9785 33.0789Z" fill="white"/>
<path d="M0.0191674 33.0794C0.0200311 31.5386 -0.0335164 29.9961 0.0347126 28.4579C0.11676 26.6089 1.70416 25.018 3.66208 24.8401C4.78483 24.7382 5.92487 24.8219 7.0718 24.8219C7.25144 25.9317 7.72646 26.8895 8.53139 27.6763C9.16186 28.2921 9.90547 28.7179 10.7605 28.9286C10.9885 28.9848 11.042 29.0763 11.0403 29.2966C11.03 30.5575 11.0351 31.8184 11.0351 33.0794C7.36286 33.0794 3.69144 33.0794 0.0191674 33.0794Z" fill="white"/>
<path d="M19.0679 11.8166C19.0679 13.271 19.118 14.7272 19.0575 16.179C18.9375 19.0722 17.1091 21.5026 14.4447 22.4146C11.6033 23.3862 8.49328 22.6046 6.61827 20.4221C5.4437 19.0549 4.93846 17.4287 4.92464 15.653C4.90391 12.9817 4.91341 10.3095 4.92119 7.63738C4.92637 5.99816 6.373 5.07577 7.88526 5.72006C8.79556 6.10784 9.69808 6.5319 10.6395 6.8264C11.8555 7.20728 13.075 7.04664 14.2444 6.55349C14.8895 6.28144 15.5243 5.98434 16.1677 5.7071C17.6247 5.07836 19.0705 6.00075 19.0886 7.58383C19.1042 8.99505 19.0921 10.4063 19.0921 11.8175C19.0835 11.8166 19.0757 11.8166 19.0679 11.8166ZM8.99679 17.059C9.03825 18.1844 9.51153 19.0489 10.4607 19.6103C11.5308 20.2425 12.6302 20.2157 13.67 19.5369C14.5449 18.9651 14.9845 18.1274 15.0096 17.0677C14.3411 17.0677 13.7115 17.0677 13.0879 17.0677C12.9394 17.7413 12.6406 18.0488 12.112 18.0902C11.4962 18.1386 11.1965 17.8847 10.8951 17.0599C10.2733 17.059 9.65144 17.059 8.99679 17.059ZM7.63221 13.8626C8.28859 13.8626 8.9087 13.8626 9.53226 13.8626C9.53226 13.2166 9.53226 12.5913 9.53226 11.9634C8.88624 11.9634 8.26786 11.9634 7.63221 11.9634C7.63221 12.6026 7.63221 13.2209 7.63221 13.8626ZM14.4724 11.96C14.4724 12.6034 14.4724 13.2287 14.4724 13.854C15.121 13.854 15.748 13.854 16.3716 13.854C16.3716 13.2071 16.3716 12.5896 16.3716 11.96C15.7299 11.96 15.1098 11.96 14.4724 11.96Z" fill="white"/>
<path d="M19.0768 4.0911C18.2762 3.661 17.4721 3.47618 16.6266 3.59536C16.2259 3.6515 15.8243 3.76378 15.4477 3.91146C14.7758 4.17488 14.1255 4.49184 13.4613 4.77426C12.4646 5.19745 11.4671 5.17759 10.4765 4.74576C9.89353 4.49184 9.3097 4.23965 8.73278 3.97365C7.50811 3.40795 6.2938 3.41659 5.08468 4.01769C5.04755 4.03583 5.00695 4.04619 4.88086 4.09197C4.96377 3.71541 4.99832 3.38377 5.11059 3.08149C5.50183 2.02523 6.26271 1.35244 7.35438 1.08212C8.84073 0.715063 10.3323 0.373055 11.8229 0.0250003C11.9335 -0.000909424 12.0596 -0.0104096 12.1675 0.0146365C13.6686 0.365282 15.1714 0.709882 16.6663 1.08385C18.0309 1.42499 19.012 2.58316 19.0751 3.87605C19.0785 3.92874 19.0768 3.98142 19.0768 4.0911Z" fill="white"/>
<path d="M9.07812 24.8135C11.0378 24.8135 12.9784 24.8135 14.9199 24.8135C14.8387 25.9587 13.5173 27.078 12.1838 27.1419C10.694 27.2127 9.30786 26.1876 9.07812 24.8135Z" fill="white"/>
<path d="M2.9574 10.4038C2.9574 12.2494 2.9574 14.0942 2.9574 15.9381C1.83637 15.9304 0.731754 14.6185 0.685116 13.2487C0.637615 11.8599 1.70855 10.5083 2.9574 10.4038Z" fill="white"/>
<path d="M21.0625 10.4019C22.2854 10.5184 23.3149 11.7759 23.3296 13.1535C23.3443 14.5258 22.3295 15.7937 21.0625 15.956C21.0625 14.1035 21.0625 12.2535 21.0625 10.4019Z" fill="white"/>
</svg>
