<svg width="50" height="48" viewBox="0 0 50 48" fill="none" xmlns="http://www.w3.org/2000/svg">
<path fill-rule="evenodd" clip-rule="evenodd" d="M24.2678 10.602C25.2441 11.5318 25.2441 13.0394 24.2678 13.9692L13.5355 24.1904L24.2678 34.4115C25.2441 35.3414 25.2441 36.8489 24.2678 37.7787C23.2915 38.7085 21.7085 38.7085 20.7322 37.7787L8.23223 25.8739C7.25592 24.9441 7.25592 23.4366 8.23223 22.5068L20.7322 10.602C21.7085 9.67219 23.2915 9.67219 24.2678 10.602Z" fill="white"/>
<path fill-rule="evenodd" clip-rule="evenodd" d="M39.2678 10.602C40.2441 11.5318 40.2441 13.0394 39.2678 13.9692L28.5355 24.1904L39.2678 34.4115C40.2441 35.3414 40.2441 36.8489 39.2678 37.7787C38.2915 38.7085 36.7085 38.7085 35.7322 37.7787L23.2322 25.8739C22.2559 24.9441 22.2559 23.4366 23.2322 22.5068L35.7322 10.602C36.7085 9.67219 38.2915 9.67219 39.2678 10.602Z" fill="white"/>
</svg>
