<svg width="78" height="78" viewBox="0 0 78 78" fill="none" xmlns="http://www.w3.org/2000/svg">
<path d="M15.6072 7.75394C15.6072 6.48635 15.6072 5.30327 15.6072 4.14131C15.6283 1.75402 17.2128 0.0427856 19.4099 0.0216591C21.6916 -0.0205938 23.3395 1.66952 23.3817 4.07794C23.4028 5.26102 23.3817 6.4441 23.3817 7.69056C33.7548 7.69056 44.0645 7.69056 54.4588 7.69056C54.4588 6.38072 54.4165 5.11314 54.4588 3.86668C54.5221 2.09205 55.5362 0.739951 57.1207 0.21179C58.6418 -0.295246 60.3742 0.106161 61.2826 1.43713C61.7685 2.1343 62.0854 3.06387 62.191 3.93005C62.3389 5.15539 62.2333 6.40185 62.2333 7.77507C63.5431 7.77507 64.7685 7.75394 65.9938 7.77507C69.9444 7.83845 73.1768 9.4018 75.543 12.5919C76.9373 14.4722 77.7401 16.5848 77.7401 18.9298C77.7612 26.8945 77.7824 34.8381 77.7401 42.8028C77.7401 45.1055 76.0711 46.6478 73.6627 46.6689C70.6839 46.69 67.7051 46.6689 64.7262 46.6689C60.0784 46.6689 55.4306 46.6478 50.7827 46.6689C42.6913 46.7111 36.4379 52.035 35.1492 60.0208C35.0013 60.887 35.0013 61.7743 35.0013 62.6616C34.9801 66.2531 35.0013 69.8235 35.0013 73.415C35.0013 76.2037 33.4379 77.7459 30.6492 77.7459C24.4169 77.7459 18.2057 77.7671 11.9734 77.7459C5.04395 77.7248 0.0158448 72.7178 0.0158448 65.8095C-0.00528162 50.4505 -0.00528162 35.0916 0.0158448 19.7115C0.0158448 12.8243 5.08618 7.79619 12.0157 7.77507C13.1987 7.75394 14.3607 7.75394 15.6072 7.75394Z" fill="white"/>
<path d="M49.025 66.1061C47.2927 64.3948 45.6448 62.7681 44.0392 61.1413C42.4758 59.5357 42.3913 57.2963 43.8068 55.733C45.2223 54.1696 47.5884 53.895 49.1095 55.3316C51.9616 58.0358 54.7503 60.8456 57.4756 63.6976C58.7855 65.092 58.6798 67.2891 57.3277 68.6835C54.6869 71.4088 52.0038 74.0919 49.2785 76.7327C47.7786 78.1904 45.3913 78.0848 43.9335 76.627C42.4336 75.1271 42.3702 72.7609 43.8702 71.2187C45.5392 69.5074 47.2504 67.8596 49.025 66.1061Z" fill="white"/>
<path d="M68.4409 66.0849C66.7086 64.3525 65.0396 62.7258 63.4128 61.0568C62.2931 59.916 61.9551 58.5427 62.4832 57.0428C63.0114 55.5428 64.1311 54.6555 65.7156 54.4653C66.8987 54.3174 67.955 54.6555 68.8001 55.5005C71.462 58.1202 74.1028 60.7399 76.7225 63.4229C78.2436 64.9863 78.2225 67.268 76.6802 68.8313C74.1239 71.451 71.5254 74.0496 68.8846 76.627C67.3001 78.1692 64.9128 78.1481 63.4128 76.627C61.8706 75.0848 61.8706 72.7186 63.4551 71.0919C65.0607 69.4229 66.7086 67.8173 68.4409 66.0849Z" fill="white"/>
</svg>
