<svg width="348" height="222" viewBox="0 0 348 222" fill="none" xmlns="http://www.w3.org/2000/svg">
<path d="M60.891 1.71094H57.1602V81.9426H60.891V1.71094Z" fill="#E0E0E0"/>
<path d="M3.03027 2.38616V81.9968C3.03027 82.0282 3.05636 82.049 3.08245 82.049H56.5354C56.5667 82.049 56.5876 82.0229 56.5876 81.9968V2.38616C56.5876 2.35486 56.5615 2.33398 56.5354 2.33398H3.08245C3.05115 2.33398 3.03027 2.35486 3.03027 2.38616Z" fill="#F5F5F5"/>
<path d="M57.1591 82.675H2.46429C2.43298 82.675 2.41211 82.6489 2.41211 82.6228V1.76507C2.41211 1.73376 2.4382 1.71289 2.46429 1.71289H57.1591C57.1904 1.71289 57.2113 1.73898 57.2113 1.76507V82.6176C57.2165 82.6489 57.1904 82.675 57.1591 82.675ZM3.70617 81.4331H55.9173C55.9486 81.4331 55.9694 81.4071 55.9694 81.381V3.00695C55.9694 2.97564 55.9433 2.95477 55.9173 2.95477H3.70617C3.67486 2.95477 3.65399 2.98086 3.65399 3.00695V81.381C3.65399 81.4071 3.67486 81.4331 3.70617 81.4331Z" fill="#EBEBEB"/>
<path d="M8.41895 7.30316V77.0258C8.41895 77.0571 8.44503 77.0779 8.47112 77.0779H51.2324C51.2638 77.0779 51.2846 77.0519 51.2846 77.0258V7.30316C51.2846 7.27185 51.2585 7.25098 51.2324 7.25098H8.47634C8.44504 7.25098 8.41895 7.27707 8.41895 7.30316Z" fill="white"/>
<path d="M41.8123 55.2601H17.8096C17.7888 55.2601 17.7783 55.2445 17.7783 55.2288V27.0831C17.7783 27.0622 17.794 27.0518 17.8096 27.0518H41.8123C41.8332 27.0518 41.8436 27.0674 41.8436 27.0831V55.2288C41.8489 55.2445 41.8332 55.2601 41.8123 55.2601Z" fill="#EBEBEB"/>
<path d="M39.9445 51.8025C39.9758 51.8912 38.7861 52.413 36.5267 52.1469C35.4153 51.9956 34.0273 51.5938 32.6863 50.6128C31.3713 49.6266 30.1242 48.0403 29.7016 45.9166C29.2633 43.8086 29.9677 41.1839 31.987 39.4985C32.488 39.0811 33.0724 38.7262 33.7194 38.4862C34.4082 38.2305 35.1491 38.1471 35.8849 38.2358C36.6154 38.3245 37.3929 38.5801 38.0503 39.1802C38.713 39.7803 39.0783 40.7978 38.9061 41.7005C38.7495 42.6136 38.2538 43.3128 37.7164 43.866C37.1633 44.4295 36.5423 44.8469 35.9005 45.2018C34.6065 45.9166 33.1246 46.3654 31.5748 46.4384C30.0303 46.5115 28.3971 46.1932 26.9621 45.3896C25.5428 44.5913 24.3271 43.3859 23.5705 41.8727C22.8034 40.3804 22.5582 38.5697 22.96 36.9469C23.3513 35.3346 24.2697 33.8892 25.5585 32.8873C26.2055 32.3864 26.9361 32.0159 27.7344 31.7863C28.538 31.5776 29.3676 31.5411 30.1868 31.7081C30.9956 31.8803 31.8201 32.2768 32.4097 32.9604C33.0046 33.6387 33.2759 34.531 33.2811 35.3346C33.2915 36.1434 33.0724 36.9365 32.7019 37.5992C32.3367 38.2619 31.8462 38.7993 31.3296 39.248C30.286 40.1299 29.1172 40.7091 27.917 41.0587C26.7169 41.4031 25.4854 41.4918 24.3271 41.3352C23.1739 41.1735 22.0833 40.7456 21.2067 40.1403C19.4326 38.935 18.4099 37.1087 18.2272 35.4181C18.0237 33.6961 18.6551 32.2873 19.3335 31.3689C20.0274 30.4349 20.8258 29.9548 21.3789 29.7357C21.9424 29.5217 22.2607 29.5322 22.2764 29.5844C22.3025 29.6626 22.0207 29.7826 21.5668 30.0905C21.118 30.3984 20.4866 30.9254 19.9753 31.7968C19.4743 32.6525 19.0621 33.8996 19.323 35.2563C19.563 36.6078 20.4866 38.0583 21.9738 38.9715C23.4296 39.9003 25.4802 40.1351 27.4422 39.4933C28.418 39.1802 29.3885 38.6532 30.1764 37.9436C30.9643 37.2391 31.5018 36.3312 31.4548 35.3763C31.4287 34.4214 30.8287 33.7535 29.8059 33.5552C29.3102 33.4561 28.7519 33.4874 28.2301 33.6283C27.7187 33.7848 27.1969 34.0457 26.743 34.4058C25.8351 35.1206 25.1463 36.206 24.8697 37.3904C24.5827 38.5749 24.7549 39.8272 25.3289 40.97C25.8925 42.1075 26.8369 43.052 27.917 43.6625C28.9919 44.2782 30.2495 44.5391 31.4809 44.4921C32.7176 44.4504 33.9281 44.1008 34.9874 43.532C35.5196 43.245 36.0153 42.9163 36.3858 42.5458C36.7667 42.1753 37.0328 41.7475 37.0955 41.3874C37.1633 41.0222 37.0537 40.7091 36.8085 40.4586C36.5528 40.2029 36.1145 40.0099 35.6501 39.9473C35.1857 39.8742 34.7056 39.9212 34.283 40.0621C33.8238 40.2186 33.3907 40.4586 33.0098 40.7613C32.2479 41.3613 31.674 42.1806 31.3505 43.0467C31.0217 43.9129 30.9487 44.8156 31.0687 45.6714C31.3244 47.3933 32.2949 48.8178 33.3646 49.7362C34.4552 50.6598 35.6605 51.1346 36.6624 51.3798C38.7026 51.8651 39.9288 51.6303 39.9445 51.8025Z" fill="#E0E0E0"/>
<path d="M340.273 8.26172H297.663V52.6824H340.273V8.26172Z" fill="#E0E0E0"/>
<path d="M337.381 8.26074H294.771V52.6814H337.381V8.26074Z" fill="#FAFAFA"/>
<path d="M337.4 52.6889H294.764V8.24219H337.4V52.6889ZM294.79 52.6576H337.374V8.26828H294.79V52.6576Z" fill="#E0E0E0"/>
<path d="M331.663 14.2324H300.507V46.7091H331.663V14.2324Z" fill="white"/>
<path d="M300.504 46.9193C300.53 46.9506 300.232 47.2898 299.737 47.8116C299.241 48.3386 298.542 49.0482 297.754 49.8205C296.971 50.5928 296.251 51.2815 295.719 51.7668C295.187 52.2573 294.847 52.5443 294.816 52.5182C294.79 52.4921 295.082 52.1529 295.583 51.6259C296.079 51.0989 296.783 50.3893 297.566 49.6118C298.354 48.8395 299.074 48.1508 299.606 47.6603C300.138 47.175 300.478 46.888 300.504 46.9193Z" fill="#E0E0E0"/>
<path d="M331.653 46.8444C331.684 46.8183 332.023 47.1157 332.545 47.6114C333.072 48.1071 333.782 48.8063 334.554 49.5942C335.326 50.3769 336.015 51.097 336.5 51.6293C336.991 52.1615 337.278 52.5007 337.252 52.532C337.226 52.558 336.886 52.2658 336.359 51.7649C335.832 51.2692 335.123 50.5648 334.345 49.7821C333.573 48.9942 332.884 48.2741 332.394 47.7419C331.908 47.2096 331.621 46.8652 331.653 46.8444Z" fill="#E0E0E0"/>
<path d="M331.569 14.3066C331.543 14.2753 331.84 13.9361 332.336 13.4143C332.832 12.8873 333.531 12.1776 334.319 11.4054C335.102 10.6331 335.822 9.94436 336.354 9.45908C336.886 8.96859 337.225 8.6816 337.257 8.70769C337.283 8.73378 336.99 9.07295 336.49 9.59997C335.994 10.127 335.289 10.8366 334.507 11.6141C333.719 12.3864 332.999 13.0751 332.466 13.5656C331.934 14.0509 331.595 14.3379 331.569 14.3066Z" fill="#E0E0E0"/>
<path d="M300.42 14.3914C300.389 14.4174 300.049 14.12 299.528 13.6243C299.001 13.1286 298.291 12.4294 297.519 11.6415C296.746 10.8588 296.058 10.1387 295.572 9.60647C295.082 9.07424 294.795 8.73507 294.821 8.70376C294.847 8.67767 295.186 8.96988 295.713 9.4708C296.24 9.96651 296.95 10.6709 297.727 11.4536C298.5 12.2416 299.188 12.9616 299.679 13.4939C300.159 14.0261 300.446 14.3653 300.42 14.3914Z" fill="#E0E0E0"/>
<path d="M331.575 46.7129C331.575 46.7129 331.57 46.6555 331.57 46.5564C331.57 46.4468 331.564 46.2955 331.564 46.1024C331.559 45.6954 331.554 45.111 331.549 44.3492C331.544 42.8099 331.533 40.5714 331.518 37.7328C331.502 32.0452 331.481 23.9417 331.455 14.2415L331.575 14.3615C322.506 14.3667 311.856 14.3719 300.507 14.3771H300.502L300.638 14.2415C300.632 26.1593 300.622 37.3154 300.617 46.7182L300.497 46.5981C309.806 46.6242 317.559 46.6451 322.991 46.6608C325.705 46.6764 327.844 46.6869 329.31 46.6921C330.036 46.6973 330.594 46.7025 330.98 46.7077C331.163 46.7129 331.304 46.7129 331.413 46.7129C331.523 46.7077 331.575 46.7077 331.575 46.7129C331.575 46.7129 331.533 46.7182 331.439 46.7182C331.335 46.7182 331.199 46.7234 331.022 46.7234C330.641 46.7286 330.088 46.7286 329.373 46.739C327.912 46.7443 325.783 46.7547 323.08 46.7703C317.627 46.786 309.847 46.8069 300.507 46.833H300.387V46.7129C300.382 37.3101 300.377 26.1541 300.366 14.2363V14.1006H300.502H300.507C311.851 14.1058 322.506 14.111 331.575 14.1162H331.695V14.2363C331.669 23.973 331.648 32.1026 331.632 37.8059C331.617 40.634 331.606 42.8673 331.601 44.3962C331.596 45.1475 331.591 45.7267 331.585 46.1285C331.58 46.3164 331.58 46.4625 331.58 46.5668C331.58 46.666 331.58 46.7129 331.575 46.7129Z" fill="#E0E0E0"/>
<path d="M321.279 25.2666H310.885V35.6608H321.279V25.2666Z" fill="#EBEBEB"/>
<path d="M340.273 68.208H297.663V112.629H340.273V68.208Z" fill="#E0E0E0"/>
<path d="M337.386 68.21H294.776V112.631H337.386V68.21Z" fill="#FAFAFA"/>
<path d="M337.4 112.639H294.764V68.1924H337.4V112.639ZM294.79 112.613H337.374V68.2185H294.79V112.613Z" fill="#E0E0E0"/>
<path d="M331.661 74.1846H300.505V106.661H331.661V74.1846Z" fill="white"/>
<path d="M300.504 106.865C300.53 106.896 300.232 107.235 299.737 107.757C299.241 108.284 298.542 108.994 297.754 109.766C296.971 110.538 296.251 111.227 295.719 111.712C295.187 112.203 294.847 112.49 294.816 112.464C294.79 112.438 295.082 112.099 295.583 111.572C296.079 111.045 296.783 110.335 297.566 109.557C298.354 108.785 299.074 108.091 299.606 107.606C300.138 107.126 300.478 106.839 300.504 106.865Z" fill="#E0E0E0"/>
<path d="M331.653 106.795C331.684 106.768 332.023 107.066 332.545 107.562C333.072 108.057 333.782 108.757 334.554 109.544C335.326 110.327 336.015 111.047 336.5 111.579C336.991 112.112 337.278 112.451 337.252 112.482C337.226 112.508 336.886 112.216 336.359 111.715C335.832 111.219 335.123 110.515 334.345 109.732C333.573 108.944 332.884 108.224 332.394 107.692C331.908 107.16 331.621 106.821 331.653 106.795Z" fill="#E0E0E0"/>
<path d="M331.569 74.2597C331.543 74.2284 331.84 73.8892 332.336 73.3674C332.832 72.8404 333.531 72.1308 334.319 71.3585C335.102 70.5863 335.822 69.8975 336.354 69.4122C336.886 68.9217 337.225 68.6347 337.257 68.6608C337.283 68.6869 336.99 69.0261 336.49 69.5531C335.994 70.0801 335.289 70.7898 334.507 71.5672C333.719 72.3395 332.999 73.0283 332.466 73.5188C331.934 74.004 331.595 74.291 331.569 74.2597Z" fill="#E0E0E0"/>
<path d="M300.42 74.3425C300.389 74.3686 300.049 74.0712 299.528 73.5755C299.001 73.0798 298.291 72.3806 297.519 71.5926C296.746 70.81 296.058 70.0899 295.572 69.5576C295.082 69.0254 294.795 68.6862 294.821 68.6549C294.847 68.6288 295.186 68.921 295.713 69.422C296.24 69.9177 296.95 70.6221 297.727 71.4048C298.5 72.1927 299.188 72.9128 299.679 73.445C300.159 73.9773 300.446 74.3164 300.42 74.3425Z" fill="#E0E0E0"/>
<path d="M331.575 106.659C331.575 106.659 331.57 106.602 331.57 106.503C331.57 106.393 331.564 106.242 331.564 106.049C331.559 105.642 331.554 105.057 331.549 104.295C331.544 102.756 331.533 100.518 331.518 97.6791C331.502 91.9915 331.481 83.888 331.455 74.1878L331.575 74.3078C322.506 74.313 311.856 74.3182 300.507 74.3234H300.502L300.638 74.1878C300.632 86.1056 300.622 97.2617 300.617 106.664L300.497 106.544C309.806 106.571 317.559 106.591 322.991 106.607C325.705 106.623 327.844 106.633 329.31 106.638C330.036 106.644 330.594 106.649 330.98 106.654C331.163 106.659 331.304 106.659 331.413 106.659C331.523 106.654 331.575 106.654 331.575 106.659C331.575 106.659 331.533 106.664 331.439 106.664C331.335 106.664 331.199 106.67 331.022 106.67C330.641 106.675 330.088 106.675 329.373 106.685C327.912 106.691 325.783 106.701 323.08 106.717C317.627 106.732 309.847 106.753 300.507 106.779H300.387V106.659C300.382 97.2564 300.377 86.1004 300.366 74.1825V74.0469H300.502H300.507C311.851 74.0521 322.506 74.0573 331.575 74.0625H331.695V74.1825C331.669 83.9193 331.648 92.0489 331.632 97.7521C331.617 100.58 331.606 102.814 331.601 104.342C331.596 105.094 331.591 105.673 331.585 106.075C331.58 106.263 331.58 106.409 331.58 106.513C331.58 106.612 331.58 106.659 331.575 106.659Z" fill="#E0E0E0"/>
<path d="M321.279 85.2266H310.885V95.6208H321.279V85.2266Z" fill="#EBEBEB"/>
<path d="M239.269 38.9867C238.799 53.6283 226.516 65.1183 211.843 64.6487C210.251 64.5965 208.696 64.4087 207.194 64.0904C194.811 61.4918 185.701 50.3358 186.118 37.2804C186.588 22.6388 198.866 11.1488 213.544 11.6184C228.222 12.088 239.738 24.3398 239.269 38.9867Z" fill="#EBEBEB"/>
<path d="M233.669 39.0818C233.309 50.2431 223.953 58.9988 212.766 58.6388C201.584 58.2788 192.802 48.9438 193.162 37.7825C193.522 26.6213 202.878 17.8655 214.065 18.2256C225.247 18.5856 234.024 27.9206 233.669 39.0818Z" fill="#EBEBEB"/>
<path d="M232.941 38.7901C232.936 38.7901 232.926 38.6805 232.915 38.4613C232.905 38.2265 232.894 37.9082 232.879 37.5012C232.873 37.2873 232.863 37.0525 232.858 36.7916C232.837 36.5307 232.79 36.2489 232.753 35.9463C232.675 35.3358 232.602 34.6261 232.393 33.8486C232.08 32.278 231.407 30.4152 230.311 28.4272C229.205 26.4496 227.593 24.3728 225.365 22.583C223.142 20.8089 220.324 19.2696 217.032 18.5861C213.765 17.9182 210.05 17.9025 206.476 19.1287C205.568 19.3896 204.707 19.8019 203.825 20.1932C203.392 20.4071 202.98 20.6628 202.552 20.8976C202.119 21.122 201.717 21.4038 201.315 21.6908C200.48 22.223 199.744 22.8961 198.977 23.5431C198.278 24.2684 197.548 24.9729 196.937 25.7973C195.69 27.4097 194.589 29.2151 193.89 31.2188C193.17 33.2068 192.747 35.3306 192.648 37.5012C192.606 39.6771 192.888 41.8217 193.478 43.8515C194.046 45.8917 195.027 47.765 196.17 49.4556C196.723 50.3218 197.412 51.0732 198.059 51.835C198.784 52.529 199.473 53.2543 200.271 53.8387C201.018 54.4858 201.873 54.971 202.677 55.4928C203.533 55.9363 204.362 56.406 205.255 56.7243C208.745 58.1749 212.45 58.3992 215.753 57.9401C219.082 57.4652 221.994 56.1138 224.326 54.4858C226.664 52.8421 228.407 50.8697 229.638 48.9703C230.859 47.0606 231.652 45.2447 232.065 43.695C232.325 42.9331 232.44 42.2339 232.56 41.6287C232.618 41.326 232.68 41.0495 232.722 40.7886C232.748 40.5329 232.769 40.2981 232.79 40.0841C232.832 39.6823 232.868 39.364 232.889 39.1292C232.92 38.8997 232.936 38.7901 232.941 38.7901C232.946 38.7901 232.946 38.8997 232.936 39.1188C232.92 39.3536 232.905 39.6771 232.879 40.0841C232.863 40.2981 232.847 40.5329 232.832 40.7938C232.8 41.0547 232.743 41.3364 232.691 41.6391C232.586 42.2496 232.482 42.9592 232.232 43.7315C231.84 45.2969 231.063 47.1441 229.847 49.0904C228.621 51.0262 226.873 53.0404 224.509 54.7258C222.156 56.3955 219.202 57.7835 215.816 58.2844C212.455 58.7645 208.683 58.5506 205.119 57.0843C204.211 56.766 203.36 56.286 202.489 55.8372C201.665 55.305 200.793 54.8145 200.031 54.157C199.217 53.5622 198.513 52.8316 197.772 52.1168C197.104 51.3341 196.405 50.5723 195.836 49.6904C194.667 47.9633 193.665 46.0535 193.081 43.9715C192.476 41.9 192.189 39.7084 192.231 37.4856C192.33 35.2679 192.763 33.1025 193.499 31.0727C194.213 29.0325 195.335 27.1853 196.614 25.5416C197.235 24.6963 197.986 23.9815 198.701 23.2457C199.484 22.583 200.24 21.8995 201.085 21.3568C201.492 21.0646 201.905 20.7776 202.348 20.5532C202.787 20.3132 203.209 20.0575 203.647 19.8384C204.55 19.4418 205.427 19.0244 206.35 18.7635C210.003 17.5268 213.781 17.5581 217.099 18.2521C220.444 18.967 223.304 20.548 225.547 22.3639C227.796 24.1954 229.414 26.3139 230.515 28.328C231.605 30.3474 232.263 32.2415 232.55 33.8278C232.748 34.6105 232.811 35.3306 232.873 35.9463C232.905 36.2541 232.946 36.5411 232.957 36.802C232.957 37.0629 232.957 37.2977 232.962 37.5117C232.962 37.9187 232.962 38.237 232.957 38.477C232.957 38.6805 232.952 38.7901 232.941 38.7901Z" fill="#E0E0E0"/>
<path d="M214.595 50.2824L214.532 53.8097L211.381 53.7523L211.443 50.3189C208.328 50.0737 205.349 49.0457 203.643 47.6577L205.443 43.8434C206.998 45.0383 209.252 45.9254 211.517 46.1863L211.61 40.9213C208.13 40.0082 204.243 38.7767 204.321 34.2684C204.378 30.9289 206.857 28.106 211.845 27.6259L211.908 24.1299L215.06 24.1873L214.997 27.6207C217.355 27.8503 219.646 28.5234 221.358 29.6557L219.714 33.5066C218.122 32.5621 216.494 31.9986 214.924 31.7847L214.83 37.1435C218.31 38.0254 222.135 39.2568 222.057 43.7025C221.994 46.9794 219.552 49.771 214.595 50.2824ZM211.689 36.2982L211.767 31.8264C210.092 32.176 209.414 33.0787 209.393 34.1171C209.377 35.2181 210.311 35.8338 211.689 36.2982ZM216.975 43.9895C216.995 42.8833 216.093 42.2728 214.746 41.7719L214.668 46.1184C216.249 45.8054 216.959 44.9966 216.975 43.9895Z" fill="#E0E0E0"/>
<path d="M237.929 62.8386C228.542 71.4117 215.147 74.5373 202.927 70.963C192.882 68.0253 184.272 60.6523 180.28 50.9155C176.216 41.0118 177.322 29.5896 183.083 20.5939C188.875 11.5459 198.903 5.6287 209.564 4.59554C222.964 3.30148 236.207 9.42738 243.543 20.766C244.634 22.4515 247.347 20.8861 246.246 19.185C239.181 8.26899 227.081 1.56911 214.072 1.29777C202.243 1.04731 190.508 6.20789 182.999 15.4072C175.563 24.5178 172.824 36.8218 176.038 48.1865C179.2 59.3739 187.737 68.3697 198.439 72.7058C212.538 78.4195 228.959 75.2626 240.136 65.0458C241.633 63.6943 239.411 61.4819 237.929 62.8386Z" fill="#F5F5F5"/>
<path d="M235.028 19.7402L247.786 11.1514V24.1441L235.028 19.7402Z" fill="#F5F5F5"/>
<path d="M334.948 221.184C334.948 221.257 260.013 221.319 167.597 221.319C75.1502 221.319 0.230469 221.257 0.230469 221.184C0.230469 221.11 75.1502 221.048 167.597 221.048C260.013 221.048 334.948 221.11 334.948 221.184Z" fill="#263238"/>
<path d="M186.522 82.6782C186.522 82.6782 205.646 87.7135 211.694 107.886L203.564 111.492C203.564 111.492 201.702 97.4607 182.75 91.3504C172.496 88.0422 158.925 92.7123 155.162 96.9859L146.036 93.0515C152.167 86.3307 167.221 77.4184 186.522 82.6782Z" fill="#FF725E"/>
<path d="M216.896 102.805L196.682 109.51L212.195 117.285L216.896 102.805Z" fill="#FF725E"/>
<path d="M162.655 221.174L91.1687 221.127C82.5695 221.122 75.6035 213.796 75.6035 204.758L75.64 16.4153C75.64 7.37258 82.6165 0.0465426 91.2209 0.0517606L162.707 0.0935034C171.306 0.0987214 178.272 7.42476 178.267 16.4623L178.231 204.805C178.236 213.853 171.259 221.179 162.655 221.174Z" fill="#263238"/>
<path d="M162.646 6.7706L148.787 6.76016C146.93 6.76016 145.422 8.41426 145.422 10.4545V13.0948C145.422 15.135 143.914 16.7891 142.056 16.7891L115.037 16.7735C113.18 16.7735 111.672 15.1141 111.672 13.0739V10.4336C111.672 8.39339 110.164 6.73407 108.306 6.73407L103.433 6.72886L91.3008 6.72364C85.2741 6.71842 80.39 11.8529 80.39 18.1823L80.3535 202.017C80.3535 208.346 85.2323 213.476 91.2539 213.481L162.599 213.523C168.626 213.528 173.51 208.393 173.51 202.064L173.547 18.2293C173.547 11.9051 168.668 6.77582 162.646 6.7706Z" fill="white"/>
<path d="M95.4524 198.986V204.381C95.4524 204.851 94.9358 205.133 94.5445 204.882L90.3023 202.185C89.937 201.95 89.937 201.418 90.3023 201.183L94.5445 198.485C94.9358 198.235 95.4524 198.516 95.4524 198.986Z" fill="#E0E0E0"/>
<path d="M130.307 201.628C130.307 203.684 128.643 205.354 126.587 205.354C124.531 205.354 122.866 203.684 122.866 201.628C122.866 199.572 124.531 197.902 126.587 197.902C128.643 197.902 130.307 199.572 130.307 201.628Z" fill="#E0E0E0"/>
<path d="M162.883 205.267H157.973C157.435 205.267 156.997 204.829 156.997 204.291V199.365C156.997 198.828 157.435 198.39 157.973 198.39H162.883C163.42 198.39 163.859 198.828 163.859 199.365V204.291C163.859 204.829 163.42 205.267 162.883 205.267Z" fill="#E0E0E0"/>
<path d="M115.363 60.7433C115.363 60.7433 102.652 60.3154 95.2061 71.6228L99.5474 75.3432C99.5474 75.3432 103.283 67.0466 116.083 66.7805C123.007 66.6396 127.771 70.6731 129.3 74.0022L137.153 73.8665C134.623 68.6016 128.22 61.0668 115.363 60.7433Z" fill="#FF725E"/>
<path d="M93.5254 67.9385L104.739 75.802L94.5533 77.8683L93.5254 67.9385Z" fill="#FF725E"/>
<path d="M167.772 26.1309C167.772 26.8249 167.208 27.3937 166.509 27.3937C165.815 27.3937 165.246 26.8301 165.246 26.1309C165.246 25.4369 165.81 24.8682 166.509 24.8682C167.203 24.8734 167.772 25.4369 167.772 26.1309Z" fill="#263238"/>
<path d="M166.509 30.8487C167.206 30.8487 167.772 30.2834 167.772 29.586C167.772 28.8886 167.206 28.3232 166.509 28.3232C165.811 28.3232 165.246 28.8886 165.246 29.586C165.246 30.2834 165.811 30.8487 166.509 30.8487Z" fill="#263238"/>
<path d="M166.509 34.2989C167.206 34.2989 167.772 33.7336 167.772 33.0362C167.772 32.3388 167.206 31.7734 166.509 31.7734C165.811 31.7734 165.246 32.3388 165.246 33.0362C165.246 33.7336 165.811 34.2989 166.509 34.2989Z" fill="#263238"/>
<path d="M91.3181 25.5371L86.168 29.3984H87.4777V34.0111L90.2536 34.0215V30.5672L92.44 30.5568V34.0111H95.1272V29.3515L96.463 29.3358L91.3181 25.5371Z" fill="#263238"/>
<path d="M173.872 38.8749C173.872 38.948 152.86 39.0106 126.947 39.0106C101.024 39.0106 80.0166 38.948 80.0166 38.8749C80.0166 38.8019 101.024 38.7393 126.947 38.7393C152.86 38.7393 173.872 38.8019 173.872 38.8749Z" fill="#E0E0E0"/>
<path d="M125.955 130.151H125.12C122.298 130.151 120.007 127.861 120.007 125.038V83.8939C120.007 81.071 122.298 78.7803 125.12 78.7803H125.955C128.778 78.7803 131.069 81.071 131.069 83.8939V125.038C131.069 127.861 128.778 130.151 125.955 130.151Z" fill="#E0E0E0"/>
<path d="M147.079 105.682C147.089 115.507 139.116 123.48 129.27 123.496C128.2 123.496 127.157 123.407 126.139 123.225C117.78 121.759 111.425 114.485 111.414 105.729C111.404 95.9035 119.377 87.9304 129.223 87.92C139.075 87.8991 147.063 95.8565 147.079 105.682Z" fill="#FF725E"/>
<path d="M143.327 105.872C143.337 113.36 137.258 119.433 129.755 119.444C122.251 119.454 116.162 113.391 116.151 105.903C116.141 98.4152 122.22 92.3363 129.723 92.3311C137.227 92.3206 143.316 98.3839 143.327 105.872Z" fill="#FF725E"/>
<path d="M142.837 105.69C142.831 105.69 142.821 105.617 142.81 105.471C142.8 105.314 142.784 105.1 142.764 104.829C142.753 104.688 142.743 104.526 142.732 104.354C142.711 104.182 142.675 103.994 142.644 103.791C142.576 103.384 142.513 102.909 142.357 102.392C142.111 101.349 141.616 100.112 140.838 98.8073C140.055 97.5081 138.923 96.1514 137.394 94.9982C135.865 93.8607 133.94 92.8902 131.722 92.504C129.515 92.1283 127.031 92.2014 124.662 93.1041C124.062 93.2972 123.494 93.5946 122.909 93.8764C122.627 94.0277 122.351 94.2103 122.074 94.3773C121.787 94.539 121.526 94.7321 121.265 94.9356C120.718 95.3113 120.243 95.7809 119.742 96.2297C119.288 96.7306 118.813 97.2211 118.427 97.7846C117.629 98.896 116.929 100.127 116.507 101.484C116.068 102.83 115.834 104.265 115.818 105.721C115.839 107.177 116.079 108.612 116.517 109.958C116.945 111.315 117.644 112.546 118.448 113.652C118.839 114.221 119.314 114.707 119.768 115.207C120.269 115.656 120.749 116.126 121.297 116.501C121.813 116.919 122.393 117.222 122.946 117.556C123.53 117.832 124.099 118.13 124.699 118.323C127.073 119.22 129.557 119.283 131.764 118.902C133.982 118.51 135.907 117.535 137.431 116.392C138.96 115.239 140.087 113.877 140.869 112.578C141.647 111.268 142.137 110.036 142.377 108.988C142.534 108.471 142.597 108.001 142.664 107.589C142.696 107.386 142.732 107.198 142.753 107.026C142.764 106.853 142.774 106.697 142.784 106.551C142.805 106.279 142.821 106.066 142.831 105.909C142.821 105.763 142.831 105.69 142.837 105.69C142.842 105.69 142.842 105.763 142.842 105.909C142.837 106.071 142.831 106.285 142.826 106.556C142.821 106.702 142.816 106.859 142.81 107.031C142.795 107.203 142.764 107.396 142.737 107.6C142.68 108.012 142.628 108.492 142.477 109.014C142.247 110.073 141.767 111.325 141 112.656C140.222 113.981 139.095 115.369 137.551 116.548C136.011 117.717 134.06 118.719 131.806 119.126C129.567 119.523 127.031 119.465 124.61 118.563C123.994 118.37 123.415 118.067 122.82 117.785C122.257 117.446 121.662 117.138 121.135 116.715C120.577 116.335 120.086 115.86 119.575 115.401C119.11 114.894 118.625 114.393 118.223 113.814C117.404 112.682 116.684 111.424 116.251 110.042C115.797 108.664 115.557 107.203 115.536 105.716C115.552 104.229 115.792 102.768 116.241 101.39C116.674 100.007 117.383 98.7447 118.203 97.6124C118.599 97.0332 119.084 96.5323 119.549 96.0262C120.06 95.567 120.551 95.0869 121.104 94.706C121.37 94.5025 121.641 94.299 121.933 94.1373C122.22 93.9703 122.497 93.7824 122.789 93.6311C123.384 93.3441 123.963 93.0467 124.579 92.8484C127 91.9353 129.531 91.8727 131.774 92.264C134.034 92.671 135.985 93.6624 137.525 94.8312C139.074 96.0105 140.207 97.3933 140.984 98.7186C141.756 100.049 142.242 101.302 142.471 102.361C142.623 102.883 142.68 103.363 142.737 103.775C142.764 103.984 142.8 104.171 142.816 104.344C142.821 104.516 142.826 104.678 142.831 104.818C142.842 105.09 142.847 105.304 142.852 105.465C142.842 105.617 142.842 105.69 142.837 105.69Z" fill="#263238"/>
<g opacity="0.3">
<path d="M142.726 105.831C142.642 105.836 142.585 105.236 142.366 104.197C142.142 103.164 141.735 101.667 140.811 100.033C140.347 99.2195 139.762 98.3794 139.026 97.5654C138.285 96.7618 137.409 95.9843 136.376 95.3269C135.864 94.9981 135.316 94.6903 134.732 94.4242C134.153 94.158 133.542 93.9232 132.906 93.7458C132.269 93.5684 131.612 93.4171 130.928 93.3388C130.25 93.2553 129.556 93.224 128.851 93.2397C128.147 93.2658 127.458 93.3493 126.785 93.4745C126.112 93.5997 125.465 93.7928 124.839 94.0119C124.213 94.2311 123.623 94.5076 123.059 94.8103C122.496 95.1077 121.969 95.4521 121.478 95.8174C120.492 96.5427 119.663 97.3775 118.979 98.2281C118.301 99.0838 117.768 99.9657 117.356 100.806C116.537 102.496 116.229 104.015 116.073 105.064C115.921 106.118 115.906 106.713 115.822 106.718C115.759 106.723 115.645 106.123 115.671 105.027C115.707 103.937 115.916 102.329 116.688 100.503C117.074 99.5952 117.601 98.6351 118.295 97.7011C118.995 96.7723 119.856 95.8539 120.899 95.0555C121.416 94.6538 121.974 94.2729 122.579 93.9441C123.179 93.6102 123.816 93.3023 124.484 93.0623C125.157 92.817 125.856 92.6083 126.582 92.4674C127.307 92.3265 128.053 92.2378 128.81 92.2117C129.566 92.1909 130.318 92.2274 131.048 92.3213C131.779 92.4152 132.494 92.577 133.177 92.7753C133.866 92.9736 134.518 93.2397 135.139 93.5319C135.76 93.8241 136.344 94.1633 136.887 94.5285C137.978 95.259 138.896 96.1148 139.658 96.9966C140.409 97.8837 140.999 98.8073 141.448 99.6891C142.34 101.458 142.653 103.055 142.757 104.135C142.867 105.225 142.789 105.831 142.726 105.831Z" fill="black"/>
</g>
<g opacity="0.3">
<path d="M130.789 113.805L130.825 116.174L128.712 116.205L128.675 113.904C126.583 113.81 124.564 113.189 123.39 112.297L124.512 109.699C125.581 110.466 127.11 111.008 128.634 111.134L128.576 107.606C126.223 107.074 123.588 106.333 123.541 103.312C123.504 101.073 125.101 99.1217 128.435 98.6938L128.399 96.3458L130.512 96.3145L130.549 98.6156C132.135 98.7199 133.685 99.1165 134.859 99.8366L133.841 102.451C132.756 101.856 131.65 101.512 130.59 101.402L130.648 104.997C133.001 105.509 135.594 106.249 135.636 109.229C135.678 111.426 134.102 113.351 130.789 113.805ZM128.529 104.496L128.482 101.496C127.366 101.767 126.933 102.388 126.943 103.082C126.954 103.823 127.595 104.22 128.529 104.496ZM132.245 109.532C132.234 108.791 131.613 108.399 130.7 108.097L130.747 111.014C131.801 110.768 132.255 110.21 132.245 109.532Z" fill="black"/>
</g>
<path d="M119.6 80.8428H99.0205V126.844H119.6V80.8428Z" fill="white"/>
<path d="M233.818 148.619C236.109 158.862 229.644 169.026 219.38 171.322C218.268 171.573 217.157 171.719 216.056 171.766C207.003 172.178 198.685 166.068 196.645 156.936C194.354 146.694 200.814 136.529 211.083 134.233C221.342 131.937 231.522 138.376 233.818 148.619Z" fill="#FF725E"/>
<path d="M229.949 149.684C231.697 157.49 226.771 165.234 218.944 166.987C211.122 168.74 203.363 163.83 201.615 156.024C199.867 148.218 204.793 140.475 212.62 138.721C220.447 136.973 228.201 141.883 229.949 149.684Z" fill="#FF725E"/>
<path d="M229.396 149.612C229.39 149.612 229.364 149.539 229.317 149.387C229.27 149.225 229.202 149.006 229.119 148.73C229.077 148.584 229.03 148.422 228.978 148.244C228.915 148.067 228.832 147.879 228.754 147.676C228.592 147.264 228.415 146.789 228.128 146.288C227.632 145.255 226.828 144.081 225.712 142.901C224.59 141.727 223.103 140.574 221.235 139.729C219.377 138.894 217.144 138.336 214.738 138.445C212.354 138.565 209.776 139.217 207.511 140.71C206.927 141.054 206.405 141.492 205.862 141.92C205.602 142.145 205.362 142.395 205.106 142.635C204.845 142.87 204.615 143.136 204.391 143.407C203.911 143.924 203.52 144.524 203.102 145.114C202.747 145.74 202.366 146.361 202.09 147.044C201.511 148.385 201.072 149.836 200.947 151.349C200.801 152.857 200.89 154.402 201.208 155.925C201.568 157.439 202.147 158.879 202.919 160.183C203.676 161.498 204.694 162.62 205.789 163.591C206.327 164.091 206.937 164.488 207.527 164.905C208.153 165.26 208.764 165.636 209.421 165.897C210.052 166.21 210.731 166.398 211.388 166.612C212.061 166.768 212.724 166.946 213.397 167.003C216.079 167.384 218.688 166.878 220.895 165.97C223.118 165.046 224.898 163.585 226.223 162.041C227.548 160.481 228.409 158.806 228.921 157.266C229.427 155.722 229.651 154.318 229.662 153.175C229.709 152.601 229.662 152.095 229.636 151.652C229.62 151.433 229.615 151.229 229.594 151.041C229.568 150.859 229.542 150.692 229.516 150.54C229.474 150.253 229.437 150.029 229.416 149.857C229.401 149.695 229.39 149.617 229.396 149.612C229.401 149.612 229.422 149.69 229.453 149.841C229.484 150.008 229.531 150.233 229.583 150.52C229.609 150.671 229.641 150.838 229.677 151.02C229.703 151.208 229.714 151.412 229.729 151.631C229.766 152.074 229.818 152.586 229.782 153.165C229.792 154.323 229.578 155.743 229.082 157.308C228.582 158.874 227.726 160.58 226.39 162.171C225.054 163.747 223.254 165.245 220.995 166.194C218.751 167.128 216.095 167.655 213.361 167.274C212.672 167.212 211.999 167.034 211.31 166.878C210.642 166.659 209.948 166.471 209.301 166.153C208.628 165.886 208.007 165.506 207.37 165.146C206.77 164.723 206.144 164.316 205.596 163.81C204.48 162.824 203.441 161.676 202.664 160.335C201.876 159.004 201.281 157.538 200.916 155.988C200.587 154.433 200.498 152.852 200.65 151.313C200.78 149.768 201.229 148.291 201.824 146.919C202.105 146.225 202.497 145.589 202.857 144.952C203.285 144.352 203.681 143.741 204.177 143.214C204.407 142.938 204.641 142.666 204.908 142.432C205.168 142.186 205.414 141.931 205.68 141.706C206.233 141.273 206.77 140.825 207.365 140.475C209.677 138.962 212.301 138.309 214.733 138.195C217.18 138.09 219.45 138.675 221.329 139.536C223.217 140.402 224.72 141.586 225.837 142.786C226.954 143.992 227.747 145.187 228.232 146.236C228.508 146.742 228.681 147.232 228.837 147.644C228.915 147.853 228.994 148.041 229.051 148.224C229.098 148.406 229.14 148.568 229.182 148.719C229.255 149.001 229.312 149.225 229.354 149.387C229.385 149.533 229.401 149.612 229.396 149.612Z" fill="#263238"/>
<g opacity="0.3">
<path d="M229.317 149.785C229.234 149.806 229.035 149.2 228.566 148.162C228.091 147.134 227.319 145.673 225.978 144.181C225.31 143.44 224.501 142.699 223.546 142.02C222.586 141.352 221.49 140.747 220.264 140.298C219.654 140.074 219.012 139.876 218.344 139.74C217.676 139.599 216.987 139.495 216.283 139.458C215.578 139.422 214.853 139.417 214.128 139.49C213.402 139.563 212.672 139.688 211.941 139.871C211.216 140.064 210.512 140.304 209.844 140.591C209.171 140.878 208.539 141.227 207.939 141.603C207.339 141.979 206.786 142.401 206.269 142.85C205.753 143.294 205.283 143.774 204.855 144.264C203.994 145.25 203.327 146.31 202.81 147.358C202.299 148.412 201.949 149.451 201.719 150.426C201.26 152.378 201.286 154.032 201.37 155.164C201.458 156.297 201.578 156.928 201.49 156.949C201.427 156.965 201.166 156.37 200.942 155.222C200.728 154.079 200.571 152.352 200.958 150.27C201.151 149.232 201.479 148.11 201.985 146.972C202.502 145.84 203.186 144.681 204.088 143.607C204.537 143.069 205.033 142.542 205.581 142.057C206.129 141.572 206.718 141.102 207.365 140.695C208.007 140.283 208.691 139.902 209.411 139.589C210.136 139.276 210.893 139.01 211.67 138.806C212.453 138.608 213.246 138.477 214.029 138.404C214.811 138.331 215.594 138.336 216.356 138.383C217.118 138.43 217.859 138.556 218.573 138.717C219.288 138.874 219.977 139.098 220.629 139.354C221.939 139.86 223.092 140.544 224.089 141.285C225.08 142.036 225.905 142.86 226.578 143.674C227.919 145.313 228.613 146.904 228.978 148.011C229.322 149.122 229.38 149.769 229.317 149.785Z" fill="black"/>
</g>
<g opacity="0.3">
<path d="M218.729 160.872L219.318 163.329L217.122 163.851L216.548 161.456C214.341 161.842 212.092 161.659 210.662 161.007L211.231 158.038C212.525 158.586 214.247 158.805 215.864 158.581L214.988 154.913C212.41 154.902 209.493 154.74 208.742 151.599C208.183 149.272 209.399 146.872 212.775 145.645L212.191 143.209L214.387 142.682L214.961 145.077C216.642 144.816 218.348 144.868 219.736 145.348L219.282 148.312C218.009 147.941 216.777 147.842 215.65 147.973L216.543 151.704C219.115 151.693 221.99 151.865 222.731 154.96C223.274 157.255 222.074 159.635 218.729 160.872ZM214.215 151.693L213.469 148.578C212.368 149.121 212.06 149.867 212.232 150.592C212.415 151.359 213.172 151.62 214.215 151.693ZM219.256 156.081C219.073 155.314 218.337 155.048 217.315 154.944L218.04 157.976C219.078 157.469 219.423 156.786 219.256 156.081Z" fill="black"/>
</g>
<path d="M192.691 140.285C187.718 150.835 175.117 155.349 164.54 150.366C163.392 149.823 162.317 149.197 161.315 148.487C153.087 142.674 149.956 131.644 154.391 122.236C159.364 111.685 171.965 107.171 182.542 112.155C193.119 117.138 197.664 129.734 192.691 140.285Z" fill="#FF725E"/>
<path d="M188.568 138.581C184.78 146.622 175.173 150.06 167.117 146.262C159.06 142.463 155.596 132.867 159.384 124.826C163.172 116.785 172.778 113.347 180.835 117.14C188.897 120.944 192.356 130.54 188.568 138.581Z" fill="#FF725E"/>
<path d="M188.139 138.136C188.134 138.136 188.16 138.048 188.223 137.886C188.291 137.708 188.379 137.474 188.499 137.171C188.562 137.014 188.63 136.837 188.708 136.644C188.776 136.446 188.828 136.226 188.901 135.992C189.037 135.517 189.209 134.979 189.298 134.348C189.564 133.101 189.663 131.525 189.491 129.73C189.308 127.935 188.786 125.905 187.722 123.896C186.657 121.898 185.081 119.884 182.895 118.339C180.719 116.821 178.011 115.631 175.011 115.402C174.265 115.302 173.508 115.334 172.741 115.339C172.36 115.36 171.974 115.417 171.588 115.448C171.202 115.475 170.815 115.553 170.435 115.636C169.657 115.762 168.906 116.022 168.144 116.252C167.403 116.56 166.646 116.842 165.942 117.254C164.517 118.037 163.145 119.007 162.002 120.249C160.849 121.475 159.868 122.889 159.112 124.45C158.397 126.025 157.922 127.685 157.713 129.354C157.484 131.024 157.609 132.704 157.906 134.301C158.037 135.11 158.303 135.872 158.538 136.639C158.845 137.374 159.122 138.121 159.524 138.799C159.863 139.509 160.333 140.13 160.76 140.766C161.246 141.361 161.705 141.966 162.253 142.478C164.345 144.643 166.98 145.974 169.542 146.683C172.125 147.388 174.682 147.32 176.9 146.866C179.128 146.402 181.027 145.514 182.525 144.513C184.022 143.5 185.175 142.425 185.963 141.424C186.391 140.949 186.699 140.474 186.981 140.067C187.116 139.863 187.252 139.681 187.362 139.503C187.461 139.321 187.555 139.159 187.633 139.008C187.79 138.726 187.915 138.507 188.009 138.34C188.087 138.215 188.134 138.136 188.139 138.136C188.144 138.136 188.108 138.22 188.03 138.376C187.946 138.543 187.831 138.773 187.68 139.06C187.602 139.211 187.513 139.378 187.419 139.566C187.315 139.749 187.184 139.931 187.049 140.14C186.777 140.552 186.475 141.037 186.052 141.523C185.269 142.545 184.121 143.646 182.613 144.685C181.105 145.713 179.19 146.631 176.931 147.116C174.682 147.591 172.083 147.675 169.454 146.97C166.845 146.261 164.157 144.914 162.018 142.712C161.454 142.191 160.985 141.575 160.489 140.97C160.051 140.323 159.571 139.686 159.221 138.966C158.814 138.272 158.527 137.515 158.214 136.764C157.974 135.981 157.703 135.204 157.567 134.379C157.259 132.751 157.129 131.035 157.364 129.328C157.577 127.622 158.058 125.926 158.788 124.319C159.56 122.733 160.562 121.282 161.741 120.035C162.91 118.767 164.314 117.776 165.764 116.977C166.485 116.56 167.262 116.268 168.013 115.96C168.796 115.725 169.563 115.459 170.356 115.334C170.748 115.25 171.139 115.172 171.536 115.146C171.927 115.109 172.318 115.052 172.71 115.036C173.492 115.031 174.265 115.005 175.026 115.104C178.084 115.355 180.839 116.57 183.046 118.125C185.264 119.706 186.856 121.762 187.92 123.797C188.984 125.848 189.496 127.909 189.663 129.725C189.819 131.546 189.705 133.137 189.412 134.39C189.308 135.026 189.131 135.569 188.979 136.039C188.906 136.273 188.844 136.493 188.771 136.691C188.687 136.879 188.614 137.056 188.546 137.213C188.416 137.51 188.317 137.745 188.238 137.917C188.186 138.063 188.144 138.141 188.139 138.136Z" fill="#263238"/>
<g opacity="0.3">
<path d="M187.954 138.234C187.865 138.198 188.105 137.525 188.397 136.298C188.684 135.077 189.002 133.262 188.835 131.039C188.752 129.933 188.548 128.727 188.173 127.485C187.787 126.249 187.239 124.965 186.461 123.734C186.075 123.118 185.647 122.507 185.157 121.933C184.666 121.354 184.134 120.791 183.539 120.279C182.944 119.763 182.313 119.272 181.624 118.839C180.935 118.406 180.21 118.02 179.448 117.681C178.681 117.357 177.899 117.091 177.116 116.882C176.328 116.674 175.54 116.554 174.757 116.47C173.975 116.387 173.197 116.387 172.441 116.423C171.684 116.46 170.943 116.559 170.233 116.7C168.809 116.976 167.494 117.456 166.325 118.02C165.161 118.594 164.144 119.267 163.278 119.966C161.545 121.365 160.439 122.836 159.74 123.885C159.046 124.939 158.722 125.57 158.634 125.534C158.566 125.508 158.743 124.808 159.333 123.645C159.923 122.497 160.966 120.874 162.725 119.304C163.601 118.526 164.65 117.764 165.876 117.112C167.103 116.47 168.491 115.922 170.014 115.594C170.776 115.427 171.564 115.301 172.383 115.254C173.197 115.202 174.032 115.192 174.877 115.275C175.723 115.354 176.578 115.484 177.429 115.698C178.279 115.917 179.12 116.199 179.949 116.554C180.774 116.914 181.556 117.336 182.297 117.806C183.038 118.276 183.717 118.813 184.353 119.377C184.99 119.94 185.559 120.551 186.075 121.182C186.597 121.808 187.046 122.471 187.442 123.139C188.246 124.475 188.794 125.863 189.164 127.193C189.524 128.529 189.686 129.818 189.717 130.987C189.775 133.34 189.305 135.208 188.867 136.424C188.408 137.66 188.016 138.266 187.954 138.234Z" fill="black"/>
</g>
<g opacity="0.3">
<path d="M171.099 140.747L169.94 143.304L167.655 142.265L168.782 139.776C166.58 138.613 164.733 136.922 163.924 135.367L166.444 133.149C167.201 134.511 168.568 135.878 170.144 136.781L171.876 132.967C169.622 131.198 167.169 129.069 168.651 125.803C169.752 123.381 172.45 122.098 176.249 123.324L177.402 120.788L179.687 121.826L178.555 124.315C180.204 125.229 181.665 126.444 182.562 127.811L180.147 130.102C179.28 128.912 178.268 127.984 177.188 127.326L175.424 131.214C177.689 132.956 180.094 135.07 178.633 138.289C177.553 140.674 174.882 141.942 171.099 140.747ZM173.394 129.612L174.866 126.366C173.53 126.09 172.753 126.538 172.408 127.29C172.048 128.088 172.533 128.834 173.394 129.612ZM174.829 136.901C175.195 136.103 174.725 135.367 173.901 134.579L172.471 137.731C173.723 137.997 174.495 137.632 174.829 136.901Z" fill="black"/>
</g>
<path d="M58.5826 104.122C52.4724 107.289 47.7866 112.737 44.4158 118.738C41.045 124.738 38.8743 131.323 36.7245 137.862L34.8408 171.575C41.9529 159.48 47.6562 145.261 49.2007 131.313C47.6249 131.172 46.0438 131.031 44.468 130.89C47.6405 130.405 50.3017 128.109 51.9975 125.38C53.6934 122.656 54.5648 119.51 55.4153 116.416C53.4899 116.703 51.5644 116.99 49.6442 117.271C54.1682 114.261 57.4451 109.434 58.5826 104.122Z" fill="#455A64"/>
<g opacity="0.3">
<path d="M58.5826 104.121C52.4724 107.288 47.7866 112.736 44.4158 118.737C41.045 124.737 38.8743 131.322 36.7245 137.861L34.8408 171.574C41.9529 159.479 47.6562 145.26 49.2007 131.312C47.6249 131.171 46.0438 131.03 44.468 130.889C47.6405 130.404 50.3017 128.108 51.9975 125.379C53.6934 122.655 54.5648 119.509 55.4153 116.415C53.4899 116.702 51.5644 116.989 49.6442 117.27C54.1682 114.26 57.4451 109.433 58.5826 104.121Z" fill="black"/>
</g>
<path d="M33.7907 179.476C33.7907 179.476 18.3559 161.005 18.5333 143.368H24.7688C24.7688 143.368 17.9959 138.917 18.5333 136.423C19.0708 133.929 19.2482 124.489 19.2482 124.489L24.9462 125.914C24.9462 125.914 20.6727 123.775 20.1352 120.393C19.5978 117.012 21.3823 101.332 21.3823 101.332C21.3823 101.332 28.3274 108.637 30.4668 116.115C32.6062 123.597 38.2155 132.322 36.5666 155.124C34.923 177.927 33.7907 179.476 33.7907 179.476Z" fill="#455A64"/>
<path d="M41.6133 181.217C41.6133 181.217 58.3317 170.077 62.0469 155.863L57.0324 154.501C57.0324 154.501 63.4505 152.404 63.5653 150.28C63.6801 148.156 65.6003 140.527 65.6003 140.527L60.7058 140.428C60.7058 140.428 64.6089 139.646 65.7829 137.042C66.9517 134.438 68.9502 121.445 68.9502 121.445C68.9502 121.445 61.7651 125.797 58.4099 131.344C55.0548 136.891 48.6366 142.682 44.9684 161.373C41.3158 180.059 41.6133 181.217 41.6133 181.217Z" fill="#455A64"/>
<path d="M25.5996 117.438C25.6048 117.438 25.6205 117.501 25.6518 117.632C25.6831 117.772 25.7301 117.96 25.7875 118.2C25.9023 118.717 26.064 119.453 26.2779 120.392C26.4919 121.342 26.7423 122.51 27.0085 123.872C27.285 125.229 27.6033 126.773 27.9164 128.49C28.5791 131.913 29.2731 136.009 29.9931 140.565C30.6871 145.125 31.3811 150.145 32.0021 155.431C32.6074 160.722 33.077 165.773 33.4422 170.37C33.7814 174.972 34.0371 179.115 34.178 182.601C34.2667 184.343 34.3084 185.919 34.3502 187.302C34.3971 188.685 34.4232 189.88 34.4336 190.855C34.4441 191.821 34.4545 192.572 34.4597 193.099C34.4597 193.344 34.4597 193.537 34.4597 193.684C34.4597 193.814 34.4545 193.882 34.4493 193.882C34.4441 193.882 34.4389 193.814 34.4284 193.684C34.4232 193.537 34.4128 193.344 34.4023 193.099C34.3867 192.572 34.3606 191.816 34.3241 190.855C34.298 189.88 34.2562 188.69 34.1988 187.307C34.1414 185.924 34.0893 184.349 33.9901 182.606C33.8284 179.125 33.5518 174.982 33.197 170.385C32.8213 165.793 32.3412 160.742 31.7412 155.457C31.1254 150.176 30.4367 145.151 29.7583 140.596C29.0539 136.041 28.3756 131.944 27.7442 128.516C27.4416 126.8 27.1389 125.25 26.878 123.893C26.6223 122.531 26.3875 121.362 26.1945 120.408C26.0066 119.463 25.8605 118.722 25.7562 118.206C25.7092 117.965 25.6779 117.772 25.6466 117.632C25.6048 117.506 25.5996 117.438 25.5996 117.438Z" fill="#263238"/>
<path d="M31.6522 190.788C31.6522 190.788 17.5272 174.764 13.1441 165.074L16.4523 163.66C14.052 164.057 11.5943 163.023 9.73153 161.458C7.86871 159.893 6.50682 157.832 5.1658 155.802L9.52802 155.066C5.56236 153.955 2.06632 151.246 0 147.683C5.14493 148.528 9.80458 151.356 13.6398 154.889C16.7445 157.748 19.3796 161.072 21.9051 164.464C23.1365 166.118 24.2166 167.881 25.1141 169.739C27.4831 174.649 31.6575 184.902 31.6522 190.788Z" fill="#455A64"/>
<path d="M62.2713 130.77C62.2765 130.77 62.2505 130.827 62.2035 130.932C62.1461 131.052 62.0783 131.203 61.9843 131.396C61.7808 131.819 61.4886 132.414 61.1234 133.175C60.3668 134.715 59.2919 136.953 57.9926 139.729C56.6881 142.505 55.1905 145.834 53.5782 149.555C51.9815 153.28 50.2804 157.397 48.5898 161.759C46.9096 166.127 45.3964 170.317 44.071 174.147C42.7613 177.982 41.629 181.452 40.7263 184.385C39.8184 187.312 39.1087 189.691 38.6339 191.34C38.3939 192.149 38.206 192.786 38.0756 193.234C38.013 193.438 37.9608 193.6 37.9243 193.725C37.8877 193.834 37.8669 193.892 37.8616 193.892C37.8564 193.892 37.8669 193.834 37.8982 193.72C37.9295 193.594 37.9712 193.427 38.0234 193.224C38.1434 192.77 38.3156 192.133 38.5348 191.314C38.9783 189.655 39.6618 187.27 40.5437 184.332C41.4255 181.395 42.5369 177.914 43.8362 174.069C45.1511 170.228 46.6539 166.033 48.3393 161.66C50.03 157.298 51.7415 153.176 53.3538 149.455C54.9766 145.74 56.495 142.416 57.8204 139.651C59.1405 136.885 60.2415 134.657 61.0294 133.134C61.4156 132.382 61.7234 131.798 61.9374 131.38C62.0365 131.193 62.12 131.041 62.1774 130.926C62.24 130.817 62.2661 130.765 62.2713 130.77Z" fill="#263238"/>
<path d="M32.8457 197.657C32.8353 197.657 32.8144 197.558 32.7779 197.364C32.7413 197.14 32.6944 196.858 32.6422 196.514C32.59 196.143 32.5222 195.689 32.423 195.168C32.3291 194.646 32.2352 194.046 32.0943 193.394C31.8438 192.084 31.4786 190.534 31.0142 188.828C30.5393 187.127 29.9497 185.274 29.2348 183.37C28.5095 181.465 27.7269 179.686 26.9598 178.094C26.1823 176.508 25.4257 175.11 24.7526 173.957C24.4291 173.372 24.1004 172.866 23.829 172.407C23.5577 171.953 23.3072 171.567 23.1037 171.254C22.9159 170.956 22.7646 170.716 22.6445 170.523C22.5402 170.356 22.4932 170.262 22.4984 170.257C22.5037 170.252 22.5715 170.33 22.6863 170.492C22.8167 170.675 22.9837 170.909 23.1872 171.191C23.4064 171.494 23.6673 171.875 23.949 172.323C24.236 172.772 24.5752 173.273 24.9144 173.852C25.6136 174.995 26.3858 176.393 27.1842 177.98C27.9669 179.571 28.76 181.356 29.4905 183.265C30.2106 185.18 30.7898 187.043 31.2542 188.755C31.703 190.472 32.0473 192.032 32.2769 193.352C32.4074 194.009 32.4856 194.609 32.5639 195.136C32.6474 195.663 32.6996 196.117 32.7361 196.488C32.7726 196.837 32.7987 197.119 32.8196 197.344C32.8509 197.552 32.8561 197.657 32.8457 197.657Z" fill="#263238"/>
<path d="M51.4855 193.883H20.5742V200.186H51.4855V193.883Z" fill="#FF725E"/>
<path d="M23.5186 200.19L26.8633 221.396H45.5436L48.6588 200.19H23.5186Z" fill="#FF725E"/>
<path d="M49.587 200.191C49.587 200.264 43.7377 200.327 36.5264 200.327C29.31 200.327 23.4658 200.264 23.4658 200.191C23.4658 200.118 29.31 200.056 36.5264 200.056C43.7429 200.056 49.587 200.113 49.587 200.191Z" fill="#263238"/>
<path d="M278.826 221.631H197.598C195.328 221.631 193.491 219.789 193.491 217.524V162.172C193.491 159.902 195.333 158.065 197.598 158.065H278.826C281.096 158.065 282.933 159.907 282.933 162.172V217.524C282.938 219.794 281.096 221.631 278.826 221.631Z" fill="#455A64"/>
<path d="M281.623 199.064H258.471C254.631 199.064 251.516 195.949 251.516 192.109V190.971C251.516 187.131 254.631 184.016 258.471 184.016H281.623C285.464 184.016 288.579 187.131 288.579 190.971V192.109C288.579 195.949 285.464 199.064 281.623 199.064Z" fill="#455A64"/>
<path d="M281.623 199.324H258.47C254.489 199.324 251.254 196.084 251.254 192.108V190.97C251.254 186.989 254.494 183.754 258.47 183.754H281.623C285.604 183.754 288.839 186.994 288.839 190.97V192.108C288.839 196.084 285.599 199.324 281.623 199.324ZM258.47 184.27C254.776 184.27 251.776 187.276 251.776 190.965V192.103C251.776 195.797 254.781 198.797 258.47 198.797H281.623C285.317 198.797 288.317 195.792 288.317 192.103V190.965C288.317 187.271 285.312 184.27 281.623 184.27H258.47Z" fill="#263238"/>
<path d="M264.179 194.606C265.879 192.19 265.298 188.854 262.882 187.154C260.466 185.455 257.13 186.036 255.43 188.452C253.731 190.868 254.312 194.204 256.728 195.903C259.144 197.602 262.48 197.022 264.179 194.606Z" fill="#263238"/>
<path d="M253.304 43.0049C253.148 48.4942 255.475 54.0096 259.524 57.7196C260.453 55.0323 261.377 52.3503 262.305 49.663" fill="#263238"/>
<path d="M274.266 26.9809C271.881 25.6764 268.995 25.4885 266.329 26.0207C263.663 26.553 261.179 27.7635 258.82 29.1254C257.5 29.8873 256.18 30.7274 255.23 31.9223C253.498 34.1034 251.787 37.6829 251.62 40.4641C251.484 42.7131 252.345 48.338 253.295 50.3835C254.166 52.2567 258.246 53.6812 260.261 54.1456L278.743 32.6528C278.096 30.263 276.436 28.1705 274.266 26.9809Z" fill="#263238"/>
<path d="M277.449 29.881L273.019 29.0879C275.44 34.8538 276.097 48.0448 277.485 54.1498C279.118 51.7809 282.912 44.5644 282.708 41.6893C282.505 38.8194 282.714 29.3905 277.449 29.881Z" fill="#263238"/>
<path d="M279.983 39.2838C279.696 34.8589 276.748 29.4322 272.339 29.907L262.138 32.5108C258.866 33.3457 256.685 36.1112 256.445 39.482C256.434 39.649 256.414 39.4455 256.419 39.5707L258.694 65.9946L266.354 81.1945L273.116 68.374C273.122 66.219 273.116 61.3871 273.116 61.3975C273.116 61.3975 278.767 60.4479 279.926 53.0644C280.5 49.391 280.301 44.1991 279.983 39.2838Z" fill="#FFBF9D"/>
<path d="M276.822 45.3371C276.843 45.8381 276.431 46.2659 275.914 46.292C275.392 46.3233 274.954 45.9424 274.938 45.4415C274.917 44.9406 275.33 44.5127 275.846 44.4866C276.363 44.4605 276.801 44.8414 276.822 45.3371Z" fill="#263238"/>
<path d="M278.878 42.1761C278.764 42.3013 278.043 41.7691 277.026 41.7743C276.008 41.7638 275.262 42.2909 275.153 42.1656C275.101 42.1082 275.215 41.8891 275.544 41.6491C275.862 41.4142 276.41 41.1794 277.042 41.1847C277.678 41.1847 278.21 41.4195 278.518 41.6595C278.826 41.8995 278.936 42.1187 278.878 42.1761Z" fill="#263238"/>
<path d="M268.285 45.3371C268.306 45.8381 267.893 46.2659 267.377 46.292C266.855 46.3233 266.417 45.9424 266.401 45.4415C266.38 44.9406 266.792 44.5127 267.309 44.4866C267.831 44.4605 268.269 44.8414 268.285 45.3371Z" fill="#263238"/>
<path d="M269.204 42.1761C269.084 42.3013 268.369 41.7691 267.351 41.7743C266.334 41.7638 265.587 42.2909 265.478 42.1656C265.426 42.1082 265.54 41.8891 265.869 41.6491C266.188 41.4142 266.735 41.1794 267.367 41.1847C268.003 41.1847 268.536 41.4195 268.843 41.6595C269.157 41.8995 269.261 42.1187 269.204 42.1761Z" fill="#263238"/>
<path d="M272.387 50.1745C272.382 50.1171 273.013 50.0075 274.041 49.8718C274.302 49.8457 274.547 49.7935 274.589 49.6161C274.652 49.4283 274.542 49.1465 274.412 48.8439C274.166 48.2177 273.911 47.555 273.639 46.8663C272.565 44.0485 271.787 41.7318 271.902 41.69C272.017 41.6483 272.977 43.8972 274.052 46.7149C274.313 47.4089 274.558 48.0716 274.793 48.703C274.892 49.0004 275.064 49.3344 274.928 49.7257C274.86 49.9188 274.667 50.0597 274.5 50.1066C274.333 50.1588 274.187 50.1588 274.057 50.1692C273.034 50.2266 272.392 50.2319 272.387 50.1745Z" fill="#263238"/>
<path d="M263.334 58.7676C263.334 58.7676 265.734 63.8342 273.118 63.1298V61.3922C273.118 61.3922 268.255 61.7157 263.334 58.7676Z" fill="#FF9A6C"/>
<path d="M268.884 38.4968C268.785 38.7733 267.768 38.6429 266.573 38.789C265.373 38.9142 264.413 39.2638 264.256 39.0133C264.183 38.8933 264.35 38.6324 264.741 38.3663C265.127 38.1002 265.743 37.8445 266.458 37.761C267.173 37.6828 267.83 37.7923 268.269 37.9697C268.707 38.1472 268.926 38.3663 268.884 38.4968Z" fill="#263238"/>
<path d="M278.543 39.0595C278.366 39.2891 277.661 39.0543 276.821 39.0439C275.976 39.0074 275.266 39.2004 275.099 38.9604C275.026 38.8456 275.141 38.6108 275.449 38.3916C275.757 38.1725 276.268 37.9951 276.847 38.0107C277.427 38.0264 277.928 38.2351 278.225 38.4751C278.522 38.7099 278.622 38.9447 278.543 39.0595Z" fill="#263238"/>
<path d="M277.979 32.5485C277.53 31.4371 276.309 30.7692 275.114 30.7118C273.919 30.6491 272.75 31.1031 271.712 31.7032C267.318 34.2443 265.059 40.3807 260.718 43.0053C259.648 43.6523 258.26 43.0575 257.352 43.9132C256.444 44.769 255.855 46.1361 256.356 47.2788C255.771 46.4805 255.181 45.6665 254.848 44.7325C254.514 43.7984 254.472 42.7131 254.968 41.8574C255.343 41.2051 256.006 40.7094 256.189 39.9789C256.35 39.3371 256.095 38.6692 256.126 38.0065C256.152 37.3334 256.47 36.7124 256.804 36.1228C258.505 33.1172 260.843 30.3935 263.859 28.7028C265.826 27.5966 268.08 26.9496 270.334 27.0279C272.589 27.1061 274.843 27.9358 276.497 29.4751C277.462 30.383 278.48 31.317 277.979 32.5485Z" fill="#263238"/>
<path d="M257.451 44.8319C257.373 44.6179 253.522 43.23 253.475 47.3209C253.428 51.297 257.435 50.5143 257.446 50.3995C257.451 50.2847 257.451 44.8319 257.451 44.8319Z" fill="#FFBF9D"/>
<path d="M256.23 48.8805C256.214 48.8701 256.162 48.9275 256.042 48.9796C255.927 49.0318 255.729 49.0631 255.526 48.9849C255.108 48.8283 254.759 48.1552 254.748 47.4403C254.743 47.0803 254.821 46.7359 254.952 46.4489C255.077 46.1567 255.265 45.9584 255.479 45.9219C255.687 45.875 255.839 46.0054 255.886 46.115C255.938 46.2246 255.912 46.308 255.933 46.3133C255.943 46.3237 256.016 46.2454 255.99 46.0837C255.974 46.0054 255.927 45.9115 255.839 45.8332C255.745 45.7549 255.604 45.7132 255.458 45.7288C255.15 45.7497 254.873 46.0263 254.727 46.3394C254.565 46.6524 254.472 47.0386 254.477 47.4456C254.492 48.2491 254.899 49.0005 255.468 49.1727C255.745 49.2458 255.98 49.1675 256.105 49.0736C256.225 48.9744 256.246 48.8857 256.23 48.8805Z" fill="#FF9A6C"/>
<path d="M255.87 42.7862C255.875 42.7914 255.954 42.7445 256.11 42.6506C256.261 42.5514 256.496 42.4262 256.778 42.2279C257.331 41.8261 258.103 41.1895 258.923 40.2764C259.747 39.3685 260.608 38.184 261.547 36.869C262.487 35.5541 263.514 34.0983 264.829 32.7834C265.497 32.1416 266.202 31.5676 266.948 31.1084C267.689 30.6492 268.472 30.3153 269.233 30.07C270.762 29.5795 272.234 29.4699 273.444 29.5534C274.66 29.6317 275.62 29.8874 276.267 30.1065C276.596 30.2057 276.836 30.3153 277.003 30.3779C277.17 30.4457 277.259 30.477 277.264 30.4718C277.269 30.4666 277.18 30.4248 277.019 30.3466C276.857 30.2735 276.617 30.1483 276.293 30.0387C275.651 29.7987 274.686 29.5169 273.46 29.423C272.239 29.3238 270.747 29.4178 269.192 29.9083C268.414 30.1483 267.621 30.4875 266.864 30.9519C266.103 31.411 265.388 31.9955 264.715 32.6477C263.384 33.9783 262.356 35.4445 261.427 36.7647C260.498 38.09 259.648 39.2693 258.844 40.1825C258.041 41.1008 257.295 41.7478 256.752 42.1653C256.481 42.3688 256.251 42.5097 256.11 42.614C255.943 42.7236 255.87 42.781 255.87 42.7862Z" fill="#455A64"/>
<path d="M256.873 43.9131C256.81 44.9984 256.758 46.1464 257.264 47.1117C257.765 48.077 259.033 48.7345 259.972 48.1918C260.745 47.7535 260.974 46.7673 261.105 45.8907C261.48 43.36 261.653 40.798 262.054 38.2725L256.873 43.9131Z" fill="#263238"/>
<path d="M276.999 30.654C276.993 30.6748 276.649 30.5861 276.012 30.5653C275.381 30.5496 274.442 30.6331 273.383 31.0453C272.856 31.2488 272.292 31.5254 271.734 31.8959C271.175 32.2663 270.607 32.7046 270.033 33.1951C268.89 34.1813 267.711 35.3658 266.704 36.7851C266.197 37.4947 265.754 38.2253 265.269 38.8984C264.789 39.5767 264.256 40.1872 263.677 40.6881C262.524 41.69 261.334 42.3944 260.317 42.9371C259.299 43.4745 258.449 43.8502 257.864 44.1111C257.588 44.2312 257.363 44.3251 257.186 44.3981C257.029 44.4607 256.946 44.4921 256.941 44.4868C256.935 44.4816 257.014 44.4347 257.165 44.3616C257.337 44.2781 257.556 44.1685 257.828 44.0329C258.402 43.7511 259.242 43.3493 260.244 42.7962C261.24 42.2431 262.409 41.5282 263.541 40.5316C264.105 40.0359 264.622 39.4358 265.091 38.7679C265.566 38.1 266.015 37.3695 266.526 36.6547C267.549 35.2145 268.744 34.0248 269.902 33.0386C270.487 32.5481 271.061 32.1098 271.635 31.7445C272.208 31.3741 272.782 31.1027 273.325 30.9044C274.416 30.5027 275.371 30.44 276.012 30.487C276.336 30.5079 276.581 30.5496 276.748 30.5914C276.915 30.6227 277.004 30.6488 276.999 30.654Z" fill="#455A64"/>
<path d="M256.763 41.4556C256.768 41.4661 256.643 41.5495 256.413 41.6904C256.142 41.8522 255.808 42.0453 255.406 42.2801C255.296 42.3427 255.187 42.4053 255.067 42.4731C254.942 42.541 254.801 42.6036 254.634 42.6192C254.55 42.6244 254.451 42.614 254.362 42.5566C254.274 42.4992 254.222 42.4001 254.211 42.2957C254.201 42.087 254.316 41.9357 254.399 41.7948C254.759 41.2208 255.15 40.5947 255.568 39.9268L255.724 40.0729C255.354 40.3494 254.916 40.5686 254.446 40.7094C253.971 40.8503 253.486 40.9025 253.021 40.8764C252.907 40.8712 252.781 40.8556 252.661 40.8138C252.547 40.7721 252.411 40.6938 252.354 40.5477C252.296 40.4016 252.348 40.2398 252.421 40.1459C252.489 40.0415 252.578 39.9685 252.646 39.8954C253.235 39.3215 253.679 38.7214 253.997 38.1892C254.634 37.1143 254.816 36.342 254.858 36.3577C254.869 36.3629 254.837 36.5559 254.733 36.8951C254.623 37.2291 254.446 37.7143 254.133 38.2674C253.825 38.8205 253.387 39.4467 252.787 40.0415C252.641 40.1824 252.489 40.3442 252.547 40.4694C252.594 40.5947 252.818 40.6573 253.027 40.6573C253.465 40.6781 253.924 40.626 254.373 40.4955C254.816 40.3598 255.229 40.1563 255.583 39.8954L256.058 39.5458L255.74 40.0415C255.312 40.7042 254.916 41.3304 254.55 41.8991C254.456 42.0348 254.378 42.1705 254.383 42.2853C254.389 42.4001 254.483 42.4627 254.613 42.4523C254.869 42.4366 255.103 42.2644 255.328 42.16C255.74 41.9461 256.084 41.7687 256.366 41.6278C256.617 41.5026 256.752 41.4452 256.763 41.4556Z" fill="#455A64"/>
<path d="M271.506 52.1128C271.141 51.664 270.515 51.4344 269.904 51.5179C269.482 51.5753 269.059 51.7892 268.809 52.1388C268.563 52.4884 268.522 52.9737 268.767 53.292C269.043 53.6521 269.597 53.7147 270.061 53.5738C270.525 53.4277 270.917 53.1146 271.292 52.8015C271.397 52.7128 271.501 52.6241 271.564 52.5093C271.626 52.3945 271.637 52.2432 271.553 52.1493" fill="#FF9A6C"/>
<path d="M268.982 50.5246C269.138 50.5089 269.175 51.5577 270.109 52.2726C271.043 52.9875 272.17 52.8361 272.186 52.9822C272.201 53.0449 271.941 53.191 271.46 53.2223C270.991 53.2536 270.302 53.1231 269.728 52.69C269.159 52.2517 268.898 51.6517 268.852 51.2238C268.799 50.7803 268.909 50.5194 268.982 50.5246Z" fill="#263238"/>
<path d="M283.807 121.153L288.08 130.807L267.339 138.566L262.7 128.187L283.807 121.153Z" fill="#263238"/>
<path d="M325.717 179.893L331.389 192.139C331.389 192.139 345.556 190.266 346.824 192.426L323.661 204.501L314.039 185.784L325.717 179.893Z" fill="#455A64"/>
<path d="M323.834 194.758C323.443 195.112 323.386 195.786 323.725 196.193C324.064 196.6 324.747 196.662 325.144 196.313C325.541 195.963 325.634 195.159 325.248 194.794C324.867 194.429 324.059 194.398 323.756 194.836" fill="#E0E0E0"/>
<path d="M323.664 204.5L322.896 203.008L345.61 191.742C345.61 191.742 346.586 191.82 347.004 192.494L323.664 204.5Z" fill="#263238"/>
<path d="M331.644 192.102C331.697 192.217 331.149 192.562 330.773 193.219C330.377 193.866 330.34 194.513 330.21 194.518C330.095 194.55 329.917 193.777 330.387 192.989C330.851 192.196 331.613 191.982 331.644 192.102Z" fill="#263238"/>
<path d="M334.627 191.873C334.711 191.972 334.314 192.42 334.168 193.104C334.007 193.782 334.174 194.356 334.054 194.414C333.954 194.487 333.532 193.855 333.73 193.01C333.923 192.154 334.57 191.763 334.627 191.873Z" fill="#263238"/>
<path d="M337.532 194.119C337.438 194.197 336.99 193.701 336.964 192.924C336.932 192.146 337.35 191.625 337.449 191.692C337.564 191.755 337.386 192.266 337.412 192.908C337.428 193.545 337.642 194.046 337.532 194.119Z" fill="#263238"/>
<path d="M330.025 189.441C330.03 189.571 329.425 189.681 328.793 190.051C328.157 190.412 327.765 190.886 327.656 190.819C327.546 190.772 327.823 190.093 328.569 189.665C329.31 189.227 330.035 189.321 330.025 189.441Z" fill="#263238"/>
<path d="M329.133 186.639C329.159 186.686 328.742 186.989 327.954 187.229C327.562 187.349 327.077 187.448 326.529 187.474C326.258 187.49 325.966 187.484 325.668 187.458C325.522 187.443 325.36 187.437 325.173 187.364C324.985 187.307 324.755 187.041 324.807 186.78C324.839 186.54 325.011 186.352 325.178 186.263C325.35 186.169 325.507 186.133 325.653 186.102C325.945 186.034 326.237 185.992 326.514 185.982C327.067 185.956 327.562 186.034 327.959 186.143C328.763 186.373 329.164 186.707 329.138 186.749C329.107 186.811 328.658 186.587 327.891 186.451C327.51 186.383 327.046 186.347 326.54 186.394C326.289 186.415 326.023 186.462 325.757 186.529C325.475 186.592 325.261 186.696 325.256 186.837C325.256 186.89 325.261 186.91 325.35 186.957C325.439 186.999 325.574 187.01 325.715 187.025C325.992 187.057 326.263 187.067 326.519 187.067C327.03 187.062 327.495 187.004 327.881 186.926C328.648 186.77 329.107 186.576 329.133 186.639Z" fill="#263238"/>
<path d="M303.678 199.567L302.963 213.045C302.963 213.045 316.358 218.017 316.468 220.522L290.352 220.35L290.607 199.306L303.678 199.567Z" fill="#455A64"/>
<path d="M295.065 211.829C294.553 211.96 294.188 212.528 294.298 213.045C294.407 213.561 294.981 213.937 295.498 213.817C296.015 213.697 296.468 213.029 296.302 212.523C296.135 212.022 295.435 211.62 294.966 211.86" fill="#E0E0E0"/>
<path d="M290.352 220.351L290.372 218.676L315.721 219.349C315.721 219.349 316.546 219.876 316.603 220.664L290.352 220.351Z" fill="#263238"/>
<path d="M303.199 213.137C303.194 213.267 302.547 213.314 301.905 213.716C301.253 214.102 300.919 214.655 300.799 214.603C300.679 214.577 300.888 213.81 301.671 213.335C302.458 212.855 303.231 213.022 303.199 213.137Z" fill="#263238"/>
<path d="M305.95 214.332C305.976 214.457 305.418 214.666 304.969 215.204C304.505 215.725 304.385 216.315 304.259 216.305C304.139 216.325 304.061 215.569 304.63 214.911C305.188 214.254 305.95 214.212 305.95 214.332Z" fill="#263238"/>
<path d="M307.469 217.665C307.349 217.691 307.182 217.044 307.526 216.345C307.866 215.64 308.476 215.374 308.528 215.484C308.601 215.593 308.2 215.964 307.928 216.543C307.641 217.112 307.594 217.654 307.469 217.665Z" fill="#263238"/>
<path d="M303.019 210.026C302.962 210.14 302.377 209.953 301.647 209.989C300.916 210.01 300.348 210.245 300.28 210.135C300.207 210.041 300.77 209.572 301.626 209.54C302.487 209.504 303.087 209.926 303.019 210.026Z" fill="#263238"/>
<path d="M303.544 207.133C303.544 207.185 303.032 207.258 302.224 207.102C301.822 207.023 301.347 206.883 300.851 206.653C300.601 206.538 300.35 206.397 300.1 206.236C299.98 206.157 299.839 206.074 299.709 205.917C299.568 205.782 299.495 205.437 299.662 205.234C299.803 205.035 300.043 204.952 300.23 204.947C300.423 204.942 300.58 204.983 300.726 205.025C301.018 205.103 301.29 205.202 301.54 205.322C302.041 205.562 302.443 205.86 302.745 206.142C303.346 206.721 303.549 207.201 303.502 207.227C303.445 207.269 303.152 206.862 302.537 206.382C302.229 206.142 301.838 205.896 301.373 205.698C301.138 205.599 300.888 205.515 300.617 205.453C300.34 205.375 300.1 205.369 300.027 205.489C300.001 205.536 299.996 205.557 300.053 205.635C300.11 205.714 300.225 205.787 300.34 205.865C300.57 206.022 300.804 206.157 301.029 206.277C301.483 206.512 301.921 206.679 302.297 206.789C303.048 207.018 303.544 207.06 303.544 207.133Z" fill="#263238"/>
<path d="M243.951 134.867C243.951 134.867 296.282 128.319 299.366 128.313C306.609 128.308 311.148 133.829 312.228 138.087C313.027 141.238 329.135 186.744 329.135 186.744L317.253 192.907L299.778 161.855L290.871 146.362L244.974 153.454L243.951 134.867Z" fill="#263238"/>
<path d="M293.031 144.931C293.031 144.931 300.201 144.931 304.078 150.671C306.353 154.042 305.554 160.069 305.601 164.619C305.664 170.812 304.166 208.549 304.166 208.549L289.499 208.794L286.425 169.466L286.608 162.198L257.319 159.813C257.319 159.813 254.653 150.932 261.212 143.929C262.052 143.021 293.031 144.931 293.031 144.931Z" fill="#263238"/>
<path d="M248.422 122.214C248.422 122.214 236.854 140.018 243.951 153.391C247.332 159.768 257.455 159.757 257.455 159.757L267.828 146.764V125.272L248.422 122.214Z" fill="#263238"/>
<path d="M257.451 159.765C257.451 159.759 257.514 159.723 257.644 159.66C257.79 159.593 257.983 159.504 258.229 159.389C258.761 159.149 259.517 158.805 260.488 158.366C262.471 157.484 265.309 156.216 268.811 154.656C272.333 153.096 276.523 151.249 281.172 149.193C283.499 148.165 285.941 147.09 288.472 145.974C289.114 145.702 289.73 145.389 290.408 145.16C291.076 144.909 291.78 144.758 292.49 144.627C293.92 144.408 295.396 144.403 296.863 144.591C298.334 144.773 299.759 145.165 301.073 145.786C301.721 146.109 302.357 146.469 302.884 146.97C303.427 147.45 303.855 148.029 304.215 148.635C304.924 149.851 305.321 151.207 305.441 152.553C305.498 153.232 305.457 153.889 305.462 154.542C305.457 155.194 305.446 155.836 305.441 156.472C305.384 161.554 305.331 166.136 305.284 169.987C305.232 173.822 305.185 176.932 305.154 179.097C305.133 180.162 305.117 180.991 305.102 181.576C305.091 181.847 305.086 182.061 305.081 182.218C305.076 182.364 305.07 182.437 305.065 182.437C305.06 182.437 305.055 182.364 305.055 182.218C305.055 182.056 305.05 181.847 305.044 181.576C305.044 180.991 305.039 180.162 305.039 179.097C305.05 176.932 305.06 173.822 305.076 169.987C305.102 166.136 305.133 161.554 305.17 156.472C305.175 155.836 305.18 155.194 305.185 154.542C305.18 153.889 305.222 153.227 305.164 152.58C305.05 151.275 304.658 149.955 303.969 148.786C303.625 148.202 303.208 147.643 302.696 147.195C302.195 146.725 301.58 146.375 300.953 146.062C299.68 145.462 298.277 145.076 296.831 144.899C295.391 144.716 293.94 144.721 292.542 144.935C291.848 145.06 291.159 145.212 290.512 145.452C289.86 145.671 289.223 145.994 288.592 146.261C286.056 147.372 283.614 148.442 281.282 149.464C276.622 151.499 272.427 153.331 268.899 154.87C265.382 156.394 262.528 157.631 260.54 158.492C259.564 158.909 258.797 159.232 258.26 159.462C258.01 159.566 257.811 159.645 257.665 159.707C257.524 159.744 257.456 159.77 257.451 159.765Z" fill="#455A64"/>
<path d="M298.333 128.316C298.343 128.389 287.349 129.626 273.782 131.076C260.215 132.527 249.211 133.643 249.2 133.57C249.19 133.497 260.184 132.261 273.751 130.81C287.318 129.359 298.322 128.243 298.333 128.316Z" fill="#455A64"/>
<path d="M285.397 102.374C286.248 99.6656 289.222 89.6993 288.554 84.45C288.022 80.2495 284.265 74.8802 283.138 72.0103C282.606 70.6589 278.384 69.2657 275.869 68.5247L273.365 65.5661L273.156 67.0115C271.935 68.5508 269.498 69.657 267.176 69.4535C263.456 69.1248 260.419 67.6012 258.373 65.3574C248.71 68.3056 248.741 68.963 246.883 69.6988C244.494 70.6484 251.642 93.5502 251.642 93.5502C251.642 93.5502 254.204 107.936 251.794 112.784C250.437 115.513 248.866 118.628 247.708 121.164C247.708 121.164 244.499 127.29 245.182 127.128C246.628 126.794 256.667 129.225 266.091 129.721C283.524 130.634 286.858 128.051 286.858 128.051C285.95 123.595 284.422 107.952 284.422 104.92C284.422 104.409 285.246 102.854 285.397 102.374Z" fill="#FF725E"/>
<path d="M273.665 66.2666C273.665 66.2666 285.025 69.1939 286.136 70.7019C289.157 74.8084 307.358 102.907 298.424 111.287C292.57 116.777 284.351 105.198 284.351 105.198L273.665 66.2666Z" fill="#FF725E"/>
<path d="M297.337 99.3648C297.332 99.3804 297.051 99.3335 296.539 99.2291C295.981 99.1143 295.25 98.963 294.363 98.7804C292.511 98.4047 289.918 97.8776 286.943 97.4498L287.1 97.3611C286.813 98.0707 286.515 98.8064 286.208 99.5631C285.446 101.426 284.72 103.19 284.089 104.734L284.068 104.604C285.399 106.2 286.526 107.552 287.356 108.548C287.726 109.008 288.029 109.383 288.269 109.675C288.477 109.942 288.582 110.088 288.571 110.093C288.561 110.103 289.411 110.479 288.206 109.728C287.95 109.446 287.627 109.086 287.235 108.642C286.385 107.661 285.227 106.331 283.865 104.765L283.812 104.708L283.844 104.635C284.47 103.085 285.18 101.322 285.931 99.4535C286.239 98.7021 286.536 97.9663 286.829 97.2567L286.87 97.1523L286.985 97.168C289.98 97.6115 292.563 98.1751 294.405 98.6029C295.329 98.8169 296.059 98.9995 296.565 99.1352C297.066 99.2656 297.337 99.3491 297.337 99.3648Z" fill="#263238"/>
<path d="M286.41 98.0431C286.389 98.0378 286.421 97.7143 286.494 97.1195C286.572 96.4829 286.682 95.6376 286.812 94.6201C287.057 92.5172 287.396 89.5795 287.089 86.36C286.802 83.1353 285.695 80.3645 284.74 78.4704C284.26 77.5155 283.833 76.7694 283.53 76.2528C283.227 75.7362 283.055 75.4544 283.076 75.4388C283.086 75.4336 283.139 75.4962 283.232 75.6266C283.326 75.7519 283.462 75.9449 283.629 76.1954C283.963 76.6963 284.422 77.432 284.928 78.3817C285.935 80.2654 287.094 83.0675 287.386 86.3391C287.694 89.5951 287.318 92.5485 287.021 94.6514C286.869 95.7054 286.718 96.5559 286.614 97.1403C286.499 97.7195 286.431 98.0431 286.41 98.0431Z" fill="#263238"/>
<g opacity="0.3">
<path d="M249.201 119.028L270.704 109.125L269.249 104.872L272.557 103.609L277.947 104.314C280.65 104.669 283.363 103.74 285.283 101.804L271.894 98.4122L256.616 101.673L252.734 90.4131L251.779 93.7109L252.577 100.792L253.12 108.441L249.201 119.028Z" fill="black"/>
</g>
<path d="M247.149 69.5752C247.149 69.5752 242.923 71.1876 241.649 75.8785C241.649 75.8785 240.731 77.7257 239.985 81.013C238.169 88.9965 234.255 103.993 234.099 107.969C233.817 115.159 239.536 117.2 242.62 117.826C245.709 118.457 267.16 107.353 267.16 107.353L262.704 95.2424L249.602 100.664C249.602 100.664 252.591 91.4281 253.458 87.6503C254.313 83.8777 247.149 69.5752 247.149 69.5752Z" fill="#FF725E"/>
<path d="M287.023 96.0111C286.762 94.8266 286.72 93.5952 286.903 92.395C287.012 91.675 287.112 90.9236 286.981 90.2087C286.845 89.4938 286.178 88.732 285.452 88.7946L284.356 94.0596L287.023 96.0111Z" fill="#FFBF9D"/>
<path d="M286.509 83.6578L282.653 102.265L273.506 101.712L276.214 83.3082C276.287 82.8229 276.699 82.4629 277.19 82.4629L285.544 82.4733C286.17 82.4733 286.634 83.0473 286.509 83.6578Z" fill="#263238"/>
<path d="M276.229 88.4982C276.24 88.4982 276.292 88.3051 276.37 87.9503C276.448 87.5589 276.553 87.0528 276.678 86.4475C276.803 85.8005 276.949 85.0439 277.111 84.209C277.132 84.1046 277.148 83.9898 277.179 83.9064C277.21 83.8177 277.268 83.7342 277.341 83.6715C277.414 83.6089 277.502 83.562 277.601 83.5411C277.69 83.515 277.81 83.5307 277.925 83.5254C278.395 83.5254 278.875 83.5202 279.37 83.5202C281.348 83.5098 283.143 83.4889 284.437 83.4628C285.058 83.4472 285.575 83.4315 285.971 83.4263C286.331 83.4106 286.535 83.4002 286.535 83.3846C286.535 83.3689 286.336 83.3585 285.971 83.348C285.575 83.3428 285.058 83.3324 284.437 83.3272C283.138 83.3167 281.348 83.3167 279.37 83.3272C278.875 83.3324 278.395 83.3324 277.925 83.3376C277.81 83.3428 277.695 83.3272 277.56 83.3585C277.434 83.3846 277.314 83.4472 277.221 83.5359C277.127 83.6194 277.054 83.7289 277.012 83.8437C276.97 83.969 276.965 84.0681 276.939 84.1777C276.793 85.0126 276.662 85.7692 276.547 86.4214C276.448 87.0371 276.365 87.5433 276.297 87.9399C276.24 88.2947 276.219 88.493 276.229 88.4982Z" fill="#455A64"/>
<path d="M281.122 84.4377C281.211 84.276 281.394 84.0725 281.67 84.1664C281.78 84.1768 281.983 84.3386 281.994 84.5316C282.004 84.7195 281.905 84.9073 281.743 84.996C281.581 85.0847 281.362 85.0691 281.221 84.9439C281.08 84.8238 281.034 84.5995 281.122 84.4377Z" fill="#FAFAFA"/>
<path d="M281.373 90.0529C281.581 90.1051 286.424 92.6045 286.424 92.6045L288.949 95.2657C288.949 95.2657 289.857 96.805 289.121 99.2105C288.38 101.616 287.175 102.461 284.394 103.145L279.134 102.315L276.478 100.134C275.956 99.7062 275.748 99.0018 275.951 98.3547L275.988 98.2452L275.685 97.7442C275.497 97.4259 275.513 97.0294 275.732 96.732C276.029 96.3249 276.603 96.2362 277.005 96.5337L280 98.7252L282.061 98.9966L282.369 98.3182L279.348 96.7476L275.502 93.7734C274.996 93.382 274.918 92.6411 275.33 92.1506C275.685 91.7331 276.29 91.6288 276.765 91.9053L280.334 94.003L284.06 95.6466L283.47 94.1647L279.087 90.9191C279.103 90.9348 278.753 89.385 281.373 90.0529Z" fill="#FFBF9D"/>
<path d="M280.931 87.5086C280.931 87.5086 279.924 86.9294 278.249 87.6234C276.574 88.3174 274.44 89.3662 274.44 89.3662L271.231 90.2845L271.612 89.4914C271.612 89.4914 274.779 89.8149 274.628 87.5086L272.718 87.592L271.08 86.752L267.855 89.8932L266.639 94.3337L263.086 96.1756L265.878 103.773L270.892 100.992L277.174 100.867L279.476 99.009L279.731 96.6452L281.985 94.3493C281.985 94.3493 282.272 93.2014 281.234 93.0866C280.196 92.977 277.691 95.4608 277.691 95.4608L275.186 95.5234C275.186 95.5234 274.753 95.1268 275.108 94.9077C275.463 94.6833 282.852 91.0516 283.18 90.2376C283.509 89.4236 283.848 88.8913 283.113 88.6617C282.377 88.4374 281.156 88.8496 281.156 88.8496C281.156 88.8496 281.49 87.686 280.931 87.5086Z" fill="#FFBF9D"/>
<path d="M274.798 92.0395C274.824 92.0865 276.296 91.3977 278.091 90.5054C279.886 89.6079 281.321 88.8461 281.3 88.7991C281.274 88.7522 279.802 89.441 278.007 90.3332C276.212 91.2255 274.772 91.9925 274.798 92.0395Z" fill="#FF9A6C"/>
<path d="M273.301 97.9472C273.296 97.9576 273.431 98.0046 273.677 98.0672C273.922 98.1298 274.277 98.2185 274.731 98.302C275.179 98.3803 275.722 98.4481 276.333 98.4116C276.943 98.3803 277.611 98.2133 278.232 97.8846C279.495 97.2323 280.33 96.2357 280.888 95.5312C281.17 95.1712 281.378 94.8738 281.524 94.6651C281.665 94.4563 281.744 94.3363 281.733 94.3259C281.707 94.305 281.363 94.7538 280.784 95.4478C280.204 96.1261 279.364 97.0914 278.143 97.7176C277.538 98.0307 276.907 98.1976 276.317 98.2394C275.727 98.2811 275.195 98.2289 274.746 98.1715C273.859 98.0359 273.306 97.9159 273.301 97.9472Z" fill="#FF9A6C"/>
<path d="M263.056 96.1638C263.056 96.1586 263.129 96.1116 263.28 96.0281C263.447 95.9394 263.671 95.8142 263.958 95.6629C264.569 95.3394 265.451 94.8697 266.583 94.2697L266.552 94.3062C266.875 93.0956 267.277 91.5981 267.741 89.8605L267.747 89.8396L267.762 89.824C268.717 88.8847 269.803 87.8255 270.977 86.6723L271.029 86.6201L271.097 86.6514C271.603 86.9123 272.166 87.1941 272.74 87.4915L272.688 87.4811C273.278 87.455 273.93 87.4237 274.598 87.3924L274.718 87.3872V87.4967C274.718 87.8359 274.707 88.2116 274.514 88.5299C274.337 88.8534 274.05 89.1039 273.721 89.2656C273.059 89.5839 272.318 89.6465 271.571 89.6048L271.691 89.537C271.577 89.7822 271.446 90.0535 271.316 90.3301L271.17 90.1579C272.182 89.8657 273.267 89.5578 274.379 89.2343L274.358 89.2448C275.37 88.7804 276.403 88.3055 277.462 87.8255C278.464 87.3141 279.753 86.8445 280.979 87.3872L280.953 87.3767C281.105 87.4237 281.225 87.5489 281.282 87.6846C281.339 87.8203 281.36 87.9611 281.366 88.0916C281.371 88.3629 281.329 88.6186 281.256 88.8743L281.084 88.7073C281.454 88.5873 281.83 88.5038 282.227 88.4621C282.618 88.436 283.051 88.4047 283.447 88.6812C283.547 88.7543 283.625 88.8795 283.646 89.01C283.667 89.1352 283.646 89.25 283.625 89.3596C283.573 89.5683 283.489 89.7561 283.416 89.9388L283.301 90.2153C283.286 90.257 283.26 90.3145 283.218 90.3771C283.181 90.4292 283.145 90.4658 283.103 90.5075C282.947 90.6588 282.785 90.7736 282.618 90.8989C281.277 91.8016 279.884 92.5269 278.517 93.2574C277.833 93.6122 277.149 93.967 276.482 94.3166C276.148 94.4888 275.808 94.661 275.48 94.8332C275.328 94.9167 275.104 95.0106 275.083 95.0785C275.041 95.1411 275.135 95.3133 275.25 95.4176L275.156 95.3811C276.007 95.3602 276.842 95.3394 277.661 95.3237L277.572 95.3602C278.339 94.6297 279.117 93.9462 279.983 93.3983C280.197 93.2626 280.432 93.1426 280.672 93.0487C280.912 92.96 281.219 92.9182 281.475 93.0121C281.741 93.0904 281.971 93.32 282.049 93.5861C282.127 93.8522 282.127 94.1079 282.07 94.3688L282.065 94.4001L282.039 94.4262C281.256 95.2193 280.505 95.9812 279.779 96.7169L279.811 96.6491C279.722 97.4631 279.633 98.251 279.55 99.0128L279.544 99.0598L279.508 99.0859C278.699 99.7329 277.932 100.349 277.202 100.938L277.176 100.959H277.144C274.713 100.996 272.599 101.027 270.862 101.053L270.893 101.043C269.286 101.914 268.034 102.603 267.162 103.072C266.745 103.297 266.416 103.469 266.181 103.594C266.077 103.646 265.993 103.688 265.931 103.725C265.873 103.751 265.842 103.766 265.842 103.761C265.842 103.756 265.868 103.74 265.92 103.709C265.983 103.672 266.061 103.626 266.166 103.563C266.395 103.432 266.713 103.245 267.126 103.01C267.987 102.525 269.234 101.82 270.825 100.917L270.841 100.907H270.857C272.599 100.865 274.707 100.813 277.139 100.756L277.082 100.776C277.812 100.187 278.574 99.5659 279.377 98.9137L279.336 98.9867C279.414 98.2249 279.498 97.437 279.586 96.623L279.591 96.5865L279.618 96.5604C280.338 95.8194 281.089 95.0576 281.866 94.2592L281.835 94.3166C281.929 93.8992 281.83 93.3617 281.397 93.2522C280.985 93.1061 280.525 93.3722 280.108 93.6174C279.273 94.1444 278.496 94.828 277.749 95.5533L277.713 95.5898H277.661C276.836 95.6107 276.001 95.6316 275.156 95.6524H275.099L275.062 95.6159C274.984 95.5376 274.921 95.4594 274.864 95.3602C274.817 95.2663 274.77 95.1202 274.833 94.9793C274.895 94.8437 275.02 94.7758 275.099 94.7341L275.349 94.6036C275.683 94.4314 276.017 94.2592 276.351 94.087C277.024 93.7374 277.703 93.3826 278.386 93.0278C279.743 92.2973 281.146 91.5668 282.456 90.6849C282.613 90.5701 282.774 90.4501 282.91 90.3249C282.936 90.2936 282.973 90.2571 282.994 90.231C283.009 90.2049 283.03 90.1788 283.046 90.1266L283.161 89.85C283.301 89.5057 283.51 89.0673 283.275 88.9108C283.02 88.723 282.607 88.7177 282.247 88.7491C281.877 88.7856 281.506 88.8691 281.162 88.9786L280.922 89.0569L280.99 88.8169C281.052 88.5873 281.094 88.3421 281.089 88.1177C281.089 87.8881 281.011 87.6898 280.865 87.6481H280.859L280.839 87.6376C280.348 87.408 279.727 87.3872 279.174 87.4915C278.61 87.5854 278.089 87.8411 277.556 88.0864C276.502 88.5664 275.469 89.036 274.462 89.4952L274.452 89.5004H274.441C273.33 89.8187 272.239 90.1266 271.227 90.4136L270.966 90.4866L271.086 90.2414C271.217 89.9648 271.352 89.6935 271.467 89.4483L271.504 89.3752L271.587 89.3804C272.281 89.4274 273.012 89.3648 273.606 89.0726C273.899 88.9265 274.149 88.7073 274.3 88.436C274.467 88.1646 274.473 87.8359 274.478 87.528L274.593 87.6324C273.925 87.6585 273.272 87.6846 272.683 87.7107H272.651L272.625 87.7002C272.051 87.4028 271.493 87.1158 270.987 86.8549L271.107 86.8393C269.923 87.982 268.832 89.036 267.872 89.9648L267.893 89.9283C267.407 91.6607 266.99 93.1582 266.651 94.3636L266.646 94.3897L266.625 94.4001C265.482 94.9793 264.595 95.4281 263.974 95.7411C263.682 95.8872 263.452 95.9968 263.285 96.0803C263.139 96.1325 263.056 96.169 263.056 96.1638Z" fill="#FF9A6C"/>
<path d="M249.593 115.738C249.588 115.733 249.703 115.67 249.922 115.561C250.162 115.446 250.48 115.284 250.887 115.086C251.753 114.668 252.985 114.079 254.524 113.338C257.655 111.856 262.033 109.79 267.099 107.395L267.032 107.556C266.223 105.328 265.346 102.923 264.438 100.434C263.802 98.6753 263.176 96.9534 262.575 95.2993L262.753 95.3775C257.775 97.4699 253.34 99.3275 249.938 100.757H249.927H249.911C248.743 100.872 247.699 101.102 246.838 101.441C245.972 101.78 245.304 102.229 244.845 102.688C244.38 103.147 244.135 103.596 244.005 103.914C243.942 104.071 243.9 104.196 243.88 104.285C243.859 104.368 243.848 104.415 243.843 104.415C243.838 104.415 243.838 104.368 243.853 104.279C243.869 104.191 243.9 104.065 243.958 103.898C244.073 103.575 244.313 103.1 244.777 102.62C245.236 102.14 245.914 101.66 246.791 101.305C247.663 100.945 248.722 100.7 249.901 100.569L249.875 100.575C253.267 99.1293 257.691 97.2404 262.659 95.1219L262.789 95.0645L262.836 95.1949C263.442 96.8542 264.068 98.5709 264.704 100.329C265.607 102.818 266.484 105.229 267.287 107.452L267.329 107.567L267.22 107.619C262.137 109.977 257.744 112.018 254.602 113.479C253.053 114.188 251.806 114.757 250.934 115.154C250.517 115.336 250.193 115.482 249.948 115.592C249.713 115.696 249.593 115.743 249.593 115.738Z" fill="#263238"/>
<path d="M253.966 82.4678C253.929 82.4835 253.632 81.8834 253.115 80.9337C252.599 79.9841 251.853 78.69 250.929 77.3229C250.005 75.961 249.082 74.787 248.388 73.9521C247.694 73.1224 247.25 72.6215 247.276 72.5954C247.292 72.585 247.417 72.6945 247.637 72.9033C247.856 73.112 248.164 73.4303 248.529 73.8321C249.259 74.6356 250.219 75.7992 251.148 77.1768C252.077 78.5543 252.808 79.8693 253.277 80.8503C253.512 81.3407 253.695 81.7425 253.804 82.0243C253.929 82.3009 253.982 82.4574 253.966 82.4678Z" fill="#263238"/>
<path d="M254.481 85.0499C254.502 85.0551 254.45 85.2899 254.335 85.7074C254.22 86.1248 254.048 86.7301 253.829 87.471C253.385 88.9582 252.759 90.9984 252.034 93.2473C251.309 95.4963 250.63 97.5261 250.109 98.9871C249.848 99.7176 249.634 100.307 249.472 100.709C249.315 101.111 249.216 101.335 249.201 101.325C249.185 101.32 249.248 101.085 249.373 100.673C249.519 100.208 249.707 99.6237 249.926 98.9245C250.416 97.3956 251.058 95.3867 251.773 93.1638C252.493 90.9462 253.151 88.9373 253.646 87.4136C253.881 86.7196 254.079 86.1405 254.236 85.6761C254.377 85.2691 254.466 85.0447 254.481 85.0499Z" fill="#263238"/>
</svg>
