<svg width="25" height="25" viewBox="0 0 25 25" fill="none" xmlns="http://www.w3.org/2000/svg">
<path fill-rule="evenodd" clip-rule="evenodd" d="M10 5C7.23858 5 5 7.23858 5 10C5 12.7614 7.23858 15 10 15C12.7614 15 15 12.7614 15 10C15 7.23858 12.7614 5 10 5ZM2.5 10C2.5 5.85786 5.85786 2.5 10 2.5C14.1421 2.5 17.5 5.85786 17.5 10C17.5 11.6198 16.9865 13.1196 16.1134 14.3457L22.1339 20.3661C22.622 20.8543 22.622 21.6457 22.1339 22.1339C21.6457 22.622 20.8543 22.622 20.3661 22.1339L14.3457 16.1134C13.1196 16.9865 11.6198 17.5 10 17.5C5.85786 17.5 2.5 14.1421 2.5 10Z" fill="white"/>
</svg>
