<svg width="31" height="30" viewBox="0 0 31 30" fill="none" xmlns="http://www.w3.org/2000/svg">
<path d="M10.4923 4C10.4923 5.07825 10.4923 6.09548 10.4923 7.10253C10.4923 8.50629 11.4797 9.42181 12.988 9.43198C14.6699 9.43198 16.3518 9.43198 18.0445 9.43198C19.5419 9.43198 20.5077 8.52665 20.5077 7.13305C20.5185 6.13617 20.5077 5.14947 20.5185 4.15259C20.5185 4.12206 20.5402 4.10172 20.5728 4.01017C21.2347 4.01017 21.9075 4.01017 22.5911 4.01017C23.0142 4.01017 23.4375 4 23.8498 4.02035C24.5767 4.06103 25 4.4781 25 5.14947C25 11.7105 25 18.2819 25 24.8428C25 25.5651 24.5442 25.9923 23.7739 25.9923C18.2724 26.0026 12.7601 26.0026 7.2587 25.9923C6.45574 25.9923 6.01085 25.5651 6 24.8226C6 18.2716 6 11.7207 6 5.16981C6 4.50862 6.36893 4.06105 7.03084 4.03052C8.00741 3.97966 8.99484 4.01017 9.98229 4.01017C10.1451 4 10.297 4 10.4923 4ZM15.5054 13.216C16.3192 13.216 17.1222 13.216 17.936 13.216C18.6088 13.216 19.2815 13.216 19.9434 13.216C20.2906 13.216 20.5077 13.0431 20.5185 12.7176C20.5294 12.3819 20.3015 12.2192 19.9651 12.1785C19.824 12.1581 19.683 12.1683 19.5419 12.1683C16.9703 12.1683 14.3986 12.1683 11.8269 12.1683C11.5774 12.1683 11.3278 12.1581 11.0782 12.1785C10.7201 12.209 10.4814 12.3819 10.4923 12.7379C10.514 13.0635 10.7418 13.2262 11.0891 13.2262C11.1976 13.2262 11.3061 13.2262 11.4146 13.2262C12.7927 13.216 14.149 13.216 15.5054 13.216ZM15.4837 17.4274C16.9377 17.4274 18.3809 17.4274 19.8349 17.4274C20.1821 17.4274 20.4642 17.3459 20.5185 16.9798C20.5836 16.6034 20.3015 16.3796 19.7589 16.3796C16.9377 16.3796 14.1165 16.3796 11.2952 16.3796C10.7744 16.3796 10.4923 16.583 10.5031 16.9289C10.514 17.2646 10.7744 17.4375 11.2844 17.4375C12.6842 17.4274 14.0839 17.4274 15.4837 17.4274ZM15.5488 20.6214C14.2684 20.6214 12.988 20.6214 11.7184 20.6214C11.4797 20.6214 11.2193 20.5705 11.024 20.6519C10.8178 20.7435 10.5791 20.9368 10.5248 21.13C10.4489 21.4149 10.6876 21.6081 11.0023 21.6589C11.1216 21.6793 11.2518 21.6692 11.3712 21.6692C14.1273 21.6692 16.8943 21.6692 19.6504 21.6692C19.7698 21.6692 19.9 21.6692 20.0194 21.6589C20.3449 21.6183 20.5294 21.4351 20.5185 21.13C20.5077 20.8351 20.334 20.6723 20.0302 20.6418C19.8783 20.6214 19.7155 20.6214 19.5636 20.6214C18.229 20.6214 16.8835 20.6214 15.5488 20.6214Z" fill="white"/>
<path d="M18.9936 4C18.9936 5.30794 19.0132 6.58085 18.9838 7.85374C18.9642 8.47269 18.4945 8.97484 17.9661 8.98652C16.3318 9.00987 14.7073 8.99819 13.0731 8.98652C12.5153 8.98652 12.0357 8.48437 12.0162 7.84207C11.9868 6.56915 12.0064 5.29626 12.0064 4C14.3355 4 16.6352 4 18.9936 4Z" fill="white"/>
</svg>
