<svg width="31" height="30" viewBox="0 0 31 30" fill="none" xmlns="http://www.w3.org/2000/svg">
<path d="M30.1767 24.2148C28.4618 24.2148 26.747 24.2148 24.9981 24.2148C24.9981 23.7161 24.9981 23.2515 24.9981 22.7801C24.9981 22.4385 24.9981 22.0901 24.9981 21.7485C24.9981 21.5299 24.8888 21.3864 24.6701 21.3796C24.431 21.3659 24.3149 21.5162 24.3012 21.7417C24.2944 21.8168 24.3012 21.8988 24.3012 21.974C24.3012 24.4471 24.3012 26.9271 24.3012 29.4002C24.3012 29.5164 24.3012 29.6325 24.3012 29.776C21.2747 29.776 18.2687 29.776 15.2216 29.776C15.2216 29.6598 15.2216 29.5437 15.2216 29.4276C15.2216 26.9408 15.2216 24.4608 15.2216 21.974C15.2216 21.892 15.2285 21.8168 15.2216 21.7417C15.208 21.5299 15.1055 21.3796 14.88 21.3796C14.6409 21.3796 14.5248 21.5231 14.5179 21.7553C14.5111 22.3839 14.5179 23.0124 14.5179 23.6409C14.5179 23.8186 14.5179 23.9962 14.5179 24.1943C12.7963 24.1943 11.0815 24.1943 9.37352 24.1943C9.36669 24.1807 9.34619 24.1602 9.34619 24.1465C9.35985 23.0056 9.3052 21.8646 9.40084 20.7305C9.61947 18.1686 11.7647 15.9346 14.3061 15.5656C14.9552 15.47 15.6179 15.4973 16.2737 15.4632C16.3967 15.4563 16.5265 15.4632 16.67 15.4632C16.67 14.9098 16.6768 14.3905 16.6632 13.8782C16.6632 13.803 16.5743 13.7142 16.506 13.6527C15.3719 12.6484 14.7707 11.3982 14.7297 9.88149C14.7229 9.71753 14.6614 9.53307 14.5726 9.39643C14.0192 8.54927 13.7733 7.6133 13.7049 6.61585C13.6161 5.22214 13.8347 3.87625 14.4633 2.61235C14.921 1.69004 15.5632 0.931704 16.6017 0.637932C16.8613 0.562782 17.1482 0.535456 17.4147 0.54912C17.6469 0.569615 17.8246 0.514961 18.0159 0.40565C19.0407 -0.161397 20.0928 -0.079418 21.1449 0.316832C23.6112 1.2528 25.6471 4.06072 25.7428 6.691C25.7769 7.68162 25.5105 8.59026 24.9571 9.41692C24.8683 9.54673 24.8068 9.71753 24.7999 9.87466C24.7521 11.405 24.1373 12.6621 23.0032 13.6732C22.9212 13.7483 22.8665 13.885 22.8665 13.9943C22.8529 14.4657 22.8597 14.9371 22.8597 15.4427C22.9895 15.4495 23.1193 15.4632 23.2491 15.4632C24.1509 15.4632 25.0596 15.429 25.934 15.7228C28.3184 16.5358 29.7189 18.1823 30.1357 20.6622C30.1493 20.7306 30.1698 20.792 30.1903 20.8535C30.1767 21.974 30.1767 23.0944 30.1767 24.2148ZM16.0756 8.91136C16.0961 8.91136 16.1166 8.91137 16.1371 8.9182C16.1371 9.29395 16.1166 9.66288 16.1371 10.0386C16.2327 11.8423 17.6743 13.2906 19.4916 13.4272C21.2679 13.5571 22.9485 12.3205 23.2764 10.5647C23.5565 9.06167 23.174 7.66113 22.3746 6.38356C22.1765 6.06246 21.8144 5.79602 21.466 5.62522C20.53 5.17432 19.5326 5.00352 18.4873 5.12649C17.3327 5.26313 16.5129 5.93949 16.2601 7.07358C16.1303 7.66796 16.1303 8.29649 16.0756 8.91136ZM21.4045 14.5545C20.2841 14.9371 19.191 14.9371 18.091 14.5545C18.0022 15.3675 18.091 16.0849 18.8084 16.5631C19.3959 16.9525 20.0108 16.9662 20.612 16.6041C21.3772 16.1395 21.4865 15.4017 21.4045 14.5545Z" fill="#BDBDBD"/>
<path d="M30.1776 29.2831C29.9863 29.6861 29.6584 29.8091 29.2212 29.8023C27.9368 29.7886 26.6524 29.7955 25.3611 29.7955C25.2518 29.7955 25.1493 29.7955 25.0195 29.7955C25.0195 28.1695 25.0195 26.564 25.0195 24.9175C26.7343 24.9175 28.456 24.9175 30.1776 24.9175C30.1776 26.3727 30.1776 27.8279 30.1776 29.2831Z" fill="#BDBDBD"/>
<path d="M2.82841 1.23877C2.82841 1.96295 2.82841 2.64614 2.82841 3.3225C2.82841 4.2653 3.45011 4.88018 4.39974 4.88701C5.45869 4.88701 6.51763 4.88701 7.58341 4.88701C8.52621 4.88701 9.13425 4.27897 9.13425 3.343C9.14108 2.67347 9.13425 2.01078 9.14108 1.34125C9.14108 1.32075 9.15474 1.30709 9.17524 1.2456C9.59199 1.2456 10.0156 1.2456 10.446 1.2456C10.7124 1.2456 10.9789 1.23877 11.2385 1.25244C11.6962 1.27976 11.9627 1.55987 11.9627 2.01078C11.9627 6.41735 11.9627 10.8308 11.9627 15.2373C11.9627 15.7224 11.6757 16.0093 11.1907 16.0093C7.72688 16.0162 4.25627 16.0162 0.7925 16.0093C0.28694 16.0093 0.0068319 15.7224 0 15.2237C0 10.8239 0 6.42418 0 2.02444C0 1.58037 0.232284 1.27977 0.64903 1.25927C1.2639 1.22511 1.8856 1.2456 2.50731 1.2456C2.60979 1.23877 2.70543 1.23877 2.82841 1.23877ZM5.98474 7.42847C6.49714 7.42847 7.0027 7.42847 7.51509 7.42847C7.93867 7.42847 8.36224 7.42847 8.77899 7.42847C8.99761 7.42847 9.13425 7.31233 9.14108 7.09371C9.14791 6.86826 9.00444 6.75895 8.79265 6.73162C8.70384 6.71795 8.61503 6.72479 8.52621 6.72479C6.90705 6.72479 5.28789 6.72479 3.66873 6.72479C3.5116 6.72479 3.35446 6.71795 3.19733 6.73162C2.97188 6.75211 2.82157 6.86826 2.82841 7.10737C2.84207 7.326 2.98554 7.4353 3.20416 7.4353C3.27248 7.4353 3.3408 7.4353 3.40912 7.4353C4.27677 7.42847 5.13076 7.42847 5.98474 7.42847ZM5.97108 10.2569C6.88656 10.2569 7.7952 10.2569 8.71067 10.2569C8.92929 10.2569 9.10692 10.2022 9.14108 9.95628C9.18207 9.7035 9.00444 9.5532 8.66285 9.5532C6.88655 9.5532 5.11026 9.5532 3.33397 9.5532C3.00604 9.5532 2.82841 9.68983 2.83524 9.92212C2.84207 10.1476 3.00604 10.2637 3.32713 10.2637C4.20845 10.2569 5.08977 10.2569 5.97108 10.2569ZM6.01207 12.4021C5.20591 12.4021 4.39974 12.4021 3.60041 12.4021C3.45011 12.4021 3.28614 12.3679 3.16317 12.4226C3.03336 12.4841 2.88306 12.6139 2.8489 12.7437C2.80108 12.935 2.95138 13.0648 3.14951 13.0989C3.22466 13.1126 3.30664 13.1058 3.38179 13.1058C5.11709 13.1058 6.85923 13.1058 8.59453 13.1058C8.66968 13.1058 8.75166 13.1058 8.82681 13.0989C9.03177 13.0716 9.14791 12.9486 9.14108 12.7437C9.13425 12.5456 9.02494 12.4363 8.83364 12.4158C8.738 12.4021 8.63552 12.4021 8.53988 12.4021C7.69955 12.4021 6.8524 12.4021 6.01207 12.4021Z" fill="#BDBDBD"/>
<path d="M14.4823 29.7833C14.373 29.7901 14.2773 29.7969 14.1817 29.7969C12.8563 29.7969 11.5309 29.7969 10.2055 29.7969C9.57016 29.7969 9.31738 29.5373 9.31738 28.902C9.31738 27.6859 9.31738 26.4698 9.31738 25.2469C9.31738 25.1512 9.31738 25.0556 9.31738 24.9395C11.0459 24.9395 12.7607 24.9395 14.4823 24.9395C14.4823 26.5586 14.4823 28.1641 14.4823 29.7833Z" fill="#BDBDBD"/>
<path d="M8.42346 1.2583C8.42346 2.02347 8.43712 2.76815 8.41662 3.51282C8.40296 3.87492 8.07503 4.16869 7.7061 4.17552C6.56518 4.18918 5.43108 4.18235 4.29015 4.17552C3.90074 4.17552 3.56597 3.88175 3.55231 3.50599C3.53181 2.76131 3.54548 2.01664 3.54548 1.2583C5.17147 1.2583 6.77697 1.2583 8.42346 1.2583Z" fill="#BDBDBD"/>
</svg>
