<svg width="26" height="27" viewBox="0 0 26 27" fill="none" xmlns="http://www.w3.org/2000/svg">
<path d="M12.7349 9.78044C11.8366 9.78044 10.9954 10.1289 10.3585 10.7658C9.7246 11.4028 9.37309 12.244 9.37309 13.1422C9.37309 14.0405 9.7246 14.8817 10.3585 15.5186C10.9954 16.1525 11.8366 16.504 12.7349 16.504C13.6332 16.504 14.4744 16.1525 15.1113 15.5186C15.7452 14.8817 16.0967 14.0405 16.0967 13.1422C16.0967 12.244 15.7452 11.4028 15.1113 10.7658C14.8002 10.4524 14.4299 10.2038 14.022 10.0347C13.614 9.8655 13.1765 9.77909 12.7349 9.78044ZM25.1215 16.8555L23.1567 15.1761C23.2499 14.6053 23.2979 14.0225 23.2979 13.4427C23.2979 12.8628 23.2499 12.277 23.1567 11.7092L25.1215 10.0298C25.27 9.90273 25.3762 9.7335 25.4261 9.5446C25.476 9.3557 25.4672 9.15608 25.4009 8.97229L25.3739 8.89418C24.8332 7.38209 24.0229 5.98049 22.9825 4.75728L22.9284 4.69419C22.8021 4.54563 22.6337 4.43885 22.4454 4.3879C22.2572 4.33695 22.0579 4.34423 21.8739 4.40878L19.4344 5.27702C18.5332 4.53797 17.5297 3.95514 16.4422 3.54956L15.9705 0.998924C15.9349 0.806777 15.8417 0.630005 15.7033 0.492095C15.5648 0.354184 15.3877 0.261663 15.1954 0.226823L15.1143 0.211802C13.5521 -0.0706006 11.9057 -0.0706006 10.3435 0.211802L10.2624 0.226823C10.0701 0.261663 9.89295 0.354184 9.7545 0.492095C9.61605 0.630005 9.52284 0.806777 9.48726 0.998924L9.01258 3.56158C7.93533 3.97039 6.9318 4.55181 6.04135 5.28303L3.58384 4.40878C3.39988 4.34372 3.20047 4.33617 3.01211 4.38715C2.82376 4.43813 2.65537 4.54522 2.52934 4.69419L2.47526 4.75728C1.43666 5.9818 0.62664 7.38305 0.0838528 8.89418L0.0568142 8.97229C-0.0783785 9.34782 0.0327801 9.76842 0.336213 10.0298L2.32505 11.7272C2.23191 12.292 2.18685 12.8688 2.18685 13.4397C2.18685 14.0165 2.23191 14.5933 2.32505 15.1521L0.342221 16.8495C0.193797 16.9766 0.0875674 17.1458 0.0376588 17.3347C-0.0122497 17.5236 -0.00347283 17.7232 0.0628227 17.907L0.0898613 17.9851C0.633636 19.4963 1.43578 20.8933 2.48127 22.122L2.53535 22.1851C2.66169 22.3337 2.83008 22.4405 3.01832 22.4914C3.20657 22.5424 3.40583 22.5351 3.58985 22.4705L6.04735 21.5963C6.94263 22.3323 7.94005 22.9152 9.01859 23.3177L9.49327 25.8804C9.52885 26.0725 9.62206 26.2493 9.76051 26.3872C9.89895 26.5251 10.0761 26.6176 10.2684 26.6525L10.3495 26.6675C11.9271 26.9514 13.5427 26.9514 15.1203 26.6675L15.2014 26.6525C15.3937 26.6176 15.5708 26.5251 15.7093 26.3872C15.8477 26.2493 15.9409 26.0725 15.9765 25.8804L16.4482 23.3298C17.5357 22.9212 18.5392 22.3413 19.4404 21.6023L21.8799 22.4705C22.0639 22.5356 22.2633 22.5431 22.4517 22.4922C22.64 22.4412 22.8084 22.3341 22.9344 22.1851L22.9885 22.122C24.034 20.8873 24.8361 19.4963 25.3799 17.9851L25.4069 17.907C25.5361 17.5345 25.425 17.1169 25.1215 16.8555ZM12.7349 18.4238C9.81773 18.4238 7.45336 16.0594 7.45336 13.1422C7.45336 10.2251 9.81773 7.8607 12.7349 7.8607C15.652 7.8607 18.0164 10.2251 18.0164 13.1422C18.0164 16.0594 15.652 18.4238 12.7349 18.4238Z" fill="#BDBDBD"/>
</svg>
