<svg width="767" height="559" viewBox="0 0 767 559" fill="none" xmlns="http://www.w3.org/2000/svg">
<path d="M561.542 216.977C561.542 209.89 567.287 204.145 574.374 204.145H652.395C659.482 204.145 665.227 209.89 665.227 216.977C665.227 224.064 659.482 229.809 652.395 229.809H574.374C567.287 229.809 561.542 224.064 561.542 216.977Z" fill="#FCF2D6"/>
<path d="M418.846 263.173C418.846 256.086 424.591 250.341 431.678 250.341H653.42C660.507 250.341 666.252 256.086 666.252 263.173C666.252 270.26 660.507 276.005 653.42 276.005H431.678C424.591 276.005 418.846 270.26 418.846 263.173Z" fill="#FCF2D6"/>
<path d="M633.403 253.421C628.475 247.24 631.35 233.051 633.403 226.729H589.26C596.651 238.53 592.34 249.44 589.26 253.421H633.403Z" fill="#FCF2D6"/>
<path d="M431.167 91.7342C431.167 84.6471 436.912 78.9019 443.999 78.9019H522.02C529.107 78.9019 534.852 84.6471 534.852 91.7342C534.852 98.8212 529.107 104.566 522.02 104.566H443.999C436.912 104.566 431.167 98.8212 431.167 91.7342Z" fill="#FCF2D6"/>
<path d="M288.471 137.93C288.471 130.843 294.216 125.098 301.303 125.098H523.045C530.132 125.098 535.877 130.843 535.877 137.93C535.877 145.018 530.132 150.763 523.045 150.763H301.303C294.216 150.763 288.471 145.018 288.471 137.93Z" fill="#FCF2D6"/>
<path d="M503.028 128.178C498.1 121.997 500.975 107.808 503.028 101.487H458.885C466.276 113.287 461.965 124.198 458.885 128.178H503.028Z" fill="#FCF2D6"/>
<path d="M220.259 209.792C220.259 202.705 229.127 196.959 240.066 196.959H360.496C371.436 196.959 380.304 202.705 380.304 209.792C380.304 216.879 371.436 222.624 360.496 222.624H240.066C229.127 222.624 220.259 216.879 220.259 209.792Z" fill="#FCF2D6"/>
<path d="M0 255.988C0 248.901 8.86814 243.156 19.8075 243.156H362.082C373.021 243.156 381.889 248.901 381.889 255.988C381.889 263.075 373.021 268.82 362.082 268.82H19.8075C8.86815 268.82 0 263.075 0 255.988Z" fill="#FCF2D6"/>
<path d="M331.181 246.236C323.575 240.055 328.012 225.866 331.181 219.544H263.043C274.452 231.345 267.797 242.255 263.043 246.236H331.181Z" fill="#FCF2D6"/>
<circle cx="386.545" cy="197.508" r="91.5282" fill="#FFE771"/>
<path fill-rule="evenodd" clip-rule="evenodd" d="M432.7 149.779C434.703 151.787 434.703 155.037 432.7 157.045L384.056 205.837C377.154 212.76 365.941 212.76 359.039 205.837L335.57 182.298C333.568 180.289 333.568 177.04 335.57 175.031C337.581 173.014 340.848 173.014 342.859 175.031L359.039 191.26C365.941 198.183 377.154 198.183 384.056 191.26L425.412 149.779C427.423 147.762 430.69 147.762 432.7 149.779Z" fill="white"/>
<path fill-rule="evenodd" clip-rule="evenodd" d="M432.7 159.413C434.703 161.422 434.703 164.671 432.7 166.68L384.056 215.471C377.154 222.394 365.941 222.394 359.039 215.471L335.57 191.932C333.568 189.924 333.568 186.674 335.57 184.666C337.581 182.649 340.848 182.649 342.859 184.666L359.039 200.895C365.941 207.818 377.154 207.818 384.056 200.895L425.412 159.413C427.423 157.397 430.69 157.397 432.7 159.413Z" fill="#FF3C69"/>
<path d="M543.062 353.513C543.062 346.426 548.808 340.681 555.895 340.681H633.915C641.002 340.681 646.748 346.426 646.748 353.513C646.748 360.6 641.002 366.345 633.915 366.345H555.895C548.808 366.345 543.062 360.6 543.062 353.513Z" fill="#FCF2D6"/>
<path d="M400.366 399.709C400.366 392.622 406.111 386.877 413.199 386.877H634.941C642.028 386.877 647.773 392.622 647.773 399.709C647.773 406.796 642.028 412.542 634.941 412.542H413.199C406.111 412.542 400.366 406.796 400.366 399.709Z" fill="#FCF2D6"/>
<path d="M614.923 389.957C609.996 383.776 612.87 369.587 614.923 363.266H570.78C578.172 375.066 573.86 385.977 570.78 389.957H614.923Z" fill="#FCF2D6"/>
<rect x="290.199" y="322.757" width="57.8073" height="25.6921" rx="12.8461" fill="#FCF2D6"/>
<rect x="267.719" y="61.0186" width="57.8073" height="25.6921" rx="12.8461" fill="#FCF2D6"/>
<circle cx="47.7298" cy="28.9036" r="21.6777" stroke="#FFE771" stroke-width="14.4518" stroke-linejoin="round" stroke-dasharray="9.63 9.63"/>
<circle r="9.23926" transform="matrix(-1 0 0 1 743.249 65.5557)" fill="#FFE771"/>
<path d="M733.66 55.9681C732.541 54.8487 732.53 53.009 733.827 52.101C735.91 50.6423 738.315 49.6794 740.857 49.3054C744.349 48.7914 747.915 49.4164 751.024 51.0877C754.134 52.7591 756.622 55.3878 758.121 58.5844C759.619 61.7809 760.048 65.3751 759.343 68.8344C758.638 72.2936 756.838 75.4338 754.208 77.7895C751.579 80.1452 748.261 81.591 744.745 81.9127C741.229 82.2344 737.704 81.4149 734.69 79.5756C732.497 78.237 730.661 76.4101 729.314 74.2527C728.476 72.9098 729.206 71.2211 730.674 70.6288C732.142 70.0365 733.786 70.7812 734.746 72.04C735.546 73.0885 736.538 73.9867 737.677 74.6823C739.639 75.8797 741.934 76.4132 744.222 76.2037C746.511 75.9943 748.671 75.0531 750.383 73.5196C752.095 71.9861 753.267 69.9419 753.725 67.6901C754.184 65.4382 753.905 63.0984 752.93 61.0175C751.954 58.9367 750.334 57.2254 748.31 56.1374C746.286 55.0494 743.965 54.6425 741.691 54.9771C740.37 55.1715 739.106 55.6102 737.96 56.2623C736.584 57.0452 734.78 57.0875 733.66 55.9681Z" fill="#FF3C69"/>
<circle r="9.23926" transform="matrix(0.5 -0.866025 -0.866025 -0.5 393.179 494.671)" fill="#FFE771"/>
<path d="M406.274 491.161C407.803 490.751 409.402 491.661 409.54 493.238C409.762 495.772 409.393 498.336 408.446 500.724C407.145 504.006 404.821 506.781 401.819 508.639C398.817 510.496 395.296 511.336 391.779 511.036C388.261 510.735 384.934 509.309 382.291 506.969C379.647 504.629 377.828 501.5 377.103 498.045C376.377 494.59 376.784 490.993 378.263 487.788C379.743 484.583 382.215 481.939 385.315 480.249C387.57 479.019 390.071 478.342 392.613 478.254C394.195 478.2 395.292 479.677 395.071 481.244C394.85 482.812 393.383 483.863 391.813 484.065C390.505 484.233 389.231 484.643 388.059 485.282C386.041 486.382 384.432 488.103 383.469 490.19C382.506 492.277 382.241 494.618 382.713 496.867C383.185 499.116 384.37 501.153 386.09 502.677C387.811 504.2 389.977 505.128 392.267 505.324C394.557 505.52 396.848 504.972 398.803 503.763C400.757 502.554 402.27 500.748 403.117 498.611C403.609 497.37 403.861 496.056 403.87 494.737C403.88 493.154 404.745 491.571 406.274 491.161Z" fill="#FF3C69"/>
<circle r="9.23926" transform="matrix(0.866025 -0.5 -0.5 -0.866025 199.06 36.7222)" fill="#FFE771"/>
<path d="M212.157 40.2316C213.686 40.6414 214.615 42.229 213.946 43.6637C212.872 45.9687 211.27 48.005 209.256 49.5998C206.488 51.7913 203.088 53.0327 199.559 53.1401C196.031 53.2474 192.561 52.2151 189.665 50.196C186.77 48.1769 184.601 45.2784 183.482 41.9303C182.363 38.5822 182.352 34.9625 183.451 31.6077C184.55 28.2529 186.701 25.3416 189.585 23.3052C192.469 21.2688 195.932 20.2156 199.461 20.3019C202.03 20.3646 204.534 21.0284 206.778 22.2235C208.176 22.9675 208.388 24.7949 207.413 26.0419C206.438 27.2889 204.641 27.4659 203.181 26.8558C201.964 26.3476 200.656 26.0656 199.321 26.033C197.024 25.9769 194.769 26.6624 192.892 27.9881C191.015 29.3137 189.614 31.209 188.899 33.3928C188.183 35.5767 188.19 37.933 188.919 40.1126C189.648 42.2922 191.059 44.179 192.944 45.4933C194.829 46.8077 197.088 47.4798 199.385 47.4099C201.682 47.34 203.896 46.5319 205.697 45.1053C206.744 44.2765 207.619 43.2645 208.286 42.1267C209.086 40.7607 210.628 39.8219 212.157 40.2316Z" fill="#FF3C69"/>
<rect x="54.4062" y="109.7" width="8.21267" height="27.7178" rx="4.10634" fill="#FFE771"/>
<rect x="72.3711" y="119.452" width="8.21267" height="27.7178" rx="4.10634" transform="rotate(90 72.3711 119.452)" fill="#FFE771"/>
<rect x="657.525" y="154.868" width="8.21267" height="27.7178" rx="4.10634" fill="#FFE771"/>
<rect x="675.488" y="164.62" width="8.21267" height="27.7178" rx="4.10634" transform="rotate(90 675.488 164.62)" fill="#FFE771"/>
<circle cx="611.35" cy="75.4704" r="9.63454" stroke="#FFE771" stroke-width="9.63454"/>
<circle cx="225.968" cy="544.352" r="9.63454" stroke="#FFE771" stroke-width="9.63454"/>
<path d="M472.01 257.094C474.763 258.98 475.492 262.745 473.476 265.404C462.964 279.264 449.29 290.411 433.578 297.875C416.053 306.201 396.633 309.641 377.339 307.839C358.046 306.037 339.586 299.057 323.879 287.627C309.795 277.378 298.388 263.887 290.586 248.314C289.091 245.331 290.5 241.763 293.554 240.419C296.631 239.064 300.206 240.481 301.735 243.475C308.655 257.029 318.663 268.775 330.973 277.734C344.924 287.886 361.322 294.085 378.458 295.686C395.595 297.287 412.844 294.231 428.41 286.836C442.139 280.314 454.115 270.628 463.389 258.596C465.446 255.928 469.23 255.19 472.01 257.094Z" fill="#FF3C69"/>
<path d="M284.359 199.114C281.377 199.114 278.945 196.694 279.091 193.716C280.072 173.751 286.478 154.402 297.657 137.804C308.819 121.233 324.268 108.104 342.284 99.8069C345.02 98.5469 348.201 99.9274 349.307 102.729C350.405 105.511 349.041 108.643 346.331 109.908C330.3 117.388 316.552 129.13 306.595 143.914C296.629 158.708 290.877 175.931 289.906 193.716C289.744 196.694 287.342 199.114 284.359 199.114Z" fill="#FF3C69"/>
<path d="M365.034 98.4858C364.306 95.2039 366.369 91.9336 369.685 91.3818C386.358 88.6077 403.473 89.795 419.657 94.8863C437.778 100.587 454.095 110.983 466.975 125.033C479.855 139.083 488.846 156.295 493.048 174.945C496.803 191.613 496.616 208.907 492.539 225.44C491.735 228.7 488.312 230.496 485.106 229.5C481.919 228.509 480.152 225.131 480.93 221.885C484.406 207.386 484.522 192.246 481.233 177.647C477.501 161.081 469.515 145.793 458.075 133.313C446.634 120.834 432.141 111.6 416.045 106.536C401.9 102.086 386.953 100.994 372.368 103.308C369.033 103.838 365.765 101.782 365.034 98.4858Z" fill="#FF3C69"/>
</svg>
