<svg width="31" height="30" viewBox="0 0 31 30" fill="none" xmlns="http://www.w3.org/2000/svg">
<path d="M25.8593 24.2148C24.1444 24.2148 22.4296 24.2148 20.6807 24.2148C20.6807 23.7161 20.6807 23.2515 20.6807 22.7801C20.6807 22.4385 20.6807 22.0901 20.6807 21.7485C20.6807 21.5299 20.5714 21.3864 20.3527 21.3796C20.1136 21.3659 19.9975 21.5162 19.9838 21.7417C19.977 21.8168 19.9838 21.8988 19.9838 21.974C19.9838 24.4471 19.9838 26.9271 19.9838 29.4002C19.9838 29.5164 19.9838 29.6325 19.9838 29.776C16.9573 29.776 13.9513 29.776 10.9042 29.776C10.9042 29.6598 10.9042 29.5437 10.9042 29.4276C10.9042 26.9408 10.9042 24.4608 10.9042 21.974C10.9042 21.892 10.9111 21.8168 10.9042 21.7417C10.8906 21.5299 10.7881 21.3796 10.5626 21.3796C10.3235 21.3796 10.2074 21.5231 10.2005 21.7553C10.1937 22.3839 10.2005 23.0124 10.2005 23.6409C10.2005 23.8186 10.2005 23.9962 10.2005 24.1943C8.47892 24.1943 6.76412 24.1943 5.05614 24.1943C5.04931 24.1807 5.02881 24.1602 5.02881 24.1465C5.04247 23.0056 4.98782 21.8646 5.08346 20.7305C5.30209 18.1686 7.44732 15.9346 9.98872 15.5656C10.6378 15.47 11.3005 15.4973 11.9563 15.4632C12.0793 15.4563 12.2091 15.4632 12.3526 15.4632C12.3526 14.9098 12.3594 14.3905 12.3458 13.8782C12.3458 13.803 12.2569 13.7142 12.1886 13.6527C11.0545 12.6484 10.4533 11.3982 10.4123 9.88149C10.4055 9.71753 10.344 9.53307 10.2552 9.39643C9.70182 8.54927 9.45592 7.6133 9.38752 6.61585C9.29872 5.22214 9.51732 3.87625 10.1459 2.61235C10.6036 1.69004 11.2458 0.931704 12.2843 0.637932C12.5439 0.562782 12.8308 0.535456 13.0973 0.54912C13.3295 0.569615 13.5072 0.514961 13.6985 0.40565C14.7233 -0.161397 15.7754 -0.0794181 16.8275 0.316832C19.2938 1.2528 21.3297 4.06072 21.4254 6.691C21.4595 7.68162 21.1931 8.59026 20.6397 9.41692C20.5509 9.54673 20.4894 9.71753 20.4825 9.87466C20.4347 11.405 19.8199 12.6621 18.6858 13.6732C18.6038 13.7483 18.5491 13.885 18.5491 13.9943C18.5355 14.4657 18.5423 14.9371 18.5423 15.4427C18.6721 15.4495 18.8019 15.4632 18.9317 15.4632C19.8335 15.4632 20.7422 15.429 21.6166 15.7228C24.001 16.5358 25.4015 18.1823 25.8183 20.6622C25.8319 20.7306 25.8524 20.792 25.8729 20.8535C25.8593 21.974 25.8593 23.0944 25.8593 24.2148ZM11.7582 8.91136C11.7787 8.91136 11.7992 8.91137 11.8197 8.9182C11.8197 9.29395 11.7992 9.66288 11.8197 10.0386C11.9153 11.8423 13.3569 13.2906 15.1742 13.4272C16.9505 13.5571 18.6311 12.3205 18.959 10.5647C19.2391 9.06167 18.8566 7.66113 18.0572 6.38356C17.8591 6.06246 17.497 5.79602 17.1486 5.62522C16.2126 5.17432 15.2152 5.00352 14.1699 5.12649C13.0153 5.26313 12.1955 5.93949 11.9427 7.07358C11.8129 7.66796 11.8129 8.29649 11.7582 8.91136ZM17.0871 14.5545C15.9667 14.9371 14.8736 14.9371 13.7736 14.5545C13.6848 15.3675 13.7736 16.0849 14.491 16.5631C15.0785 16.9525 15.6934 16.9662 16.2946 16.6041C17.0598 16.1395 17.1691 15.4017 17.0871 14.5545Z" fill="white"/>
<path d="M25.8602 29.2831C25.6689 29.6861 25.341 29.8091 24.9038 29.8023C23.6194 29.7886 22.335 29.7955 21.0437 29.7955C20.9344 29.7955 20.8319 29.7955 20.7021 29.7955C20.7021 28.1695 20.7021 26.564 20.7021 24.9175C22.4169 24.9175 24.1386 24.9175 25.8602 24.9175C25.8602 26.3727 25.8602 27.8279 25.8602 29.2831Z" fill="white"/>
<path d="M10.1649 29.7833C10.0556 29.7901 9.95992 29.7969 9.86432 29.7969C8.53892 29.7969 7.21352 29.7969 5.88812 29.7969C5.25278 29.7969 5 29.5373 5 28.902C5 27.6859 5 26.4698 5 25.2469C5 25.1512 5 25.0556 5 24.9395C6.72852 24.9395 8.44332 24.9395 10.1649 24.9395C10.1649 26.5586 10.1649 28.1641 10.1649 29.7833Z" fill="white"/>
</svg>
