<svg width="218" height="139" viewBox="0 0 218 139" fill="none" xmlns="http://www.w3.org/2000/svg">
<rect x="2" y="2" width="214" height="135" rx="8" fill="#E37048" fill-opacity="0.14" stroke="#E37048" stroke-width="4" stroke-dasharray="2 2"/>
<path d="M75 86.5888C75 73.5094 75 60.4299 75 47.3505C75.034 47.2726 75.0879 47.1987 75.1019 47.1167C76.047 41.5641 80.249 38.0035 85.8676 38.0015C101.117 37.9995 116.364 37.9995 131.614 38.0015C137.82 38.0035 142.413 42.6051 142.417 48.8191C142.421 53.4267 142.417 58.0342 142.417 62.6418C142.417 65.3632 142.425 68.0826 142.413 70.804C142.407 72.1746 141.61 73.2037 140.337 73.4834C139.178 73.7371 138.313 73.2356 137.556 72.3944C133.518 67.9127 129.466 63.443 125.422 58.9653C125.266 58.7935 125.148 58.5857 124.972 58.3399C118.488 66.588 112.12 74.6862 105.772 82.7605C105.806 82.8584 105.81 82.9083 105.834 82.9403C107.745 85.4279 109.651 87.9175 111.585 90.3871C111.723 90.565 112.064 90.6589 112.312 90.6609C115.317 90.6789 118.324 90.6689 121.329 90.6749C122.938 90.6789 124.107 91.7898 124.113 93.2963C124.117 94.8029 122.948 95.9358 121.347 95.9358C109.369 95.9398 97.3885 95.9518 85.41 95.9298C80.6326 95.9198 76.4366 92.5571 75.3017 87.9235C75.1918 87.4799 75.0999 87.0344 75 86.5888ZM102.406 78.5006C102.611 78.2468 102.751 78.079 102.887 77.9071C109.395 69.6311 115.903 61.3531 122.412 53.075C123.831 51.2707 125.515 51.2188 127.046 52.9132C130.253 56.4618 133.466 60.0063 136.673 63.5549C136.799 63.6928 136.887 63.8646 136.992 64.0205C137.046 63.9805 137.098 63.9406 137.152 63.9006C137.152 63.7068 137.152 63.515 137.152 63.3212C137.152 58.4938 137.156 53.6664 137.15 48.8391C137.148 45.5023 134.912 43.2704 131.574 43.2704C116.324 43.2684 101.073 43.2684 85.8236 43.2704C82.5208 43.2704 80.2709 45.5083 80.2689 48.7951C80.2649 60.9075 80.2649 73.0198 80.2689 85.1322C80.2689 88.423 82.5168 90.6689 85.8096 90.6709C91.9977 90.6749 98.1857 90.6729 104.374 90.6709C104.58 90.6709 104.785 90.6509 105.103 90.6329C101.187 85.5518 97.3385 80.5606 93.4543 75.5214C93.2565 75.7612 93.1006 75.937 92.9567 76.1229C91.9257 77.4596 90.9007 78.8043 89.8657 80.139C88.8407 81.4597 87.2722 81.7315 86.0514 80.8123C84.8066 79.8752 84.6587 78.2788 85.7077 76.9101C87.536 74.5244 89.3682 72.1427 91.2064 69.767C92.4692 68.1365 94.3794 68.1265 95.6482 69.749C96.811 71.2355 97.9539 72.7361 99.1048 74.2287C100.19 75.6313 101.273 77.034 102.406 78.5006Z" fill="#E37048"/>
<path d="M134.642 83.4675C134.642 83.7792 134.642 84.0149 134.642 84.2527C134.642 88.7943 134.65 93.338 134.638 97.8796C134.634 99.8557 132.893 101.15 131.121 100.527C130.04 100.147 129.379 99.1764 129.377 97.9256C129.371 93.34 129.375 88.7544 129.375 84.1668C129.375 83.929 129.375 83.6912 129.375 83.3456C129.175 83.5034 129.039 83.5913 128.925 83.7032C127.97 84.6423 127.029 85.5934 126.066 86.5225C124.905 87.6454 123.298 87.6654 122.241 86.5925C121.185 85.5175 121.226 83.909 122.369 82.7721C124.034 81.1157 125.696 79.4573 127.391 77.8329C130.098 75.2354 134.066 75.2773 136.72 77.9368C138.362 79.5832 139.97 81.2656 141.577 82.946C142.694 84.1128 142.696 85.7273 141.615 86.7703C140.53 87.8173 138.931 87.7553 137.795 86.6084C136.792 85.5954 135.802 84.5664 134.807 83.5474C134.791 83.5294 134.769 83.5254 134.642 83.4675Z" fill="#E37048"/>
<path d="M93.4309 63.2813C89.0871 63.2813 85.5265 59.7107 85.5325 55.3629C85.5385 51.0211 89.113 47.4685 93.4669 47.4825C97.7827 47.4945 101.327 51.047 101.331 55.3669C101.339 59.7167 97.7787 63.2833 93.4309 63.2813ZM93.3769 58.0143C94.8216 58.0423 96.0364 56.8774 96.0644 55.4368C96.0923 53.9882 94.9295 52.7774 93.4888 52.7494C92.0402 52.7214 90.8294 53.8823 90.8034 55.3249C90.7754 56.7755 91.9343 57.9864 93.3769 58.0143Z" fill="#E37048"/>
</svg>
