<svg width="30" height="30" viewBox="0 0 30 30" fill="none" xmlns="http://www.w3.org/2000/svg">
<rect width="30" height="30" rx="6" fill="#66D97B"/>
<path d="M14.6567 16.5C15.4851 16.5 16.1567 15.8284 16.1567 15C16.1567 14.1716 15.4851 13.5 14.6567 13.5C13.8283 13.5 13.1567 14.1716 13.1567 15C13.1567 15.8284 13.8283 16.5 14.6567 16.5Z" fill="white"/>
<path fill-rule="evenodd" clip-rule="evenodd" d="M7.5 15C8.45569 11.9572 11.2984 9.75 14.6567 9.75C18.0149 9.75 20.8576 11.9572 21.8133 15C20.8576 18.0428 18.0149 20.25 14.6566 20.25C11.2984 20.25 8.45571 18.0428 7.5 15ZM17.6567 15C17.6567 16.6569 16.3135 18 14.6567 18C12.9998 18 11.6567 16.6569 11.6567 15C11.6567 13.3431 12.9998 12 14.6567 12C16.3135 12 17.6567 13.3431 17.6567 15Z" fill="white"/>
</svg>
