<svg width="466" height="250" viewBox="0 0 466 250" fill="none" xmlns="http://www.w3.org/2000/svg">
<path d="M445.58 210.193C439.909 179.464 413.314 151.954 382.073 151.349C370.469 151.124 358.224 154.286 347.631 149.546C339.795 146.039 334.356 138.792 327.383 133.789C316.741 126.156 302.89 124.119 289.868 125.503C276.845 126.887 264.387 131.396 252.079 135.868C233.145 113.656 203.524 100.999 174.385 102.666C145.246 104.335 117.264 120.29 100.988 144.518C68.6024 144.114 37.8551 169.732 32.4044 201.659C29.6078 218.04 33.6577 235.055 42.3977 249.151H442.104C446.5 236.331 447.823 222.349 445.58 210.193Z" fill="#F6F5F5"/>
<path d="M409.372 249.466L409.009 248.836C416.331 244.614 423.042 238.257 428.952 229.941C434.55 222.064 439.21 212.61 442.427 202.602C448.828 182.69 451.083 161.462 453.231 140.911C436.135 146.132 420.044 159.835 409.014 178.592C397.859 197.56 392.025 221.449 393.005 244.135L392.28 244.167C391.294 221.345 397.166 197.31 408.389 178.225C419.624 159.12 436.083 145.209 453.548 140.058L454.069 139.904L454.012 140.443C451.842 161.201 449.599 182.667 443.119 202.824C439.88 212.903 435.185 222.426 429.545 230.361C423.573 238.764 416.785 245.192 409.372 249.466Z" fill="#E37048"/>
<path d="M394.695 245.309L393.971 245.247C394.629 237.603 397.015 229.924 401.268 221.767C405.371 213.895 410.661 206.705 414.814 201.321C415.826 200.009 416.864 198.674 417.87 197.384C426.657 186.102 435.745 174.435 440 160.21L440.697 160.418C436.404 174.773 427.273 186.494 418.445 197.829C417.439 199.12 416.4 200.453 415.39 201.764C411.258 207.124 405.991 214.28 401.915 222.102C397.706 230.172 395.345 237.762 394.695 245.309Z" fill="#E37048"/>
<path d="M413.918 207.764C412.912 207.764 411.914 207.699 410.927 207.566L411.024 206.846C415.37 207.431 419.962 206.677 424.301 204.666C428.651 202.652 432.534 199.478 435.531 195.485L436.113 195.921C433.045 200.009 429.065 203.262 424.608 205.324C421.124 206.938 417.48 207.764 413.918 207.764Z" fill="#E37048"/>
<path d="M421.078 193.439C418.698 185.07 420.33 175.011 425.235 167.811L425.835 168.22C421.046 175.249 419.452 185.07 421.775 193.24L421.078 193.439Z" fill="#E37048"/>
<path d="M434.215 249.557L433.959 248.877C442.198 245.766 449.621 239.405 454.862 230.968C459.309 223.808 462.32 215.068 463.813 204.986C454.676 205.397 445.539 209.077 438.682 215.124L438.202 214.579C445.291 208.328 454.777 204.561 464.224 204.244L464.658 204.229L464.596 204.658C463.111 215.023 460.043 224.004 455.479 231.352C450.155 239.924 442.603 246.389 434.215 249.557Z" fill="#E37048"/>
<path d="M412.122 247.632L411.812 246.973C428.24 239.252 443.44 228.13 455.769 214.809L456.301 215.303C443.91 228.693 428.634 239.872 412.122 247.632Z" fill="#E37048"/>
<path d="M348.663 250C342.294 247.609 336.489 243.145 331.88 237.091C327.637 231.52 324.47 224.748 322.723 217.508C319.263 203.183 320.901 187.904 322.708 174.707L322.788 174.117L323.276 174.459C334.879 182.59 346.878 190.997 355.581 202.595C365.273 215.511 368.716 230.695 364.79 243.214L364.097 242.996C367.952 230.7 364.551 215.76 355 203.031C346.488 191.687 334.752 183.388 323.346 175.395C321.582 188.389 320.05 203.348 323.428 217.337C325.152 224.48 328.276 231.158 332.458 236.65C336.985 242.595 342.676 246.975 348.917 249.318L348.663 250Z" fill="#E37048"/>
<path d="M330.656 187.887L330.004 188.209L358.032 244.95L358.685 244.627L330.656 187.887Z" fill="#E37048"/>
<path d="M345.241 220.516C341.535 220.516 337.805 219.533 334.424 217.661C330.895 215.709 327.986 212.921 326.009 209.601L326.634 209.229C328.544 212.438 331.359 215.134 334.776 217.024C338.192 218.914 341.974 219.866 345.706 219.782L345.722 220.51C345.561 220.515 345.401 220.516 345.241 220.516Z" fill="#E37048"/>
<path d="M72.6834 248.964C64.4059 247.263 56.668 243.146 49.6858 236.727C43.4056 230.953 38.0219 223.495 34.1144 215.159C26.544 199.006 24.2367 181.121 22.0048 163.823L21.9277 163.225L22.4924 163.436C44.0423 171.499 59.101 180.777 69.8852 192.634C83.6687 207.786 89.4998 227.676 85.1063 244.539L84.4026 244.356C88.7357 227.727 82.9666 208.096 69.3473 193.123C58.7374 181.459 43.9385 172.302 22.8024 164.329C25.0041 181.384 27.3366 198.986 34.7729 214.85C38.6402 223.101 43.9669 230.482 50.1784 236.193C57.0618 242.521 64.6824 246.578 72.8309 248.252L72.6834 248.964Z" fill="#E37048"/>
<path d="M80.2272 244.725C74.3022 233.148 67.2245 222.046 59.1883 211.724C51.1521 201.402 42.124 191.818 32.3535 183.235L32.8327 182.689C42.6367 191.302 51.6967 200.92 59.7614 211.276C67.826 221.633 74.9289 232.776 80.874 244.393L80.2272 244.725Z" fill="#E37048"/>
<path d="M54.6285 207.69C47.6797 205.262 40.798 202.4 34.1777 199.183L34.4961 198.53C41.0913 201.734 47.9462 204.585 54.8698 207.005L54.6285 207.69Z" fill="#E37048"/>
<path d="M67.4908 203.514L65.8662 219.663L66.5898 219.736L68.2144 203.587L67.4908 203.514Z" fill="#E37048"/>
<path d="M43.2338 248.767C38.9728 248.767 34.5861 247.5 30.4775 245.074C26.4024 242.667 22.701 239.212 19.7754 235.082C17.4396 231.786 14.9095 225.87 12.2519 217.498C10.2781 211.277 8.96777 205.948 8.95604 205.896L8.82031 205.338L9.38332 205.454C10.139 205.608 27.9708 209.315 34.3515 215.038L33.8656 215.58C31.2952 213.274 26.2282 210.916 19.2107 208.762C14.9765 207.461 11.198 206.593 9.80557 206.288C10.6752 209.703 15.4021 227.651 20.3702 234.663C23.2372 238.71 26.8615 242.094 30.8495 244.449C35.1843 247.009 39.829 248.241 44.2811 248.014L44.318 248.74C43.956 248.757 43.5941 248.767 43.2338 248.767Z" fill="#E37048"/>
<path d="M40.8515 239.64C33.6783 229.664 25.379 220.473 16.1816 212.324L16.6642 211.78C25.9018 219.965 34.2379 229.194 41.4414 239.214L40.8515 239.64Z" fill="#E37048"/>
<path d="M132.616 249.789L132.142 249.238C141.41 241.259 148.027 230.3 150.776 218.383C153.504 206.559 152.393 193.916 147.651 182.747C141.46 183.839 135.453 186.949 130.262 191.755C125.404 196.252 121.383 202.065 118.633 208.564C113.439 220.842 112.447 234.598 111.82 248.791L111.095 248.759C111.725 234.496 112.723 220.669 117.965 208.281C120.755 201.686 124.836 195.788 129.769 191.22C135.143 186.245 141.383 183.05 147.814 181.981L148.095 181.934L148.208 182.195C153.104 193.569 154.268 206.478 151.485 218.546C148.7 230.614 142 241.71 132.616 249.789Z" fill="#E37048"/>
<path d="M121.256 247.219L120.563 246.996C125.674 231.138 132.839 215.996 141.864 201.989L142.475 202.383C133.484 216.336 126.346 231.42 121.256 247.219Z" fill="#E37048"/>
<path d="M131.973 220.027L131.56 219.429C136.139 216.256 141.464 214.086 146.957 213.156L147.079 213.873C141.69 214.786 136.467 216.914 131.973 220.027Z" fill="#E37048"/>
<path d="M300.763 226.98C299.059 226.98 297.673 225.595 297.673 223.891C297.673 222.187 299.059 220.801 300.763 220.801C302.467 220.801 303.852 222.187 303.852 223.891C303.852 225.595 302.467 226.98 300.763 226.98ZM300.763 221.528C299.461 221.528 298.4 222.589 298.4 223.891C298.4 225.193 299.461 226.253 300.763 226.253C302.065 226.253 303.125 225.193 303.125 223.891C303.125 222.589 302.066 221.528 300.763 221.528Z" fill="#E37048"/>
<path d="M422.52 138.296C420.816 138.296 419.431 136.911 419.431 135.207C419.431 133.502 420.816 132.117 422.52 132.117C424.225 132.117 425.61 133.502 425.61 135.207C425.609 136.911 424.223 138.296 422.52 138.296ZM422.52 132.844C421.219 132.844 420.158 133.905 420.158 135.207C420.158 136.508 421.219 137.569 422.52 137.569C423.822 137.569 424.883 136.508 424.883 135.207C424.883 133.905 423.822 132.844 422.52 132.844Z" fill="#E37048"/>
<path d="M463.23 187.182C464.736 187.182 465.956 185.961 465.956 184.456C465.956 182.95 464.736 181.729 463.23 181.729C461.724 181.729 460.504 182.95 460.504 184.456C460.504 185.961 461.724 187.182 463.23 187.182Z" fill="#E37048"/>
<path d="M26.5338 136.297C28.0395 136.297 29.26 135.076 29.26 133.57C29.26 132.065 28.0395 130.844 26.5338 130.844C25.0282 130.844 23.8076 132.065 23.8076 133.57C23.8076 135.076 25.0282 136.297 26.5338 136.297Z" fill="#E37048"/>
<path d="M3.08981 184.092C1.38572 184.092 0 182.706 0 181.002C0 179.298 1.38572 177.913 3.08981 177.913C4.7939 177.913 6.17963 179.298 6.17963 181.002C6.17963 182.706 4.7939 184.092 3.08981 184.092ZM3.08981 178.64C1.78787 178.64 0.727212 179.7 0.727212 181.002C0.727212 182.304 1.78619 183.365 3.08981 183.365C4.39343 183.365 5.45241 182.304 5.45241 181.002C5.45241 179.7 4.39176 178.64 3.08981 178.64Z" fill="#E37048"/>
<path d="M171.19 219.893C169.486 219.893 168.101 218.507 168.101 216.803C168.101 215.099 169.486 213.713 171.19 213.713C172.894 213.713 174.28 215.099 174.28 216.803C174.28 218.507 172.894 219.893 171.19 219.893ZM171.19 214.441C169.888 214.441 168.828 215.501 168.828 216.803C168.828 218.105 169.887 219.166 171.19 219.166C172.494 219.166 173.553 218.105 173.553 216.803C173.553 215.501 172.492 214.441 171.19 214.441Z" fill="#E37048"/>
<path d="M57.3648 53.3674C57.3648 47.4794 49.228 42.7056 39.1912 42.7056C29.1543 42.7056 21.0176 47.4794 21.0176 53.3674C21.0176 59.2555 29.1543 64.0293 39.1912 64.0293C41.3829 64.0293 43.4841 63.8014 45.4294 63.3842C46.7884 65.0196 49.1426 66.4807 53.1104 67.3235C53.1104 67.3235 51.6543 64.6509 50.7629 61.5879C54.7961 59.6325 57.3648 56.6767 57.3648 53.3674Z" fill="white"/>
<path d="M54.1549 68.1028L52.9971 67.8565C49.4817 67.1092 46.8711 65.8072 45.2273 63.9825C43.2903 64.3746 41.2612 64.574 39.1918 64.574C34.2421 64.574 29.5805 63.4379 26.0651 61.3769C22.4592 59.2607 20.4736 56.4172 20.4736 53.3676C20.4736 50.318 22.4592 47.4745 26.0651 45.3582C29.5805 43.2955 34.2421 42.1611 39.1918 42.1611C44.1415 42.1611 48.8031 43.2972 52.3185 45.3582C55.9244 47.4745 57.91 50.318 57.91 53.3676C57.91 56.6652 55.5507 59.7466 51.417 61.8713C52.285 64.6561 53.5752 67.0388 53.5886 67.0639L54.1549 68.1028ZM45.6378 62.7811L45.849 63.0341C47.1492 64.5975 49.2471 65.7687 52.0956 66.5211C51.5812 65.4487 50.8037 63.6792 50.239 61.7389L50.11 61.2965L50.5239 61.0954C54.5236 59.1551 56.8191 56.3384 56.8191 53.3642C56.8191 47.7861 48.912 43.2486 39.1918 43.2486C29.4716 43.2486 21.5645 47.7861 21.5645 53.3642C21.5645 58.9423 29.4716 63.4798 39.1918 63.4798C41.2964 63.4798 43.3573 63.267 45.3145 62.8465L45.6378 62.7811Z" fill="#E37048" fill-opacity="0.8"/>
<path d="M49.4291 50.7017H28.7119V51.4289H49.4291V50.7017Z" fill="#E37048" fill-opacity="0.8"/>
<path d="M43.9767 54.6997H28.7119V55.4269H43.9767V54.6997Z" fill="#E37048" fill-opacity="0.8"/>
<path d="M403.324 41.0105C403.324 35.1224 411.461 30.3486 421.498 30.3486C431.535 30.3486 439.671 35.1224 439.671 41.0105C439.671 46.8986 431.535 51.6724 421.498 51.6724C419.306 51.6724 417.205 51.4445 415.26 51.0273C413.901 52.6626 411.546 54.1238 407.579 54.9666C407.579 54.9666 409.035 52.294 409.926 49.231C405.895 47.2756 403.324 44.3198 403.324 41.0105Z" fill="white"/>
<path d="M406.532 55.7456L407.099 54.7051C407.112 54.6799 408.402 52.2972 409.27 49.5124C405.137 47.3877 402.777 44.3063 402.777 41.0087C402.777 37.9591 404.763 35.1156 408.369 32.9993C411.884 30.9366 416.546 29.8022 421.496 29.8022C426.445 29.8022 431.107 30.9383 434.622 32.9993C438.228 35.1156 440.214 37.9591 440.214 41.0087C440.214 44.0583 438.228 46.9018 434.622 49.0181C431.107 51.0807 426.445 52.2151 421.496 52.2151C419.426 52.2151 417.399 52.0157 415.46 51.6236C413.816 53.4484 411.204 54.752 407.69 55.4976L406.532 55.7456ZM421.496 30.8947C411.775 30.8947 403.868 35.4323 403.868 41.0104C403.868 43.9829 406.162 46.8012 410.163 48.7416L410.577 48.9427L410.448 49.385C409.884 51.3254 409.106 53.0948 408.592 54.1672C411.44 53.4149 413.538 52.2436 414.838 50.6803L415.049 50.4273L415.373 50.4959C417.332 50.9148 419.391 51.1293 421.496 51.1293C431.216 51.1293 439.123 46.5918 439.123 41.0137C439.123 35.4356 431.216 30.8947 421.496 30.8947Z" fill="#E37048" fill-opacity="0.8"/>
<path d="M431.972 38.3447H411.255V39.0719H431.972V38.3447Z" fill="#E37048" fill-opacity="0.8"/>
<path d="M426.52 42.3428H411.255V43.07H426.52V42.3428Z" fill="#E37048" fill-opacity="0.8"/>
<path d="M263.152 177.914H199.91V249.152H263.152V177.914Z" fill="#E37048" fill-opacity="0.14"/>
<path d="M263.696 249.696H199.363V177.367H263.696V249.696ZM200.454 248.605H262.606V178.458H200.454V248.605Z" fill="#E37048" fill-opacity="0.8"/>
<path opacity="0.2" d="M263.153 177.914H199.911V208.272H263.153V177.914Z" fill="#E37048"/>
<path d="M243.434 213.203C250.01 206.627 250.01 195.964 243.434 189.388C236.858 182.812 226.196 182.812 219.619 189.388C213.043 195.964 213.043 206.627 219.619 213.203C226.196 219.779 236.858 219.779 243.434 213.203Z" fill="white"/>
<path d="M362.115 197.344H100.946C97.8611 197.344 95.3594 194.842 95.3594 191.758V6.13089C95.3594 3.04611 97.8594 0.544434 100.946 0.544434H362.115C365.2 0.544434 367.702 3.04443 367.702 6.13089V191.758C367.702 194.842 365.202 197.344 362.115 197.344Z" fill="#E37048" fill-opacity="0.14"/>
<path d="M361.642 197.889H101.416C97.775 197.889 94.8125 194.926 94.8125 191.285V6.60355C94.8125 2.96247 97.775 0 101.416 0H361.641C365.282 0 368.244 2.96247 368.244 6.60355V191.287C368.244 194.926 365.283 197.889 361.642 197.889ZM101.416 1.09082C98.3765 1.09082 95.9033 3.56401 95.9033 6.60355V191.287C95.9033 194.326 98.3765 196.8 101.416 196.8H361.641C364.68 196.8 367.153 194.326 367.153 191.287V6.60355C367.153 3.56401 364.68 1.09082 361.641 1.09082H101.416Z" fill="#E37048" fill-opacity="0.8"/>
<path d="M362.757 7.48438H100.304V169.098H362.757V7.48438Z" fill="white"/>
<path d="M363.304 169.644H99.7598V6.93994H363.304V169.644ZM100.851 168.554H362.213V8.02908H100.851V168.554Z" fill="#E37048" fill-opacity="0.8"/>
<path d="M258.884 21.6284H199.521V28.5671H258.884V21.6284Z" fill="#E37048" fill-opacity="0.14"/>
<path d="M306.164 35.3433H152.239V37.9388H306.164V35.3433Z" fill="#E37048" fill-opacity="0.14"/>
<path d="M335.772 113.009H276.384V115.605H335.772V113.009Z" fill="#222161"/>
<path d="M327.522 119.459H276.384V122.054H327.522V119.459Z" fill="#FFA900"/>
<path d="M308.639 125.908H276.384V128.504H308.639V125.908Z" fill="#02553E"/>
<path d="M328.619 137.912H276.384V140.508H328.619V137.912Z" fill="#E37048" fill-opacity="0.14"/>
<path d="M321.364 144.362H276.384V146.957H321.364V144.362Z" fill="#E37048" fill-opacity="0.14"/>
<path d="M148.016 106.645H122.809V146.157H148.016V106.645Z" fill="#E37048" fill-opacity="0.14"/>
<path d="M182.75 106.583H154.414V119.634H182.75V106.583Z" fill="#E37048" fill-opacity="0.8"/>
<path d="M182.75 125.995H154.414V146.211H182.75V125.995Z" fill="#E37048" fill-opacity="0.14"/>
<path d="M255.437 146.495H202.969C200.734 146.495 198.916 144.677 198.916 142.442V116.09C198.916 113.855 200.734 112.037 202.969 112.037H255.437C257.673 112.037 259.491 113.855 259.491 116.09V142.442C259.492 144.677 257.673 146.495 255.437 146.495ZM202.969 112.67C201.084 112.67 199.549 114.205 199.549 116.09V142.442C199.549 144.327 201.083 145.862 202.969 145.862H255.437C257.323 145.862 258.857 144.327 258.857 142.442V116.09C258.857 114.205 257.323 112.67 255.437 112.67H202.969Z" fill="#E37048" fill-opacity="0.8"/>
<path d="M205.22 139.19L204.652 138.905L208.238 131.737L212.667 136.376L217.942 124.984L225.016 131.629L232.797 123.846L240.405 128.494L250.167 118.318L250.624 118.757L240.51 129.302L232.893 124.647L225.029 132.512L218.149 126.048L212.851 137.489L208.401 132.827L205.22 139.19Z" fill="#E37048"/>
<path d="M237.924 137.726H231.898V140.898H237.924V137.726Z" fill="#E37048" fill-opacity="0.8"/>
<path d="M252.354 138.996H241.888V139.631H252.354V138.996Z" fill="#E37048"/>
<path d="M252.854 69.6422C250.726 61.7133 244.721 55.3778 236.993 52.7856L229.201 76.0061L252.854 69.6422Z" fill="#FFA900"/>
<path d="M229.2 76.006L218.358 97.9698C221.628 99.5868 225.305 100.5 229.2 100.5C242.727 100.5 253.694 89.5332 253.694 76.006C253.694 73.8043 253.399 71.6712 252.854 69.6421L229.2 76.006Z" fill="#DCFF00"/>
<path d="M236.993 52.7876C234.544 51.9666 231.926 51.5142 229.201 51.5142C215.674 51.5142 204.707 62.481 204.707 76.0081C204.707 85.6412 210.272 93.9723 218.358 97.9719L229.199 76.0081L236.993 52.7876Z" fill="#EB001B"/>
<path d="M170.029 93.207H135.528V95.8025H170.029V93.207Z" fill="#E37048" fill-opacity="0.14"/>
<path d="M183.067 87.524H122.49V52.5039H183.067V87.524ZM123.125 86.889H182.433V53.139H123.125V86.889Z" fill="#E37048" fill-opacity="0.8"/>
<path d="M178.629 60.15C176.618 59.7462 174.627 61.0565 173.356 62.6701C172.752 63.4342 172.256 64.2737 171.767 65.1182C171.224 66.0565 170.69 66.9999 170.035 67.8595C168.788 69.4932 166.853 70.8588 164.827 70.5505C161.539 70.0495 159.741 65.5371 156.417 65.5957C154.864 65.6225 153.533 66.6966 152.476 67.8377C151.417 68.9788 150.452 70.274 149.076 70.9945C147.151 72.0016 144.775 71.6748 142.779 70.8186C140.784 69.9607 139.034 68.6269 137.136 67.5679C133.957 65.7934 130.346 64.8568 126.712 64.7613V81.8926H178.848V66.1336V60.2087C178.775 60.1869 178.704 60.1651 178.629 60.15Z" fill="#E37048" fill-opacity="0.14"/>
<path d="M142.778 70.8185C144.774 71.6764 147.15 72.0015 149.075 70.9944C150.452 70.2739 151.417 68.9787 152.475 67.8376C153.532 66.6965 154.862 65.6224 156.416 65.5956C159.74 65.537 161.538 70.0494 164.826 70.5504C166.853 70.8587 168.787 69.4931 170.033 67.8594C170.689 66.9998 171.223 66.0548 171.766 65.1181C169.745 65.2103 167.726 65.3108 165.977 64.3775C164.236 63.4492 163.095 61.6379 161.359 60.6995C158.244 59.0139 154.434 60.6224 151.33 62.3282C149.475 63.3487 147.406 64.4428 145.352 63.9401C143.028 63.3704 141.665 61.0028 139.73 59.592C136.024 56.8892 130.459 58.2012 127.29 61.5222C127.289 61.5239 127.287 61.5273 127.284 61.529C126.905 61.9278 126.709 62.4388 126.709 62.9599V64.7595C130.342 64.855 133.954 65.7917 137.133 67.5662C139.033 68.6251 140.782 69.9606 142.778 70.8185Z" fill="#E37048" fill-opacity="0.8"/>
<path d="M336.08 101.548H275.411V52.458H336.08V101.548ZM276.138 100.823H335.352V53.1852H276.138V100.823Z" fill="#E37048" fill-opacity="0.8"/>
<path d="M291.794 72.9082H285.45V94.2638H291.794V72.9082Z" fill="#49AAEF"/>
<path d="M291.794 62.126H285.45V72.9085H291.794V62.126Z" fill="#BCBCBC" fill-opacity="0.14"/>
<path d="M303.211 62.126H296.867V78.1414H303.211V62.126Z" fill="#BCBCBC" fill-opacity="0.14"/>
<path d="M303.211 78.1411H296.867V94.2638H303.211V78.1411Z" fill="#222161"/>
<path d="M314.627 69.1816H308.283V94.2637H314.627V69.1816Z" fill="#FFA900"/>
<path d="M314.627 62.126H308.283V69.1819H314.627V62.126Z" fill="#BCBCBC" fill-opacity="0.14"/>
<path d="M326.047 78.5381H319.703V94.2636H326.047V78.5381Z" fill="#FF2E56"/>
<path d="M326.047 62.126H319.703V78.5385H326.047V62.126Z" fill="#BCBCBC" fill-opacity="0.14"/>
<path d="M106.616 249.15L94.7425 236.793L94.7676 227.676L80.3457 228.105L81.5371 249.15H106.616Z" fill="#E37048"/>
<path d="M94.8634 193.42L78.5078 195.602L79.1529 207.011L94.8265 206.63L94.8634 193.42Z" fill="#E28B6D"/>
<path d="M94.825 206.63L79.1514 207.01L80.3444 228.104L94.7663 227.675L94.825 206.63Z" fill="#F9B384"/>
<path d="M94.431 236.13L88.2529 239.037L88.8722 240.353L95.0503 237.446L94.431 236.13Z" fill="white"/>
<path d="M129.389 189.665L113.638 189.059L111.57 201.111L126.659 203.315L129.389 189.665Z" fill="#E28B6D"/>
<path d="M132.904 236.916L123.213 220.56L124.466 214.293C120.192 213.315 113.593 211.807 109.88 210.979L106.614 230.01L132.904 236.916Z" fill="#E37048"/>
<path d="M126.662 203.315L111.575 201.111L109.883 210.979C113.596 211.807 120.194 213.315 124.469 214.293L126.662 203.315Z" fill="#F9B384"/>
<path d="M122.982 219.857L116.863 221.917L117.327 223.296L123.446 221.236L122.982 219.857Z" fill="white"/>
<path d="M139.93 191.485C139.93 191.485 133.389 199.721 121.271 197.053C109.16 194.392 111.341 201.415 104.552 202.869C97.7689 204.323 78.8698 192.452 72.5679 203.596C72.5679 203.596 68.8162 161.4 70.5253 134.692C70.9911 127.48 71.849 121.396 73.2951 117.581L102.291 117.18L108.674 117.093C108.674 117.093 108.696 117.231 108.746 117.507C108.855 118.082 109.073 119.251 109.436 120.924C111.807 131.921 120.123 164.538 139.93 191.485Z" fill="#FBC343"/>
<path d="M109.439 120.924C102.954 125.205 89.4339 132.563 70.5264 134.692C70.9922 127.481 71.8501 121.396 73.2961 117.581L102.292 117.181L108.747 117.507C108.856 118.08 109.075 119.252 109.439 120.924Z" fill="#E49B31"/>
<path d="M77.3734 157.011L84.3604 133.305L52.6351 123.954L45.6481 147.661L77.3734 157.011Z" fill="white"/>
<path d="M77.6173 157.457L45.1943 147.901L52.3877 123.498L84.8106 133.054L77.6173 157.457ZM46.0975 147.41L77.1246 156.556L83.9075 133.546L52.8803 124.401L46.0975 147.41Z" fill="#E37048" fill-opacity="0.8"/>
<path d="M78.141 135.113L76.0605 142.172L76.7581 142.378L78.8385 135.319L78.141 135.113Z" fill="#E37048" fill-opacity="0.8"/>
<path d="M73.7823 133.828L68.7734 150.823L69.471 151.028L74.4798 134.033L73.7823 133.828Z" fill="#E37048" fill-opacity="0.8"/>
<path d="M69.4258 132.548L64.417 149.542L65.1145 149.748L70.1234 132.753L69.4258 132.548Z" fill="#E37048" fill-opacity="0.8"/>
<path d="M65.0664 131.258L60.0576 148.253L60.7552 148.459L65.764 131.464L65.0664 131.258Z" fill="#E37048" fill-opacity="0.8"/>
<path d="M60.7103 129.979L56.8828 142.965L57.5803 143.171L61.4078 130.184L60.7103 129.979Z" fill="#E37048" fill-opacity="0.8"/>
<path d="M127.016 74.2047C127.016 74.2047 127.912 65.567 128.718 65.7127C129.524 65.8585 129.435 67.9681 129.435 67.9681C129.435 67.9681 131.32 63.1507 132.197 63.1558C133.073 63.1608 132.178 65.1246 132.178 65.1246C132.178 65.1246 133.152 63.1558 133.879 63.3066C134.606 63.4591 134.01 65.1296 134.01 65.1296C134.01 65.1296 134.77 63.5144 135.506 63.8009C136.243 64.0874 135.779 65.4095 135.779 65.4095C135.779 65.4095 136.181 64.3622 136.868 65.0609C137.555 65.758 134.031 75.8719 134.031 75.8719L129.065 77.2895L127.016 74.2047Z" fill="#F9B384"/>
<path d="M134.056 75.9049C134.056 75.9049 129.723 93.7216 118.798 98.926C116.239 100.154 113.317 100.685 110.009 100.132L108.054 96.6505L95.2305 73.8405L99.7077 72.2705C99.7077 72.2705 109.768 76.0222 115.22 84.3818C115.22 84.3818 120.309 83.9025 127.09 73.7249L134.056 75.9049Z" fill="#E37048"/>
<path d="M118.799 98.9257C116.24 100.154 113.318 100.685 110.01 100.132L108.055 96.6502L108.556 88.1382C108.557 88.1382 115.972 92.3473 118.799 98.9257Z" fill="#102048"/>
<path d="M73.6641 133.299C73.6641 133.299 72.6839 141.687 71.826 141.545C70.9681 141.402 71.072 139.291 71.072 139.291C71.072 139.291 69.0428 144.119 68.1095 144.117C67.1762 144.115 68.138 142.146 68.138 142.146C68.138 142.146 67.0924 144.122 66.3183 143.973C65.5442 143.824 66.1876 142.15 66.1876 142.15C66.1876 142.15 65.3699 143.768 64.5874 143.485C63.8049 143.202 64.3025 141.877 64.3025 141.877C64.3025 141.877 63.8686 142.926 63.1413 142.23C62.4141 141.535 66.2127 131.402 66.2127 131.402L71.5076 129.961L73.6641 133.299Z" fill="#F9B384"/>
<path d="M91.0496 72.4497C69.5449 75.0553 63.2145 104.858 65.6676 132.845L73.6635 133.329C73.6635 133.329 74.9956 105.948 86.0211 92.8636L95.2285 73.8421L91.0496 72.4497Z" fill="#E37048"/>
<path d="M95.2285 73.8413L110.13 83.8966C110.13 83.8966 114.248 103.159 114.007 120.242C114.007 120.242 85.1732 130.904 70.877 119.758L82.1437 83.1694L95.2285 73.8413Z" fill="#E37048"/>
<path d="M103.784 56.4277C105.164 51.612 100.319 45.9787 91.0509 50.7642C91.0509 50.7642 81.8434 52.3393 83.4788 68.3312L93.1705 68.6948L103.784 56.4277Z" fill="#E37048"/>
<path d="M92.9886 50.4303C94.2553 45.3414 88.7275 44.5271 87.8059 47.6488C87.6836 48.0643 84.9892 46.5797 84.2352 49.006C83.3706 51.7875 86.3733 53.639 89.763 52.942L92.9886 50.4303Z" fill="#E37048"/>
<path d="M99.7096 62.6956V72.27L95.5307 78.143L91.0518 72.451L91.2914 62.5146L99.7096 62.6956Z" fill="#F9B384"/>
<path d="M99.7128 65.9683V72.111C96.7185 70.8091 95.4316 66.8764 95.4316 66.8764L99.7128 65.9683Z" fill="#E37048"/>
<path d="M103.783 56.4273C103.783 56.4273 106.761 72.1461 95.4305 66.8763L91.709 62.6052L94.0247 53.9725L99.9781 52.5181L103.783 56.4273Z" fill="#F9B384"/>
<path d="M103.785 56.4271C103.785 56.4271 101.411 52.7324 98.4417 54.5186C95.4742 56.3048 95.625 62.5749 92.5352 60.9998C89.4454 59.4248 91.2333 54.5789 91.2333 54.5789L95.7758 51.1255L100.865 51.7002L103.785 56.4271Z" fill="#E37048"/>
<path d="M92.9691 63.6968C93.9973 63.1031 94.2817 61.6708 93.6043 60.4975C92.9269 59.3243 91.5442 58.8544 90.516 59.4481C89.4878 60.0417 89.2034 61.4741 89.8808 62.6473C90.5582 63.8206 91.9409 64.2904 92.9691 63.6968Z" fill="#F9B384"/>
<path d="M95.5911 84.7467C96.3944 84.7467 97.0456 84.0956 97.0456 83.2923C97.0456 82.4891 96.3944 81.8379 95.5911 81.8379C94.7879 81.8379 94.1367 82.4891 94.1367 83.2923C94.1367 84.0956 94.7879 84.7467 95.5911 84.7467Z" fill="#102048"/>
<path d="M74.8691 122.192L74.1553 122.052C74.1653 121.999 75.2243 116.605 77.0021 110.57C79.4016 102.429 81.9016 97.0575 84.4351 94.6011L84.9411 95.1222C79.095 100.794 74.911 121.979 74.8691 122.192Z" fill="#102048"/>
<path d="M72.1721 105.027C70.8367 104.025 67.71 104.129 67.6782 104.131L67.6514 103.405C67.7904 103.4 71.0696 103.293 72.6078 104.447L72.1721 105.027Z" fill="#102048"/>
<path d="M387.567 226.979L387.324 240.79L384.174 249.149H401.257L400.288 226.616L387.567 226.979Z" fill="#E37048"/>
<path d="M362.43 228.433V239.882L348.981 249.15H376.059L374.424 227.161L362.43 228.433Z" fill="#E37048"/>
<path d="M362.873 239.307L361.992 240.464L366.051 243.553L366.932 242.396L362.873 239.307Z" fill="white"/>
<path d="M385.14 116.123L385.068 116.4L382.655 125.915L377.392 146.654C376.658 149.962 376.105 153.531 375.698 157.267C373.133 180.87 376.447 211.038 378.17 224.049C378.62 227.465 375.96 230.49 372.515 230.49H362.942C360.74 230.49 358.733 229.218 357.781 227.232C345.576 201.674 347.56 163.504 350.01 154.163C353.883 139.384 356.551 117.336 356.551 117.336L364.684 116.988L385.14 116.123Z" fill="#FFA900"/>
<path d="M403.466 223.818C403.385 227.104 400.702 229.728 397.418 229.728H389.218C386.187 229.728 383.621 227.481 383.228 224.472C381.664 212.55 377.856 182.514 375.697 157.268C374.571 144.024 373.901 132.102 374.251 124.803C374.375 122.034 374.652 119.932 375.109 118.676L385.067 116.4L395.208 114.088C395.208 114.088 397.723 116.771 400.036 131.053C402.44 145.958 404.615 173.5 403.466 223.818Z" fill="#FFA900"/>
<path d="M374.664 177.445C374.215 168.136 374.5 160.198 375.539 153.181C375.873 150.922 377.064 148.878 378.892 147.425L385.705 142.01L386.157 142.579L379.344 147.995C377.66 149.332 376.565 151.212 376.258 153.288C375.227 160.259 374.943 168.151 375.39 177.412L374.664 177.445Z" fill="#102048"/>
<path d="M354.235 180.453L354.146 179.733C358.711 179.166 362.623 179.086 366.105 179.49L366.022 180.212C362.597 179.815 358.741 179.895 354.235 180.453Z" fill="#102048"/>
<path d="M386.944 178.757L386.855 178.037C391.42 177.471 395.332 177.39 398.814 177.794L398.73 178.516C395.307 178.119 391.452 178.198 386.944 178.757Z" fill="#102048"/>
<path d="M366.875 221.854C360.658 221.854 356.052 220.746 355.981 220.73L356.156 220.024C356.261 220.049 366.841 222.59 377.535 219.882L377.714 220.586C373.939 221.541 370.179 221.854 366.875 221.854Z" fill="#102048"/>
<path d="M392.483 221.896C391.501 221.896 390.571 221.868 389.725 221.823C385.705 221.611 382.643 221.022 382.613 221.015L382.752 220.301C382.871 220.325 394.832 222.602 402.793 219.658L403.044 220.34C399.746 221.56 395.815 221.896 392.483 221.896Z" fill="#102048"/>
<path d="M400.036 131.055C395.406 128.583 389.015 126.97 382.655 125.916C379.798 125.437 376.941 125.08 374.252 124.803C365.739 123.939 358.913 123.939 358.913 123.939L364.686 116.99L385.141 116.125L385.069 116.402L395.21 114.089C395.208 114.089 397.723 116.772 400.036 131.055Z" fill="#FFBB00"/>
<path d="M372.596 61.417H364.187V75.4535H372.596V61.417Z" fill="#E28B6D"/>
<path d="M368.126 67.2533C368.126 67.2533 367.275 70.313 364.187 72.4075V66.2798L368.126 67.2533Z" fill="#102048"/>
<path d="M359.849 54.2544L359.257 60.1626C359.257 60.1626 356.506 63.8556 358.223 63.8556C360.07 63.8556 359.775 64.5945 359.775 64.5945C359.775 64.5945 358.741 72.2755 368.121 67.2537L370.115 55.7323L359.849 54.2544Z" fill="#E28B6D"/>
<path d="M359.851 54.2543C359.851 54.2543 362.399 53.9225 363.063 56.6169C363.728 59.313 364.614 60.9735 366.866 59.0918L369.341 55.0301L365.095 53.2573L359.851 54.2543Z" fill="#102048"/>
<path d="M359.851 54.2539C359.851 52.3337 362.128 47.7543 369.304 48.9741C376.163 50.1387 377.243 59.7566 373.699 64.1517C373.699 64.1517 371.89 66.9952 369.453 61.7891L365.281 56.1759L364.395 54.4031L359.851 54.2539Z" fill="#102048"/>
<path d="M369.827 61.4354C369.148 62.61 367.769 63.0826 366.744 62.4911C365.72 61.8996 365.438 60.4686 366.117 59.294C366.796 58.1194 368.175 57.6469 369.2 58.2384C370.224 58.8299 370.505 60.2608 369.827 61.4354Z" fill="#E28B6D"/>
<path d="M385.752 72.3896C401.864 77.5991 414.585 99.4071 399.684 99.7707C384.783 100.134 375.696 86.3223 375.696 86.3223L385.752 72.3896Z" fill="#E37048"/>
<path d="M314.45 89.0231C314.45 89.0231 306.49 85.5546 306.22 86.3271C305.95 87.1012 307.83 88.0613 307.83 88.0613C307.83 88.0613 302.709 87.3324 302.282 88.0982C301.857 88.8639 304.006 89.0516 304.006 89.0516C304.006 89.0516 301.813 88.931 301.587 89.6381C301.361 90.3452 303.11 90.6484 303.11 90.6484C303.11 90.6484 301.33 90.5161 301.216 91.2986C301.104 92.0811 302.483 92.3291 302.483 92.3291C302.483 92.3291 301.374 92.1649 301.644 93.1049C301.914 94.0449 312.451 95.9551 312.451 95.9551L316.128 92.3291L314.45 89.0231Z" fill="#E28B6D"/>
<path d="M394.027 121.024L358.052 124.95C355.021 125.277 352.397 122.857 352.49 119.804L352.941 104.96L353.152 98.1203L353.159 97.9527C353.159 97.9527 352.898 98.266 352.373 98.7519C352.373 98.7586 352.366 98.7587 352.358 98.767C352.016 99.0804 351.565 99.4641 351.006 99.8863C346.23 103.492 333.494 109.685 312.45 95.9537L314.449 89.0268L337.165 89.9567C337.165 89.9567 347.35 81.7278 356.393 76.0794C362.303 72.3863 369.143 70.3438 376.106 70.5264C379.253 70.6068 382.634 71.1079 385.753 72.388C393.422 75.5566 397.224 103.849 398.474 115.501C398.774 118.256 396.782 120.727 394.027 121.024Z" fill="#E37048"/>
<path d="M334.659 96.6425C334.001 92.1284 336.819 89.7725 336.94 89.6753L337.4 90.2383C337.394 90.2433 336.734 90.7946 336.159 91.8435C335.391 93.2427 335.13 94.8227 335.38 96.5386L334.659 96.6425Z" fill="#E37048"/>
<path d="M356.372 95.4072C356.372 95.4072 356.148 101.267 352.94 104.958L353.152 98.1184C354.351 97.1448 355.725 96.0037 356.372 95.4072Z" fill="#E37048"/>
<path d="M345.722 103.215L345.579 102.503C350.84 101.451 357.925 92.6357 357.997 92.5469L358.565 93.001C358.547 93.0244 356.727 95.2965 354.262 97.6709C350.926 100.883 348.052 102.75 345.722 103.215Z" fill="#E37048"/>
<path d="M461.413 248.605H7.08984V249.696H461.413V248.605Z" fill="#102048"/>
</svg>
