<svg width="93" height="93" viewBox="0 0 93 93" fill="none" xmlns="http://www.w3.org/2000/svg">
<path fill-rule="evenodd" clip-rule="evenodd" d="M46.4998 83.6998C67.0448 83.6998 83.6998 67.0448 83.6998 46.4998C83.6998 25.9548 67.0448 9.2998 46.4998 9.2998C25.9548 9.2998 9.2998 25.9548 9.2998 46.4998C9.2998 67.0448 25.9548 83.6998 46.4998 83.6998ZM40.4879 33.9118C38.6719 32.0958 35.7277 32.0958 33.9118 33.9118C32.0958 35.7277 32.0958 38.6719 33.9118 40.4878L39.9237 46.4998L33.9118 52.5117C32.0958 54.3277 32.0958 57.2719 33.9118 59.0878C35.7277 60.9038 38.6719 60.9038 40.4878 59.0878L46.4998 53.0759L52.5118 59.0878C54.3277 60.9038 57.2719 60.9038 59.0878 59.0878C60.9038 57.2719 60.9038 54.3277 59.0878 52.5118L53.0759 46.4998L59.0878 40.4878C60.9038 38.6719 60.9038 35.7277 59.0878 33.9118C57.2719 32.0958 54.3277 32.0958 52.5118 33.9118L46.4998 39.9237L40.4879 33.9118Z" fill="#EB001B"/>
</svg>
