<svg width="91" height="90" viewBox="0 0 91 90" fill="none" xmlns="http://www.w3.org/2000/svg">
<path d="M90.1481 72.3448C85.0249 72.3448 79.9017 72.3448 74.6765 72.3448C74.6765 70.8548 74.6765 69.4669 74.6765 68.0585C74.6765 67.0379 74.6765 65.997 74.6765 64.9764C74.6765 64.3232 74.3499 63.8946 73.6967 63.8742C72.9824 63.8334 72.6354 64.2824 72.5945 64.956C72.5741 65.1805 72.5945 65.4255 72.5945 65.65C72.5945 73.0388 72.5945 80.4481 72.5945 87.8369C72.5945 88.1839 72.5945 88.5309 72.5945 88.9595C63.5524 88.9595 54.5715 88.9595 45.4681 88.9595C45.4681 88.6125 45.4681 88.2656 45.4681 87.9186C45.4681 80.4889 45.4681 73.0796 45.4681 65.65C45.4681 65.405 45.4885 65.1805 45.4681 64.956C45.4273 64.3233 45.1211 63.8742 44.4475 63.8742C43.7332 63.8742 43.3862 64.3028 43.3658 64.9968C43.3453 66.8746 43.3658 68.7525 43.3658 70.6303C43.3658 71.161 43.3658 71.6917 43.3658 72.2836C38.2221 72.2836 33.0989 72.2836 27.9961 72.2836C27.9757 72.2428 27.9145 72.1815 27.9145 72.1407C27.9553 68.732 27.792 65.3234 28.0778 61.9351C28.7309 54.2809 35.1401 47.6065 42.733 46.5043C44.6721 46.2185 46.652 46.3002 48.6114 46.1981C48.9788 46.1777 49.3666 46.1981 49.7953 46.1981C49.7953 44.5448 49.8157 42.9936 49.7749 41.4627C49.7749 41.2382 49.5095 40.9729 49.3054 40.7892C45.9172 37.7887 44.121 34.0535 43.9985 29.5222C43.9781 29.0323 43.7944 28.4812 43.529 28.073C41.8757 25.542 41.1409 22.7457 40.9368 19.7657C40.6715 15.6018 41.3246 11.5808 43.2025 7.80473C44.57 5.04922 46.4887 2.78358 49.5912 1.9059C50.3668 1.68138 51.224 1.59974 52.0201 1.64056C52.7141 1.7018 53.2448 1.53851 53.8163 1.21193C56.8779 -0.482195 60.0213 -0.237271 63.1646 0.946576C70.533 3.74291 76.6155 12.1319 76.9013 19.9902C77.0033 22.9498 76.2073 25.6645 74.554 28.1342C74.2887 28.5221 74.105 29.0323 74.0846 29.5018C73.9417 34.0739 72.1047 37.8295 68.7164 40.8504C68.4715 41.0749 68.3082 41.4831 68.3082 41.8097C68.2674 43.2181 68.2878 44.6265 68.2878 46.1369C68.6756 46.1573 69.0634 46.1981 69.4512 46.1981C72.1455 46.1981 74.8602 46.0961 77.4728 46.9737C84.5963 49.4027 88.7806 54.3218 90.0257 61.731C90.0665 61.9352 90.1277 62.1188 90.189 62.3025C90.1481 65.65 90.1481 68.9974 90.1481 72.3448ZM48.0195 26.6238C48.0807 26.6238 48.142 26.6238 48.2032 26.6442C48.2032 27.7669 48.142 28.8691 48.2032 29.9917C48.489 35.3802 52.7957 39.7074 58.2251 40.1156C63.532 40.5034 68.5531 36.809 69.5329 31.5633C70.3697 27.0729 69.2267 22.8886 66.8386 19.0717C66.2467 18.1124 65.1649 17.3163 64.1239 16.8061C61.3276 15.4589 58.3475 14.9486 55.2246 15.316C51.7752 15.7243 49.3258 17.745 48.5706 21.1332C48.1828 22.909 48.1828 24.7868 48.0195 26.6238ZM63.9402 43.4835C60.5928 44.6265 57.327 44.6265 54.0408 43.4835C53.7754 45.9124 54.0408 48.0556 56.184 49.4843C57.9393 50.6478 59.7763 50.6886 61.5725 49.6068C63.8586 48.2188 64.1851 46.0144 63.9402 43.4835Z" fill="white"/>
<path d="M90.1624 87.4871C89.5909 88.6913 88.6111 89.0587 87.3048 89.0383C83.4675 88.9975 79.6302 89.0179 75.7725 89.0179C75.4459 89.0179 75.1398 89.0179 74.752 89.0179C74.752 84.16 74.752 79.3634 74.752 74.4443C79.8752 74.4443 85.0188 74.4443 90.1624 74.4443C90.1624 78.7919 90.1624 83.1395 90.1624 87.4871Z" fill="white"/>
<path d="M8.45022 3.69971C8.45022 5.86329 8.45022 7.90441 8.45022 9.92512C8.45022 12.7419 10.3076 14.5789 13.1448 14.5993C16.3085 14.5993 19.4722 14.5993 22.6564 14.5993C25.4731 14.5993 27.2897 12.7827 27.2897 9.98635C27.3101 7.98605 27.2897 6.00617 27.3101 4.00588C27.3101 3.94464 27.351 3.90382 27.4122 3.72012C28.6573 3.72012 29.9228 3.72012 31.2087 3.72012C32.0047 3.72012 32.8007 3.69972 33.5764 3.74054C34.9439 3.82218 35.7399 4.65904 35.7399 6.00618C35.7399 19.1714 35.7399 32.357 35.7399 45.5222C35.7399 46.9714 34.8827 47.8287 33.4335 47.8287C23.085 47.8491 12.7162 47.8491 2.36769 47.8287C0.857269 47.8287 0.0204112 46.9714 0 45.4814C0 32.3366 0 19.1918 0 6.04699C0 4.72027 0.693979 3.82219 1.93906 3.76095C3.77606 3.6589 5.63348 3.72012 7.4909 3.72012C7.79707 3.69971 8.08282 3.69971 8.45022 3.69971ZM17.8802 22.1922C19.411 22.1922 20.9214 22.1922 22.4523 22.1922C23.7178 22.1922 24.9833 22.1922 26.2283 22.1922C26.8815 22.1922 27.2897 21.8452 27.3101 21.1921C27.3305 20.5185 26.9019 20.1919 26.2692 20.1103C26.0038 20.0695 25.7385 20.0899 25.4731 20.0899C20.6357 20.0899 15.7982 20.0899 10.9608 20.0899C10.4913 20.0899 10.0219 20.0695 9.55242 20.1103C8.87885 20.1715 8.42981 20.5185 8.45022 21.2329C8.49104 21.8861 8.91968 22.2126 9.57283 22.2126C9.77695 22.2126 9.98106 22.2126 10.1852 22.2126C12.7774 22.1922 15.3288 22.1922 17.8802 22.1922ZM17.8394 30.6425C20.5745 30.6425 23.2891 30.6425 26.0242 30.6425C26.6774 30.6425 27.2081 30.4792 27.3101 29.7444C27.4326 28.9891 26.9019 28.5401 25.8814 28.5401C20.5745 28.5401 15.2675 28.5401 9.96065 28.5401C8.98091 28.5401 8.45022 28.9483 8.47063 29.6423C8.49104 30.3159 8.98091 30.6629 9.94024 30.6629C12.5733 30.6425 15.2063 30.6425 17.8394 30.6425ZM17.9618 37.0516C15.5533 37.0516 13.1448 37.0516 10.7567 37.0516C10.3076 37.0516 9.81777 36.9495 9.45037 37.1128C9.06256 37.2965 8.61351 37.6843 8.51146 38.0721C8.36858 38.6436 8.81762 39.0314 9.40954 39.1335C9.63407 39.1743 9.879 39.1539 10.1035 39.1539C15.288 39.1539 20.4928 39.1539 25.6772 39.1539C25.9018 39.1539 26.1467 39.1539 26.3712 39.1335C26.9836 39.0518 27.3305 38.6844 27.3101 38.0721C27.2897 37.4802 26.9631 37.1536 26.3916 37.0924C26.1059 37.0515 25.7997 37.0516 25.514 37.0516C23.0034 37.0516 20.4724 37.0516 17.9618 37.0516Z" fill="white"/>
<path d="M43.2629 88.9813C42.9363 89.0017 42.6505 89.0221 42.3648 89.0221C38.405 89.0221 34.4452 89.0221 30.4855 89.0221C28.5872 89.0221 27.832 88.2465 27.832 86.3482C27.832 82.7151 27.832 79.0819 27.832 75.4283C27.832 75.1425 27.832 74.8568 27.832 74.5098C32.9961 74.5098 38.1193 74.5098 43.2629 74.5098C43.2629 79.3472 43.2629 84.1438 43.2629 88.9813Z" fill="white"/>
<path d="M25.1709 3.76025C25.1709 6.0463 25.2117 8.27111 25.1505 10.4959C25.1097 11.5777 24.1299 12.4554 23.0277 12.4758C19.6191 12.5166 16.2308 12.4962 12.8221 12.4758C11.6587 12.4758 10.6585 11.5981 10.6177 10.4755C10.5565 8.2507 10.5973 6.02589 10.5973 3.76025C15.4552 3.76025 20.2518 3.76025 25.1709 3.76025Z" fill="white"/>
</svg>
